G04 #@! TF.GenerationSoftware,KiCad,Pcbnew,8.0.0*
G04 #@! TF.CreationDate,2024-04-09T13:51:30-05:00*
G04 #@! TF.ProjectId,esp32_example,65737033-325f-4657-9861-6d706c652e6b,rev?*
G04 #@! TF.SameCoordinates,Original*
G04 #@! TF.FileFunction,Legend,Bot*
G04 #@! TF.FilePolarity,Positive*
%FSLAX46Y46*%
G04 Gerber Fmt 4.6, Leading zero omitted, Abs format (unit mm)*
G04 Created by KiCad (PCBNEW 8.0.0) date 2024-04-09 13:51:30*
%MOMM*%
%LPD*%
G01*
G04 APERTURE LIST*
%ADD10C,0.150000*%
%ADD11C,0.120000*%
G04 APERTURE END LIST*
D10*
X224448333Y-64704819D02*
X224448333Y-65419104D01*
X224448333Y-65419104D02*
X224495952Y-65561961D01*
X224495952Y-65561961D02*
X224591190Y-65657200D01*
X224591190Y-65657200D02*
X224734047Y-65704819D01*
X224734047Y-65704819D02*
X224829285Y-65704819D01*
X223972142Y-65704819D02*
X223972142Y-64704819D01*
X223972142Y-64704819D02*
X223591190Y-64704819D01*
X223591190Y-64704819D02*
X223495952Y-64752438D01*
X223495952Y-64752438D02*
X223448333Y-64800057D01*
X223448333Y-64800057D02*
X223400714Y-64895295D01*
X223400714Y-64895295D02*
X223400714Y-65038152D01*
X223400714Y-65038152D02*
X223448333Y-65133390D01*
X223448333Y-65133390D02*
X223495952Y-65181009D01*
X223495952Y-65181009D02*
X223591190Y-65228628D01*
X223591190Y-65228628D02*
X223972142Y-65228628D01*
X222448333Y-65704819D02*
X223019761Y-65704819D01*
X222734047Y-65704819D02*
X222734047Y-64704819D01*
X222734047Y-64704819D02*
X222829285Y-64847676D01*
X222829285Y-64847676D02*
X222924523Y-64942914D01*
X222924523Y-64942914D02*
X223019761Y-64990533D01*
X173558733Y-63618219D02*
X173558733Y-64332504D01*
X173558733Y-64332504D02*
X173606352Y-64475361D01*
X173606352Y-64475361D02*
X173701590Y-64570600D01*
X173701590Y-64570600D02*
X173844447Y-64618219D01*
X173844447Y-64618219D02*
X173939685Y-64618219D01*
X173082542Y-64618219D02*
X173082542Y-63618219D01*
X173082542Y-63618219D02*
X172701590Y-63618219D01*
X172701590Y-63618219D02*
X172606352Y-63665838D01*
X172606352Y-63665838D02*
X172558733Y-63713457D01*
X172558733Y-63713457D02*
X172511114Y-63808695D01*
X172511114Y-63808695D02*
X172511114Y-63951552D01*
X172511114Y-63951552D02*
X172558733Y-64046790D01*
X172558733Y-64046790D02*
X172606352Y-64094409D01*
X172606352Y-64094409D02*
X172701590Y-64142028D01*
X172701590Y-64142028D02*
X173082542Y-64142028D01*
X172130161Y-63713457D02*
X172082542Y-63665838D01*
X172082542Y-63665838D02*
X171987304Y-63618219D01*
X171987304Y-63618219D02*
X171749209Y-63618219D01*
X171749209Y-63618219D02*
X171653971Y-63665838D01*
X171653971Y-63665838D02*
X171606352Y-63713457D01*
X171606352Y-63713457D02*
X171558733Y-63808695D01*
X171558733Y-63808695D02*
X171558733Y-63903933D01*
X171558733Y-63903933D02*
X171606352Y-64046790D01*
X171606352Y-64046790D02*
X172177780Y-64618219D01*
X172177780Y-64618219D02*
X171558733Y-64618219D01*
D11*
G04 #@! TO.C,JP1*
X222215000Y-66050000D02*
X225015000Y-66050000D01*
X222215000Y-68050000D02*
X222215000Y-66050000D01*
X225015000Y-66050000D02*
X225015000Y-68050000D01*
X225015000Y-68050000D02*
X222215000Y-68050000D01*
G04 #@! TO.C,JP2*
X170700400Y-64938400D02*
X176200400Y-64938400D01*
X170700400Y-66888400D02*
X170700400Y-64938400D01*
X174550400Y-67438400D02*
X175150400Y-67438400D01*
X174850400Y-67138400D02*
X174550400Y-67438400D01*
X175150400Y-67438400D02*
X174850400Y-67138400D01*
X176200400Y-64938400D02*
X176200400Y-66888400D01*
X176200400Y-66888400D02*
X170700400Y-66888400D01*
G04 #@! TD*
M02*
