G04 #@! TF.GenerationSoftware,KiCad,Pcbnew,8.0.0*
G04 #@! TF.CreationDate,2024-03-19T09:43:12-05:00*
G04 #@! TF.ProjectId,DesignESP32PCB,44657369-676e-4455-9350-33325043422e,rev?*
G04 #@! TF.SameCoordinates,Original*
G04 #@! TF.FileFunction,Copper,L2,Bot*
G04 #@! TF.FilePolarity,Positive*
%FSLAX46Y46*%
G04 Gerber Fmt 4.6, Leading zero omitted, Abs format (unit mm)*
G04 Created by KiCad (PCBNEW 8.0.0) date 2024-03-19 09:43:12*
%MOMM*%
%LPD*%
G01*
G04 APERTURE LIST*
G04 #@! TA.AperFunction,ComponentPad*
%ADD10R,1.700000X1.700000*%
G04 #@! TD*
G04 #@! TA.AperFunction,ComponentPad*
%ADD11O,1.700000X1.700000*%
G04 #@! TD*
G04 #@! TA.AperFunction,ComponentPad*
%ADD12C,2.000000*%
G04 #@! TD*
G04 #@! TA.AperFunction,HeatsinkPad*
%ADD13C,0.900000*%
G04 #@! TD*
G04 #@! TA.AperFunction,ComponentPad*
%ADD14C,1.300000*%
G04 #@! TD*
G04 #@! TA.AperFunction,ComponentPad*
%ADD15C,1.600000*%
G04 #@! TD*
G04 #@! TA.AperFunction,ComponentPad*
%ADD16O,2.300000X1.200000*%
G04 #@! TD*
G04 #@! TA.AperFunction,ComponentPad*
%ADD17O,2.000000X1.200000*%
G04 #@! TD*
G04 #@! TA.AperFunction,ViaPad*
%ADD18C,1.000000*%
G04 #@! TD*
G04 #@! TA.AperFunction,Conductor*
%ADD19C,0.300000*%
G04 #@! TD*
G04 #@! TA.AperFunction,Conductor*
%ADD20C,0.250000*%
G04 #@! TD*
G04 #@! TA.AperFunction,Conductor*
%ADD21C,0.350000*%
G04 #@! TD*
G04 #@! TA.AperFunction,Conductor*
%ADD22C,0.200000*%
G04 #@! TD*
G04 APERTURE END LIST*
D10*
G04 #@! TO.P,J2,1,Pin_1*
G04 #@! TO.N,/RTS*
X139674600Y-104576800D03*
D11*
G04 #@! TO.P,J2,2,Pin_2*
G04 #@! TO.N,/DTR*
X139674600Y-107116800D03*
G04 #@! TO.P,J2,3,Pin_3*
G04 #@! TO.N,/TX*
X139674600Y-109656800D03*
G04 #@! TO.P,J2,4,Pin_4*
G04 #@! TO.N,/RX*
X139674600Y-112196800D03*
G04 #@! TO.P,J2,5,Pin_5*
G04 #@! TO.N,GND*
X139674600Y-114736800D03*
G04 #@! TD*
D12*
G04 #@! TO.P,SW3,1,1*
G04 #@! TO.N,/3V3*
X93418000Y-50038000D03*
G04 #@! TO.P,SW3,2,2*
G04 #@! TO.N,unconnected-(SW3-Pad2)*
X105918000Y-50038000D03*
G04 #@! TO.P,SW3,3,3*
G04 #@! TO.N,unconnected-(SW3-Pad3)*
X93418000Y-55038000D03*
G04 #@! TO.P,SW3,4,4*
G04 #@! TO.N,Net-(R18-Pad1)*
X105918000Y-55038000D03*
G04 #@! TD*
D13*
G04 #@! TO.P,U2,41,GND*
G04 #@! TO.N,GND*
X121574000Y-88033000D03*
X122974000Y-88033000D03*
X120874000Y-87333000D03*
X122274000Y-87333000D03*
X123674000Y-87333000D03*
X121574000Y-86633000D03*
X122974000Y-86633000D03*
X120874000Y-85933000D03*
X122274000Y-85933000D03*
X123674000Y-85933000D03*
X121574000Y-85233000D03*
X122974000Y-85233000D03*
G04 #@! TD*
D12*
G04 #@! TO.P,SW2,1,1*
G04 #@! TO.N,GND*
X109828000Y-115091901D03*
G04 #@! TO.P,SW2,2,2*
G04 #@! TO.N,unconnected-(SW2-Pad2)*
X122328000Y-115091901D03*
G04 #@! TO.P,SW2,3,3*
G04 #@! TO.N,Net-(C2-Pad1)*
X109828000Y-120091901D03*
G04 #@! TO.P,SW2,4,4*
G04 #@! TO.N,/GPIO0_STRAPPING*
X122328000Y-120091901D03*
G04 #@! TD*
G04 #@! TO.P,SW4,1,1*
G04 #@! TO.N,/3V3*
X110182000Y-50038000D03*
G04 #@! TO.P,SW4,2,2*
G04 #@! TO.N,unconnected-(SW4-Pad2)*
X122682000Y-50038000D03*
G04 #@! TO.P,SW4,3,3*
G04 #@! TO.N,unconnected-(SW4-Pad3)*
X110182000Y-55038000D03*
G04 #@! TO.P,SW4,4,4*
G04 #@! TO.N,Net-(R19-Pad1)*
X122682000Y-55038000D03*
G04 #@! TD*
G04 #@! TO.P,SW1,1,1*
G04 #@! TO.N,GND*
X93064000Y-115091901D03*
G04 #@! TO.P,SW1,2,2*
G04 #@! TO.N,unconnected-(SW1-Pad2)*
X105564000Y-115091901D03*
G04 #@! TO.P,SW1,3,3*
G04 #@! TO.N,Net-(C1-Pad1)*
X93064000Y-120091901D03*
G04 #@! TO.P,SW1,4,4*
G04 #@! TO.N,/ESP32_EN*
X105564000Y-120091901D03*
G04 #@! TD*
D14*
G04 #@! TO.P,J1,1,1*
G04 #@! TO.N,/CS*
X129100000Y-120000000D03*
G04 #@! TO.P,J1,2,2*
G04 #@! TO.N,/MOSI*
X130200000Y-118900000D03*
G04 #@! TO.P,J1,3,3*
G04 #@! TO.N,GND*
X131300000Y-120000000D03*
G04 #@! TO.P,J1,4,4*
G04 #@! TO.N,/3V3*
X132400000Y-118900000D03*
G04 #@! TO.P,J1,5,5*
G04 #@! TO.N,/SCLK*
X133500000Y-120000000D03*
G04 #@! TO.P,J1,6,6*
G04 #@! TO.N,GND*
X134600000Y-118900000D03*
G04 #@! TO.P,J1,7,7*
G04 #@! TO.N,/MISO*
X135700000Y-120000000D03*
G04 #@! TO.P,J1,8,8*
G04 #@! TO.N,unconnected-(J1-Pad8)*
X136800000Y-118900000D03*
D15*
G04 #@! TO.P,J1,MH1,MH1*
G04 #@! TO.N,unconnected-(J1-PadMH1)*
X128650000Y-123170000D03*
G04 #@! TO.P,J1,MH2,MH2*
G04 #@! TO.N,unconnected-(J1-PadMH2)*
X137250000Y-123170000D03*
G04 #@! TD*
D10*
G04 #@! TO.P,J3,1,Pin_1*
G04 #@! TO.N,/GPIO1*
X138709400Y-73812400D03*
D11*
G04 #@! TO.P,J3,2,Pin_2*
G04 #@! TO.N,GND*
X141249400Y-73812400D03*
G04 #@! TO.P,J3,3,Pin_3*
G04 #@! TO.N,/GPIO2*
X138709400Y-76352400D03*
G04 #@! TO.P,J3,4,Pin_4*
G04 #@! TO.N,GND*
X141249400Y-76352400D03*
G04 #@! TO.P,J3,5,Pin_5*
G04 #@! TO.N,/GPIO3*
X138709400Y-78892400D03*
G04 #@! TO.P,J3,6,Pin_6*
G04 #@! TO.N,GND*
X141249400Y-78892400D03*
G04 #@! TO.P,J3,7,Pin_7*
G04 #@! TO.N,/GPIO6*
X138709400Y-81432400D03*
G04 #@! TO.P,J3,8,Pin_8*
G04 #@! TO.N,GND*
X141249400Y-81432400D03*
G04 #@! TO.P,J3,9,Pin_9*
G04 #@! TO.N,/GPIO7*
X138709400Y-83972400D03*
G04 #@! TO.P,J3,10,Pin_10*
G04 #@! TO.N,GND*
X141249400Y-83972400D03*
G04 #@! TO.P,J3,11,Pin_11*
G04 #@! TO.N,/GPIO8*
X138709400Y-86512400D03*
G04 #@! TO.P,J3,12,Pin_12*
G04 #@! TO.N,GND*
X141249400Y-86512400D03*
G04 #@! TO.P,J3,13,Pin_13*
G04 #@! TO.N,/GPIO11*
X138709400Y-89052400D03*
G04 #@! TO.P,J3,14,Pin_14*
G04 #@! TO.N,GND*
X141249400Y-89052400D03*
G04 #@! TO.P,J3,15,Pin_15*
G04 #@! TO.N,/GPIO12*
X138709400Y-91592400D03*
G04 #@! TO.P,J3,16,Pin_16*
G04 #@! TO.N,GND*
X141249400Y-91592400D03*
G04 #@! TO.P,J3,17,Pin_17*
G04 #@! TO.N,/GPIO21*
X138709400Y-94132400D03*
G04 #@! TO.P,J3,18,Pin_18*
G04 #@! TO.N,GND*
X141249400Y-94132400D03*
G04 #@! TO.P,J3,19,Pin_19*
G04 #@! TO.N,/GPIO10*
X138709400Y-96672400D03*
G04 #@! TO.P,J3,20,Pin_20*
G04 #@! TO.N,GND*
X141249400Y-96672400D03*
G04 #@! TD*
D16*
G04 #@! TO.P,JUSB1,S1,SHIELD*
G04 #@! TO.N,GND*
X136395000Y-57820000D03*
D17*
X140575000Y-57820000D03*
D16*
X136395000Y-49180000D03*
D17*
X140575000Y-49180000D03*
G04 #@! TD*
D18*
G04 #@! TO.N,GND*
X125222000Y-58039000D03*
X140030200Y-65405000D03*
X124714000Y-100355400D03*
X118135400Y-97256600D03*
X116941600Y-82092800D03*
X140563600Y-56032400D03*
X140614400Y-59563000D03*
X124587000Y-71170800D03*
X122504200Y-104394000D03*
X136779000Y-59740800D03*
X116941600Y-78435200D03*
G04 #@! TO.N,/ESP32_EN*
X115661164Y-96406346D03*
X107594400Y-122783600D03*
X117017800Y-100330000D03*
G04 #@! TO.N,/3V3*
X134213600Y-104394000D03*
X128150000Y-97250000D03*
X116650000Y-102330000D03*
X134506200Y-96596200D03*
X114706400Y-90932000D03*
X125171200Y-101803200D03*
X124500000Y-118000000D03*
X120942000Y-103098000D03*
G04 #@! TO.N,/5VUSB*
X133654800Y-46329600D03*
X133654800Y-55422800D03*
G04 #@! TO.N,/MOSI*
X129387200Y-83333742D03*
G04 #@! TO.N,/MISO*
X125000000Y-96000000D03*
G04 #@! TO.N,/SCLK*
X123500000Y-95500000D03*
G04 #@! TO.N,/CS*
X129463800Y-84531200D03*
G04 #@! TO.N,/USB_N*
X132003800Y-50952400D03*
X133680200Y-54102000D03*
G04 #@! TO.N,/GPIO1*
X125984000Y-92379800D03*
X136144000Y-73787000D03*
G04 #@! TO.N,/GPIO2*
X127254000Y-92354400D03*
X136169400Y-76377800D03*
G04 #@! TO.N,/GPIO3*
X136169400Y-78867000D03*
X132638800Y-85750400D03*
G04 #@! TO.N,/GPIO6*
X132664200Y-87045800D03*
X136118600Y-81483200D03*
G04 #@! TO.N,/GPIO7*
X132638800Y-88290400D03*
X136144000Y-83947000D03*
G04 #@! TO.N,/GPIO8*
X123418600Y-92329000D03*
X136169400Y-86512400D03*
G04 #@! TO.N,/GPIO11*
X132613400Y-89585800D03*
X136144000Y-89077800D03*
G04 #@! TO.N,/GPIO12*
X136169400Y-91592400D03*
X122174000Y-92354400D03*
G04 #@! TO.N,/GPIO21*
X128562200Y-92341600D03*
X136169400Y-94107000D03*
G04 #@! TO.N,/RX*
X130239000Y-77833002D03*
G04 #@! TO.N,/TX*
X130239000Y-79045636D03*
G04 #@! TO.N,/RTS*
X136906000Y-110337600D03*
X138455400Y-116687600D03*
G04 #@! TO.N,/GPIO0_STRAPPING*
X122140913Y-80088185D03*
X121615200Y-98806000D03*
X119380000Y-119989600D03*
X117710000Y-85699600D03*
X117710000Y-91760000D03*
X129235200Y-111810800D03*
G04 #@! TO.N,/GPIO46_STRAPPING*
X119545936Y-72198664D03*
X122999000Y-72136000D03*
G04 #@! TO.N,/GPIO3_STRAPPING*
X117800000Y-72190000D03*
X126520000Y-63930000D03*
G04 #@! TD*
D19*
G04 #@! TO.N,GND*
X127370000Y-68387800D02*
X127370000Y-60187000D01*
D20*
X123647200Y-101396800D02*
X124688600Y-100355400D01*
X118135400Y-97256600D02*
X122504200Y-101625400D01*
X123647200Y-103251000D02*
X123647200Y-101396800D01*
X140614400Y-59563000D02*
X140614400Y-64820800D01*
X140614400Y-64820800D02*
X140030200Y-65405000D01*
X140575000Y-57820000D02*
X140575000Y-56043800D01*
X137160000Y-60121800D02*
X136779000Y-59740800D01*
X140614400Y-59563000D02*
X140335000Y-59842400D01*
X140575000Y-56043800D02*
X140563600Y-56032400D01*
X116941600Y-82092800D02*
X116941600Y-78435200D01*
X140614400Y-59563000D02*
X140055600Y-60121800D01*
D19*
X124587000Y-71170800D02*
X127370000Y-68387800D01*
X127370000Y-60187000D02*
X125222000Y-58039000D01*
D20*
X122504200Y-104394000D02*
X123647200Y-103251000D01*
X122504200Y-101625400D02*
X122504200Y-104394000D01*
X140055600Y-60121800D02*
X137160000Y-60121800D01*
G04 #@! TO.N,/ESP32_EN*
X109816400Y-122783600D02*
X107594400Y-122783600D01*
X115661164Y-96406346D02*
X115558755Y-96508755D01*
X115558755Y-98870955D02*
X117017800Y-100330000D01*
X114753002Y-97314508D02*
X114753002Y-117846998D01*
X115558755Y-96508755D02*
X115558755Y-98870955D01*
X114753002Y-117846998D02*
X109816400Y-122783600D01*
X115661164Y-96406346D02*
X114753002Y-97314508D01*
D19*
G04 #@! TO.N,/3V3*
X132400000Y-118900000D02*
X131752400Y-118900000D01*
D21*
X125525000Y-94625000D02*
X121087563Y-94625000D01*
X116800000Y-91432563D02*
X116800000Y-97325363D01*
X124500000Y-118000000D02*
X124475000Y-117975000D01*
D19*
X131752400Y-118900000D02*
X130052400Y-117200000D01*
D21*
X121087563Y-94625000D02*
X118585000Y-92122437D01*
D19*
X125300000Y-117200000D02*
X124500000Y-118000000D01*
D21*
X120942000Y-101467363D02*
X120942000Y-103098000D01*
D19*
X130052400Y-117200000D02*
X125300000Y-117200000D01*
D21*
X116800000Y-97325363D02*
X120942000Y-101467363D01*
X117347563Y-90885000D02*
X116800000Y-91432563D01*
X128150000Y-97250000D02*
X125525000Y-94625000D01*
X124525000Y-117975000D02*
X124500000Y-118000000D01*
X118585000Y-92122437D02*
X118585000Y-91397563D01*
X118585000Y-91397563D02*
X118072437Y-90885000D01*
D20*
X134213600Y-104394000D02*
X134213600Y-96647000D01*
D21*
X124475000Y-117975000D02*
X124444901Y-117975000D01*
D20*
X134213600Y-96647000D02*
X134264400Y-96596200D01*
D21*
X118072437Y-90885000D02*
X117347563Y-90885000D01*
D20*
G04 #@! TO.N,/5VUSB*
X133654800Y-55422800D02*
X134823200Y-54254400D01*
X134823200Y-47498000D02*
X133654800Y-46329600D01*
X134823200Y-54254400D02*
X134823200Y-47498000D01*
D19*
G04 #@! TO.N,/MOSI*
X138320400Y-119500920D02*
X136315720Y-121505600D01*
X138320400Y-118299080D02*
X138320400Y-119500920D01*
X130014600Y-109408219D02*
X132851800Y-112245420D01*
X128449999Y-118250001D02*
X129550001Y-118250001D01*
X130313800Y-85866082D02*
X130014600Y-86165282D01*
X128100000Y-118600000D02*
X128449999Y-118250001D01*
X130313800Y-84179118D02*
X130313800Y-85866082D01*
X128100000Y-120414214D02*
X128100000Y-118600000D01*
X132851800Y-112245420D02*
X132851800Y-112830480D01*
X129387200Y-83333742D02*
X129734658Y-83681200D01*
X129734658Y-83681200D02*
X129815882Y-83681200D01*
X132851800Y-112830480D02*
X138320400Y-118299080D01*
X129191386Y-121505600D02*
X128100000Y-120414214D01*
X136315720Y-121505600D02*
X129191386Y-121505600D01*
X129815882Y-83681200D02*
X130313800Y-84179118D01*
X130014600Y-86165282D02*
X130014600Y-109408219D01*
X129550001Y-118250001D02*
X130200000Y-118900000D01*
G04 #@! TO.N,/MISO*
X135525000Y-119825000D02*
X135700000Y-120000000D01*
X135700000Y-120000000D02*
X135700000Y-118301000D01*
X131876800Y-114477800D02*
X131876800Y-114050000D01*
D20*
X127850000Y-108622477D02*
X127850000Y-98850000D01*
X127850000Y-98850000D02*
X125000000Y-96000000D01*
D19*
X135700000Y-118301000D02*
X131876800Y-114477800D01*
D20*
X131876800Y-114050000D02*
X131876800Y-112649277D01*
X131876800Y-112649277D02*
X127850000Y-108622477D01*
G04 #@! TO.N,/SCLK*
X127400000Y-108858000D02*
X127400000Y-101000000D01*
X127449127Y-108858000D02*
X127400000Y-108858000D01*
X127400000Y-101000000D02*
X123500000Y-97100000D01*
X123500000Y-97100000D02*
X123500000Y-95500000D01*
X133500000Y-117518000D02*
X131242000Y-115260000D01*
X131242000Y-112650873D02*
X127449127Y-108858000D01*
X131242000Y-115260000D02*
X131242000Y-112650873D01*
X133500000Y-120000000D02*
X133500000Y-117518000D01*
D19*
G04 #@! TO.N,/CS*
X129463800Y-84531200D02*
X129514600Y-84582000D01*
X129514600Y-84582000D02*
X129514600Y-109615325D01*
X132351800Y-113037586D02*
X137820400Y-118506186D01*
X137820400Y-119293814D02*
X136108614Y-121005600D01*
X130105600Y-121005600D02*
X129100000Y-120000000D01*
X129514600Y-109615325D02*
X132351800Y-112452526D01*
X136108614Y-121005600D02*
X130105600Y-121005600D01*
X137820400Y-118506186D02*
X137820400Y-119293814D01*
X132351800Y-112452526D02*
X132351800Y-113037586D01*
D22*
G04 #@! TO.N,/USB_N*
X133680200Y-54102000D02*
X132003800Y-52425600D01*
X132003800Y-52425600D02*
X132003800Y-50952400D01*
D20*
G04 #@! TO.N,/GPIO1*
X132844792Y-77520800D02*
X131431994Y-76108002D01*
X134019705Y-77520800D02*
X132844792Y-77520800D01*
X131431994Y-76108002D02*
X129504998Y-76108002D01*
X127662200Y-90701600D02*
X125984000Y-92379800D01*
X135915400Y-73685400D02*
X135204200Y-74396600D01*
X127662200Y-77950800D02*
X127662200Y-90701600D01*
X135915400Y-73685400D02*
X135804495Y-73685400D01*
X135204200Y-76336305D02*
X134019705Y-77520800D01*
X135204200Y-74396600D02*
X135204200Y-76336305D01*
X129504998Y-76108002D02*
X127662200Y-77950800D01*
G04 #@! TO.N,/GPIO2*
X129710877Y-76558002D02*
X128112200Y-78156679D01*
X128112200Y-91496200D02*
X127254000Y-92354400D01*
X135940800Y-76276200D02*
X134213600Y-78003400D01*
X131245598Y-76558002D02*
X129710877Y-76558002D01*
X134213600Y-78003400D02*
X132690996Y-78003400D01*
X128112200Y-78156679D02*
X128112200Y-91496200D01*
X132690996Y-78003400D02*
X131245598Y-76558002D01*
G04 #@! TO.N,/GPIO3*
X132638800Y-81956495D02*
X132638800Y-85750400D01*
X135940800Y-78765400D02*
X135829895Y-78765400D01*
X135829895Y-78765400D02*
X132638800Y-81956495D01*
G04 #@! TO.N,/GPIO6*
X133731000Y-85979000D02*
X132664200Y-87045800D01*
X135661400Y-81381600D02*
X133731000Y-83312000D01*
X133731000Y-83312000D02*
X133731000Y-85979000D01*
X135890000Y-81381600D02*
X135661400Y-81381600D01*
G04 #@! TO.N,/GPIO7*
X133410105Y-88290400D02*
X132638800Y-88290400D01*
X134989400Y-86711105D02*
X133410105Y-88290400D01*
X135915400Y-83845400D02*
X134989400Y-84771400D01*
X134989400Y-84771400D02*
X134989400Y-86711105D01*
G04 #@! TO.N,/GPIO8*
X123418600Y-92329000D02*
X124206000Y-91541600D01*
X136396327Y-72872600D02*
X136994400Y-73470673D01*
X136994400Y-85357200D02*
X135940800Y-86410800D01*
X136994400Y-73470673D02*
X136994400Y-85357200D01*
X132080000Y-72872600D02*
X136396327Y-72872600D01*
X127212200Y-90237200D02*
X127212200Y-77740400D01*
X124206000Y-91541600D02*
X125907800Y-91541600D01*
X125907800Y-91541600D02*
X127212200Y-90237200D01*
X127212200Y-77740400D02*
X132080000Y-72872600D01*
G04 #@! TO.N,/GPIO11*
X132613400Y-89585800D02*
X132678000Y-89650400D01*
X135241200Y-89650400D02*
X135915400Y-88976200D01*
X132678000Y-89650400D02*
X135241200Y-89650400D01*
G04 #@! TO.N,/GPIO12*
X137534400Y-89884000D02*
X137534400Y-73247000D01*
X137541000Y-89890600D02*
X137534400Y-89884000D01*
X136321800Y-72034400D02*
X132281804Y-72034400D01*
X124536200Y-89992200D02*
X122174000Y-92354400D01*
X137534400Y-73247000D02*
X136321800Y-72034400D01*
X132281804Y-72034400D02*
X124536200Y-79780004D01*
X135940800Y-91490800D02*
X137541000Y-89890600D01*
X124536200Y-79780004D02*
X124536200Y-89992200D01*
G04 #@! TO.N,/GPIO21*
X130657600Y-82093912D02*
X131738800Y-83175113D01*
X131738800Y-83175113D02*
X131738800Y-93080000D01*
X131738800Y-93080000D02*
X131953000Y-93294200D01*
X130657600Y-80430159D02*
X130657600Y-82093912D01*
X131059202Y-77008002D02*
X131514000Y-77462800D01*
X128562200Y-78343075D02*
X129897273Y-77008002D01*
X131514000Y-79573759D02*
X130657600Y-80430159D01*
X131953000Y-93294200D02*
X135229600Y-93294200D01*
X135229600Y-93294200D02*
X135940800Y-94005400D01*
X129897273Y-77008002D02*
X131059202Y-77008002D01*
X128562200Y-92341600D02*
X128562200Y-78343075D01*
X131514000Y-77462800D02*
X131514000Y-79573759D01*
G04 #@! TO.N,/RX*
X131288800Y-83361509D02*
X131288800Y-107108000D01*
X132662600Y-108481800D02*
X140161301Y-108481800D01*
X140161301Y-108481800D02*
X140849600Y-109170099D01*
X130175000Y-82247708D02*
X131288800Y-83361509D01*
X131064000Y-79387363D02*
X130175000Y-80276363D01*
X140849600Y-109170099D02*
X140849600Y-111021800D01*
X140849600Y-111021800D02*
X139674600Y-112196800D01*
X130175000Y-80276363D02*
X130175000Y-82247708D01*
X130239000Y-77833002D02*
X131064000Y-78658002D01*
X131288800Y-107108000D02*
X132662600Y-108481800D01*
X131064000Y-78658002D02*
X131064000Y-79387363D01*
D19*
G04 #@! TO.N,/TX*
X130239000Y-79045636D02*
X129667000Y-79617636D01*
X130813800Y-86073189D02*
X130657600Y-86229389D01*
X130657600Y-86229389D02*
X130657600Y-107670600D01*
X130657600Y-107670600D02*
X132474600Y-109487600D01*
X139505400Y-109487600D02*
X139674600Y-109656800D01*
X129667000Y-82411460D02*
X130813800Y-83558260D01*
X132474600Y-109487600D02*
X139505400Y-109487600D01*
X130813800Y-83558260D02*
X130813800Y-86073189D01*
X129667000Y-79617636D02*
X129667000Y-82411460D01*
D20*
G04 #@! TO.N,/RTS*
X138404600Y-116738400D02*
X138404600Y-116967000D01*
X136906000Y-115138200D02*
X136906000Y-110337600D01*
X138455400Y-116687600D02*
X138404600Y-116738400D01*
X138455400Y-116687600D02*
X136906000Y-115138200D01*
G04 #@! TO.N,/GPIO0_STRAPPING*
X121056400Y-119989600D02*
X119380000Y-119989600D01*
D19*
X124434600Y-98806000D02*
X126925000Y-101296400D01*
X117714800Y-94905600D02*
X117714800Y-91834800D01*
X117640000Y-91760000D02*
X117670000Y-91790000D01*
X117710000Y-84519098D02*
X122140913Y-80088185D01*
X117710000Y-91760000D02*
X117640000Y-91760000D01*
X117710000Y-85699600D02*
X117710000Y-84519098D01*
D20*
X129235200Y-111810800D02*
X121056400Y-119989600D01*
D19*
X121615200Y-98806000D02*
X121742000Y-98932800D01*
X117714800Y-91834800D02*
X117710000Y-91830000D01*
X121615200Y-98806000D02*
X117714800Y-94905600D01*
X117710000Y-91830000D02*
X117710000Y-91760000D01*
X121615200Y-98806000D02*
X124434600Y-98806000D01*
X126925000Y-109500600D02*
X129235200Y-111810800D01*
X126925000Y-101296400D02*
X126925000Y-109500600D01*
D20*
G04 #@! TO.N,/GPIO46_STRAPPING*
X119545936Y-72198664D02*
X119500000Y-72244600D01*
X122936336Y-72198664D02*
X119545936Y-72198664D01*
X122999000Y-72136000D02*
X122936336Y-72198664D01*
G04 #@! TO.N,/GPIO3_STRAPPING*
X126520000Y-63930000D02*
X126060000Y-63930000D01*
X126060000Y-63930000D02*
X117800000Y-72190000D01*
X117800000Y-72190000D02*
X117840000Y-72150000D01*
G04 #@! TD*
G04 #@! TA.AperFunction,Conductor*
G04 #@! TO.N,/3V3*
G36*
X142807339Y-44516185D02*
G01*
X142853094Y-44568989D01*
X142864300Y-44620500D01*
X142864300Y-77832690D01*
X142864298Y-77833305D01*
X142846821Y-81356330D01*
X142826805Y-81423271D01*
X142812794Y-81435290D01*
X142843585Y-81493869D01*
X142846014Y-81518917D01*
X142834897Y-83760043D01*
X142814881Y-83826984D01*
X142761850Y-83872476D01*
X142692643Y-83882077D01*
X142629232Y-83852737D01*
X142591750Y-83793772D01*
X142587371Y-83770234D01*
X142584463Y-83736992D01*
X142535809Y-83555412D01*
X142523305Y-83508744D01*
X142523304Y-83508743D01*
X142523303Y-83508737D01*
X142423435Y-83294571D01*
X142417825Y-83286558D01*
X142287894Y-83100997D01*
X142120802Y-82933906D01*
X142120796Y-82933901D01*
X141935242Y-82803975D01*
X141891617Y-82749398D01*
X141884423Y-82679900D01*
X141915946Y-82617545D01*
X141935242Y-82600825D01*
X142024421Y-82538381D01*
X142120801Y-82470895D01*
X142287895Y-82303801D01*
X142423435Y-82110230D01*
X142523303Y-81896063D01*
X142584463Y-81667808D01*
X142598489Y-81507492D01*
X142623940Y-81442426D01*
X142632857Y-81435968D01*
X142603674Y-81390059D01*
X142599295Y-81366522D01*
X142584463Y-81196992D01*
X142523303Y-80968737D01*
X142423435Y-80754571D01*
X142417825Y-80746558D01*
X142287894Y-80560997D01*
X142120802Y-80393906D01*
X142120796Y-80393901D01*
X141935242Y-80263975D01*
X141891617Y-80209398D01*
X141884423Y-80139900D01*
X141915946Y-80077545D01*
X141935242Y-80060825D01*
X142061390Y-79972495D01*
X142120801Y-79930895D01*
X142287895Y-79763801D01*
X142423435Y-79570230D01*
X142523303Y-79356063D01*
X142584463Y-79127808D01*
X142605059Y-78892400D01*
X142584463Y-78656992D01*
X142526305Y-78439942D01*
X142523305Y-78428744D01*
X142523304Y-78428743D01*
X142523303Y-78428737D01*
X142423435Y-78214571D01*
X142417825Y-78206558D01*
X142287894Y-78020997D01*
X142120802Y-77853906D01*
X142120796Y-77853901D01*
X141935242Y-77723975D01*
X141891617Y-77669398D01*
X141884423Y-77599900D01*
X141915946Y-77537545D01*
X141935242Y-77520825D01*
X142037567Y-77449176D01*
X142120801Y-77390895D01*
X142287895Y-77223801D01*
X142423435Y-77030230D01*
X142523303Y-76816063D01*
X142584463Y-76587808D01*
X142605059Y-76352400D01*
X142584463Y-76116992D01*
X142523303Y-75888737D01*
X142423435Y-75674571D01*
X142417825Y-75666558D01*
X142287894Y-75480997D01*
X142120802Y-75313906D01*
X142120796Y-75313901D01*
X141935242Y-75183975D01*
X141891617Y-75129398D01*
X141884423Y-75059900D01*
X141915946Y-74997545D01*
X141935242Y-74980825D01*
X141957426Y-74965291D01*
X142120801Y-74850895D01*
X142287895Y-74683801D01*
X142423435Y-74490230D01*
X142523303Y-74276063D01*
X142584463Y-74047808D01*
X142605059Y-73812400D01*
X142584463Y-73576992D01*
X142523303Y-73348737D01*
X142423435Y-73134571D01*
X142418469Y-73127478D01*
X142287894Y-72940997D01*
X142120802Y-72773906D01*
X142120795Y-72773901D01*
X141927234Y-72638367D01*
X141927230Y-72638365D01*
X141927228Y-72638364D01*
X141713063Y-72538497D01*
X141713059Y-72538496D01*
X141713055Y-72538494D01*
X141484813Y-72477338D01*
X141484803Y-72477336D01*
X141249401Y-72456741D01*
X141249399Y-72456741D01*
X141013996Y-72477336D01*
X141013986Y-72477338D01*
X140785744Y-72538494D01*
X140785735Y-72538498D01*
X140571571Y-72638364D01*
X140571569Y-72638365D01*
X140378000Y-72773903D01*
X140256073Y-72895830D01*
X140194750Y-72929314D01*
X140125058Y-72924330D01*
X140069125Y-72882458D01*
X140052210Y-72851481D01*
X140003197Y-72720071D01*
X140003193Y-72720064D01*
X139916947Y-72604855D01*
X139916944Y-72604852D01*
X139801735Y-72518606D01*
X139801728Y-72518602D01*
X139666882Y-72468308D01*
X139666883Y-72468308D01*
X139607283Y-72461901D01*
X139607281Y-72461900D01*
X139607273Y-72461900D01*
X139607264Y-72461900D01*
X137811529Y-72461900D01*
X137811523Y-72461901D01*
X137751916Y-72468308D01*
X137745283Y-72470783D01*
X137675592Y-72475765D01*
X137614272Y-72442281D01*
X136814728Y-71642738D01*
X136814725Y-71642734D01*
X136814725Y-71642735D01*
X136807658Y-71635668D01*
X136807658Y-71635667D01*
X136720533Y-71548542D01*
X136663599Y-71510500D01*
X136663600Y-71510500D01*
X136663598Y-71510498D01*
X136618090Y-71480090D01*
X136618086Y-71480088D01*
X136615739Y-71479116D01*
X136537592Y-71446747D01*
X136504253Y-71432937D01*
X136494227Y-71430943D01*
X136443829Y-71420918D01*
X136383410Y-71408900D01*
X136383407Y-71408900D01*
X136383406Y-71408900D01*
X132343411Y-71408900D01*
X132220197Y-71408900D01*
X132220193Y-71408900D01*
X132159775Y-71420918D01*
X132116547Y-71429516D01*
X132099350Y-71432937D01*
X131985520Y-71480087D01*
X131985511Y-71480092D01*
X131883072Y-71548540D01*
X131858449Y-71573164D01*
X131795946Y-71635667D01*
X131795943Y-71635670D01*
X124137470Y-79294143D01*
X124137467Y-79294146D01*
X124093904Y-79337708D01*
X124050342Y-79381270D01*
X124023646Y-79421224D01*
X124023645Y-79421223D01*
X123981887Y-79483719D01*
X123970110Y-79512153D01*
X123952956Y-79553567D01*
X123934738Y-79597548D01*
X123934735Y-79597560D01*
X123910700Y-79718395D01*
X123910700Y-84529532D01*
X123891015Y-84596571D01*
X123838211Y-84642326D01*
X123769053Y-84652270D01*
X123705497Y-84623245D01*
X123690847Y-84608198D01*
X123673074Y-84586542D01*
X123649357Y-84557643D01*
X123649355Y-84557641D01*
X123649354Y-84557640D01*
X123504626Y-84438864D01*
X123504623Y-84438862D01*
X123339502Y-84350604D01*
X123160333Y-84296253D01*
X123160331Y-84296252D01*
X122974000Y-84277901D01*
X122787668Y-84296252D01*
X122787666Y-84296253D01*
X122608497Y-84350604D01*
X122443376Y-84438862D01*
X122443373Y-84438865D01*
X122352665Y-84513307D01*
X122288355Y-84540620D01*
X122219487Y-84528829D01*
X122195335Y-84513307D01*
X122117367Y-84449321D01*
X122104625Y-84438864D01*
X122104623Y-84438862D01*
X121939502Y-84350604D01*
X121760333Y-84296253D01*
X121760331Y-84296252D01*
X121574000Y-84277901D01*
X121387668Y-84296252D01*
X121387666Y-84296253D01*
X121208497Y-84350604D01*
X121043376Y-84438862D01*
X121043373Y-84438864D01*
X120898642Y-84557642D01*
X120779864Y-84702373D01*
X120779862Y-84702376D01*
X120691604Y-84867496D01*
X120668226Y-84944563D01*
X120629928Y-85003001D01*
X120585563Y-85027226D01*
X120508496Y-85050604D01*
X120343376Y-85138862D01*
X120343373Y-85138864D01*
X120198642Y-85257642D01*
X120079864Y-85402373D01*
X120079862Y-85402376D01*
X119991604Y-85567497D01*
X119937253Y-85746666D01*
X119937252Y-85746668D01*
X119918901Y-85933000D01*
X119937252Y-86119331D01*
X119937253Y-86119333D01*
X119991604Y-86298502D01*
X120079862Y-86463623D01*
X120079865Y-86463626D01*
X120154307Y-86554335D01*
X120181620Y-86618645D01*
X120169829Y-86687513D01*
X120154307Y-86711665D01*
X120079865Y-86802373D01*
X120079862Y-86802376D01*
X119991604Y-86967497D01*
X119937253Y-87146666D01*
X119937252Y-87146668D01*
X119918901Y-87333000D01*
X119937252Y-87519331D01*
X119937253Y-87519333D01*
X119991604Y-87698502D01*
X120079862Y-87863623D01*
X120079864Y-87863626D01*
X120198642Y-88008357D01*
X120343373Y-88127135D01*
X120343376Y-88127137D01*
X120432546Y-88174798D01*
X120508499Y-88215396D01*
X120585562Y-88238772D01*
X120643999Y-88277068D01*
X120668226Y-88321436D01*
X120691604Y-88398502D01*
X120779862Y-88563623D01*
X120779864Y-88563626D01*
X120898642Y-88708357D01*
X121043373Y-88827135D01*
X121043376Y-88827137D01*
X121186956Y-88903881D01*
X121208499Y-88915396D01*
X121387666Y-88969746D01*
X121387668Y-88969747D01*
X121404374Y-88971392D01*
X121574000Y-88988099D01*
X121760331Y-88969747D01*
X121939501Y-88915396D01*
X122104625Y-88827136D01*
X122195335Y-88752691D01*
X122259644Y-88725378D01*
X122328512Y-88737169D01*
X122352661Y-88752689D01*
X122392660Y-88785515D01*
X122443372Y-88827134D01*
X122443376Y-88827137D01*
X122586956Y-88903881D01*
X122608499Y-88915396D01*
X122787666Y-88969746D01*
X122787668Y-88969747D01*
X122804374Y-88971392D01*
X122974000Y-88988099D01*
X123160331Y-88969747D01*
X123339501Y-88915396D01*
X123504625Y-88827136D01*
X123649357Y-88708357D01*
X123673517Y-88678918D01*
X123690847Y-88657802D01*
X123748592Y-88618468D01*
X123818437Y-88616597D01*
X123878205Y-88652785D01*
X123908921Y-88715540D01*
X123910700Y-88736467D01*
X123910700Y-89681747D01*
X123891015Y-89748786D01*
X123874381Y-89769428D01*
X122325394Y-91318414D01*
X122264071Y-91351899D01*
X122225562Y-91354136D01*
X122174003Y-91349059D01*
X122174000Y-91349059D01*
X121977870Y-91368375D01*
X121789266Y-91425588D01*
X121615467Y-91518486D01*
X121615460Y-91518490D01*
X121463116Y-91643516D01*
X121338090Y-91795860D01*
X121338086Y-91795867D01*
X121245188Y-91969666D01*
X121187975Y-92158270D01*
X121168659Y-92354400D01*
X121187975Y-92550529D01*
X121245188Y-92739133D01*
X121338086Y-92912932D01*
X121338090Y-92912939D01*
X121463116Y-93065283D01*
X121615460Y-93190309D01*
X121615467Y-93190313D01*
X121789266Y-93283211D01*
X121789269Y-93283211D01*
X121789273Y-93283214D01*
X121977868Y-93340424D01*
X122174000Y-93359741D01*
X122370132Y-93340424D01*
X122558727Y-93283214D01*
X122732538Y-93190310D01*
X122737523Y-93186218D01*
X122801829Y-93158900D01*
X122870698Y-93170685D01*
X122874648Y-93172707D01*
X123033867Y-93257811D01*
X123033873Y-93257814D01*
X123222468Y-93315024D01*
X123418600Y-93334341D01*
X123614732Y-93315024D01*
X123803327Y-93257814D01*
X123977138Y-93164910D01*
X124129483Y-93039883D01*
X124254510Y-92887538D01*
X124333834Y-92739133D01*
X124347411Y-92713733D01*
X124347411Y-92713732D01*
X124347414Y-92713727D01*
X124404624Y-92525132D01*
X124423941Y-92329000D01*
X124421405Y-92303254D01*
X124434424Y-92234609D01*
X124482488Y-92183898D01*
X124544808Y-92167100D01*
X124862795Y-92167100D01*
X124929834Y-92186785D01*
X124975589Y-92239589D01*
X124986198Y-92303254D01*
X124978659Y-92379799D01*
X124997975Y-92575929D01*
X124997976Y-92575932D01*
X125047712Y-92739890D01*
X125055188Y-92764533D01*
X125148086Y-92938332D01*
X125148090Y-92938339D01*
X125273116Y-93090683D01*
X125425460Y-93215709D01*
X125425467Y-93215713D01*
X125599266Y-93308611D01*
X125599269Y-93308611D01*
X125599273Y-93308614D01*
X125787868Y-93365824D01*
X125984000Y-93385141D01*
X126180132Y-93365824D01*
X126368727Y-93308614D01*
X126542538Y-93215710D01*
X126557546Y-93203392D01*
X126621851Y-93176077D01*
X126690719Y-93187865D01*
X126694666Y-93189885D01*
X126869267Y-93283211D01*
X126869273Y-93283214D01*
X127057868Y-93340424D01*
X127254000Y-93359741D01*
X127450132Y-93340424D01*
X127638727Y-93283214D01*
X127812538Y-93190310D01*
X127837233Y-93170042D01*
X127901539Y-93142729D01*
X127970407Y-93154518D01*
X127994559Y-93170040D01*
X128003662Y-93177510D01*
X128003663Y-93177510D01*
X128003665Y-93177512D01*
X128003668Y-93177514D01*
X128177466Y-93270411D01*
X128177469Y-93270411D01*
X128177473Y-93270414D01*
X128366068Y-93327624D01*
X128562200Y-93346941D01*
X128727948Y-93330616D01*
X128796592Y-93343635D01*
X128847302Y-93391700D01*
X128864100Y-93454019D01*
X128864100Y-108452625D01*
X128844415Y-108519664D01*
X128791611Y-108565419D01*
X128722453Y-108575363D01*
X128658897Y-108546338D01*
X128652419Y-108540306D01*
X128511819Y-108399706D01*
X128478334Y-108338383D01*
X128475500Y-108312025D01*
X128475500Y-98917741D01*
X128475501Y-98917720D01*
X128475501Y-98788391D01*
X128451464Y-98667554D01*
X128451463Y-98667553D01*
X128451463Y-98667549D01*
X128438862Y-98637128D01*
X128412991Y-98574669D01*
X128404312Y-98553715D01*
X128335858Y-98451267D01*
X128335855Y-98451263D01*
X126035984Y-96151394D01*
X126002499Y-96090071D01*
X126000262Y-96051562D01*
X126005341Y-96000000D01*
X125986024Y-95803868D01*
X125928814Y-95615273D01*
X125928811Y-95615269D01*
X125928811Y-95615266D01*
X125835913Y-95441467D01*
X125835909Y-95441460D01*
X125710883Y-95289116D01*
X125558539Y-95164090D01*
X125558532Y-95164086D01*
X125384733Y-95071188D01*
X125384727Y-95071186D01*
X125196132Y-95013976D01*
X125196129Y-95013975D01*
X125000000Y-94994659D01*
X124803870Y-95013975D01*
X124731888Y-95035811D01*
X124615273Y-95071186D01*
X124615270Y-95071187D01*
X124615268Y-95071188D01*
X124561276Y-95100047D01*
X124492873Y-95114288D01*
X124427629Y-95089287D01*
X124393466Y-95049141D01*
X124335913Y-94941467D01*
X124335909Y-94941460D01*
X124210883Y-94789116D01*
X124058539Y-94664090D01*
X124058532Y-94664086D01*
X123884733Y-94571188D01*
X123884727Y-94571186D01*
X123696132Y-94513976D01*
X123696129Y-94513975D01*
X123500000Y-94494659D01*
X123303870Y-94513975D01*
X123115266Y-94571188D01*
X122941467Y-94664086D01*
X122941460Y-94664090D01*
X122789116Y-94789116D01*
X122664090Y-94941460D01*
X122664086Y-94941467D01*
X122571188Y-95115266D01*
X122513975Y-95303870D01*
X122494659Y-95500000D01*
X122513975Y-95696129D01*
X122571188Y-95884733D01*
X122664086Y-96058532D01*
X122664090Y-96058539D01*
X122789117Y-96210884D01*
X122829163Y-96243748D01*
X122868499Y-96301493D01*
X122874500Y-96339602D01*
X122874500Y-97161611D01*
X122898535Y-97282444D01*
X122898540Y-97282461D01*
X122945685Y-97396280D01*
X122945686Y-97396282D01*
X122945688Y-97396286D01*
X122965190Y-97425472D01*
X123014141Y-97498732D01*
X123014144Y-97498736D01*
X123105586Y-97590178D01*
X123105608Y-97590198D01*
X123459229Y-97943819D01*
X123492714Y-98005142D01*
X123487730Y-98074834D01*
X123445858Y-98130767D01*
X123380394Y-98155184D01*
X123371548Y-98155500D01*
X122434286Y-98155500D01*
X122367247Y-98135815D01*
X122338432Y-98110164D01*
X122326082Y-98095116D01*
X122173739Y-97970090D01*
X122173732Y-97970086D01*
X121999933Y-97877188D01*
X121999927Y-97877186D01*
X121811332Y-97819976D01*
X121811329Y-97819975D01*
X121615200Y-97800659D01*
X121595825Y-97802567D01*
X121527179Y-97789547D01*
X121495991Y-97766845D01*
X118401619Y-94672473D01*
X118368134Y-94611150D01*
X118365300Y-94584792D01*
X118365300Y-92575146D01*
X118384985Y-92508107D01*
X118410639Y-92479290D01*
X118420883Y-92470883D01*
X118545909Y-92318539D01*
X118545913Y-92318532D01*
X118638811Y-92144733D01*
X118638811Y-92144732D01*
X118638814Y-92144727D01*
X118696024Y-91956132D01*
X118715341Y-91760000D01*
X118696024Y-91563868D01*
X118638814Y-91375273D01*
X118638811Y-91375269D01*
X118638811Y-91375266D01*
X118545913Y-91201467D01*
X118545909Y-91201460D01*
X118420883Y-91049116D01*
X118268539Y-90924090D01*
X118268532Y-90924086D01*
X118094733Y-90831188D01*
X118094727Y-90831186D01*
X117968997Y-90793046D01*
X117906129Y-90773975D01*
X117710000Y-90754659D01*
X117513870Y-90773975D01*
X117325266Y-90831188D01*
X117151467Y-90924086D01*
X117151460Y-90924090D01*
X116999116Y-91049116D01*
X116874090Y-91201460D01*
X116874086Y-91201467D01*
X116781188Y-91375266D01*
X116723975Y-91563870D01*
X116704659Y-91760000D01*
X116723975Y-91956129D01*
X116728084Y-91969673D01*
X116754287Y-92056055D01*
X116781188Y-92144733D01*
X116874086Y-92318532D01*
X116874090Y-92318539D01*
X116999115Y-92470882D01*
X117018963Y-92487170D01*
X117058299Y-92544915D01*
X117064300Y-92583024D01*
X117064300Y-94969671D01*
X117084493Y-95071183D01*
X117084493Y-95071184D01*
X117089297Y-95095337D01*
X117089300Y-95095347D01*
X117138332Y-95213723D01*
X117138335Y-95213727D01*
X117198564Y-95303868D01*
X117209526Y-95320273D01*
X117209527Y-95320274D01*
X117962208Y-96072954D01*
X117995693Y-96134277D01*
X117990709Y-96203968D01*
X117948837Y-96259902D01*
X117910523Y-96279295D01*
X117750671Y-96327786D01*
X117576867Y-96420686D01*
X117576860Y-96420690D01*
X117424516Y-96545716D01*
X117299490Y-96698060D01*
X117299486Y-96698067D01*
X117206588Y-96871866D01*
X117206586Y-96871873D01*
X117149376Y-97060468D01*
X117141931Y-97136056D01*
X117130059Y-97256600D01*
X117149375Y-97452729D01*
X117206588Y-97641333D01*
X117299486Y-97815132D01*
X117299490Y-97815139D01*
X117424516Y-97967483D01*
X117576860Y-98092509D01*
X117576867Y-98092513D01*
X117750666Y-98185411D01*
X117750669Y-98185411D01*
X117750673Y-98185414D01*
X117939268Y-98242624D01*
X118135400Y-98261941D01*
X118186960Y-98256862D01*
X118255603Y-98269880D01*
X118286794Y-98292584D01*
X121842381Y-101848171D01*
X121875866Y-101909494D01*
X121878700Y-101935852D01*
X121878700Y-103554397D01*
X121859015Y-103621436D01*
X121833366Y-103650249D01*
X121793314Y-103683118D01*
X121668290Y-103835460D01*
X121668286Y-103835467D01*
X121575388Y-104009266D01*
X121518175Y-104197870D01*
X121498859Y-104394000D01*
X121518175Y-104590129D01*
X121575388Y-104778733D01*
X121668286Y-104952532D01*
X121668290Y-104952539D01*
X121793316Y-105104883D01*
X121945660Y-105229909D01*
X121945667Y-105229913D01*
X122119466Y-105322811D01*
X122119469Y-105322811D01*
X122119473Y-105322814D01*
X122308068Y-105380024D01*
X122504200Y-105399341D01*
X122700332Y-105380024D01*
X122888927Y-105322814D01*
X123062738Y-105229910D01*
X123215083Y-105104883D01*
X123340110Y-104952538D01*
X123433014Y-104778727D01*
X123490224Y-104590132D01*
X123509541Y-104394000D01*
X123504462Y-104342437D01*
X123517480Y-104273794D01*
X123540181Y-104242607D01*
X124045929Y-103736860D01*
X124045933Y-103736858D01*
X124133058Y-103649733D01*
X124167284Y-103598509D01*
X124201512Y-103547286D01*
X124248663Y-103433451D01*
X124272700Y-103312607D01*
X124272700Y-103189393D01*
X124272700Y-101707251D01*
X124292385Y-101640212D01*
X124309015Y-101619574D01*
X124539483Y-101389105D01*
X124600804Y-101355622D01*
X124639313Y-101353385D01*
X124714000Y-101360741D01*
X124910132Y-101341424D01*
X125098727Y-101284214D01*
X125272538Y-101191310D01*
X125424883Y-101066283D01*
X125495879Y-100979775D01*
X125553625Y-100940441D01*
X125623469Y-100938570D01*
X125679413Y-100970759D01*
X126238181Y-101529527D01*
X126271666Y-101590850D01*
X126274500Y-101617208D01*
X126274500Y-109564671D01*
X126296913Y-109677344D01*
X126296914Y-109677347D01*
X126299498Y-109690343D01*
X126348534Y-109808725D01*
X126419726Y-109915273D01*
X126419727Y-109915274D01*
X128196045Y-111691590D01*
X128229530Y-111752913D01*
X128231767Y-111791423D01*
X128229859Y-111810798D01*
X128229859Y-111810802D01*
X128234936Y-111862361D01*
X128221916Y-111931007D01*
X128199214Y-111962194D01*
X120833629Y-119327781D01*
X120772306Y-119361266D01*
X120745948Y-119364100D01*
X120219603Y-119364100D01*
X120152564Y-119344415D01*
X120123750Y-119318765D01*
X120090883Y-119278716D01*
X119938539Y-119153690D01*
X119938532Y-119153686D01*
X119764733Y-119060788D01*
X119764727Y-119060786D01*
X119576132Y-119003576D01*
X119576129Y-119003575D01*
X119380000Y-118984259D01*
X119183870Y-119003575D01*
X118995266Y-119060788D01*
X118821467Y-119153686D01*
X118821460Y-119153690D01*
X118669116Y-119278716D01*
X118544090Y-119431060D01*
X118544086Y-119431067D01*
X118451188Y-119604866D01*
X118393975Y-119793470D01*
X118374659Y-119989600D01*
X118393975Y-120185729D01*
X118451188Y-120374333D01*
X118544086Y-120548132D01*
X118544090Y-120548139D01*
X118669116Y-120700483D01*
X118821460Y-120825509D01*
X118821467Y-120825513D01*
X118995266Y-120918411D01*
X118995269Y-120918411D01*
X118995273Y-120918414D01*
X119183868Y-120975624D01*
X119380000Y-120994941D01*
X119576132Y-120975624D01*
X119764727Y-120918414D01*
X119938538Y-120825510D01*
X120090883Y-120700483D01*
X120123750Y-120660435D01*
X120181495Y-120621101D01*
X120219603Y-120615100D01*
X120837977Y-120615100D01*
X120905016Y-120634785D01*
X120950771Y-120687589D01*
X120951533Y-120689290D01*
X121003826Y-120808507D01*
X121139833Y-121016683D01*
X121139836Y-121016686D01*
X121308256Y-121199639D01*
X121504491Y-121352375D01*
X121723190Y-121470729D01*
X121958386Y-121551472D01*
X122203665Y-121592401D01*
X122452335Y-121592401D01*
X122697614Y-121551472D01*
X122932810Y-121470729D01*
X123151509Y-121352375D01*
X123347744Y-121199639D01*
X123516164Y-121016686D01*
X123652173Y-120808508D01*
X123752063Y-120580782D01*
X123813108Y-120339722D01*
X123813253Y-120337977D01*
X123833643Y-120091906D01*
X123833643Y-120091895D01*
X123813109Y-119844088D01*
X123813107Y-119844076D01*
X123752063Y-119603019D01*
X123652173Y-119375294D01*
X123516166Y-119167118D01*
X123418280Y-119060786D01*
X123347744Y-118984163D01*
X123309126Y-118954105D01*
X123232880Y-118894760D01*
X123192067Y-118838050D01*
X123188394Y-118768277D01*
X123221360Y-118709228D01*
X129083806Y-112846782D01*
X129145127Y-112813299D01*
X129183635Y-112811062D01*
X129235200Y-112816141D01*
X129431332Y-112796824D01*
X129619927Y-112739614D01*
X129793738Y-112646710D01*
X129946083Y-112521683D01*
X129986465Y-112472477D01*
X130044208Y-112433144D01*
X130114053Y-112431273D01*
X130169998Y-112463462D01*
X130580181Y-112873644D01*
X130613666Y-112934967D01*
X130616500Y-112961325D01*
X130616500Y-115321611D01*
X130640535Y-115442444D01*
X130640540Y-115442461D01*
X130687685Y-115556280D01*
X130687690Y-115556289D01*
X130721914Y-115607507D01*
X130721915Y-115607509D01*
X130756141Y-115658733D01*
X130847586Y-115750178D01*
X130847608Y-115750198D01*
X132642625Y-117545215D01*
X132676110Y-117606538D01*
X132671126Y-117676230D01*
X132629254Y-117732163D01*
X132563790Y-117756580D01*
X132532159Y-117754785D01*
X132506561Y-117750000D01*
X132293439Y-117750000D01*
X132083941Y-117789162D01*
X132083936Y-117789163D01*
X131885210Y-117866149D01*
X131885201Y-117866154D01*
X131782992Y-117929438D01*
X131782991Y-117929439D01*
X132403552Y-118550000D01*
X132353922Y-118550000D01*
X132264905Y-118573852D01*
X132185095Y-118619930D01*
X132119930Y-118685095D01*
X132073852Y-118764905D01*
X132050000Y-118853922D01*
X132050000Y-118903552D01*
X131426836Y-118280388D01*
X131418060Y-118292009D01*
X131411278Y-118305630D01*
X131363774Y-118356866D01*
X131296110Y-118374286D01*
X131229770Y-118352359D01*
X131189279Y-118305628D01*
X131182497Y-118292009D01*
X131182366Y-118291745D01*
X131053872Y-118121593D01*
X130896302Y-117977948D01*
X130715019Y-117865702D01*
X130715017Y-117865701D01*
X130615608Y-117827190D01*
X130516198Y-117788679D01*
X130306610Y-117749500D01*
X130093390Y-117749500D01*
X130058152Y-117756086D01*
X130048057Y-117757974D01*
X129978542Y-117750942D01*
X129956387Y-117739190D01*
X129887454Y-117693131D01*
X129858127Y-117673535D01*
X129739745Y-117624500D01*
X129739739Y-117624498D01*
X129614072Y-117599501D01*
X129614070Y-117599501D01*
X128385930Y-117599501D01*
X128385928Y-117599501D01*
X128260260Y-117624498D01*
X128260254Y-117624500D01*
X128141869Y-117673536D01*
X128035330Y-117744723D01*
X128035323Y-117744729D01*
X127594725Y-118185328D01*
X127594724Y-118185329D01*
X127594723Y-118185331D01*
X127554366Y-118245731D01*
X127538950Y-118268802D01*
X127523535Y-118291872D01*
X127523533Y-118291875D01*
X127474499Y-118410255D01*
X127474497Y-118410261D01*
X127449500Y-118535928D01*
X127449500Y-120478285D01*
X127467810Y-120570331D01*
X127467810Y-120570332D01*
X127474497Y-120603951D01*
X127474498Y-120603955D01*
X127474499Y-120603958D01*
X127523535Y-120722341D01*
X127594723Y-120828883D01*
X127594726Y-120828887D01*
X127594727Y-120828888D01*
X128450387Y-121684547D01*
X128483872Y-121745870D01*
X128478888Y-121815561D01*
X128437016Y-121871495D01*
X128394800Y-121892003D01*
X128203508Y-121943259D01*
X128203502Y-121943261D01*
X127997267Y-122039431D01*
X127997265Y-122039432D01*
X127810858Y-122169954D01*
X127649954Y-122330858D01*
X127519432Y-122517265D01*
X127519431Y-122517267D01*
X127423261Y-122723502D01*
X127423258Y-122723511D01*
X127364366Y-122943302D01*
X127364364Y-122943313D01*
X127344532Y-123169998D01*
X127344532Y-123170001D01*
X127364364Y-123396686D01*
X127364366Y-123396697D01*
X127423258Y-123616488D01*
X127423261Y-123616497D01*
X127519431Y-123822732D01*
X127519432Y-123822734D01*
X127649954Y-124009141D01*
X127810858Y-124170045D01*
X127810861Y-124170047D01*
X127997266Y-124300568D01*
X128203504Y-124396739D01*
X128423308Y-124455635D01*
X128585230Y-124469801D01*
X128649998Y-124475468D01*
X128650000Y-124475468D01*
X128650002Y-124475468D01*
X128706673Y-124470509D01*
X128876692Y-124455635D01*
X129096496Y-124396739D01*
X129302734Y-124300568D01*
X129489139Y-124170047D01*
X129650047Y-124009139D01*
X129780568Y-123822734D01*
X129876739Y-123616496D01*
X129935635Y-123396692D01*
X129955468Y-123170000D01*
X129935635Y-122943308D01*
X129876739Y-122723504D01*
X129780568Y-122517266D01*
X129697664Y-122398866D01*
X129664305Y-122351223D01*
X129641978Y-122285016D01*
X129658989Y-122217249D01*
X129709937Y-122169437D01*
X129765880Y-122156100D01*
X136134120Y-122156100D01*
X136201159Y-122175785D01*
X136246914Y-122228589D01*
X136256858Y-122297747D01*
X136235695Y-122351223D01*
X136119432Y-122517265D01*
X136119431Y-122517267D01*
X136023261Y-122723502D01*
X136023258Y-122723511D01*
X135964366Y-122943302D01*
X135964364Y-122943313D01*
X135944532Y-123169998D01*
X135944532Y-123170001D01*
X135964364Y-123396686D01*
X135964366Y-123396697D01*
X136023258Y-123616488D01*
X136023261Y-123616497D01*
X136119431Y-123822732D01*
X136119432Y-123822734D01*
X136249954Y-124009141D01*
X136410858Y-124170045D01*
X136410861Y-124170047D01*
X136597266Y-124300568D01*
X136803504Y-124396739D01*
X137023308Y-124455635D01*
X137185230Y-124469801D01*
X137249998Y-124475468D01*
X137250000Y-124475468D01*
X137250002Y-124475468D01*
X137306673Y-124470509D01*
X137476692Y-124455635D01*
X137696496Y-124396739D01*
X137902734Y-124300568D01*
X138089139Y-124170047D01*
X138250047Y-124009139D01*
X138380568Y-123822734D01*
X138476739Y-123616496D01*
X138535635Y-123396692D01*
X138555468Y-123170000D01*
X138535635Y-122943308D01*
X138476739Y-122723504D01*
X138380568Y-122517266D01*
X138279563Y-122373014D01*
X138250045Y-122330858D01*
X138089141Y-122169954D01*
X137902734Y-122039432D01*
X137902732Y-122039431D01*
X137696497Y-121943261D01*
X137696488Y-121943258D01*
X137476697Y-121884366D01*
X137476693Y-121884365D01*
X137476692Y-121884365D01*
X137476691Y-121884364D01*
X137476686Y-121884364D01*
X137250002Y-121864532D01*
X137249996Y-121864532D01*
X137180334Y-121870626D01*
X137111834Y-121856859D01*
X137061652Y-121808243D01*
X137045719Y-121740214D01*
X137069095Y-121674371D01*
X137081840Y-121659424D01*
X138825677Y-119915589D01*
X138896866Y-119809046D01*
X138945901Y-119690663D01*
X138970900Y-119564989D01*
X138970900Y-119436851D01*
X138970900Y-118235011D01*
X138970900Y-118235008D01*
X138945902Y-118109341D01*
X138945901Y-118109340D01*
X138945901Y-118109336D01*
X138896865Y-117990953D01*
X138864072Y-117941874D01*
X138864072Y-117941873D01*
X138825679Y-117884414D01*
X138825673Y-117884406D01*
X138769705Y-117828438D01*
X138736220Y-117767115D01*
X138741204Y-117697423D01*
X138783076Y-117641490D01*
X138821388Y-117622098D01*
X138840127Y-117616414D01*
X139013938Y-117523510D01*
X139166283Y-117398483D01*
X139291310Y-117246138D01*
X139384214Y-117072327D01*
X139441424Y-116883732D01*
X139460741Y-116687600D01*
X139441424Y-116491468D01*
X139384214Y-116302873D01*
X139384211Y-116302867D01*
X139359920Y-116257421D01*
X139345678Y-116189018D01*
X139370678Y-116123775D01*
X139426983Y-116082404D01*
X139480082Y-116075440D01*
X139656306Y-116090858D01*
X139674599Y-116092459D01*
X139674600Y-116092459D01*
X139674601Y-116092459D01*
X139713834Y-116089026D01*
X139910008Y-116071863D01*
X140138263Y-116010703D01*
X140352430Y-115910835D01*
X140546001Y-115775295D01*
X140713095Y-115608201D01*
X140848635Y-115414630D01*
X140948503Y-115200463D01*
X141009663Y-114972208D01*
X141030259Y-114736800D01*
X141009663Y-114501392D01*
X140948503Y-114273137D01*
X140848635Y-114058971D01*
X140796254Y-113984162D01*
X140713094Y-113865397D01*
X140546002Y-113698306D01*
X140545996Y-113698301D01*
X140360442Y-113568375D01*
X140316817Y-113513798D01*
X140309623Y-113444300D01*
X140341146Y-113381945D01*
X140360442Y-113365225D01*
X140382626Y-113349691D01*
X140546001Y-113235295D01*
X140713095Y-113068201D01*
X140848635Y-112874630D01*
X140948503Y-112660463D01*
X141009663Y-112432208D01*
X141030259Y-112196800D01*
X141009663Y-111961392D01*
X140982743Y-111860925D01*
X140984406Y-111791076D01*
X141014835Y-111741153D01*
X141248329Y-111507660D01*
X141248333Y-111507658D01*
X141335458Y-111420533D01*
X141399025Y-111325399D01*
X141403912Y-111318085D01*
X141431532Y-111251403D01*
X141451063Y-111204252D01*
X141475100Y-111083406D01*
X141475100Y-109108493D01*
X141451063Y-108987647D01*
X141422530Y-108918763D01*
X141403912Y-108873814D01*
X141403910Y-108873811D01*
X141403909Y-108873808D01*
X141352182Y-108796395D01*
X141352181Y-108796394D01*
X141335456Y-108771363D01*
X141245237Y-108681144D01*
X141245206Y-108681115D01*
X140720072Y-108155981D01*
X140686587Y-108094658D01*
X140691571Y-108024966D01*
X140710290Y-107992846D01*
X140709990Y-107992636D01*
X140712510Y-107989035D01*
X140712780Y-107988574D01*
X140713075Y-107988220D01*
X140713095Y-107988201D01*
X140848635Y-107794630D01*
X140948503Y-107580463D01*
X141009663Y-107352208D01*
X141030259Y-107116800D01*
X141009663Y-106881392D01*
X140948503Y-106653137D01*
X140848635Y-106438971D01*
X140713095Y-106245399D01*
X140591167Y-106123471D01*
X140557684Y-106062151D01*
X140562668Y-105992459D01*
X140604539Y-105936525D01*
X140635515Y-105919610D01*
X140766931Y-105870596D01*
X140882146Y-105784346D01*
X140968396Y-105669131D01*
X141018691Y-105534283D01*
X141025100Y-105474673D01*
X141025099Y-103678928D01*
X141018691Y-103619317D01*
X141016351Y-103613044D01*
X140968397Y-103484471D01*
X140968393Y-103484464D01*
X140882147Y-103369255D01*
X140882144Y-103369252D01*
X140766935Y-103283006D01*
X140766928Y-103283002D01*
X140632082Y-103232708D01*
X140632083Y-103232708D01*
X140572483Y-103226301D01*
X140572481Y-103226300D01*
X140572473Y-103226300D01*
X140572464Y-103226300D01*
X138776729Y-103226300D01*
X138776723Y-103226301D01*
X138717116Y-103232708D01*
X138582271Y-103283002D01*
X138582264Y-103283006D01*
X138467055Y-103369252D01*
X138467052Y-103369255D01*
X138380806Y-103484464D01*
X138380802Y-103484471D01*
X138330508Y-103619317D01*
X138327183Y-103650249D01*
X138324101Y-103678923D01*
X138324100Y-103678935D01*
X138324100Y-105474670D01*
X138324101Y-105474676D01*
X138330508Y-105534283D01*
X138380802Y-105669128D01*
X138380806Y-105669135D01*
X138467052Y-105784344D01*
X138467055Y-105784347D01*
X138582264Y-105870593D01*
X138582271Y-105870597D01*
X138713681Y-105919610D01*
X138769615Y-105961481D01*
X138794032Y-106026945D01*
X138779180Y-106095218D01*
X138758030Y-106123473D01*
X138636103Y-106245400D01*
X138500565Y-106438969D01*
X138500564Y-106438971D01*
X138400698Y-106653135D01*
X138400694Y-106653144D01*
X138339538Y-106881386D01*
X138339536Y-106881396D01*
X138318941Y-107116799D01*
X138318941Y-107116800D01*
X138339536Y-107352203D01*
X138339538Y-107352213D01*
X138400694Y-107580455D01*
X138400696Y-107580459D01*
X138400697Y-107580463D01*
X138444081Y-107673501D01*
X138447063Y-107679895D01*
X138457555Y-107748973D01*
X138429035Y-107812757D01*
X138370559Y-107850996D01*
X138334681Y-107856300D01*
X132973053Y-107856300D01*
X132906014Y-107836615D01*
X132885372Y-107819981D01*
X131950619Y-106885228D01*
X131917134Y-106823905D01*
X131914300Y-106797547D01*
X131914300Y-94043700D01*
X131933985Y-93976661D01*
X131986789Y-93930906D01*
X132038300Y-93919700D01*
X134919148Y-93919700D01*
X134986187Y-93939385D01*
X135006823Y-93956014D01*
X135133369Y-94082559D01*
X135166852Y-94143881D01*
X135169089Y-94158084D01*
X135183375Y-94303128D01*
X135183375Y-94303130D01*
X135183376Y-94303132D01*
X135228838Y-94452998D01*
X135240588Y-94491733D01*
X135333486Y-94665532D01*
X135333490Y-94665539D01*
X135458516Y-94817883D01*
X135610860Y-94942909D01*
X135610867Y-94942913D01*
X135784666Y-95035811D01*
X135784669Y-95035811D01*
X135784673Y-95035814D01*
X135973268Y-95093024D01*
X136169400Y-95112341D01*
X136365532Y-95093024D01*
X136554127Y-95035814D01*
X136614029Y-95003796D01*
X136727932Y-94942913D01*
X136727938Y-94942910D01*
X136880283Y-94817883D01*
X137005310Y-94665538D01*
X137098214Y-94491727D01*
X137136412Y-94365804D01*
X137174707Y-94307369D01*
X137238520Y-94278913D01*
X137307587Y-94289473D01*
X137359980Y-94335697D01*
X137374846Y-94369710D01*
X137435494Y-94596055D01*
X137435496Y-94596059D01*
X137435497Y-94596063D01*
X137471128Y-94672473D01*
X137535365Y-94810230D01*
X137535367Y-94810234D01*
X137627253Y-94941460D01*
X137670901Y-95003796D01*
X137670906Y-95003802D01*
X137837997Y-95170893D01*
X137838003Y-95170898D01*
X138023558Y-95300825D01*
X138067183Y-95355402D01*
X138074377Y-95424900D01*
X138042854Y-95487255D01*
X138023558Y-95503975D01*
X137837997Y-95633905D01*
X137670905Y-95800997D01*
X137535365Y-95994569D01*
X137535364Y-95994571D01*
X137435498Y-96208735D01*
X137435494Y-96208744D01*
X137374338Y-96436986D01*
X137374336Y-96436996D01*
X137353741Y-96672399D01*
X137353741Y-96672400D01*
X137374336Y-96907803D01*
X137374338Y-96907813D01*
X137435494Y-97136055D01*
X137435496Y-97136059D01*
X137435497Y-97136063D01*
X137494668Y-97262955D01*
X137535365Y-97350230D01*
X137535367Y-97350234D01*
X137639347Y-97498732D01*
X137670905Y-97543801D01*
X137837999Y-97710895D01*
X137917904Y-97766845D01*
X138031565Y-97846432D01*
X138031567Y-97846433D01*
X138031570Y-97846435D01*
X138245737Y-97946303D01*
X138473992Y-98007463D01*
X138662318Y-98023939D01*
X138709399Y-98028059D01*
X138709400Y-98028059D01*
X138709401Y-98028059D01*
X138748634Y-98024626D01*
X138944808Y-98007463D01*
X139173063Y-97946303D01*
X139387230Y-97846435D01*
X139580801Y-97710895D01*
X139747895Y-97543801D01*
X139877825Y-97358242D01*
X139932402Y-97314617D01*
X140001900Y-97307423D01*
X140064255Y-97338946D01*
X140080975Y-97358242D01*
X140210900Y-97543795D01*
X140210905Y-97543801D01*
X140377999Y-97710895D01*
X140457904Y-97766845D01*
X140571565Y-97846432D01*
X140571567Y-97846433D01*
X140571570Y-97846435D01*
X140785737Y-97946303D01*
X141013992Y-98007463D01*
X141202318Y-98023939D01*
X141249399Y-98028059D01*
X141249400Y-98028059D01*
X141249401Y-98028059D01*
X141288634Y-98024626D01*
X141484808Y-98007463D01*
X141713063Y-97946303D01*
X141927230Y-97846435D01*
X142120801Y-97710895D01*
X142287895Y-97543801D01*
X142423435Y-97350230D01*
X142523303Y-97136063D01*
X142524629Y-97131112D01*
X142560987Y-97071448D01*
X142623831Y-97040912D01*
X142693207Y-97049199D01*
X142747090Y-97093679D01*
X142768372Y-97160228D01*
X142768405Y-97163808D01*
X142748543Y-101167722D01*
X142749965Y-101172023D01*
X142750034Y-101176129D01*
X142759359Y-124170045D01*
X142759820Y-125305450D01*
X142740163Y-125372497D01*
X142687377Y-125418273D01*
X142635820Y-125429500D01*
X91610500Y-125429500D01*
X91543461Y-125409815D01*
X91497706Y-125357011D01*
X91486500Y-125305500D01*
X91486500Y-122186387D01*
X98113502Y-122186387D01*
X98136385Y-122330861D01*
X98143062Y-122373018D01*
X98201455Y-122552732D01*
X98287242Y-122721099D01*
X98398312Y-122873973D01*
X98531928Y-123007589D01*
X98684802Y-123118659D01*
X98853169Y-123204446D01*
X99032883Y-123262839D01*
X99102871Y-123273924D01*
X99219514Y-123292399D01*
X99219519Y-123292399D01*
X99408486Y-123292399D01*
X99512167Y-123275976D01*
X99595117Y-123262839D01*
X99774831Y-123204446D01*
X99943198Y-123118659D01*
X100096072Y-123007589D01*
X100229688Y-122873973D01*
X100295348Y-122783600D01*
X106589059Y-122783600D01*
X106608375Y-122979729D01*
X106665588Y-123168333D01*
X106758486Y-123342132D01*
X106758490Y-123342139D01*
X106883516Y-123494483D01*
X107035860Y-123619509D01*
X107035867Y-123619513D01*
X107209666Y-123712411D01*
X107209669Y-123712411D01*
X107209673Y-123712414D01*
X107398268Y-123769624D01*
X107594400Y-123788941D01*
X107790532Y-123769624D01*
X107979127Y-123712414D01*
X108152938Y-123619510D01*
X108305283Y-123494483D01*
X108338150Y-123454435D01*
X108395895Y-123415101D01*
X108434003Y-123409100D01*
X109878008Y-123409100D01*
X109878008Y-123409099D01*
X109940387Y-123396692D01*
X109940388Y-123396692D01*
X109955103Y-123393764D01*
X109998852Y-123385063D01*
X110048896Y-123364334D01*
X110112686Y-123337912D01*
X110180799Y-123292399D01*
X110215133Y-123269458D01*
X110302258Y-123182333D01*
X110302258Y-123182331D01*
X110312466Y-123172124D01*
X110312467Y-123172121D01*
X111298202Y-122186387D01*
X114877502Y-122186387D01*
X114900385Y-122330861D01*
X114907062Y-122373018D01*
X114965455Y-122552732D01*
X115051242Y-122721099D01*
X115162312Y-122873973D01*
X115295928Y-123007589D01*
X115448802Y-123118659D01*
X115617169Y-123204446D01*
X115796883Y-123262839D01*
X115866871Y-123273924D01*
X115983514Y-123292399D01*
X115983519Y-123292399D01*
X116172486Y-123292399D01*
X116276167Y-123275976D01*
X116359117Y-123262839D01*
X116538831Y-123204446D01*
X116707198Y-123118659D01*
X116860072Y-123007589D01*
X116993688Y-122873973D01*
X117104758Y-122721099D01*
X117190545Y-122552732D01*
X117248938Y-122373018D01*
X117262876Y-122285016D01*
X117278498Y-122186387D01*
X117278498Y-121997414D01*
X117257451Y-121864532D01*
X117248938Y-121810784D01*
X117190545Y-121631070D01*
X117104758Y-121462703D01*
X116993688Y-121309829D01*
X116860072Y-121176213D01*
X116707198Y-121065143D01*
X116538833Y-120979357D01*
X116538832Y-120979356D01*
X116538831Y-120979356D01*
X116359117Y-120920963D01*
X116359115Y-120920962D01*
X116359113Y-120920962D01*
X116172486Y-120891403D01*
X116172481Y-120891403D01*
X115983519Y-120891403D01*
X115983514Y-120891403D01*
X115796886Y-120920962D01*
X115617166Y-120979357D01*
X115448801Y-121065143D01*
X115361580Y-121128513D01*
X115295928Y-121176213D01*
X115295926Y-121176215D01*
X115295925Y-121176215D01*
X115162314Y-121309826D01*
X115162314Y-121309827D01*
X115162312Y-121309829D01*
X115131400Y-121352376D01*
X115051242Y-121462702D01*
X114965456Y-121631067D01*
X114907061Y-121810787D01*
X114877502Y-121997414D01*
X114877502Y-122186387D01*
X111298202Y-122186387D01*
X115238860Y-118245731D01*
X115307314Y-118143283D01*
X115354465Y-118029449D01*
X115355642Y-118023535D01*
X115360142Y-118000910D01*
X115378503Y-117908604D01*
X115378503Y-117785391D01*
X115378503Y-117780281D01*
X115378502Y-117780255D01*
X115378502Y-115091906D01*
X120822357Y-115091906D01*
X120842890Y-115339713D01*
X120842892Y-115339725D01*
X120903936Y-115580782D01*
X121003826Y-115808507D01*
X121139833Y-116016683D01*
X121139836Y-116016686D01*
X121308256Y-116199639D01*
X121504491Y-116352375D01*
X121723190Y-116470729D01*
X121958386Y-116551472D01*
X122203665Y-116592401D01*
X122452335Y-116592401D01*
X122697614Y-116551472D01*
X122932810Y-116470729D01*
X123151509Y-116352375D01*
X123347744Y-116199639D01*
X123516164Y-116016686D01*
X123652173Y-115808508D01*
X123752063Y-115580782D01*
X123813108Y-115339722D01*
X123823798Y-115210714D01*
X123833643Y-115091906D01*
X123833643Y-115091895D01*
X123813109Y-114844088D01*
X123813107Y-114844076D01*
X123752063Y-114603019D01*
X123652173Y-114375294D01*
X123516166Y-114167118D01*
X123471555Y-114118658D01*
X123347744Y-113984163D01*
X123151509Y-113831427D01*
X123151507Y-113831426D01*
X123151506Y-113831425D01*
X122932811Y-113713073D01*
X122932802Y-113713070D01*
X122697616Y-113632330D01*
X122452335Y-113591401D01*
X122203665Y-113591401D01*
X121958383Y-113632330D01*
X121723197Y-113713070D01*
X121723188Y-113713073D01*
X121504493Y-113831425D01*
X121308257Y-113984162D01*
X121139833Y-114167118D01*
X121003826Y-114375294D01*
X120903936Y-114603019D01*
X120842892Y-114844076D01*
X120842890Y-114844088D01*
X120822357Y-115091895D01*
X120822357Y-115091906D01*
X115378502Y-115091906D01*
X115378502Y-114285189D01*
X115398187Y-114218150D01*
X115450991Y-114172395D01*
X115520149Y-114162451D01*
X115558796Y-114174703D01*
X115617169Y-114204446D01*
X115796883Y-114262839D01*
X115861890Y-114273135D01*
X115983514Y-114292399D01*
X115983519Y-114292399D01*
X116172486Y-114292399D01*
X116276167Y-114275976D01*
X116359117Y-114262839D01*
X116538831Y-114204446D01*
X116707198Y-114118659D01*
X116860072Y-114007589D01*
X116993688Y-113873973D01*
X117104758Y-113721099D01*
X117190545Y-113552732D01*
X117248938Y-113373018D01*
X117270751Y-113235295D01*
X117278498Y-113186387D01*
X117278498Y-112997414D01*
X117248938Y-112810787D01*
X117248938Y-112810784D01*
X117190545Y-112631070D01*
X117104758Y-112462703D01*
X116993688Y-112309829D01*
X116860072Y-112176213D01*
X116707198Y-112065143D01*
X116538831Y-111979356D01*
X116359117Y-111920963D01*
X116359115Y-111920962D01*
X116359113Y-111920962D01*
X116172486Y-111891403D01*
X116172481Y-111891403D01*
X115983519Y-111891403D01*
X115983514Y-111891403D01*
X115796886Y-111920962D01*
X115617163Y-111979358D01*
X115558796Y-112009097D01*
X115490126Y-112021993D01*
X115425386Y-111995716D01*
X115385130Y-111938609D01*
X115378502Y-111898612D01*
X115378502Y-99874654D01*
X115398187Y-99807615D01*
X115450991Y-99761860D01*
X115520149Y-99751916D01*
X115583705Y-99780941D01*
X115590183Y-99786973D01*
X115981815Y-100178605D01*
X116015300Y-100239928D01*
X116017537Y-100278439D01*
X116012459Y-100329999D01*
X116031775Y-100526129D01*
X116088988Y-100714733D01*
X116181886Y-100888532D01*
X116181890Y-100888539D01*
X116306916Y-101040883D01*
X116459260Y-101165909D01*
X116459267Y-101165913D01*
X116633066Y-101258811D01*
X116633069Y-101258811D01*
X116633073Y-101258814D01*
X116821668Y-101316024D01*
X117017800Y-101335341D01*
X117213932Y-101316024D01*
X117402527Y-101258814D01*
X117576338Y-101165910D01*
X117728683Y-101040883D01*
X117853710Y-100888538D01*
X117946614Y-100714727D01*
X118003824Y-100526132D01*
X118023141Y-100330000D01*
X118003824Y-100133868D01*
X117946614Y-99945273D01*
X117946611Y-99945269D01*
X117946611Y-99945266D01*
X117853713Y-99771467D01*
X117853709Y-99771460D01*
X117728683Y-99619116D01*
X117576339Y-99494090D01*
X117576332Y-99494086D01*
X117402533Y-99401188D01*
X117402527Y-99401186D01*
X117213932Y-99343976D01*
X117213929Y-99343975D01*
X117017800Y-99324659D01*
X116966239Y-99329737D01*
X116897593Y-99316718D01*
X116866405Y-99294015D01*
X116220574Y-98648184D01*
X116187089Y-98586861D01*
X116184255Y-98560503D01*
X116184255Y-97329994D01*
X116203940Y-97262955D01*
X116229590Y-97234141D01*
X116372047Y-97117229D01*
X116457356Y-97013280D01*
X116497074Y-96964884D01*
X116589978Y-96791073D01*
X116647188Y-96602478D01*
X116666505Y-96406346D01*
X116647188Y-96210214D01*
X116589978Y-96021619D01*
X116589975Y-96021615D01*
X116589975Y-96021612D01*
X116497077Y-95847813D01*
X116497073Y-95847806D01*
X116372047Y-95695462D01*
X116219703Y-95570436D01*
X116219696Y-95570432D01*
X116045897Y-95477534D01*
X116045891Y-95477532D01*
X115857296Y-95420322D01*
X115857293Y-95420321D01*
X115661164Y-95401005D01*
X115465034Y-95420321D01*
X115276430Y-95477534D01*
X115102631Y-95570432D01*
X115102624Y-95570436D01*
X114950280Y-95695462D01*
X114825254Y-95847806D01*
X114825250Y-95847813D01*
X114732352Y-96021612D01*
X114675139Y-96210216D01*
X114655823Y-96406346D01*
X114655823Y-96406348D01*
X114660900Y-96457908D01*
X114647880Y-96526553D01*
X114625178Y-96557740D01*
X114354272Y-96828647D01*
X114267145Y-96915773D01*
X114267140Y-96915779D01*
X114258429Y-96928815D01*
X114258430Y-96928816D01*
X114198691Y-97018220D01*
X114198687Y-97018227D01*
X114181191Y-97060469D01*
X114161982Y-97106843D01*
X114161983Y-97106844D01*
X114151538Y-97132058D01*
X114151537Y-97132064D01*
X114129620Y-97242250D01*
X114129621Y-97242251D01*
X114127502Y-97252904D01*
X114127502Y-117536545D01*
X114107817Y-117603584D01*
X114091183Y-117624226D01*
X111544989Y-120170419D01*
X111483666Y-120203904D01*
X111413974Y-120198920D01*
X111358041Y-120157048D01*
X111333731Y-120092977D01*
X111333642Y-120091907D01*
X111333643Y-120091901D01*
X111313108Y-119844080D01*
X111274258Y-119690664D01*
X111252063Y-119603019D01*
X111152173Y-119375294D01*
X111016166Y-119167118D01*
X110918280Y-119060786D01*
X110847744Y-118984163D01*
X110651509Y-118831427D01*
X110651507Y-118831426D01*
X110651506Y-118831425D01*
X110432811Y-118713073D01*
X110432802Y-118713070D01*
X110197616Y-118632330D01*
X109952335Y-118591401D01*
X109703665Y-118591401D01*
X109458383Y-118632330D01*
X109223197Y-118713070D01*
X109223188Y-118713073D01*
X109004493Y-118831425D01*
X108808257Y-118984162D01*
X108808256Y-118984163D01*
X108797452Y-118995898D01*
X108639833Y-119167118D01*
X108503826Y-119375294D01*
X108403936Y-119603019D01*
X108342892Y-119844076D01*
X108342890Y-119844088D01*
X108322357Y-120091895D01*
X108322357Y-120091906D01*
X108342890Y-120339713D01*
X108342892Y-120339725D01*
X108403936Y-120580782D01*
X108503826Y-120808507D01*
X108639833Y-121016683D01*
X108639836Y-121016686D01*
X108808256Y-121199639D01*
X109004491Y-121352375D01*
X109223190Y-121470729D01*
X109458386Y-121551472D01*
X109703665Y-121592401D01*
X109823646Y-121592401D01*
X109890685Y-121612086D01*
X109936440Y-121664890D01*
X109946384Y-121734048D01*
X109917359Y-121797604D01*
X109911329Y-121804079D01*
X109675979Y-122039431D01*
X109593629Y-122121781D01*
X109532306Y-122155266D01*
X109505948Y-122158100D01*
X108434003Y-122158100D01*
X108366964Y-122138415D01*
X108338150Y-122112765D01*
X108305283Y-122072716D01*
X108152939Y-121947690D01*
X108152932Y-121947686D01*
X107979133Y-121854788D01*
X107979127Y-121854786D01*
X107811979Y-121804082D01*
X107790529Y-121797575D01*
X107594400Y-121778259D01*
X107398270Y-121797575D01*
X107209666Y-121854788D01*
X107035867Y-121947686D01*
X107035860Y-121947690D01*
X106883516Y-122072716D01*
X106758490Y-122225060D01*
X106758486Y-122225067D01*
X106665588Y-122398866D01*
X106608375Y-122587470D01*
X106589059Y-122783600D01*
X100295348Y-122783600D01*
X100340758Y-122721099D01*
X100426545Y-122552732D01*
X100484938Y-122373018D01*
X100498876Y-122285016D01*
X100514498Y-122186387D01*
X100514498Y-121997414D01*
X100493451Y-121864532D01*
X100484938Y-121810784D01*
X100426545Y-121631070D01*
X100340758Y-121462703D01*
X100229688Y-121309829D01*
X100096072Y-121176213D01*
X99943198Y-121065143D01*
X99774833Y-120979357D01*
X99774832Y-120979356D01*
X99774831Y-120979356D01*
X99595117Y-120920963D01*
X99595115Y-120920962D01*
X99595113Y-120920962D01*
X99408486Y-120891403D01*
X99408481Y-120891403D01*
X99219519Y-120891403D01*
X99219514Y-120891403D01*
X99032886Y-120920962D01*
X98853166Y-120979357D01*
X98684801Y-121065143D01*
X98597580Y-121128513D01*
X98531928Y-121176213D01*
X98531926Y-121176215D01*
X98531925Y-121176215D01*
X98398314Y-121309826D01*
X98398314Y-121309827D01*
X98398312Y-121309829D01*
X98367400Y-121352376D01*
X98287242Y-121462702D01*
X98201456Y-121631067D01*
X98143061Y-121810787D01*
X98113502Y-121997414D01*
X98113502Y-122186387D01*
X91486500Y-122186387D01*
X91486500Y-120822364D01*
X91506185Y-120755325D01*
X91558989Y-120709570D01*
X91628147Y-120699626D01*
X91691703Y-120728651D01*
X91724056Y-120772554D01*
X91739826Y-120808507D01*
X91875833Y-121016683D01*
X91875836Y-121016686D01*
X92044256Y-121199639D01*
X92240491Y-121352375D01*
X92459190Y-121470729D01*
X92694386Y-121551472D01*
X92939665Y-121592401D01*
X93188335Y-121592401D01*
X93433614Y-121551472D01*
X93668810Y-121470729D01*
X93887509Y-121352375D01*
X94083744Y-121199639D01*
X94252164Y-121016686D01*
X94388173Y-120808508D01*
X94488063Y-120580782D01*
X94549108Y-120339722D01*
X94549253Y-120337977D01*
X94569643Y-120091906D01*
X104058357Y-120091906D01*
X104078890Y-120339713D01*
X104078892Y-120339725D01*
X104139936Y-120580782D01*
X104239826Y-120808507D01*
X104375833Y-121016683D01*
X104375836Y-121016686D01*
X104544256Y-121199639D01*
X104740491Y-121352375D01*
X104959190Y-121470729D01*
X105194386Y-121551472D01*
X105439665Y-121592401D01*
X105688335Y-121592401D01*
X105933614Y-121551472D01*
X106168810Y-121470729D01*
X106387509Y-121352375D01*
X106583744Y-121199639D01*
X106752164Y-121016686D01*
X106888173Y-120808508D01*
X106988063Y-120580782D01*
X107049108Y-120339722D01*
X107049253Y-120337977D01*
X107069643Y-120091906D01*
X107069643Y-120091895D01*
X107049109Y-119844088D01*
X107049107Y-119844076D01*
X106988063Y-119603019D01*
X106888173Y-119375294D01*
X106752166Y-119167118D01*
X106654280Y-119060786D01*
X106583744Y-118984163D01*
X106387509Y-118831427D01*
X106387507Y-118831426D01*
X106387506Y-118831425D01*
X106168811Y-118713073D01*
X106168802Y-118713070D01*
X105933616Y-118632330D01*
X105688335Y-118591401D01*
X105439665Y-118591401D01*
X105194383Y-118632330D01*
X104959197Y-118713070D01*
X104959188Y-118713073D01*
X104740493Y-118831425D01*
X104544257Y-118984162D01*
X104544256Y-118984163D01*
X104533452Y-118995898D01*
X104375833Y-119167118D01*
X104239826Y-119375294D01*
X104139936Y-119603019D01*
X104078892Y-119844076D01*
X104078890Y-119844088D01*
X104058357Y-120091895D01*
X104058357Y-120091906D01*
X94569643Y-120091906D01*
X94569643Y-120091895D01*
X94549109Y-119844088D01*
X94549107Y-119844076D01*
X94488063Y-119603019D01*
X94388173Y-119375294D01*
X94252166Y-119167118D01*
X94154280Y-119060786D01*
X94083744Y-118984163D01*
X93887509Y-118831427D01*
X93887507Y-118831426D01*
X93887506Y-118831425D01*
X93668811Y-118713073D01*
X93668802Y-118713070D01*
X93433616Y-118632330D01*
X93188335Y-118591401D01*
X92939665Y-118591401D01*
X92694383Y-118632330D01*
X92459197Y-118713070D01*
X92459188Y-118713073D01*
X92240493Y-118831425D01*
X92044257Y-118984162D01*
X92044256Y-118984163D01*
X92033452Y-118995898D01*
X91875833Y-119167118D01*
X91739827Y-119375292D01*
X91724056Y-119411248D01*
X91679099Y-119464733D01*
X91612363Y-119485423D01*
X91545036Y-119466748D01*
X91498492Y-119414637D01*
X91486500Y-119361437D01*
X91486500Y-115822364D01*
X91506185Y-115755325D01*
X91558989Y-115709570D01*
X91628147Y-115699626D01*
X91691703Y-115728651D01*
X91724056Y-115772554D01*
X91739826Y-115808507D01*
X91875833Y-116016683D01*
X91875836Y-116016686D01*
X92044256Y-116199639D01*
X92240491Y-116352375D01*
X92459190Y-116470729D01*
X92694386Y-116551472D01*
X92939665Y-116592401D01*
X93188335Y-116592401D01*
X93433614Y-116551472D01*
X93668810Y-116470729D01*
X93887509Y-116352375D01*
X94083744Y-116199639D01*
X94252164Y-116016686D01*
X94388173Y-115808508D01*
X94488063Y-115580782D01*
X94549108Y-115339722D01*
X94559798Y-115210714D01*
X94569643Y-115091906D01*
X104058357Y-115091906D01*
X104078890Y-115339713D01*
X104078892Y-115339725D01*
X104139936Y-115580782D01*
X104239826Y-115808507D01*
X104375833Y-116016683D01*
X104375836Y-116016686D01*
X104544256Y-116199639D01*
X104740491Y-116352375D01*
X104959190Y-116470729D01*
X105194386Y-116551472D01*
X105439665Y-116592401D01*
X105688335Y-116592401D01*
X105933614Y-116551472D01*
X106168810Y-116470729D01*
X106387509Y-116352375D01*
X106583744Y-116199639D01*
X106752164Y-116016686D01*
X106888173Y-115808508D01*
X106988063Y-115580782D01*
X107049108Y-115339722D01*
X107059798Y-115210714D01*
X107069643Y-115091906D01*
X108322357Y-115091906D01*
X108342890Y-115339713D01*
X108342892Y-115339725D01*
X108403936Y-115580782D01*
X108503826Y-115808507D01*
X108639833Y-116016683D01*
X108639836Y-116016686D01*
X108808256Y-116199639D01*
X109004491Y-116352375D01*
X109223190Y-116470729D01*
X109458386Y-116551472D01*
X109703665Y-116592401D01*
X109952335Y-116592401D01*
X110197614Y-116551472D01*
X110432810Y-116470729D01*
X110651509Y-116352375D01*
X110847744Y-116199639D01*
X111016164Y-116016686D01*
X111152173Y-115808508D01*
X111252063Y-115580782D01*
X111313108Y-115339722D01*
X111323798Y-115210714D01*
X111333643Y-115091906D01*
X111333643Y-115091895D01*
X111313109Y-114844088D01*
X111313107Y-114844076D01*
X111252063Y-114603019D01*
X111152173Y-114375294D01*
X111016166Y-114167118D01*
X110971555Y-114118658D01*
X110847744Y-113984163D01*
X110651509Y-113831427D01*
X110651507Y-113831426D01*
X110651506Y-113831425D01*
X110432811Y-113713073D01*
X110432802Y-113713070D01*
X110197616Y-113632330D01*
X109952335Y-113591401D01*
X109703665Y-113591401D01*
X109458383Y-113632330D01*
X109223197Y-113713070D01*
X109223188Y-113713073D01*
X109004493Y-113831425D01*
X108808257Y-113984162D01*
X108639833Y-114167118D01*
X108503826Y-114375294D01*
X108403936Y-114603019D01*
X108342892Y-114844076D01*
X108342890Y-114844088D01*
X108322357Y-115091895D01*
X108322357Y-115091906D01*
X107069643Y-115091906D01*
X107069643Y-115091895D01*
X107049109Y-114844088D01*
X107049107Y-114844076D01*
X106988063Y-114603019D01*
X106888173Y-114375294D01*
X106752166Y-114167118D01*
X106707555Y-114118658D01*
X106583744Y-113984163D01*
X106387509Y-113831427D01*
X106387507Y-113831426D01*
X106387506Y-113831425D01*
X106168811Y-113713073D01*
X106168802Y-113713070D01*
X105933616Y-113632330D01*
X105688335Y-113591401D01*
X105439665Y-113591401D01*
X105194383Y-113632330D01*
X104959197Y-113713070D01*
X104959188Y-113713073D01*
X104740493Y-113831425D01*
X104544257Y-113984162D01*
X104375833Y-114167118D01*
X104239826Y-114375294D01*
X104139936Y-114603019D01*
X104078892Y-114844076D01*
X104078890Y-114844088D01*
X104058357Y-115091895D01*
X104058357Y-115091906D01*
X94569643Y-115091906D01*
X94569643Y-115091895D01*
X94549109Y-114844088D01*
X94549107Y-114844076D01*
X94488063Y-114603019D01*
X94388173Y-114375294D01*
X94252166Y-114167118D01*
X94207555Y-114118658D01*
X94083744Y-113984163D01*
X93887509Y-113831427D01*
X93887507Y-113831426D01*
X93887506Y-113831425D01*
X93668811Y-113713073D01*
X93668802Y-113713070D01*
X93433616Y-113632330D01*
X93188335Y-113591401D01*
X92939665Y-113591401D01*
X92694383Y-113632330D01*
X92459197Y-113713070D01*
X92459188Y-113713073D01*
X92240493Y-113831425D01*
X92044257Y-113984162D01*
X91875833Y-114167118D01*
X91739827Y-114375292D01*
X91724056Y-114411248D01*
X91679099Y-114464733D01*
X91612363Y-114485423D01*
X91545036Y-114466748D01*
X91498492Y-114414637D01*
X91486500Y-114361437D01*
X91486500Y-113186387D01*
X98113502Y-113186387D01*
X98142716Y-113370835D01*
X98143062Y-113373018D01*
X98201455Y-113552732D01*
X98287242Y-113721099D01*
X98398312Y-113873973D01*
X98531928Y-114007589D01*
X98684802Y-114118659D01*
X98853169Y-114204446D01*
X99032883Y-114262839D01*
X99097890Y-114273135D01*
X99219514Y-114292399D01*
X99219519Y-114292399D01*
X99408486Y-114292399D01*
X99512167Y-114275976D01*
X99595117Y-114262839D01*
X99774831Y-114204446D01*
X99943198Y-114118659D01*
X100096072Y-114007589D01*
X100229688Y-113873973D01*
X100340758Y-113721099D01*
X100426545Y-113552732D01*
X100484938Y-113373018D01*
X100506751Y-113235295D01*
X100514498Y-113186387D01*
X100514498Y-112997414D01*
X100484938Y-112810787D01*
X100484938Y-112810784D01*
X100426545Y-112631070D01*
X100340758Y-112462703D01*
X100229688Y-112309829D01*
X100096072Y-112176213D01*
X99943198Y-112065143D01*
X99774831Y-111979356D01*
X99595117Y-111920963D01*
X99595115Y-111920962D01*
X99595113Y-111920962D01*
X99408486Y-111891403D01*
X99408481Y-111891403D01*
X99219519Y-111891403D01*
X99219514Y-111891403D01*
X99032886Y-111920962D01*
X98853166Y-111979357D01*
X98684801Y-112065143D01*
X98614502Y-112116219D01*
X98531928Y-112176213D01*
X98531926Y-112176215D01*
X98531925Y-112176215D01*
X98398314Y-112309826D01*
X98398314Y-112309827D01*
X98398312Y-112309829D01*
X98357332Y-112366233D01*
X98287242Y-112462702D01*
X98201456Y-112631067D01*
X98143061Y-112810787D01*
X98113502Y-112997414D01*
X98113502Y-113186387D01*
X91486500Y-113186387D01*
X91486500Y-61133000D01*
X92064000Y-61133000D01*
X92064000Y-109133000D01*
X113064000Y-109133000D01*
X113064000Y-85699600D01*
X116704659Y-85699600D01*
X116723975Y-85895729D01*
X116781188Y-86084333D01*
X116874086Y-86258132D01*
X116874090Y-86258139D01*
X116999116Y-86410483D01*
X117151460Y-86535509D01*
X117151467Y-86535513D01*
X117325266Y-86628411D01*
X117325269Y-86628411D01*
X117325273Y-86628414D01*
X117513868Y-86685624D01*
X117710000Y-86704941D01*
X117906132Y-86685624D01*
X118094727Y-86628414D01*
X118113004Y-86618645D01*
X118268532Y-86535513D01*
X118268538Y-86535510D01*
X118420883Y-86410483D01*
X118545910Y-86258138D01*
X118638814Y-86084327D01*
X118696024Y-85895732D01*
X118715341Y-85699600D01*
X118696024Y-85503468D01*
X118638814Y-85314873D01*
X118638811Y-85314869D01*
X118638811Y-85314866D01*
X118545913Y-85141067D01*
X118545909Y-85141060D01*
X118420884Y-84988718D01*
X118405833Y-84976365D01*
X118366500Y-84918619D01*
X118360500Y-84880514D01*
X118360500Y-84839905D01*
X118380185Y-84772866D01*
X118396814Y-84752229D01*
X122021705Y-81127337D01*
X122083026Y-81093854D01*
X122121535Y-81091617D01*
X122140913Y-81093526D01*
X122337045Y-81074209D01*
X122525640Y-81016999D01*
X122589497Y-80982867D01*
X122615932Y-80968737D01*
X122699451Y-80924095D01*
X122851796Y-80799068D01*
X122976823Y-80646723D01*
X123061074Y-80489101D01*
X123069724Y-80472918D01*
X123069724Y-80472917D01*
X123069727Y-80472912D01*
X123126937Y-80284317D01*
X123146254Y-80088185D01*
X123126937Y-79892053D01*
X123069727Y-79703458D01*
X123069724Y-79703454D01*
X123069724Y-79703451D01*
X122976826Y-79529652D01*
X122976822Y-79529645D01*
X122851796Y-79377301D01*
X122699452Y-79252275D01*
X122699445Y-79252271D01*
X122525646Y-79159373D01*
X122525640Y-79159371D01*
X122337045Y-79102161D01*
X122337042Y-79102160D01*
X122140913Y-79082844D01*
X121944783Y-79102160D01*
X121756179Y-79159373D01*
X121582380Y-79252271D01*
X121582373Y-79252275D01*
X121430029Y-79377301D01*
X121305003Y-79529645D01*
X121304999Y-79529652D01*
X121212101Y-79703451D01*
X121154888Y-79892055D01*
X121135572Y-80088184D01*
X121137480Y-80107557D01*
X121124461Y-80176204D01*
X121101758Y-80207392D01*
X117204722Y-84104429D01*
X117204720Y-84104431D01*
X117176633Y-84146470D01*
X117176631Y-84146473D01*
X117133534Y-84210971D01*
X117084499Y-84329353D01*
X117084497Y-84329359D01*
X117059500Y-84455026D01*
X117059500Y-84880514D01*
X117039815Y-84947553D01*
X117014167Y-84976365D01*
X116999115Y-84988718D01*
X116874090Y-85141060D01*
X116874086Y-85141067D01*
X116781188Y-85314866D01*
X116723975Y-85503470D01*
X116704659Y-85699600D01*
X113064000Y-85699600D01*
X113064000Y-82092800D01*
X115936259Y-82092800D01*
X115955575Y-82288929D01*
X116012788Y-82477533D01*
X116105686Y-82651332D01*
X116105690Y-82651339D01*
X116230716Y-82803683D01*
X116383060Y-82928709D01*
X116383067Y-82928713D01*
X116556866Y-83021611D01*
X116556869Y-83021611D01*
X116556873Y-83021614D01*
X116745468Y-83078824D01*
X116941600Y-83098141D01*
X117137732Y-83078824D01*
X117326327Y-83021614D01*
X117332741Y-83018186D01*
X117423447Y-82969702D01*
X117500138Y-82928710D01*
X117652483Y-82803683D01*
X117777510Y-82651338D01*
X117864527Y-82488541D01*
X117870411Y-82477533D01*
X117870411Y-82477532D01*
X117870414Y-82477527D01*
X117927624Y-82288932D01*
X117946941Y-82092800D01*
X117927624Y-81896668D01*
X117870414Y-81708073D01*
X117870411Y-81708069D01*
X117870411Y-81708066D01*
X117777513Y-81534267D01*
X117777509Y-81534260D01*
X117652485Y-81381918D01*
X117612434Y-81349049D01*
X117573100Y-81291303D01*
X117567100Y-81253197D01*
X117567100Y-79274802D01*
X117586785Y-79207763D01*
X117612437Y-79178948D01*
X117652482Y-79146084D01*
X117777509Y-78993739D01*
X117777513Y-78993732D01*
X117870411Y-78819933D01*
X117870411Y-78819932D01*
X117870414Y-78819927D01*
X117927624Y-78631332D01*
X117946941Y-78435200D01*
X117927624Y-78239068D01*
X117870414Y-78050473D01*
X117870411Y-78050469D01*
X117870411Y-78050466D01*
X117777513Y-77876667D01*
X117777509Y-77876660D01*
X117652483Y-77724316D01*
X117500139Y-77599290D01*
X117500132Y-77599286D01*
X117326333Y-77506388D01*
X117326327Y-77506386D01*
X117137732Y-77449176D01*
X117137729Y-77449175D01*
X116941600Y-77429859D01*
X116745470Y-77449175D01*
X116556866Y-77506388D01*
X116383067Y-77599286D01*
X116383060Y-77599290D01*
X116230716Y-77724316D01*
X116105690Y-77876660D01*
X116105686Y-77876667D01*
X116012788Y-78050466D01*
X115955575Y-78239070D01*
X115936259Y-78435200D01*
X115955575Y-78631329D01*
X116012788Y-78819933D01*
X116105686Y-78993732D01*
X116105690Y-78993739D01*
X116230717Y-79146084D01*
X116270763Y-79178948D01*
X116310099Y-79236693D01*
X116316100Y-79274802D01*
X116316100Y-81253197D01*
X116296415Y-81320236D01*
X116270766Y-81349049D01*
X116230714Y-81381918D01*
X116105690Y-81534260D01*
X116105686Y-81534267D01*
X116012788Y-81708066D01*
X115955575Y-81896670D01*
X115936259Y-82092800D01*
X113064000Y-82092800D01*
X113064000Y-72190000D01*
X116794659Y-72190000D01*
X116813975Y-72386129D01*
X116871188Y-72574733D01*
X116964086Y-72748532D01*
X116964090Y-72748539D01*
X117089116Y-72900883D01*
X117241460Y-73025909D01*
X117241467Y-73025913D01*
X117415266Y-73118811D01*
X117415269Y-73118811D01*
X117415273Y-73118814D01*
X117603868Y-73176024D01*
X117800000Y-73195341D01*
X117996132Y-73176024D01*
X118184727Y-73118814D01*
X118358538Y-73025910D01*
X118510883Y-72900883D01*
X118573559Y-72824512D01*
X118631304Y-72785178D01*
X118701149Y-72783307D01*
X118760917Y-72819494D01*
X118765265Y-72824512D01*
X118835052Y-72909547D01*
X118987396Y-73034573D01*
X118987403Y-73034577D01*
X119161202Y-73127475D01*
X119161205Y-73127475D01*
X119161209Y-73127478D01*
X119349804Y-73184688D01*
X119545936Y-73204005D01*
X119742068Y-73184688D01*
X119930663Y-73127478D01*
X119946873Y-73118814D01*
X120047899Y-73064814D01*
X120104474Y-73034574D01*
X120256819Y-72909547D01*
X120268076Y-72895830D01*
X120289686Y-72869499D01*
X120347431Y-72830165D01*
X120385539Y-72824164D01*
X122216065Y-72824164D01*
X122283104Y-72843849D01*
X122294730Y-72852311D01*
X122440460Y-72971909D01*
X122440467Y-72971913D01*
X122614266Y-73064811D01*
X122614269Y-73064811D01*
X122614273Y-73064814D01*
X122802868Y-73122024D01*
X122999000Y-73141341D01*
X123195132Y-73122024D01*
X123383727Y-73064814D01*
X123440297Y-73034577D01*
X123557532Y-72971913D01*
X123557538Y-72971910D01*
X123709883Y-72846883D01*
X123834910Y-72694538D01*
X123927814Y-72520727D01*
X123985024Y-72332132D01*
X123999454Y-72185612D01*
X124025614Y-72120826D01*
X124082649Y-72080467D01*
X124152449Y-72077350D01*
X124181311Y-72088409D01*
X124202273Y-72099614D01*
X124390868Y-72156824D01*
X124587000Y-72176141D01*
X124783132Y-72156824D01*
X124971727Y-72099614D01*
X125007549Y-72080467D01*
X125145532Y-72006713D01*
X125145538Y-72006710D01*
X125297883Y-71881683D01*
X125422910Y-71729338D01*
X125506387Y-71573164D01*
X125515811Y-71555533D01*
X125515811Y-71555532D01*
X125515814Y-71555527D01*
X125573024Y-71366932D01*
X125592341Y-71170800D01*
X125590432Y-71151424D01*
X125603449Y-71082782D01*
X125626151Y-71051593D01*
X127875276Y-68802470D01*
X127946465Y-68695927D01*
X127995501Y-68577544D01*
X128020500Y-68451869D01*
X128020500Y-60122931D01*
X128020500Y-60122928D01*
X127995502Y-59997261D01*
X127995501Y-59997260D01*
X127995501Y-59997256D01*
X127946465Y-59878873D01*
X127875277Y-59772331D01*
X127875275Y-59772329D01*
X127875273Y-59772326D01*
X127875272Y-59772325D01*
X126261154Y-58158208D01*
X126227669Y-58096885D01*
X126225433Y-58058369D01*
X126227341Y-58039003D01*
X126227341Y-58039001D01*
X126227341Y-58039000D01*
X126214302Y-57906610D01*
X134744500Y-57906610D01*
X134765468Y-58039001D01*
X134771598Y-58077701D01*
X134825127Y-58242445D01*
X134903768Y-58396788D01*
X135005586Y-58536928D01*
X135128072Y-58659414D01*
X135268212Y-58761232D01*
X135422555Y-58839873D01*
X135587299Y-58893402D01*
X135758389Y-58920500D01*
X135895736Y-58920500D01*
X135962775Y-58940185D01*
X136008530Y-58992989D01*
X136018474Y-59062147D01*
X135991589Y-59123165D01*
X135943091Y-59182260D01*
X135943086Y-59182267D01*
X135850188Y-59356066D01*
X135792975Y-59544670D01*
X135773659Y-59740800D01*
X135792975Y-59936929D01*
X135850188Y-60125533D01*
X135943086Y-60299332D01*
X135943090Y-60299339D01*
X136068116Y-60451683D01*
X136220460Y-60576709D01*
X136220467Y-60576713D01*
X136394266Y-60669611D01*
X136394269Y-60669611D01*
X136394273Y-60669614D01*
X136582868Y-60726824D01*
X136779000Y-60746141D01*
X136970419Y-60727288D01*
X137006757Y-60729072D01*
X137037971Y-60735281D01*
X137098393Y-60747300D01*
X137098394Y-60747300D01*
X139864900Y-60747300D01*
X139931939Y-60766985D01*
X139977694Y-60819789D01*
X139988900Y-60871300D01*
X139988900Y-64291339D01*
X139969215Y-64358378D01*
X139916411Y-64404133D01*
X139877054Y-64414742D01*
X139834071Y-64418975D01*
X139645466Y-64476188D01*
X139471667Y-64569086D01*
X139471660Y-64569090D01*
X139319316Y-64694116D01*
X139194290Y-64846460D01*
X139194286Y-64846467D01*
X139101388Y-65020266D01*
X139044175Y-65208870D01*
X139024859Y-65405000D01*
X139044175Y-65601129D01*
X139101388Y-65789733D01*
X139194286Y-65963532D01*
X139194290Y-65963539D01*
X139319316Y-66115883D01*
X139471660Y-66240909D01*
X139471667Y-66240913D01*
X139645466Y-66333811D01*
X139645469Y-66333811D01*
X139645473Y-66333814D01*
X139834068Y-66391024D01*
X140030200Y-66410341D01*
X140226332Y-66391024D01*
X140414927Y-66333814D01*
X140588738Y-66240910D01*
X140741083Y-66115883D01*
X140866110Y-65963538D01*
X140959014Y-65789727D01*
X141016224Y-65601132D01*
X141035541Y-65405000D01*
X141030462Y-65353439D01*
X141043480Y-65284797D01*
X141066183Y-65253607D01*
X141100258Y-65219533D01*
X141168712Y-65117085D01*
X141196332Y-65050403D01*
X141215863Y-65003252D01*
X141229371Y-64935341D01*
X141239901Y-64882406D01*
X141239901Y-64759193D01*
X141239901Y-64754083D01*
X141239900Y-64754057D01*
X141239900Y-60402602D01*
X141259585Y-60335563D01*
X141285237Y-60306748D01*
X141325282Y-60273884D01*
X141450309Y-60121539D01*
X141450313Y-60121532D01*
X141543211Y-59947733D01*
X141543211Y-59947732D01*
X141543214Y-59947727D01*
X141600424Y-59759132D01*
X141619741Y-59563000D01*
X141600424Y-59366868D01*
X141543214Y-59178273D01*
X141543211Y-59178269D01*
X141543211Y-59178266D01*
X141450313Y-59004467D01*
X141450308Y-59004459D01*
X141437272Y-58988575D01*
X141409958Y-58924266D01*
X141421748Y-58855398D01*
X141468900Y-58803837D01*
X141476806Y-58799436D01*
X141551788Y-58761232D01*
X141691928Y-58659414D01*
X141814414Y-58536928D01*
X141916232Y-58396788D01*
X141994873Y-58242445D01*
X142048402Y-58077701D01*
X142075500Y-57906611D01*
X142075500Y-57733389D01*
X142048402Y-57562299D01*
X141994873Y-57397555D01*
X141916232Y-57243212D01*
X141814414Y-57103072D01*
X141691928Y-56980586D01*
X141551788Y-56878768D01*
X141526105Y-56865682D01*
X141415198Y-56809172D01*
X141364402Y-56761197D01*
X141347607Y-56693376D01*
X141370144Y-56627242D01*
X141375620Y-56620047D01*
X141399510Y-56590938D01*
X141449416Y-56497570D01*
X141492411Y-56417133D01*
X141492411Y-56417132D01*
X141492414Y-56417127D01*
X141549624Y-56228532D01*
X141568941Y-56032400D01*
X141549624Y-55836268D01*
X141492414Y-55647673D01*
X141492411Y-55647669D01*
X141492411Y-55647666D01*
X141399513Y-55473867D01*
X141399509Y-55473860D01*
X141274483Y-55321516D01*
X141122139Y-55196490D01*
X141122132Y-55196486D01*
X140948333Y-55103588D01*
X140948327Y-55103586D01*
X140759732Y-55046376D01*
X140759729Y-55046375D01*
X140563600Y-55027059D01*
X140367470Y-55046375D01*
X140178866Y-55103588D01*
X140005067Y-55196486D01*
X140005060Y-55196490D01*
X139852716Y-55321516D01*
X139727690Y-55473860D01*
X139727686Y-55473867D01*
X139634788Y-55647666D01*
X139577575Y-55836270D01*
X139558259Y-56032400D01*
X139577575Y-56228529D01*
X139586730Y-56258709D01*
X139607867Y-56328389D01*
X139634788Y-56417133D01*
X139727686Y-56590932D01*
X139727690Y-56590938D01*
X139758282Y-56628215D01*
X139785594Y-56692525D01*
X139773803Y-56761392D01*
X139726650Y-56812952D01*
X139718723Y-56817364D01*
X139598211Y-56878768D01*
X139518256Y-56936859D01*
X139458072Y-56980586D01*
X139458070Y-56980588D01*
X139458069Y-56980588D01*
X139335588Y-57103069D01*
X139335588Y-57103070D01*
X139335586Y-57103072D01*
X139291859Y-57163256D01*
X139233768Y-57243211D01*
X139155128Y-57397552D01*
X139101597Y-57562302D01*
X139074500Y-57733389D01*
X139074500Y-57906610D01*
X139095468Y-58039001D01*
X139101598Y-58077701D01*
X139155127Y-58242445D01*
X139233768Y-58396788D01*
X139335586Y-58536928D01*
X139458072Y-58659414D01*
X139598212Y-58761232D01*
X139729612Y-58828183D01*
X139780408Y-58876157D01*
X139797203Y-58943978D01*
X139779519Y-58998104D01*
X139781361Y-58999089D01*
X139685588Y-59178266D01*
X139628375Y-59366871D01*
X139626644Y-59384453D01*
X139600484Y-59449240D01*
X139543450Y-59489600D01*
X139503241Y-59496300D01*
X137842316Y-59496300D01*
X137775277Y-59476615D01*
X137729522Y-59423811D01*
X137723659Y-59408308D01*
X137707814Y-59356073D01*
X137707811Y-59356069D01*
X137707811Y-59356066D01*
X137614913Y-59182267D01*
X137614909Y-59182260D01*
X137489883Y-59029916D01*
X137446665Y-58994448D01*
X137407331Y-58936702D01*
X137405460Y-58866857D01*
X137441648Y-58807089D01*
X137469036Y-58788110D01*
X137521786Y-58761233D01*
X137521785Y-58761233D01*
X137521788Y-58761232D01*
X137661928Y-58659414D01*
X137784414Y-58536928D01*
X137886232Y-58396788D01*
X137964873Y-58242445D01*
X138018402Y-58077701D01*
X138045500Y-57906611D01*
X138045500Y-57733389D01*
X138018402Y-57562299D01*
X137964873Y-57397555D01*
X137886232Y-57243212D01*
X137784414Y-57103072D01*
X137661928Y-56980586D01*
X137521788Y-56878768D01*
X137496104Y-56865681D01*
X137445309Y-56817707D01*
X137428514Y-56749886D01*
X137447383Y-56692166D01*
X137446438Y-56691661D01*
X137449298Y-56686308D01*
X137449301Y-56686302D01*
X137449307Y-56686292D01*
X137449307Y-56686291D01*
X137449311Y-56686286D01*
X137496463Y-56572452D01*
X137520500Y-56451606D01*
X137520500Y-56328394D01*
X137496463Y-56207548D01*
X137449311Y-56093714D01*
X137449310Y-56093713D01*
X137449307Y-56093707D01*
X137380858Y-55991267D01*
X137380855Y-55991263D01*
X137293736Y-55904144D01*
X137293732Y-55904141D01*
X137191292Y-55835692D01*
X137191283Y-55835687D01*
X137077454Y-55788538D01*
X137077455Y-55788538D01*
X137077452Y-55788537D01*
X137077448Y-55788536D01*
X137077444Y-55788535D01*
X136956610Y-55764500D01*
X136956606Y-55764500D01*
X136833394Y-55764500D01*
X136833389Y-55764500D01*
X136712555Y-55788535D01*
X136712545Y-55788538D01*
X136598716Y-55835687D01*
X136598707Y-55835692D01*
X136496267Y-55904141D01*
X136496263Y-55904144D01*
X136409144Y-55991263D01*
X136409141Y-55991267D01*
X136340692Y-56093707D01*
X136340687Y-56093716D01*
X136293538Y-56207545D01*
X136293535Y-56207555D01*
X136269500Y-56328389D01*
X136269500Y-56328393D01*
X136269500Y-56328394D01*
X136269500Y-56451606D01*
X136269501Y-56451610D01*
X136293310Y-56571310D01*
X136287081Y-56640901D01*
X136244218Y-56696078D01*
X136178328Y-56719322D01*
X136171692Y-56719500D01*
X135758389Y-56719500D01*
X135718728Y-56725781D01*
X135587302Y-56746597D01*
X135422552Y-56800128D01*
X135268211Y-56878768D01*
X135188256Y-56936859D01*
X135128072Y-56980586D01*
X135128070Y-56980588D01*
X135128069Y-56980588D01*
X135005588Y-57103069D01*
X135005588Y-57103070D01*
X135005586Y-57103072D01*
X134961859Y-57163256D01*
X134903768Y-57243211D01*
X134825128Y-57397552D01*
X134771597Y-57562302D01*
X134744500Y-57733389D01*
X134744500Y-57906610D01*
X126214302Y-57906610D01*
X126208024Y-57842868D01*
X126150814Y-57654273D01*
X126150811Y-57654269D01*
X126150811Y-57654266D01*
X126057913Y-57480467D01*
X126057909Y-57480460D01*
X125932883Y-57328116D01*
X125780539Y-57203090D01*
X125780532Y-57203086D01*
X125606733Y-57110188D01*
X125606727Y-57110186D01*
X125418132Y-57052976D01*
X125418129Y-57052975D01*
X125222000Y-57033659D01*
X125025870Y-57052975D01*
X124837266Y-57110188D01*
X124663467Y-57203086D01*
X124663460Y-57203090D01*
X124511116Y-57328116D01*
X124386090Y-57480460D01*
X124386086Y-57480467D01*
X124293188Y-57654266D01*
X124235975Y-57842870D01*
X124216659Y-58039000D01*
X124235975Y-58235129D01*
X124293188Y-58423733D01*
X124386086Y-58597532D01*
X124386090Y-58597539D01*
X124511116Y-58749883D01*
X124663460Y-58874909D01*
X124663467Y-58874913D01*
X124837266Y-58967811D01*
X124837269Y-58967811D01*
X124837273Y-58967814D01*
X125025868Y-59025024D01*
X125222000Y-59044341D01*
X125222000Y-59044340D01*
X125222001Y-59044341D01*
X125222003Y-59044341D01*
X125233515Y-59043206D01*
X125241369Y-59042433D01*
X125310015Y-59055449D01*
X125341208Y-59078154D01*
X126683181Y-60420127D01*
X126716666Y-60481450D01*
X126719500Y-60507808D01*
X126719500Y-62807495D01*
X126699815Y-62874534D01*
X126647011Y-62920289D01*
X126583346Y-62930897D01*
X126520000Y-62924659D01*
X126323870Y-62943975D01*
X126135266Y-63001188D01*
X125961467Y-63094086D01*
X125961460Y-63094090D01*
X125809116Y-63219116D01*
X125684090Y-63371460D01*
X125635508Y-63462349D01*
X125613834Y-63491573D01*
X125574144Y-63531265D01*
X125574139Y-63531270D01*
X117951394Y-71154014D01*
X117890071Y-71187499D01*
X117851562Y-71189736D01*
X117800003Y-71184659D01*
X117800000Y-71184659D01*
X117603870Y-71203975D01*
X117415266Y-71261188D01*
X117241467Y-71354086D01*
X117241460Y-71354090D01*
X117089116Y-71479116D01*
X116964090Y-71631460D01*
X116964086Y-71631467D01*
X116871188Y-71805266D01*
X116813975Y-71993870D01*
X116794659Y-72190000D01*
X113064000Y-72190000D01*
X113064000Y-61133000D01*
X92064000Y-61133000D01*
X91486500Y-61133000D01*
X91486500Y-57132486D01*
X98467502Y-57132486D01*
X98497061Y-57319113D01*
X98497062Y-57319117D01*
X98555455Y-57498831D01*
X98641242Y-57667198D01*
X98752312Y-57820072D01*
X98885928Y-57953688D01*
X99038802Y-58064758D01*
X99207169Y-58150545D01*
X99386883Y-58208938D01*
X99456871Y-58220023D01*
X99573514Y-58238498D01*
X99573519Y-58238498D01*
X99762486Y-58238498D01*
X99866167Y-58222075D01*
X99949117Y-58208938D01*
X100128831Y-58150545D01*
X100297198Y-58064758D01*
X100450072Y-57953688D01*
X100583688Y-57820072D01*
X100694758Y-57667198D01*
X100780545Y-57498831D01*
X100838938Y-57319117D01*
X100857315Y-57203090D01*
X100868498Y-57132486D01*
X115231502Y-57132486D01*
X115261061Y-57319113D01*
X115261062Y-57319117D01*
X115319455Y-57498831D01*
X115405242Y-57667198D01*
X115516312Y-57820072D01*
X115649928Y-57953688D01*
X115802802Y-58064758D01*
X115971169Y-58150545D01*
X116150883Y-58208938D01*
X116220871Y-58220023D01*
X116337514Y-58238498D01*
X116337519Y-58238498D01*
X116526486Y-58238498D01*
X116630167Y-58222075D01*
X116713117Y-58208938D01*
X116892831Y-58150545D01*
X117061198Y-58064758D01*
X117214072Y-57953688D01*
X117347688Y-57820072D01*
X117458758Y-57667198D01*
X117544545Y-57498831D01*
X117602938Y-57319117D01*
X117621315Y-57203090D01*
X117632498Y-57132486D01*
X117632498Y-56943513D01*
X117609787Y-56800127D01*
X117602938Y-56756883D01*
X117544545Y-56577169D01*
X117458758Y-56408802D01*
X117347688Y-56255928D01*
X117214072Y-56122312D01*
X117061198Y-56011242D01*
X117002496Y-55981332D01*
X116892833Y-55925456D01*
X116892832Y-55925455D01*
X116892831Y-55925455D01*
X116713117Y-55867062D01*
X116713115Y-55867061D01*
X116713113Y-55867061D01*
X116526486Y-55837502D01*
X116526481Y-55837502D01*
X116337519Y-55837502D01*
X116337514Y-55837502D01*
X116150886Y-55867061D01*
X115971166Y-55925456D01*
X115802801Y-56011242D01*
X115715580Y-56074612D01*
X115649928Y-56122312D01*
X115649926Y-56122314D01*
X115649925Y-56122314D01*
X115516314Y-56255925D01*
X115516314Y-56255926D01*
X115516312Y-56255928D01*
X115485400Y-56298475D01*
X115405242Y-56408801D01*
X115319456Y-56577166D01*
X115261061Y-56756886D01*
X115231502Y-56943513D01*
X115231502Y-57132486D01*
X100868498Y-57132486D01*
X100868498Y-56943513D01*
X100845787Y-56800127D01*
X100838938Y-56756883D01*
X100780545Y-56577169D01*
X100694758Y-56408802D01*
X100583688Y-56255928D01*
X100450072Y-56122312D01*
X100297198Y-56011242D01*
X100238496Y-55981332D01*
X100128833Y-55925456D01*
X100128832Y-55925455D01*
X100128831Y-55925455D01*
X99949117Y-55867062D01*
X99949115Y-55867061D01*
X99949113Y-55867061D01*
X99762486Y-55837502D01*
X99762481Y-55837502D01*
X99573519Y-55837502D01*
X99573514Y-55837502D01*
X99386886Y-55867061D01*
X99207166Y-55925456D01*
X99038801Y-56011242D01*
X98951580Y-56074612D01*
X98885928Y-56122312D01*
X98885926Y-56122314D01*
X98885925Y-56122314D01*
X98752314Y-56255925D01*
X98752314Y-56255926D01*
X98752312Y-56255928D01*
X98721400Y-56298475D01*
X98641242Y-56408801D01*
X98555456Y-56577166D01*
X98497061Y-56756886D01*
X98467502Y-56943513D01*
X98467502Y-57132486D01*
X91486500Y-57132486D01*
X91486500Y-55038005D01*
X91912357Y-55038005D01*
X91932890Y-55285812D01*
X91932892Y-55285824D01*
X91993936Y-55526881D01*
X92093826Y-55754606D01*
X92229833Y-55962782D01*
X92262245Y-55997991D01*
X92398256Y-56145738D01*
X92594491Y-56298474D01*
X92813190Y-56416828D01*
X93048386Y-56497571D01*
X93293665Y-56538500D01*
X93542335Y-56538500D01*
X93787614Y-56497571D01*
X94022810Y-56416828D01*
X94241509Y-56298474D01*
X94437744Y-56145738D01*
X94606164Y-55962785D01*
X94742173Y-55754607D01*
X94842063Y-55526881D01*
X94903108Y-55285821D01*
X94904303Y-55271404D01*
X94923643Y-55038005D01*
X104412357Y-55038005D01*
X104432890Y-55285812D01*
X104432892Y-55285824D01*
X104493936Y-55526881D01*
X104593826Y-55754606D01*
X104729833Y-55962782D01*
X104762245Y-55997991D01*
X104898256Y-56145738D01*
X105094491Y-56298474D01*
X105313190Y-56416828D01*
X105548386Y-56497571D01*
X105793665Y-56538500D01*
X106042335Y-56538500D01*
X106287614Y-56497571D01*
X106522810Y-56416828D01*
X106741509Y-56298474D01*
X106937744Y-56145738D01*
X107106164Y-55962785D01*
X107242173Y-55754607D01*
X107342063Y-55526881D01*
X107403108Y-55285821D01*
X107404303Y-55271404D01*
X107423643Y-55038005D01*
X108676357Y-55038005D01*
X108696890Y-55285812D01*
X108696892Y-55285824D01*
X108757936Y-55526881D01*
X108857826Y-55754606D01*
X108993833Y-55962782D01*
X109026245Y-55997991D01*
X109162256Y-56145738D01*
X109358491Y-56298474D01*
X109577190Y-56416828D01*
X109812386Y-56497571D01*
X110057665Y-56538500D01*
X110306335Y-56538500D01*
X110551614Y-56497571D01*
X110786810Y-56416828D01*
X111005509Y-56298474D01*
X111201744Y-56145738D01*
X111370164Y-55962785D01*
X111506173Y-55754607D01*
X111606063Y-55526881D01*
X111667108Y-55285821D01*
X111668303Y-55271404D01*
X111687643Y-55038005D01*
X121176357Y-55038005D01*
X121196890Y-55285812D01*
X121196892Y-55285824D01*
X121257936Y-55526881D01*
X121357826Y-55754606D01*
X121493833Y-55962782D01*
X121526245Y-55997991D01*
X121662256Y-56145738D01*
X121858491Y-56298474D01*
X122077190Y-56416828D01*
X122312386Y-56497571D01*
X122557665Y-56538500D01*
X122806335Y-56538500D01*
X123051614Y-56497571D01*
X123286810Y-56416828D01*
X123505509Y-56298474D01*
X123701744Y-56145738D01*
X123870164Y-55962785D01*
X124006173Y-55754607D01*
X124106063Y-55526881D01*
X124167108Y-55285821D01*
X124168303Y-55271404D01*
X124187643Y-55038005D01*
X124187643Y-55037994D01*
X124167109Y-54790187D01*
X124167107Y-54790175D01*
X124106063Y-54549118D01*
X124006173Y-54321393D01*
X123870166Y-54113217D01*
X123782744Y-54018252D01*
X123701744Y-53930262D01*
X123505509Y-53777526D01*
X123505507Y-53777525D01*
X123505506Y-53777524D01*
X123286811Y-53659172D01*
X123286802Y-53659169D01*
X123051616Y-53578429D01*
X122806335Y-53537500D01*
X122557665Y-53537500D01*
X122312383Y-53578429D01*
X122077197Y-53659169D01*
X122077188Y-53659172D01*
X121858493Y-53777524D01*
X121662257Y-53930261D01*
X121493833Y-54113217D01*
X121357826Y-54321393D01*
X121257936Y-54549118D01*
X121196892Y-54790175D01*
X121196890Y-54790187D01*
X121176357Y-55037994D01*
X121176357Y-55038005D01*
X111687643Y-55038005D01*
X111687643Y-55037994D01*
X111667109Y-54790187D01*
X111667107Y-54790175D01*
X111606063Y-54549118D01*
X111506173Y-54321393D01*
X111370166Y-54113217D01*
X111282744Y-54018252D01*
X111201744Y-53930262D01*
X111005509Y-53777526D01*
X111005507Y-53777525D01*
X111005506Y-53777524D01*
X110786811Y-53659172D01*
X110786802Y-53659169D01*
X110551616Y-53578429D01*
X110306335Y-53537500D01*
X110057665Y-53537500D01*
X109812383Y-53578429D01*
X109577197Y-53659169D01*
X109577188Y-53659172D01*
X109358493Y-53777524D01*
X109162257Y-53930261D01*
X108993833Y-54113217D01*
X108857826Y-54321393D01*
X108757936Y-54549118D01*
X108696892Y-54790175D01*
X108696890Y-54790187D01*
X108676357Y-55037994D01*
X108676357Y-55038005D01*
X107423643Y-55038005D01*
X107423643Y-55037994D01*
X107403109Y-54790187D01*
X107403107Y-54790175D01*
X107342063Y-54549118D01*
X107242173Y-54321393D01*
X107106166Y-54113217D01*
X107018744Y-54018252D01*
X106937744Y-53930262D01*
X106741509Y-53777526D01*
X106741507Y-53777525D01*
X106741506Y-53777524D01*
X106522811Y-53659172D01*
X106522802Y-53659169D01*
X106287616Y-53578429D01*
X106042335Y-53537500D01*
X105793665Y-53537500D01*
X105548383Y-53578429D01*
X105313197Y-53659169D01*
X105313188Y-53659172D01*
X105094493Y-53777524D01*
X104898257Y-53930261D01*
X104729833Y-54113217D01*
X104593826Y-54321393D01*
X104493936Y-54549118D01*
X104432892Y-54790175D01*
X104432890Y-54790187D01*
X104412357Y-55037994D01*
X104412357Y-55038005D01*
X94923643Y-55038005D01*
X94923643Y-55037994D01*
X94903109Y-54790187D01*
X94903107Y-54790175D01*
X94842063Y-54549118D01*
X94742173Y-54321393D01*
X94606166Y-54113217D01*
X94518744Y-54018252D01*
X94437744Y-53930262D01*
X94241509Y-53777526D01*
X94241507Y-53777525D01*
X94241506Y-53777524D01*
X94022811Y-53659172D01*
X94022802Y-53659169D01*
X93787616Y-53578429D01*
X93542335Y-53537500D01*
X93293665Y-53537500D01*
X93048383Y-53578429D01*
X92813197Y-53659169D01*
X92813188Y-53659172D01*
X92594493Y-53777524D01*
X92398257Y-53930261D01*
X92229833Y-54113217D01*
X92093826Y-54321393D01*
X91993936Y-54549118D01*
X91932892Y-54790175D01*
X91932890Y-54790187D01*
X91912357Y-55037994D01*
X91912357Y-55038005D01*
X91486500Y-55038005D01*
X91486500Y-50038005D01*
X91912859Y-50038005D01*
X91933385Y-50285729D01*
X91933387Y-50285738D01*
X91994412Y-50526717D01*
X92094266Y-50754364D01*
X92194564Y-50907882D01*
X92853429Y-50249017D01*
X92858937Y-50269571D01*
X92937922Y-50406377D01*
X93049623Y-50518078D01*
X93186429Y-50597063D01*
X93206982Y-50602570D01*
X92547942Y-51261609D01*
X92594768Y-51298055D01*
X92594770Y-51298056D01*
X92813385Y-51416364D01*
X92813396Y-51416369D01*
X93048506Y-51497083D01*
X93293707Y-51538000D01*
X93542293Y-51538000D01*
X93787493Y-51497083D01*
X94022603Y-51416369D01*
X94022614Y-51416364D01*
X94241228Y-51298057D01*
X94241231Y-51298055D01*
X94288056Y-51261609D01*
X93629017Y-50602570D01*
X93649571Y-50597063D01*
X93786377Y-50518078D01*
X93898078Y-50406377D01*
X93977063Y-50269571D01*
X93982570Y-50249018D01*
X94641434Y-50907882D01*
X94741731Y-50754369D01*
X94841587Y-50526717D01*
X94902612Y-50285738D01*
X94902614Y-50285729D01*
X94923141Y-50038005D01*
X104412357Y-50038005D01*
X104432890Y-50285812D01*
X104432892Y-50285824D01*
X104493936Y-50526881D01*
X104593826Y-50754606D01*
X104729833Y-50962782D01*
X104729836Y-50962785D01*
X104898256Y-51145738D01*
X105094491Y-51298474D01*
X105165927Y-51337133D01*
X105312332Y-51416364D01*
X105313190Y-51416828D01*
X105532141Y-51491994D01*
X105546964Y-51497083D01*
X105548386Y-51497571D01*
X105793665Y-51538500D01*
X106042335Y-51538500D01*
X106287614Y-51497571D01*
X106522810Y-51416828D01*
X106741509Y-51298474D01*
X106937744Y-51145738D01*
X107106164Y-50962785D01*
X107242173Y-50754607D01*
X107342063Y-50526881D01*
X107403108Y-50285821D01*
X107404455Y-50269571D01*
X107423643Y-50038005D01*
X108676859Y-50038005D01*
X108697385Y-50285729D01*
X108697387Y-50285738D01*
X108758412Y-50526717D01*
X108858266Y-50754364D01*
X108958564Y-50907882D01*
X109617429Y-50249017D01*
X109622937Y-50269571D01*
X109701922Y-50406377D01*
X109813623Y-50518078D01*
X109950429Y-50597063D01*
X109970982Y-50602570D01*
X109311942Y-51261609D01*
X109358768Y-51298055D01*
X109358770Y-51298056D01*
X109577385Y-51416364D01*
X109577396Y-51416369D01*
X109812506Y-51497083D01*
X110057707Y-51538000D01*
X110306293Y-51538000D01*
X110551493Y-51497083D01*
X110786603Y-51416369D01*
X110786614Y-51416364D01*
X111005228Y-51298057D01*
X111005231Y-51298055D01*
X111052056Y-51261609D01*
X110393017Y-50602570D01*
X110413571Y-50597063D01*
X110550377Y-50518078D01*
X110662078Y-50406377D01*
X110741063Y-50269571D01*
X110746570Y-50249018D01*
X111405434Y-50907882D01*
X111505731Y-50754369D01*
X111605587Y-50526717D01*
X111666612Y-50285738D01*
X111666614Y-50285729D01*
X111687141Y-50038005D01*
X121176357Y-50038005D01*
X121196890Y-50285812D01*
X121196892Y-50285824D01*
X121257936Y-50526881D01*
X121357826Y-50754606D01*
X121493833Y-50962782D01*
X121493836Y-50962785D01*
X121662256Y-51145738D01*
X121858491Y-51298474D01*
X121929927Y-51337133D01*
X122076332Y-51416364D01*
X122077190Y-51416828D01*
X122296141Y-51491994D01*
X122310964Y-51497083D01*
X122312386Y-51497571D01*
X122557665Y-51538500D01*
X122806335Y-51538500D01*
X123051614Y-51497571D01*
X123286810Y-51416828D01*
X123505509Y-51298474D01*
X123701744Y-51145738D01*
X123870164Y-50962785D01*
X123876949Y-50952400D01*
X130998459Y-50952400D01*
X131017775Y-51148529D01*
X131074988Y-51337133D01*
X131167886Y-51510932D01*
X131167890Y-51510939D01*
X131292915Y-51663282D01*
X131323994Y-51688787D01*
X131357965Y-51716666D01*
X131397299Y-51774410D01*
X131403300Y-51812519D01*
X131403300Y-52338930D01*
X131403299Y-52338948D01*
X131403299Y-52504654D01*
X131403298Y-52504654D01*
X131444223Y-52657385D01*
X131473158Y-52707500D01*
X131473159Y-52707504D01*
X131473160Y-52707504D01*
X131523279Y-52794314D01*
X131523281Y-52794317D01*
X131642149Y-52913185D01*
X131642155Y-52913190D01*
X132647384Y-53918419D01*
X132680869Y-53979742D01*
X132683106Y-54018252D01*
X132674859Y-54101998D01*
X132674859Y-54101999D01*
X132694175Y-54298129D01*
X132751388Y-54486733D01*
X132844286Y-54660532D01*
X132844289Y-54660537D01*
X132850630Y-54668264D01*
X132877940Y-54732575D01*
X132866146Y-54801442D01*
X132850627Y-54825589D01*
X132818890Y-54864260D01*
X132818886Y-54864267D01*
X132725988Y-55038066D01*
X132668775Y-55226670D01*
X132649459Y-55422800D01*
X132668775Y-55618929D01*
X132687846Y-55681797D01*
X132720225Y-55788537D01*
X132725988Y-55807533D01*
X132818886Y-55981332D01*
X132818890Y-55981339D01*
X132943916Y-56133683D01*
X133096260Y-56258709D01*
X133096267Y-56258713D01*
X133270066Y-56351611D01*
X133270069Y-56351611D01*
X133270073Y-56351614D01*
X133458668Y-56408824D01*
X133654800Y-56428141D01*
X133850932Y-56408824D01*
X134039527Y-56351614D01*
X134082971Y-56328393D01*
X134213332Y-56258713D01*
X134213338Y-56258710D01*
X134365683Y-56133683D01*
X134490710Y-55981338D01*
X134568252Y-55836268D01*
X134583611Y-55807533D01*
X134583611Y-55807532D01*
X134583614Y-55807527D01*
X134640824Y-55618932D01*
X134660141Y-55422800D01*
X134655062Y-55371237D01*
X134668080Y-55302594D01*
X134690781Y-55271407D01*
X135221929Y-54740260D01*
X135221933Y-54740258D01*
X135309058Y-54653133D01*
X135343284Y-54601909D01*
X135377512Y-54550686D01*
X135424663Y-54436851D01*
X135448700Y-54316007D01*
X135448700Y-54192793D01*
X135448700Y-50376635D01*
X135468385Y-50309596D01*
X135521189Y-50263841D01*
X135590347Y-50253897D01*
X135592085Y-50254160D01*
X135758389Y-50280500D01*
X136171692Y-50280500D01*
X136238731Y-50300185D01*
X136284486Y-50352989D01*
X136294430Y-50422147D01*
X136293310Y-50428690D01*
X136269500Y-50548395D01*
X136269500Y-50671610D01*
X136293535Y-50792444D01*
X136293538Y-50792454D01*
X136340687Y-50906283D01*
X136340692Y-50906292D01*
X136409141Y-51008732D01*
X136409144Y-51008736D01*
X136496263Y-51095855D01*
X136496267Y-51095858D01*
X136598707Y-51164307D01*
X136598713Y-51164310D01*
X136598714Y-51164311D01*
X136712548Y-51211463D01*
X136833389Y-51235499D01*
X136833393Y-51235500D01*
X136833394Y-51235500D01*
X136956607Y-51235500D01*
X136956608Y-51235499D01*
X137077452Y-51211463D01*
X137191286Y-51164311D01*
X137293733Y-51095858D01*
X137380858Y-51008733D01*
X137449311Y-50906286D01*
X137496463Y-50792452D01*
X137520500Y-50671606D01*
X137520500Y-50548394D01*
X137496463Y-50427548D01*
X137449311Y-50313714D01*
X137449303Y-50313702D01*
X137449300Y-50313695D01*
X137446438Y-50308339D01*
X137447453Y-50307796D01*
X137428419Y-50247026D01*
X137446898Y-50179644D01*
X137496104Y-50134317D01*
X137521788Y-50121232D01*
X137661928Y-50019414D01*
X137784414Y-49896928D01*
X137886232Y-49756788D01*
X137964873Y-49602445D01*
X138018402Y-49437701D01*
X138045500Y-49266611D01*
X139074500Y-49266611D01*
X139101598Y-49437701D01*
X139155127Y-49602445D01*
X139233768Y-49756788D01*
X139335586Y-49896928D01*
X139458072Y-50019414D01*
X139598212Y-50121232D01*
X139752555Y-50199873D01*
X139917299Y-50253402D01*
X140088389Y-50280500D01*
X140088390Y-50280500D01*
X141061610Y-50280500D01*
X141061611Y-50280500D01*
X141232701Y-50253402D01*
X141397445Y-50199873D01*
X141551788Y-50121232D01*
X141691928Y-50019414D01*
X141814414Y-49896928D01*
X141916232Y-49756788D01*
X141994873Y-49602445D01*
X142048402Y-49437701D01*
X142075500Y-49266611D01*
X142075500Y-49093389D01*
X142048402Y-48922299D01*
X141994873Y-48757555D01*
X141916232Y-48603212D01*
X141814414Y-48463072D01*
X141691928Y-48340586D01*
X141551788Y-48238768D01*
X141397445Y-48160127D01*
X141232701Y-48106598D01*
X141232699Y-48106597D01*
X141232698Y-48106597D01*
X141101271Y-48085781D01*
X141061611Y-48079500D01*
X140088389Y-48079500D01*
X140048728Y-48085781D01*
X139917302Y-48106597D01*
X139752552Y-48160128D01*
X139598211Y-48238768D01*
X139518256Y-48296859D01*
X139458072Y-48340586D01*
X139458070Y-48340588D01*
X139458069Y-48340588D01*
X139335588Y-48463069D01*
X139335588Y-48463070D01*
X139335586Y-48463072D01*
X139309604Y-48498833D01*
X139233768Y-48603211D01*
X139155128Y-48757552D01*
X139155127Y-48757554D01*
X139155127Y-48757555D01*
X139148501Y-48777949D01*
X139101597Y-48922302D01*
X139096627Y-48953685D01*
X139074500Y-49093389D01*
X139074500Y-49266611D01*
X138045500Y-49266611D01*
X138045500Y-49093389D01*
X138018402Y-48922299D01*
X137964873Y-48757555D01*
X137886232Y-48603212D01*
X137784414Y-48463072D01*
X137661928Y-48340586D01*
X137521788Y-48238768D01*
X137367445Y-48160127D01*
X137202701Y-48106598D01*
X137202699Y-48106597D01*
X137202698Y-48106597D01*
X137071271Y-48085781D01*
X137031611Y-48079500D01*
X135758389Y-48079500D01*
X135592097Y-48105837D01*
X135522804Y-48096882D01*
X135469352Y-48051886D01*
X135448713Y-47985134D01*
X135448700Y-47983364D01*
X135448700Y-47436393D01*
X135448699Y-47436389D01*
X135443212Y-47408802D01*
X135424663Y-47315548D01*
X135400997Y-47258414D01*
X135377512Y-47201714D01*
X135324456Y-47122312D01*
X135324456Y-47122311D01*
X135309058Y-47099267D01*
X135309053Y-47099261D01*
X135218837Y-47009045D01*
X135218806Y-47009016D01*
X134690784Y-46480994D01*
X134657299Y-46419671D01*
X134655062Y-46381162D01*
X134660141Y-46329600D01*
X134640824Y-46133468D01*
X134583614Y-45944873D01*
X134583611Y-45944869D01*
X134583611Y-45944866D01*
X134490713Y-45771067D01*
X134490709Y-45771060D01*
X134365683Y-45618716D01*
X134213339Y-45493690D01*
X134213332Y-45493686D01*
X134039533Y-45400788D01*
X134039527Y-45400786D01*
X133850932Y-45343576D01*
X133850929Y-45343575D01*
X133654800Y-45324259D01*
X133458670Y-45343575D01*
X133270066Y-45400788D01*
X133096267Y-45493686D01*
X133096260Y-45493690D01*
X132943916Y-45618716D01*
X132818890Y-45771060D01*
X132818886Y-45771067D01*
X132725988Y-45944866D01*
X132668775Y-46133470D01*
X132649459Y-46329600D01*
X132668775Y-46525729D01*
X132725988Y-46714333D01*
X132818886Y-46888132D01*
X132818890Y-46888139D01*
X132943916Y-47040483D01*
X133096260Y-47165509D01*
X133096267Y-47165513D01*
X133270066Y-47258411D01*
X133270069Y-47258411D01*
X133270073Y-47258414D01*
X133458668Y-47315624D01*
X133654800Y-47334941D01*
X133706360Y-47329862D01*
X133775003Y-47342880D01*
X133806194Y-47365584D01*
X134161381Y-47720771D01*
X134194866Y-47782094D01*
X134197700Y-47808452D01*
X134197700Y-53046267D01*
X134178015Y-53113306D01*
X134125211Y-53159061D01*
X134056053Y-53169005D01*
X134037705Y-53164928D01*
X133876330Y-53115975D01*
X133680200Y-53096659D01*
X133680199Y-53096659D01*
X133596452Y-53104906D01*
X133527806Y-53091886D01*
X133496619Y-53069184D01*
X132640619Y-52213183D01*
X132607134Y-52151860D01*
X132604300Y-52125502D01*
X132604300Y-51812519D01*
X132623985Y-51745480D01*
X132649633Y-51716667D01*
X132714683Y-51663283D01*
X132839710Y-51510938D01*
X132932614Y-51337127D01*
X132989824Y-51148532D01*
X133009141Y-50952400D01*
X132989824Y-50756268D01*
X132932614Y-50567673D01*
X132932611Y-50567669D01*
X132932611Y-50567666D01*
X132839713Y-50393867D01*
X132839709Y-50393860D01*
X132714683Y-50241516D01*
X132562339Y-50116490D01*
X132562332Y-50116486D01*
X132388533Y-50023588D01*
X132388527Y-50023586D01*
X132199932Y-49966376D01*
X132199929Y-49966375D01*
X132003800Y-49947059D01*
X131807670Y-49966375D01*
X131619066Y-50023588D01*
X131445267Y-50116486D01*
X131445260Y-50116490D01*
X131292916Y-50241516D01*
X131167890Y-50393860D01*
X131167886Y-50393867D01*
X131074988Y-50567666D01*
X131017775Y-50756270D01*
X130998459Y-50952400D01*
X123876949Y-50952400D01*
X124006173Y-50754607D01*
X124106063Y-50526881D01*
X124167108Y-50285821D01*
X124168455Y-50269571D01*
X124187643Y-50038005D01*
X124187643Y-50037994D01*
X124167109Y-49790187D01*
X124167107Y-49790175D01*
X124106063Y-49549118D01*
X124006173Y-49321393D01*
X123870166Y-49113217D01*
X123825555Y-49064757D01*
X123701744Y-48930262D01*
X123505509Y-48777526D01*
X123505507Y-48777525D01*
X123505506Y-48777524D01*
X123286811Y-48659172D01*
X123286802Y-48659169D01*
X123051616Y-48578429D01*
X122806335Y-48537500D01*
X122557665Y-48537500D01*
X122312383Y-48578429D01*
X122077197Y-48659169D01*
X122077188Y-48659172D01*
X121858493Y-48777524D01*
X121662257Y-48930261D01*
X121493833Y-49113217D01*
X121357826Y-49321393D01*
X121257936Y-49549118D01*
X121196892Y-49790175D01*
X121196890Y-49790187D01*
X121176357Y-50037994D01*
X121176357Y-50038005D01*
X111687141Y-50038005D01*
X111687141Y-50037994D01*
X111666614Y-49790270D01*
X111666612Y-49790261D01*
X111605587Y-49549282D01*
X111505731Y-49321630D01*
X111405434Y-49168116D01*
X110746569Y-49826981D01*
X110741063Y-49806429D01*
X110662078Y-49669623D01*
X110550377Y-49557922D01*
X110413571Y-49478937D01*
X110393017Y-49473429D01*
X111052057Y-48814390D01*
X111052056Y-48814389D01*
X111005229Y-48777943D01*
X110786614Y-48659635D01*
X110786603Y-48659630D01*
X110551493Y-48578916D01*
X110306293Y-48538000D01*
X110057707Y-48538000D01*
X109812506Y-48578916D01*
X109577396Y-48659630D01*
X109577390Y-48659632D01*
X109358761Y-48777949D01*
X109311942Y-48814388D01*
X109311942Y-48814390D01*
X109970982Y-49473429D01*
X109950429Y-49478937D01*
X109813623Y-49557922D01*
X109701922Y-49669623D01*
X109622937Y-49806429D01*
X109617429Y-49826981D01*
X108958564Y-49168116D01*
X108858267Y-49321632D01*
X108758412Y-49549282D01*
X108697387Y-49790261D01*
X108697385Y-49790270D01*
X108676859Y-50037994D01*
X108676859Y-50038005D01*
X107423643Y-50038005D01*
X107423643Y-50037994D01*
X107403109Y-49790187D01*
X107403107Y-49790175D01*
X107342063Y-49549118D01*
X107242173Y-49321393D01*
X107106166Y-49113217D01*
X107061555Y-49064757D01*
X106937744Y-48930262D01*
X106741509Y-48777526D01*
X106741507Y-48777525D01*
X106741506Y-48777524D01*
X106522811Y-48659172D01*
X106522802Y-48659169D01*
X106287616Y-48578429D01*
X106042335Y-48537500D01*
X105793665Y-48537500D01*
X105548383Y-48578429D01*
X105313197Y-48659169D01*
X105313188Y-48659172D01*
X105094493Y-48777524D01*
X104898257Y-48930261D01*
X104729833Y-49113217D01*
X104593826Y-49321393D01*
X104493936Y-49549118D01*
X104432892Y-49790175D01*
X104432890Y-49790187D01*
X104412357Y-50037994D01*
X104412357Y-50038005D01*
X94923141Y-50038005D01*
X94923141Y-50037994D01*
X94902614Y-49790270D01*
X94902612Y-49790261D01*
X94841587Y-49549282D01*
X94741731Y-49321630D01*
X94641434Y-49168116D01*
X93982569Y-49826981D01*
X93977063Y-49806429D01*
X93898078Y-49669623D01*
X93786377Y-49557922D01*
X93649571Y-49478937D01*
X93629017Y-49473429D01*
X94288057Y-48814390D01*
X94288056Y-48814389D01*
X94241229Y-48777943D01*
X94022614Y-48659635D01*
X94022603Y-48659630D01*
X93787493Y-48578916D01*
X93542293Y-48538000D01*
X93293707Y-48538000D01*
X93048506Y-48578916D01*
X92813396Y-48659630D01*
X92813390Y-48659632D01*
X92594761Y-48777949D01*
X92547942Y-48814388D01*
X92547942Y-48814390D01*
X93206982Y-49473429D01*
X93186429Y-49478937D01*
X93049623Y-49557922D01*
X92937922Y-49669623D01*
X92858937Y-49806429D01*
X92853429Y-49826981D01*
X92194564Y-49168116D01*
X92094267Y-49321632D01*
X91994412Y-49549282D01*
X91933387Y-49790261D01*
X91933385Y-49790270D01*
X91912859Y-50037994D01*
X91912859Y-50038005D01*
X91486500Y-50038005D01*
X91486500Y-48132486D01*
X98467502Y-48132486D01*
X98484336Y-48238768D01*
X98497062Y-48319117D01*
X98555455Y-48498831D01*
X98641242Y-48667198D01*
X98752312Y-48820072D01*
X98885928Y-48953688D01*
X99038802Y-49064758D01*
X99207169Y-49150545D01*
X99386883Y-49208938D01*
X99456871Y-49220023D01*
X99573514Y-49238498D01*
X99573519Y-49238498D01*
X99762486Y-49238498D01*
X99866167Y-49222075D01*
X99949117Y-49208938D01*
X100128831Y-49150545D01*
X100297198Y-49064758D01*
X100450072Y-48953688D01*
X100583688Y-48820072D01*
X100694758Y-48667198D01*
X100780545Y-48498831D01*
X100838938Y-48319117D01*
X100852075Y-48236167D01*
X100868498Y-48132486D01*
X115231502Y-48132486D01*
X115248336Y-48238768D01*
X115261062Y-48319117D01*
X115319455Y-48498831D01*
X115405242Y-48667198D01*
X115516312Y-48820072D01*
X115649928Y-48953688D01*
X115802802Y-49064758D01*
X115971169Y-49150545D01*
X116150883Y-49208938D01*
X116220871Y-49220023D01*
X116337514Y-49238498D01*
X116337519Y-49238498D01*
X116526486Y-49238498D01*
X116630167Y-49222075D01*
X116713117Y-49208938D01*
X116892831Y-49150545D01*
X117061198Y-49064758D01*
X117214072Y-48953688D01*
X117347688Y-48820072D01*
X117458758Y-48667198D01*
X117544545Y-48498831D01*
X117602938Y-48319117D01*
X117616075Y-48236167D01*
X117632498Y-48132486D01*
X117632498Y-47943513D01*
X117606931Y-47782094D01*
X117602938Y-47756883D01*
X117544545Y-47577169D01*
X117458758Y-47408802D01*
X117347688Y-47255928D01*
X117214072Y-47122312D01*
X117061198Y-47011242D01*
X116892831Y-46925455D01*
X116713117Y-46867062D01*
X116713115Y-46867061D01*
X116713113Y-46867061D01*
X116526486Y-46837502D01*
X116526481Y-46837502D01*
X116337519Y-46837502D01*
X116337514Y-46837502D01*
X116150886Y-46867061D01*
X115971166Y-46925456D01*
X115802801Y-47011242D01*
X115762555Y-47040483D01*
X115649928Y-47122312D01*
X115649926Y-47122314D01*
X115649925Y-47122314D01*
X115516314Y-47255925D01*
X115516314Y-47255926D01*
X115516312Y-47255928D01*
X115514507Y-47258413D01*
X115405242Y-47408801D01*
X115319456Y-47577166D01*
X115261061Y-47756886D01*
X115231502Y-47943513D01*
X115231502Y-48132486D01*
X100868498Y-48132486D01*
X100868498Y-47943513D01*
X100842931Y-47782094D01*
X100838938Y-47756883D01*
X100780545Y-47577169D01*
X100694758Y-47408802D01*
X100583688Y-47255928D01*
X100450072Y-47122312D01*
X100297198Y-47011242D01*
X100128831Y-46925455D01*
X99949117Y-46867062D01*
X99949115Y-46867061D01*
X99949113Y-46867061D01*
X99762486Y-46837502D01*
X99762481Y-46837502D01*
X99573519Y-46837502D01*
X99573514Y-46837502D01*
X99386886Y-46867061D01*
X99207166Y-46925456D01*
X99038801Y-47011242D01*
X98998555Y-47040483D01*
X98885928Y-47122312D01*
X98885926Y-47122314D01*
X98885925Y-47122314D01*
X98752314Y-47255925D01*
X98752314Y-47255926D01*
X98752312Y-47255928D01*
X98750507Y-47258413D01*
X98641242Y-47408801D01*
X98555456Y-47577166D01*
X98497061Y-47756886D01*
X98467502Y-47943513D01*
X98467502Y-48132486D01*
X91486500Y-48132486D01*
X91486500Y-44620500D01*
X91506185Y-44553461D01*
X91558989Y-44507706D01*
X91610500Y-44496500D01*
X142740300Y-44496500D01*
X142807339Y-44516185D01*
G37*
G04 #@! TD.AperFunction*
G04 #@! TD*
G04 #@! TA.AperFunction,NonConductor*
G36*
X136144000Y-74792341D02*
G01*
X136232747Y-74783600D01*
X136301392Y-74796619D01*
X136352102Y-74844684D01*
X136368900Y-74907003D01*
X136368900Y-75255295D01*
X136349215Y-75322334D01*
X136296411Y-75368089D01*
X136232746Y-75378697D01*
X136169400Y-75372459D01*
X135967206Y-75392373D01*
X135966961Y-75389892D01*
X135908223Y-75384598D01*
X135853074Y-75341698D01*
X135829873Y-75275793D01*
X135829700Y-75269238D01*
X135829700Y-74898198D01*
X135849385Y-74831159D01*
X135902189Y-74785404D01*
X135965852Y-74774795D01*
X136144000Y-74792341D01*
G37*
G04 #@! TD.AperFunction*
G04 #@! TA.AperFunction,NonConductor*
G36*
X140227818Y-74707817D02*
G01*
X140256073Y-74728969D01*
X140377997Y-74850893D01*
X140378003Y-74850898D01*
X140563558Y-74980825D01*
X140607183Y-75035402D01*
X140614377Y-75104900D01*
X140582854Y-75167255D01*
X140563558Y-75183975D01*
X140377997Y-75313905D01*
X140210905Y-75480997D01*
X140080975Y-75666558D01*
X140026398Y-75710183D01*
X139956900Y-75717377D01*
X139894545Y-75685854D01*
X139877825Y-75666558D01*
X139747896Y-75481000D01*
X139702223Y-75435327D01*
X139625967Y-75359071D01*
X139592484Y-75297751D01*
X139597468Y-75228059D01*
X139639339Y-75172125D01*
X139670315Y-75155210D01*
X139801731Y-75106196D01*
X139916946Y-75019946D01*
X140003196Y-74904731D01*
X140052210Y-74773316D01*
X140094081Y-74717384D01*
X140159545Y-74692966D01*
X140227818Y-74707817D01*
G37*
G04 #@! TD.AperFunction*
G04 #@! TA.AperFunction,NonConductor*
G36*
X134985786Y-73517785D02*
G01*
X135031541Y-73570589D01*
X135041485Y-73639747D01*
X135012460Y-73703303D01*
X135006428Y-73709781D01*
X134805469Y-73910740D01*
X134805467Y-73910742D01*
X134761905Y-73954303D01*
X134718344Y-73997864D01*
X134684971Y-74047809D01*
X134649885Y-74100318D01*
X134616547Y-74180807D01*
X134611023Y-74194143D01*
X134602737Y-74214145D01*
X134602735Y-74214153D01*
X134578700Y-74334989D01*
X134578700Y-76025853D01*
X134559015Y-76092892D01*
X134542381Y-76113534D01*
X133796934Y-76858981D01*
X133735611Y-76892466D01*
X133709253Y-76895300D01*
X133155244Y-76895300D01*
X133088205Y-76875615D01*
X133067563Y-76858981D01*
X131922192Y-75713610D01*
X131922172Y-75713588D01*
X131830730Y-75622146D01*
X131830722Y-75622140D01*
X131760564Y-75575262D01*
X131760563Y-75575261D01*
X131728284Y-75553692D01*
X131728280Y-75553690D01*
X131647786Y-75520349D01*
X131614447Y-75506539D01*
X131604421Y-75504545D01*
X131554023Y-75494520D01*
X131493604Y-75482502D01*
X131493601Y-75482502D01*
X131493600Y-75482502D01*
X130654050Y-75482502D01*
X130587011Y-75462817D01*
X130541256Y-75410013D01*
X130531312Y-75340855D01*
X130560337Y-75277299D01*
X130566369Y-75270821D01*
X132302771Y-73534419D01*
X132364094Y-73500934D01*
X132390452Y-73498100D01*
X134918747Y-73498100D01*
X134985786Y-73517785D01*
G37*
G04 #@! TD.AperFunction*
G04 #@! TA.AperFunction,NonConductor*
G36*
X140064255Y-77018946D02*
G01*
X140080975Y-77038242D01*
X140210901Y-77223796D01*
X140210906Y-77223802D01*
X140377997Y-77390893D01*
X140378003Y-77390898D01*
X140563558Y-77520825D01*
X140607183Y-77575402D01*
X140614377Y-77644900D01*
X140582854Y-77707255D01*
X140563558Y-77723975D01*
X140377997Y-77853905D01*
X140210905Y-78020997D01*
X140080975Y-78206558D01*
X140026398Y-78250183D01*
X139956900Y-78257377D01*
X139894545Y-78225854D01*
X139877825Y-78206558D01*
X139747894Y-78020997D01*
X139580802Y-77853906D01*
X139580796Y-77853901D01*
X139395242Y-77723975D01*
X139351617Y-77669398D01*
X139344423Y-77599900D01*
X139375946Y-77537545D01*
X139395242Y-77520825D01*
X139497567Y-77449176D01*
X139580801Y-77390895D01*
X139747895Y-77223801D01*
X139877825Y-77038242D01*
X139932402Y-76994617D01*
X140001900Y-76987423D01*
X140064255Y-77018946D01*
G37*
G04 #@! TD.AperFunction*
G04 #@! TA.AperFunction,NonConductor*
G36*
X140064255Y-79558946D02*
G01*
X140080975Y-79578242D01*
X140210901Y-79763796D01*
X140210906Y-79763802D01*
X140377997Y-79930893D01*
X140378003Y-79930898D01*
X140563558Y-80060825D01*
X140607183Y-80115402D01*
X140614377Y-80184900D01*
X140582854Y-80247255D01*
X140563558Y-80263975D01*
X140377997Y-80393905D01*
X140210905Y-80560997D01*
X140080975Y-80746558D01*
X140026398Y-80790183D01*
X139956900Y-80797377D01*
X139894545Y-80765854D01*
X139877825Y-80746558D01*
X139747894Y-80560997D01*
X139580802Y-80393906D01*
X139580796Y-80393901D01*
X139395242Y-80263975D01*
X139351617Y-80209398D01*
X139344423Y-80139900D01*
X139375946Y-80077545D01*
X139395242Y-80060825D01*
X139521390Y-79972495D01*
X139580801Y-79930895D01*
X139747895Y-79763801D01*
X139877825Y-79578242D01*
X139932402Y-79534617D01*
X140001900Y-79527423D01*
X140064255Y-79558946D01*
G37*
G04 #@! TD.AperFunction*
G04 #@! TA.AperFunction,NonConductor*
G36*
X135863700Y-77330587D02*
G01*
X135945412Y-77355374D01*
X135973268Y-77363824D01*
X136169400Y-77383141D01*
X136232746Y-77376902D01*
X136301392Y-77389921D01*
X136352102Y-77437986D01*
X136368900Y-77500305D01*
X136368900Y-77744495D01*
X136349215Y-77811534D01*
X136296411Y-77857289D01*
X136232746Y-77867897D01*
X136169400Y-77861659D01*
X135973270Y-77880975D01*
X135784666Y-77938188D01*
X135610867Y-78031086D01*
X135610860Y-78031090D01*
X135458516Y-78156116D01*
X135333492Y-78308458D01*
X135263211Y-78439942D01*
X135241534Y-78469169D01*
X133738215Y-79972489D01*
X132240070Y-81470634D01*
X132240067Y-81470637D01*
X132152942Y-81557762D01*
X132119337Y-81608055D01*
X132084488Y-81660209D01*
X132084487Y-81660211D01*
X132064664Y-81708071D01*
X132064663Y-81708073D01*
X132037338Y-81774040D01*
X132037335Y-81774050D01*
X132013300Y-81894884D01*
X132013300Y-82265660D01*
X131993615Y-82332699D01*
X131940811Y-82378454D01*
X131871653Y-82388398D01*
X131808097Y-82359373D01*
X131801619Y-82353341D01*
X131319419Y-81871141D01*
X131285934Y-81809818D01*
X131283100Y-81783460D01*
X131283100Y-80740611D01*
X131302785Y-80673572D01*
X131319419Y-80652930D01*
X131606651Y-80365698D01*
X131999857Y-79972493D01*
X132006565Y-79962455D01*
X132068311Y-79870045D01*
X132115463Y-79756211D01*
X132122984Y-79718397D01*
X132139500Y-79635366D01*
X132139500Y-79512153D01*
X132139500Y-78619172D01*
X132159185Y-78552133D01*
X132211989Y-78506378D01*
X132281147Y-78496434D01*
X132332390Y-78516070D01*
X132354132Y-78530598D01*
X132374016Y-78543884D01*
X132374017Y-78543884D01*
X132374018Y-78543885D01*
X132394710Y-78557711D01*
X132508544Y-78604863D01*
X132629384Y-78628899D01*
X132629388Y-78628900D01*
X132629389Y-78628900D01*
X134275207Y-78628900D01*
X134335629Y-78616881D01*
X134396052Y-78604863D01*
X134448957Y-78582949D01*
X134509886Y-78557712D01*
X134561109Y-78523484D01*
X134612333Y-78489258D01*
X134699458Y-78402133D01*
X134699458Y-78402131D01*
X134709666Y-78391924D01*
X134709667Y-78391921D01*
X135740025Y-77361564D01*
X135801346Y-77328081D01*
X135863700Y-77330587D01*
G37*
G04 #@! TD.AperFunction*
G04 #@! TA.AperFunction,NonConductor*
G36*
X135778286Y-79795883D02*
G01*
X135778844Y-79794045D01*
X135784669Y-79795812D01*
X135784673Y-79795814D01*
X135973268Y-79853024D01*
X136169400Y-79872341D01*
X136232746Y-79866102D01*
X136301392Y-79879121D01*
X136352102Y-79927186D01*
X136368900Y-79989505D01*
X136368900Y-80365698D01*
X136349215Y-80432737D01*
X136296411Y-80478492D01*
X136232746Y-80489101D01*
X136118600Y-80477859D01*
X135922470Y-80497175D01*
X135733866Y-80554388D01*
X135560067Y-80647286D01*
X135560060Y-80647290D01*
X135407720Y-80772313D01*
X135371218Y-80816789D01*
X135344272Y-80841214D01*
X135341428Y-80843114D01*
X135339597Y-80844338D01*
X135339591Y-80844342D01*
X135262666Y-80895742D01*
X135262665Y-80895743D01*
X135234315Y-80924094D01*
X135175542Y-80982867D01*
X133475981Y-82682428D01*
X133414658Y-82715913D01*
X133344966Y-82710929D01*
X133289033Y-82669057D01*
X133264616Y-82603593D01*
X133264300Y-82594747D01*
X133264300Y-82266946D01*
X133283985Y-82199907D01*
X133300614Y-82179270D01*
X135654951Y-79824932D01*
X135716272Y-79791449D01*
X135778286Y-79795883D01*
G37*
G04 #@! TD.AperFunction*
G04 #@! TA.AperFunction,NonConductor*
G36*
X140064255Y-82098946D02*
G01*
X140080975Y-82118242D01*
X140210901Y-82303796D01*
X140210906Y-82303802D01*
X140377997Y-82470893D01*
X140378003Y-82470898D01*
X140563558Y-82600825D01*
X140607183Y-82655402D01*
X140614377Y-82724900D01*
X140582854Y-82787255D01*
X140563558Y-82803975D01*
X140377997Y-82933905D01*
X140210905Y-83100997D01*
X140080975Y-83286558D01*
X140026398Y-83330183D01*
X139956900Y-83337377D01*
X139894545Y-83305854D01*
X139877825Y-83286558D01*
X139747894Y-83100997D01*
X139580802Y-82933906D01*
X139580796Y-82933901D01*
X139395242Y-82803975D01*
X139351617Y-82749398D01*
X139344423Y-82679900D01*
X139375946Y-82617545D01*
X139395242Y-82600825D01*
X139484421Y-82538381D01*
X139580801Y-82470895D01*
X139747895Y-82303801D01*
X139877825Y-82118242D01*
X139932402Y-82074617D01*
X140001900Y-82067423D01*
X140064255Y-82098946D01*
G37*
G04 #@! TD.AperFunction*
G04 #@! TA.AperFunction,NonConductor*
G36*
X135657600Y-82372502D02*
G01*
X135672713Y-82379323D01*
X135733873Y-82412014D01*
X135922468Y-82469224D01*
X136118600Y-82488541D01*
X136232748Y-82477298D01*
X136301391Y-82490317D01*
X136352102Y-82538381D01*
X136368900Y-82600701D01*
X136368900Y-82826996D01*
X136349215Y-82894035D01*
X136296411Y-82939790D01*
X136232747Y-82950399D01*
X136144001Y-82941659D01*
X136144000Y-82941659D01*
X135947870Y-82960975D01*
X135759266Y-83018188D01*
X135585467Y-83111086D01*
X135585460Y-83111090D01*
X135433116Y-83236116D01*
X135308090Y-83388460D01*
X135308086Y-83388467D01*
X135215186Y-83562271D01*
X135181202Y-83674300D01*
X135150223Y-83725985D01*
X134590670Y-84285539D01*
X134568181Y-84308028D01*
X134506858Y-84341513D01*
X134437166Y-84336529D01*
X134381233Y-84294657D01*
X134356816Y-84229193D01*
X134356500Y-84220347D01*
X134356500Y-83622451D01*
X134376185Y-83555412D01*
X134392814Y-83534774D01*
X135526587Y-82401001D01*
X135587908Y-82367518D01*
X135657600Y-82372502D01*
G37*
G04 #@! TD.AperFunction*
G04 #@! TA.AperFunction,NonConductor*
G36*
X135838299Y-84899785D02*
G01*
X135947868Y-84933024D01*
X135947867Y-84933024D01*
X135967184Y-84934926D01*
X136144000Y-84952341D01*
X136210277Y-84945813D01*
X136278921Y-84958832D01*
X136329632Y-85006896D01*
X136346307Y-85074747D01*
X136323651Y-85140842D01*
X136310111Y-85156897D01*
X135948385Y-85518623D01*
X135896700Y-85549602D01*
X135778844Y-85585354D01*
X135778357Y-85583751D01*
X135716875Y-85590357D01*
X135654398Y-85559078D01*
X135618750Y-85498987D01*
X135614900Y-85468329D01*
X135614900Y-85081852D01*
X135634585Y-85014813D01*
X135651214Y-84994174D01*
X135714625Y-84930763D01*
X135775946Y-84897280D01*
X135838299Y-84899785D01*
G37*
G04 #@! TD.AperFunction*
G04 #@! TA.AperFunction,NonConductor*
G36*
X140064255Y-84638946D02*
G01*
X140080975Y-84658242D01*
X140210901Y-84843796D01*
X140210906Y-84843802D01*
X140377997Y-85010893D01*
X140378003Y-85010898D01*
X140563558Y-85140825D01*
X140607183Y-85195402D01*
X140614377Y-85264900D01*
X140582854Y-85327255D01*
X140563558Y-85343975D01*
X140377997Y-85473905D01*
X140210905Y-85640997D01*
X140080975Y-85826558D01*
X140026398Y-85870183D01*
X139956900Y-85877377D01*
X139894545Y-85845854D01*
X139877825Y-85826558D01*
X139747894Y-85640997D01*
X139580802Y-85473906D01*
X139580796Y-85473901D01*
X139395242Y-85343975D01*
X139351617Y-85289398D01*
X139344423Y-85219900D01*
X139375946Y-85157545D01*
X139395242Y-85140825D01*
X139417426Y-85125291D01*
X139580801Y-85010895D01*
X139747895Y-84843801D01*
X139877825Y-84658242D01*
X139932402Y-84614617D01*
X140001900Y-84607423D01*
X140064255Y-84638946D01*
G37*
G04 #@! TD.AperFunction*
G04 #@! TA.AperFunction,NonConductor*
G36*
X142797717Y-84124691D02*
G01*
X142830227Y-84186536D01*
X142832657Y-84211588D01*
X142822670Y-86224744D01*
X142802654Y-86291685D01*
X142749623Y-86337178D01*
X142680416Y-86346778D01*
X142617005Y-86317438D01*
X142579523Y-86258473D01*
X142578917Y-86256297D01*
X142523303Y-86048737D01*
X142423435Y-85834571D01*
X142417825Y-85826558D01*
X142287894Y-85640997D01*
X142120802Y-85473906D01*
X142120796Y-85473901D01*
X141935242Y-85343975D01*
X141891617Y-85289398D01*
X141884423Y-85219900D01*
X141915946Y-85157545D01*
X141935242Y-85140825D01*
X141957426Y-85125291D01*
X142120801Y-85010895D01*
X142287895Y-84843801D01*
X142423435Y-84650230D01*
X142523303Y-84436063D01*
X142584463Y-84207808D01*
X142585131Y-84200165D01*
X142610580Y-84135101D01*
X142667170Y-84094120D01*
X142736932Y-84090239D01*
X142797717Y-84124691D01*
G37*
G04 #@! TD.AperFunction*
G04 #@! TA.AperFunction,NonConductor*
G36*
X140064255Y-87178946D02*
G01*
X140080975Y-87198242D01*
X140210901Y-87383796D01*
X140210906Y-87383802D01*
X140377997Y-87550893D01*
X140378003Y-87550898D01*
X140563558Y-87680825D01*
X140607183Y-87735402D01*
X140614377Y-87804900D01*
X140582854Y-87867255D01*
X140563558Y-87883975D01*
X140377997Y-88013905D01*
X140210905Y-88180997D01*
X140080975Y-88366558D01*
X140026398Y-88410183D01*
X139956900Y-88417377D01*
X139894545Y-88385854D01*
X139877825Y-88366558D01*
X139747894Y-88180997D01*
X139580802Y-88013906D01*
X139580796Y-88013901D01*
X139395242Y-87883975D01*
X139351617Y-87829398D01*
X139344423Y-87759900D01*
X139375946Y-87697545D01*
X139395242Y-87680825D01*
X139417426Y-87665291D01*
X139580801Y-87550895D01*
X139747895Y-87383801D01*
X139877825Y-87198242D01*
X139932402Y-87154617D01*
X140001900Y-87147423D01*
X140064255Y-87178946D01*
G37*
G04 #@! TD.AperFunction*
G04 #@! TA.AperFunction,NonConductor*
G36*
X142744570Y-86697556D02*
G01*
X142798448Y-86742041D01*
X142819723Y-86808593D01*
X142819756Y-86812160D01*
X142810299Y-88718574D01*
X142790283Y-88785515D01*
X142737252Y-88831008D01*
X142668045Y-88840608D01*
X142604634Y-88811268D01*
X142567152Y-88752303D01*
X142566526Y-88750051D01*
X142563074Y-88737169D01*
X142541809Y-88657802D01*
X142523306Y-88588746D01*
X142523304Y-88588742D01*
X142523303Y-88588737D01*
X142423435Y-88374571D01*
X142417825Y-88366558D01*
X142287894Y-88180997D01*
X142120802Y-88013906D01*
X142120796Y-88013901D01*
X141935242Y-87883975D01*
X141891617Y-87829398D01*
X141884423Y-87759900D01*
X141915946Y-87697545D01*
X141935242Y-87680825D01*
X141957426Y-87665291D01*
X142120801Y-87550895D01*
X142287895Y-87383801D01*
X142423435Y-87190230D01*
X142523303Y-86976063D01*
X142575984Y-86779450D01*
X142612347Y-86719792D01*
X142675194Y-86689262D01*
X142744570Y-86697556D01*
G37*
G04 #@! TD.AperFunction*
G04 #@! TA.AperFunction,NonConductor*
G36*
X135456947Y-87230661D02*
G01*
X135492278Y-87250990D01*
X135610860Y-87348309D01*
X135610867Y-87348313D01*
X135784666Y-87441211D01*
X135784669Y-87441211D01*
X135784673Y-87441214D01*
X135973268Y-87498424D01*
X136169400Y-87517741D01*
X136365532Y-87498424D01*
X136554127Y-87441214D01*
X136726447Y-87349106D01*
X136794849Y-87334865D01*
X136860093Y-87359865D01*
X136901464Y-87416170D01*
X136908900Y-87458465D01*
X136908900Y-88149070D01*
X136889215Y-88216109D01*
X136836411Y-88261864D01*
X136767253Y-88271808D01*
X136706239Y-88244927D01*
X136702537Y-88241889D01*
X136702532Y-88241886D01*
X136528733Y-88148988D01*
X136528727Y-88148986D01*
X136340132Y-88091776D01*
X136340129Y-88091775D01*
X136144000Y-88072459D01*
X135947870Y-88091775D01*
X135759266Y-88148988D01*
X135585467Y-88241886D01*
X135585460Y-88241890D01*
X135433116Y-88366916D01*
X135308090Y-88519260D01*
X135308086Y-88519267D01*
X135215186Y-88693071D01*
X135181202Y-88805100D01*
X135150223Y-88856785D01*
X135018427Y-88988582D01*
X134957107Y-89022066D01*
X134930748Y-89024900D01*
X133845491Y-89024900D01*
X133778452Y-89005215D01*
X133732697Y-88952411D01*
X133722753Y-88883253D01*
X133751778Y-88819697D01*
X133776598Y-88797799D01*
X133808838Y-88776258D01*
X133895963Y-88689133D01*
X133895963Y-88689131D01*
X133906171Y-88678924D01*
X133906172Y-88678921D01*
X135325934Y-87259160D01*
X135387255Y-87225677D01*
X135456947Y-87230661D01*
G37*
G04 #@! TD.AperFunction*
G04 #@! TA.AperFunction,NonConductor*
G36*
X126506034Y-78797274D02*
G01*
X126561967Y-78839146D01*
X126586384Y-78904610D01*
X126586700Y-78913456D01*
X126586700Y-89926748D01*
X126567015Y-89993787D01*
X126550381Y-90014429D01*
X125685029Y-90879781D01*
X125623706Y-90913266D01*
X125597348Y-90916100D01*
X124796252Y-90916100D01*
X124729213Y-90896415D01*
X124683458Y-90843611D01*
X124673514Y-90774453D01*
X124702539Y-90710897D01*
X124708563Y-90704426D01*
X124934929Y-90478060D01*
X124934933Y-90478058D01*
X125022058Y-90390933D01*
X125090511Y-90288486D01*
X125137663Y-90174652D01*
X125149681Y-90114229D01*
X125161700Y-90053807D01*
X125161700Y-89930594D01*
X125161700Y-80090456D01*
X125181385Y-80023417D01*
X125198019Y-80002775D01*
X126375019Y-78825775D01*
X126436342Y-78792290D01*
X126506034Y-78797274D01*
G37*
G04 #@! TD.AperFunction*
G04 #@! TA.AperFunction,NonConductor*
G36*
X140064255Y-89718946D02*
G01*
X140080975Y-89738242D01*
X140210901Y-89923796D01*
X140210906Y-89923802D01*
X140377997Y-90090893D01*
X140378003Y-90090898D01*
X140563558Y-90220825D01*
X140607183Y-90275402D01*
X140614377Y-90344900D01*
X140582854Y-90407255D01*
X140563558Y-90423975D01*
X140377997Y-90553905D01*
X140210905Y-90720997D01*
X140080975Y-90906558D01*
X140026398Y-90950183D01*
X139956900Y-90957377D01*
X139894545Y-90925854D01*
X139877825Y-90906558D01*
X139747894Y-90720997D01*
X139580802Y-90553906D01*
X139580796Y-90553901D01*
X139395242Y-90423975D01*
X139351617Y-90369398D01*
X139344423Y-90299900D01*
X139375946Y-90237545D01*
X139395242Y-90220825D01*
X139472777Y-90166534D01*
X139580801Y-90090895D01*
X139747895Y-89923801D01*
X139877825Y-89738242D01*
X139932402Y-89694617D01*
X140001900Y-89687423D01*
X140064255Y-89718946D01*
G37*
G04 #@! TD.AperFunction*
G04 #@! TA.AperFunction,NonConductor*
G36*
X142731733Y-89285468D02*
G01*
X142785611Y-89329953D01*
X142806886Y-89396505D01*
X142806919Y-89400072D01*
X142797928Y-91212404D01*
X142777912Y-91279345D01*
X142724881Y-91324838D01*
X142655674Y-91334438D01*
X142592263Y-91305098D01*
X142554781Y-91246133D01*
X142554155Y-91243881D01*
X142523306Y-91128746D01*
X142523304Y-91128742D01*
X142523303Y-91128737D01*
X142423435Y-90914571D01*
X142422522Y-90913266D01*
X142287894Y-90720997D01*
X142120802Y-90553906D01*
X142120796Y-90553901D01*
X141935242Y-90423975D01*
X141891617Y-90369398D01*
X141884423Y-90299900D01*
X141915946Y-90237545D01*
X141935242Y-90220825D01*
X142012777Y-90166534D01*
X142120801Y-90090895D01*
X142287895Y-89923801D01*
X142423435Y-89730230D01*
X142523303Y-89516063D01*
X142563146Y-89367363D01*
X142599510Y-89307704D01*
X142662357Y-89277174D01*
X142731733Y-89285468D01*
G37*
G04 #@! TD.AperFunction*
G04 #@! TA.AperFunction,NonConductor*
G36*
X140064255Y-92258946D02*
G01*
X140080975Y-92278242D01*
X140210901Y-92463796D01*
X140210906Y-92463802D01*
X140377997Y-92630893D01*
X140378003Y-92630898D01*
X140563558Y-92760825D01*
X140607183Y-92815402D01*
X140614377Y-92884900D01*
X140582854Y-92947255D01*
X140563558Y-92963975D01*
X140377997Y-93093905D01*
X140210905Y-93260997D01*
X140080975Y-93446558D01*
X140026398Y-93490183D01*
X139956900Y-93497377D01*
X139894545Y-93465854D01*
X139877825Y-93446558D01*
X139747894Y-93260997D01*
X139580802Y-93093906D01*
X139580796Y-93093901D01*
X139395242Y-92963975D01*
X139351617Y-92909398D01*
X139344423Y-92839900D01*
X139375946Y-92777545D01*
X139395242Y-92760825D01*
X139492480Y-92692738D01*
X139580801Y-92630895D01*
X139747895Y-92463801D01*
X139877825Y-92278242D01*
X139932402Y-92234617D01*
X140001900Y-92227423D01*
X140064255Y-92258946D01*
G37*
G04 #@! TD.AperFunction*
G04 #@! TA.AperFunction,NonConductor*
G36*
X142718894Y-91873380D02*
G01*
X142772773Y-91917865D01*
X142794048Y-91984417D01*
X142794081Y-91987984D01*
X142785557Y-93706233D01*
X142765541Y-93773174D01*
X142712510Y-93818667D01*
X142643303Y-93828267D01*
X142579892Y-93798927D01*
X142542410Y-93739962D01*
X142541784Y-93737710D01*
X142523306Y-93668746D01*
X142523304Y-93668742D01*
X142523303Y-93668737D01*
X142423435Y-93454571D01*
X142423049Y-93454019D01*
X142287894Y-93260997D01*
X142120802Y-93093906D01*
X142120796Y-93093901D01*
X141935242Y-92963975D01*
X141891617Y-92909398D01*
X141884423Y-92839900D01*
X141915946Y-92777545D01*
X141935242Y-92760825D01*
X142032480Y-92692738D01*
X142120801Y-92630895D01*
X142287895Y-92463801D01*
X142423435Y-92270230D01*
X142523303Y-92056063D01*
X142550308Y-91955276D01*
X142586672Y-91895616D01*
X142649519Y-91865086D01*
X142718894Y-91873380D01*
G37*
G04 #@! TD.AperFunction*
G04 #@! TA.AperFunction,NonConductor*
G36*
X135838299Y-90030585D02*
G01*
X135947868Y-90063824D01*
X135947867Y-90063824D01*
X135971922Y-90066193D01*
X136144000Y-90083141D01*
X136153925Y-90082163D01*
X136222570Y-90095181D01*
X136273281Y-90143245D01*
X136289957Y-90211095D01*
X136267302Y-90277190D01*
X136253761Y-90293247D01*
X135948385Y-90598623D01*
X135896700Y-90629602D01*
X135784671Y-90663586D01*
X135610867Y-90756486D01*
X135610860Y-90756490D01*
X135458516Y-90881516D01*
X135333490Y-91033860D01*
X135333486Y-91033867D01*
X135240588Y-91207666D01*
X135183375Y-91396270D01*
X135164059Y-91592400D01*
X135183375Y-91788529D01*
X135240588Y-91977133D01*
X135333486Y-92150932D01*
X135333490Y-92150939D01*
X135458516Y-92303283D01*
X135610860Y-92428309D01*
X135610867Y-92428313D01*
X135784666Y-92521211D01*
X135784669Y-92521211D01*
X135784673Y-92521214D01*
X135973268Y-92578424D01*
X136169400Y-92597741D01*
X136365532Y-92578424D01*
X136554127Y-92521214D01*
X136578649Y-92508107D01*
X136727932Y-92428313D01*
X136727938Y-92428310D01*
X136880283Y-92303283D01*
X137005310Y-92150938D01*
X137092411Y-91987984D01*
X137098212Y-91977131D01*
X137098212Y-91977130D01*
X137098214Y-91977127D01*
X137140026Y-91839291D01*
X137178322Y-91780856D01*
X137242134Y-91752400D01*
X137311201Y-91762960D01*
X137363594Y-91809184D01*
X137378460Y-91843197D01*
X137435494Y-92056055D01*
X137435496Y-92056059D01*
X137435497Y-92056063D01*
X137495108Y-92183898D01*
X137535365Y-92270230D01*
X137535367Y-92270234D01*
X137612086Y-92379799D01*
X137670901Y-92463796D01*
X137670906Y-92463802D01*
X137837997Y-92630893D01*
X137838003Y-92630898D01*
X138023558Y-92760825D01*
X138067183Y-92815402D01*
X138074377Y-92884900D01*
X138042854Y-92947255D01*
X138023558Y-92963975D01*
X137837997Y-93093905D01*
X137670905Y-93260997D01*
X137535365Y-93454569D01*
X137535364Y-93454571D01*
X137435498Y-93668735D01*
X137435494Y-93668744D01*
X137382074Y-93868115D01*
X137345709Y-93927776D01*
X137282862Y-93958305D01*
X137213487Y-93950010D01*
X137159609Y-93905525D01*
X137143639Y-93872020D01*
X137098214Y-93722273D01*
X137098212Y-93722270D01*
X137098212Y-93722268D01*
X137005313Y-93548467D01*
X137005309Y-93548460D01*
X136880283Y-93396116D01*
X136727939Y-93271090D01*
X136727932Y-93271086D01*
X136554133Y-93178188D01*
X136554127Y-93178186D01*
X136428397Y-93140046D01*
X136365529Y-93120975D01*
X136169400Y-93101659D01*
X136169399Y-93101659D01*
X136002225Y-93118123D01*
X135933579Y-93105104D01*
X135902391Y-93082401D01*
X135722528Y-92902538D01*
X135722525Y-92902534D01*
X135722525Y-92902535D01*
X135715458Y-92895468D01*
X135715458Y-92895467D01*
X135628333Y-92808342D01*
X135628332Y-92808341D01*
X135628331Y-92808340D01*
X135563978Y-92765341D01*
X135563977Y-92765340D01*
X135525890Y-92739890D01*
X135525886Y-92739888D01*
X135524049Y-92739127D01*
X135445392Y-92706547D01*
X135412052Y-92692737D01*
X135412048Y-92692736D01*
X135412044Y-92692735D01*
X135328338Y-92676085D01*
X135328337Y-92676085D01*
X135291211Y-92668700D01*
X135291207Y-92668700D01*
X135291206Y-92668700D01*
X132488300Y-92668700D01*
X132421261Y-92649015D01*
X132375506Y-92596211D01*
X132364300Y-92544700D01*
X132364300Y-90703420D01*
X132383985Y-90636381D01*
X132436789Y-90590626D01*
X132500454Y-90580017D01*
X132613400Y-90591141D01*
X132809532Y-90571824D01*
X132998127Y-90514614D01*
X133171938Y-90421710D01*
X133315310Y-90304047D01*
X133379620Y-90276734D01*
X133393975Y-90275900D01*
X135302808Y-90275900D01*
X135302808Y-90275899D01*
X135396131Y-90257337D01*
X135396132Y-90257337D01*
X135405388Y-90255495D01*
X135423652Y-90251863D01*
X135423657Y-90251860D01*
X135423660Y-90251860D01*
X135456987Y-90238054D01*
X135456986Y-90238054D01*
X135456992Y-90238052D01*
X135537486Y-90204712D01*
X135594622Y-90166534D01*
X135594623Y-90166534D01*
X135629476Y-90143245D01*
X135639933Y-90136258D01*
X135714626Y-90061564D01*
X135775946Y-90028080D01*
X135838299Y-90030585D01*
G37*
G04 #@! TD.AperFunction*
G04 #@! TA.AperFunction,NonConductor*
G36*
X140064255Y-94798946D02*
G01*
X140080975Y-94818242D01*
X140210901Y-95003796D01*
X140210906Y-95003802D01*
X140377997Y-95170893D01*
X140378003Y-95170898D01*
X140563558Y-95300825D01*
X140607183Y-95355402D01*
X140614377Y-95424900D01*
X140582854Y-95487255D01*
X140563558Y-95503975D01*
X140377997Y-95633905D01*
X140210905Y-95800997D01*
X140080975Y-95986558D01*
X140026398Y-96030183D01*
X139956900Y-96037377D01*
X139894545Y-96005854D01*
X139877825Y-95986558D01*
X139747894Y-95800997D01*
X139580802Y-95633906D01*
X139580796Y-95633901D01*
X139395242Y-95503975D01*
X139351617Y-95449398D01*
X139344423Y-95379900D01*
X139375946Y-95317545D01*
X139395242Y-95300825D01*
X139417426Y-95285291D01*
X139580801Y-95170895D01*
X139747895Y-95003801D01*
X139877825Y-94818242D01*
X139932402Y-94774617D01*
X140001900Y-94767423D01*
X140064255Y-94798946D01*
G37*
G04 #@! TD.AperFunction*
G04 #@! TA.AperFunction,NonConductor*
G36*
X142706055Y-94461292D02*
G01*
X142759934Y-94505776D01*
X142781210Y-94572328D01*
X142781243Y-94575896D01*
X142773186Y-96200063D01*
X142753170Y-96267004D01*
X142700139Y-96312497D01*
X142630932Y-96322097D01*
X142567521Y-96292757D01*
X142530039Y-96233792D01*
X142529430Y-96231606D01*
X142523303Y-96208737D01*
X142423435Y-95994571D01*
X142417825Y-95986558D01*
X142287894Y-95800997D01*
X142120802Y-95633906D01*
X142120796Y-95633901D01*
X141935242Y-95503975D01*
X141891617Y-95449398D01*
X141884423Y-95379900D01*
X141915946Y-95317545D01*
X141935242Y-95300825D01*
X141957426Y-95285291D01*
X142120801Y-95170895D01*
X142287895Y-95003801D01*
X142423435Y-94810230D01*
X142523303Y-94596063D01*
X142523305Y-94596053D01*
X142523307Y-94596050D01*
X142537470Y-94543190D01*
X142573833Y-94483529D01*
X142636680Y-94452998D01*
X142706055Y-94461292D01*
G37*
G04 #@! TD.AperFunction*
G04 #@! TA.AperFunction,NonConductor*
G36*
X124489179Y-96861416D02*
G01*
X124590886Y-96915779D01*
X124615273Y-96928814D01*
X124803868Y-96986024D01*
X125000000Y-97005341D01*
X125051560Y-97000262D01*
X125120203Y-97013280D01*
X125151394Y-97035984D01*
X127188181Y-99072771D01*
X127221666Y-99134094D01*
X127224500Y-99160452D01*
X127224500Y-99640548D01*
X127204815Y-99707587D01*
X127152011Y-99753342D01*
X127082853Y-99763286D01*
X127019297Y-99734261D01*
X127012819Y-99728229D01*
X124343045Y-97058455D01*
X124309560Y-96997132D01*
X124314544Y-96927440D01*
X124356416Y-96871507D01*
X124421880Y-96847090D01*
X124489179Y-96861416D01*
G37*
G04 #@! TD.AperFunction*
G04 #@! TA.AperFunction,NonConductor*
G36*
X123962281Y-99476185D02*
G01*
X124008036Y-99528989D01*
X124017980Y-99598147D01*
X123991095Y-99659165D01*
X123878090Y-99796860D01*
X123878086Y-99796867D01*
X123785188Y-99970666D01*
X123727975Y-100159270D01*
X123708659Y-100355401D01*
X123708659Y-100355402D01*
X123711459Y-100383839D01*
X123698439Y-100452485D01*
X123675737Y-100483671D01*
X123444682Y-100714727D01*
X123248470Y-100910939D01*
X123248467Y-100910942D01*
X123220839Y-100938570D01*
X123161340Y-100998068D01*
X123139673Y-101030497D01*
X123139671Y-101030500D01*
X123115761Y-101066283D01*
X123092882Y-101100523D01*
X123091935Y-101102296D01*
X123091195Y-101103048D01*
X123089504Y-101105580D01*
X123089023Y-101105259D01*
X123042967Y-101152135D01*
X122974828Y-101167588D01*
X122909151Y-101143749D01*
X122894902Y-101131512D01*
X121761264Y-99997874D01*
X121727779Y-99936551D01*
X121732763Y-99866859D01*
X121774635Y-99810926D01*
X121812944Y-99791534D01*
X121999927Y-99734814D01*
X122173738Y-99641910D01*
X122326083Y-99516883D01*
X122338432Y-99501836D01*
X122396178Y-99462501D01*
X122434286Y-99456500D01*
X123895242Y-99456500D01*
X123962281Y-99476185D01*
G37*
G04 #@! TD.AperFunction*
G04 #@! TA.AperFunction,NonConductor*
G36*
X130870303Y-108803695D02*
G01*
X130876781Y-108809727D01*
X132059925Y-109992872D01*
X132059932Y-109992878D01*
X132158469Y-110058718D01*
X132158470Y-110058718D01*
X132166473Y-110064065D01*
X132284856Y-110113101D01*
X132284860Y-110113101D01*
X132284861Y-110113102D01*
X132410528Y-110138100D01*
X132410531Y-110138100D01*
X135783495Y-110138100D01*
X135850534Y-110157785D01*
X135896289Y-110210589D01*
X135906898Y-110274254D01*
X135900659Y-110337600D01*
X135919975Y-110533729D01*
X135977188Y-110722333D01*
X136070086Y-110896132D01*
X136070090Y-110896139D01*
X136195117Y-111048484D01*
X136235163Y-111081348D01*
X136274499Y-111139093D01*
X136280500Y-111177202D01*
X136280500Y-115039872D01*
X136260815Y-115106911D01*
X136208011Y-115152666D01*
X136138853Y-115162610D01*
X136075297Y-115133585D01*
X136068819Y-115127553D01*
X133538619Y-112597353D01*
X133505134Y-112536030D01*
X133502300Y-112509672D01*
X133502300Y-112181348D01*
X133477302Y-112055681D01*
X133477301Y-112055680D01*
X133477301Y-112055676D01*
X133428265Y-111937293D01*
X133428264Y-111937292D01*
X133428260Y-111937284D01*
X133403691Y-111900515D01*
X133403689Y-111900513D01*
X133378197Y-111862361D01*
X133357076Y-111830750D01*
X133357074Y-111830748D01*
X133357072Y-111830745D01*
X130701419Y-109175092D01*
X130667934Y-109113769D01*
X130665100Y-109087411D01*
X130665100Y-108897408D01*
X130684785Y-108830369D01*
X130737589Y-108784614D01*
X130806747Y-108774670D01*
X130870303Y-108803695D01*
G37*
G04 #@! TD.AperFunction*
G04 #@! TA.AperFunction,NonConductor*
G36*
X138396963Y-110157785D02*
G01*
X138442306Y-110209695D01*
X138500564Y-110334629D01*
X138500565Y-110334631D01*
X138636101Y-110528195D01*
X138636106Y-110528202D01*
X138803197Y-110695293D01*
X138803203Y-110695298D01*
X138988758Y-110825225D01*
X139032383Y-110879802D01*
X139039577Y-110949300D01*
X139008054Y-111011655D01*
X138988758Y-111028375D01*
X138803197Y-111158305D01*
X138636105Y-111325397D01*
X138500565Y-111518969D01*
X138500564Y-111518971D01*
X138400698Y-111733135D01*
X138400694Y-111733144D01*
X138339538Y-111961386D01*
X138339536Y-111961396D01*
X138318941Y-112196799D01*
X138318941Y-112196800D01*
X138339536Y-112432203D01*
X138339538Y-112432213D01*
X138400694Y-112660455D01*
X138400696Y-112660459D01*
X138400697Y-112660463D01*
X138470923Y-112811062D01*
X138500565Y-112874630D01*
X138500567Y-112874634D01*
X138636101Y-113068195D01*
X138636106Y-113068202D01*
X138803197Y-113235293D01*
X138803203Y-113235298D01*
X138988758Y-113365225D01*
X139032383Y-113419802D01*
X139039577Y-113489300D01*
X139008054Y-113551655D01*
X138988758Y-113568375D01*
X138803197Y-113698305D01*
X138636105Y-113865397D01*
X138500565Y-114058969D01*
X138500564Y-114058971D01*
X138400698Y-114273135D01*
X138400694Y-114273144D01*
X138339538Y-114501386D01*
X138339536Y-114501396D01*
X138318941Y-114736799D01*
X138318941Y-114736800D01*
X138339536Y-114972203D01*
X138339538Y-114972213D01*
X138400694Y-115200455D01*
X138400696Y-115200459D01*
X138400697Y-115200463D01*
X138500565Y-115414630D01*
X138551334Y-115487135D01*
X138573661Y-115553342D01*
X138556651Y-115621109D01*
X138505703Y-115668922D01*
X138461249Y-115679519D01*
X138461460Y-115681662D01*
X138403837Y-115687336D01*
X138335191Y-115674316D01*
X138304005Y-115651614D01*
X137567819Y-114915428D01*
X137534334Y-114854105D01*
X137531500Y-114827747D01*
X137531500Y-111177202D01*
X137551185Y-111110163D01*
X137576837Y-111081348D01*
X137616882Y-111048484D01*
X137741909Y-110896139D01*
X137741913Y-110896132D01*
X137834811Y-110722333D01*
X137834811Y-110722332D01*
X137834814Y-110722327D01*
X137892024Y-110533732D01*
X137911341Y-110337600D01*
X137905102Y-110274253D01*
X137918121Y-110205608D01*
X137966186Y-110154898D01*
X138028505Y-110138100D01*
X138329924Y-110138100D01*
X138396963Y-110157785D01*
G37*
G04 #@! TD.AperFunction*
G04 #@! TA.AperFunction,NonConductor*
G36*
X126123385Y-64853717D02*
G01*
X126129624Y-64856533D01*
X126129645Y-64856483D01*
X126135263Y-64858810D01*
X126135268Y-64858811D01*
X126135273Y-64858814D01*
X126323868Y-64916024D01*
X126520000Y-64935341D01*
X126583346Y-64929102D01*
X126651992Y-64942121D01*
X126702702Y-64990186D01*
X126719500Y-65052505D01*
X126719500Y-68066991D01*
X126699815Y-68134030D01*
X126683181Y-68154672D01*
X124706207Y-70131645D01*
X124644884Y-70165130D01*
X124606372Y-70167366D01*
X124587000Y-70165459D01*
X124586999Y-70165459D01*
X124390870Y-70184775D01*
X124202266Y-70241988D01*
X124028467Y-70334886D01*
X124028460Y-70334890D01*
X123876116Y-70459916D01*
X123751090Y-70612260D01*
X123751086Y-70612267D01*
X123658188Y-70786066D01*
X123600975Y-70974670D01*
X123586545Y-71121186D01*
X123560384Y-71185973D01*
X123503350Y-71226332D01*
X123433549Y-71229449D01*
X123404688Y-71218390D01*
X123383730Y-71207187D01*
X123313797Y-71185973D01*
X123289429Y-71178581D01*
X123195129Y-71149975D01*
X122999000Y-71130659D01*
X122802870Y-71149975D01*
X122614266Y-71207188D01*
X122440467Y-71300086D01*
X122440460Y-71300090D01*
X122288116Y-71425116D01*
X122203823Y-71527829D01*
X122146078Y-71567163D01*
X122107970Y-71573164D01*
X120385539Y-71573164D01*
X120318500Y-71553479D01*
X120289686Y-71527829D01*
X120256819Y-71487780D01*
X120104475Y-71362754D01*
X120104468Y-71362750D01*
X119930665Y-71269850D01*
X119878567Y-71254046D01*
X119820129Y-71215748D01*
X119791673Y-71151935D01*
X119802235Y-71082868D01*
X119826880Y-71047708D01*
X125992372Y-64882216D01*
X126053693Y-64848733D01*
X126123385Y-64853717D01*
G37*
G04 #@! TD.AperFunction*
M02*
