M48
; DRILL file {KiCad 8.0.0} date 2024-03-19T09:47:27-0500
; FORMAT={-:-/ absolute / inch / decimal}
; #@! TF.CreationDate,2024-03-19T09:47:27-05:00
; #@! TF.GenerationSoftware,Kicad,Pcbnew,8.0.0
; #@! TF.FileFunction,Plated,1,2,PTH
FMAT,2
INCH
; #@! TA.AperFunction,Plated,PTH,ComponentDrill
T1C0.0118
; #@! TA.AperFunction,Plated,PTH,ViaDrill
T2C0.0157
; #@! TA.AperFunction,Plated,PTH,ComponentDrill
T3C0.0236
; #@! TA.AperFunction,Plated,PTH,ComponentDrill
T4C0.0276
; #@! TA.AperFunction,Plated,PTH,ComponentDrill
T5C0.0354
; #@! TA.AperFunction,Plated,PTH,ComponentDrill
T6C0.0394
; #@! TA.AperFunction,Plated,PTH,ComponentDrill
T7C0.0472
%
G90
G05
T1
X4.7588Y-3.3832
X4.7588Y-3.4383
X4.7864Y-3.3556
X4.7864Y-3.4107
X4.7864Y-3.4659
X4.8139Y-3.3832
X4.8139Y-3.4383
X4.8415Y-3.3556
X4.8415Y-3.4107
X4.8415Y-3.4659
X4.8691Y-3.3832
X4.8691Y-3.4383
T2
X4.236Y-4.834
X4.516Y-3.58
X4.5536Y-3.7955
X4.5925Y-4.0287
X4.604Y-3.088
X4.604Y-3.232
X4.607Y-3.95
X4.6343Y-3.374
X4.6343Y-3.6126
X4.6378Y-2.8421
X4.651Y-3.829
X4.7Y-4.724
X4.7065Y-2.8425
X4.7615Y-4.059
X4.788Y-3.89
X4.8087Y-3.1531
X4.81Y-3.636
X4.823Y-4.11
X4.8425Y-2.84
X4.859Y-3.635
X4.8622Y-3.7598
X4.9016Y-4.6457
X4.905Y-2.802
X4.91Y-3.951
X4.9213Y-3.7795
X4.928Y-4.008
X4.93Y-2.285
X4.96Y-3.637
X4.9811Y-2.5169
X5.01Y-3.636
X5.0453Y-3.8287
X5.0615Y-3.6355
X5.088Y-4.402
X5.094Y-3.2809
X5.097Y-3.328
X5.1275Y-3.0643
X5.1275Y-3.112
X5.197Y-2.006
X5.221Y-3.527
X5.222Y-3.376
X5.222Y-3.476
X5.223Y-3.427
X5.262Y-1.824
X5.262Y-2.182
X5.263Y-2.13
X5.284Y-4.11
X5.2955Y-3.803
X5.359Y-3.208
X5.36Y-2.905
X5.36Y-3.305
X5.36Y-3.507
X5.361Y-3.007
X5.361Y-3.105
X5.361Y-3.406
X5.361Y-3.606
X5.361Y-3.705
X5.385Y-2.352
X5.39Y-4.344
X5.451Y-4.594
X5.513Y-2.575
X5.534Y-2.206
X5.536Y-2.345
T4
X5.0827Y-4.7244
X5.126Y-4.6811
X5.1693Y-4.7244
X5.2126Y-4.6811
X5.2559Y-4.7244
X5.2992Y-4.6811
X5.3425Y-4.7244
X5.3858Y-4.6811
T5
X5.065Y-4.8492
X5.4035Y-4.8492
T6
X5.461Y-2.906
X5.461Y-3.006
X5.461Y-3.106
X5.461Y-3.206
X5.461Y-3.306
X5.461Y-3.406
X5.461Y-3.506
X5.461Y-3.606
X5.461Y-3.706
X5.461Y-3.806
X5.499Y-4.1172
X5.499Y-4.2172
X5.499Y-4.3172
X5.499Y-4.4172
X5.499Y-4.5172
X5.561Y-2.906
X5.561Y-3.006
X5.561Y-3.106
X5.561Y-3.206
X5.561Y-3.306
X5.561Y-3.406
X5.561Y-3.506
X5.561Y-3.606
X5.561Y-3.706
X5.561Y-3.806
T7
X3.6639Y-4.5312
X3.6639Y-4.728
X3.6779Y-1.97
X3.6779Y-2.1669
X4.1561Y-4.5312
X4.1561Y-4.728
X4.17Y-1.97
X4.17Y-2.1669
X4.3239Y-4.5312
X4.3239Y-4.728
X4.3379Y-1.97
X4.3379Y-2.1669
X4.8161Y-4.5312
X4.8161Y-4.728
X4.83Y-1.97
X4.83Y-2.1669
T3
G00X5.3482Y-1.9362
M15
G01X5.3915Y-1.9362
M16
G05
G00X5.3482Y-2.2764
M15
G01X5.3915Y-2.2764
M16
G05
G00X5.5187Y-1.9362
M15
G01X5.5502Y-1.9362
M16
G05
G00X5.5187Y-2.2764
M15
G01X5.5502Y-2.2764
M16
G05
M30
