G04 #@! TF.GenerationSoftware,KiCad,Pcbnew,8.0.0*
G04 #@! TF.CreationDate,2024-04-09T17:42:43-05:00*
G04 #@! TF.ProjectId,esp32_example,65737033-325f-4657-9861-6d706c652e6b,rev?*
G04 #@! TF.SameCoordinates,Original*
G04 #@! TF.FileFunction,Soldermask,Bot*
G04 #@! TF.FilePolarity,Negative*
%FSLAX46Y46*%
G04 Gerber Fmt 4.6, Leading zero omitted, Abs format (unit mm)*
G04 Created by KiCad (PCBNEW 8.0.0) date 2024-04-09 17:42:43*
%MOMM*%
%LPD*%
G01*
G04 APERTURE LIST*
G04 Aperture macros list*
%AMRoundRect*
0 Rectangle with rounded corners*
0 $1 Rounding radius*
0 $2 $3 $4 $5 $6 $7 $8 $9 X,Y pos of 4 corners*
0 Add a 4 corners polygon primitive as box body*
4,1,4,$2,$3,$4,$5,$6,$7,$8,$9,$2,$3,0*
0 Add four circle primitives for the rounded corners*
1,1,$1+$1,$2,$3*
1,1,$1+$1,$4,$5*
1,1,$1+$1,$6,$7*
1,1,$1+$1,$8,$9*
0 Add four rect primitives between the rounded corners*
20,1,$1+$1,$2,$3,$4,$5,0*
20,1,$1+$1,$4,$5,$6,$7,0*
20,1,$1+$1,$6,$7,$8,$9,0*
20,1,$1+$1,$8,$9,$2,$3,0*%
%AMFreePoly0*
4,1,6,1.000000,0.000000,0.500000,-0.750000,-0.500000,-0.750000,-0.500000,0.750000,0.500000,0.750000,1.000000,0.000000,1.000000,0.000000,$1*%
%AMFreePoly1*
4,1,6,0.500000,-0.750000,-0.650000,-0.750000,-0.150000,0.000000,-0.650000,0.750000,0.500000,0.750000,0.500000,-0.750000,0.500000,-0.750000,$1*%
G04 Aperture macros list end*
%ADD10O,1.700000X1.700000*%
%ADD11R,1.700000X1.700000*%
%ADD12RoundRect,0.250000X0.625000X-0.350000X0.625000X0.350000X-0.625000X0.350000X-0.625000X-0.350000X0*%
%ADD13O,1.750000X1.200000*%
%ADD14RoundRect,0.250000X-0.600000X0.600000X-0.600000X-0.600000X0.600000X-0.600000X0.600000X0.600000X0*%
%ADD15C,1.700000*%
%ADD16O,0.890000X1.550000*%
%ADD17O,1.250000X0.950000*%
%ADD18FreePoly0,180.000000*%
%ADD19FreePoly1,180.000000*%
%ADD20R,1.500000X1.500000*%
%ADD21FreePoly0,0.000000*%
G04 APERTURE END LIST*
D10*
G04 #@! TO.C,J10*
X223730000Y-45570000D03*
D11*
X223730000Y-43030000D03*
G04 #@! TD*
G04 #@! TO.C,J8*
X210670000Y-52690000D03*
D10*
X208130000Y-52690000D03*
G04 #@! TD*
D12*
G04 #@! TO.C,J1*
X167098800Y-76320400D03*
D13*
X167098800Y-74320400D03*
G04 #@! TD*
D11*
G04 #@! TO.C,J4*
X202946000Y-74396600D03*
D10*
X202946000Y-76936600D03*
X200406000Y-74396600D03*
X200406000Y-76936600D03*
X197866000Y-74396600D03*
X197866000Y-76936600D03*
X195326000Y-74396600D03*
X195326000Y-76936600D03*
X192786000Y-74396600D03*
X192786000Y-76936600D03*
X190246000Y-74396600D03*
X190246000Y-76936600D03*
X187706000Y-74396600D03*
X187706000Y-76936600D03*
X185166000Y-74396600D03*
X185166000Y-76936600D03*
X182626000Y-74396600D03*
X182626000Y-76936600D03*
X180086000Y-74396600D03*
X180086000Y-76936600D03*
G04 #@! TD*
D14*
G04 #@! TO.C,J7*
X220810000Y-58600000D03*
D15*
X220810000Y-61140000D03*
X218270000Y-58600000D03*
X218270000Y-61140000D03*
X215730000Y-58600000D03*
X215730000Y-61140000D03*
X213190000Y-58600000D03*
X213190000Y-61140000D03*
X210650000Y-58600000D03*
X210650000Y-61140000D03*
G04 #@! TD*
D11*
G04 #@! TO.C,J3*
X166725600Y-59156600D03*
D10*
X166725600Y-61696600D03*
X166725600Y-64236600D03*
X166725600Y-66776600D03*
X166725600Y-69316600D03*
G04 #@! TD*
D11*
G04 #@! TO.C,J5*
X218525000Y-52480000D03*
D10*
X215985000Y-52480000D03*
G04 #@! TD*
D16*
G04 #@! TO.C,J2*
X213700000Y-39440000D03*
D17*
X212700000Y-42140000D03*
X207700000Y-42140000D03*
D16*
X206700000Y-39440000D03*
G04 #@! TD*
D11*
G04 #@! TO.C,J9*
X217130000Y-42280000D03*
D10*
X219670000Y-42280000D03*
X217130000Y-44820000D03*
X219670000Y-44820000D03*
G04 #@! TD*
D18*
G04 #@! TO.C,JP1*
X224340000Y-67050000D03*
D19*
X222890000Y-67050000D03*
G04 #@! TD*
D20*
G04 #@! TO.C,JP2*
X174650400Y-65938400D03*
X172250400Y-65938400D03*
D18*
X175450400Y-65938400D03*
D21*
X171450400Y-65938400D03*
G04 #@! TD*
M02*
