M48
; DRILL file {KiCad 8.0.0} date 2024-04-09T17:42:47-0500
; FORMAT={-:-/ absolute / inch / decimal}
; #@! TF.CreationDate,2024-04-09T17:42:47-05:00
; #@! TF.GenerationSoftware,Kicad,Pcbnew,8.0.0
; #@! TF.FileFunction,Plated,1,2,PTH
FMAT,2
INCH
; #@! TA.AperFunction,Plated,PTH,ViaDrill
T1C0.0118
; #@! TA.AperFunction,Plated,PTH,ViaDrill
T2C0.0157
; #@! TA.AperFunction,Plated,PTH,ComponentDrill
T3C0.0197
; #@! TA.AperFunction,Plated,PTH,ComponentDrill
T4C0.0217
; #@! TA.AperFunction,Plated,PTH,ComponentDrill
T5C0.0295
; #@! TA.AperFunction,Plated,PTH,ComponentDrill
T6C0.0394
%
G90
G05
T1
X6.629Y-1.623
X6.631Y-1.877
X6.7081Y-1.9667
X6.709Y-2.059
X6.785Y-2.03
X6.787Y-1.845
X6.787Y-1.937
X6.829Y-2.596
X6.855Y-2.333
X6.857Y-2.427
X6.858Y-2.031
X6.861Y-1.653
X6.904Y-2.595
X6.984Y-2.345
X6.985Y-2.034
X7.014Y-2.121
X7.058Y-2.083
X7.09Y-2.799
X7.191Y-2.799
X7.273Y-2.094
X7.284Y-2.394
X7.284Y-2.493
X7.286Y-2.545
X7.2875Y-2.7965
X7.296Y-2.244
X7.298Y-2.145
X7.298Y-2.194
X7.357Y-2.612
X7.388Y-2.799
X7.406Y-2.583
X7.49Y-2.798
X7.503Y-2.597
X7.552Y-2.597
X7.591Y-2.8
X7.604Y-2.592
X7.655Y-2.598
X7.691Y-2.8
X7.703Y-2.59
X7.789Y-2.798
X7.89Y-2.799
X7.973Y-2.044
X7.975Y-2.094
X7.976Y-2.545
X7.989Y-2.799
X8.4363Y-1.9341
X8.4373Y-1.8541
T2
X6.7591Y-2.5945
X7.076Y-1.9386
X7.0949Y-1.8122
X7.1465Y-1.7504
X7.2846Y-1.8949
X7.8602Y-1.9055
X7.9724Y-1.9445
X7.9756Y-1.9937
X8.0358Y-1.9634
X8.0685Y-2.0657
X8.0953Y-2.5917
X8.0969Y-2.6839
X8.1Y-2.3469
X8.1071Y-2.3976
X8.1118Y-2.448
X8.1165Y-2.4969
X8.3528Y-3.1579
X8.3591Y-2.9169
X8.4028Y-3.0953
X8.6917Y-2.7618
X8.7173Y-2.9087
X8.7323Y-2.7134
X8.735Y-1.6031
X8.7709Y-2.8701
X8.7776Y-2.7551
X8.8067Y-1.9965
X8.8425Y-1.9201
T5
X6.5787Y-2.926
X6.5787Y-3.0047
T6
X6.564Y-2.329
X6.564Y-2.429
X6.564Y-2.529
X6.564Y-2.629
X6.564Y-2.729
X7.09Y-2.929
X7.09Y-3.029
X7.19Y-2.929
X7.19Y-3.029
X7.29Y-2.929
X7.29Y-3.029
X7.39Y-2.929
X7.39Y-3.029
X7.49Y-2.929
X7.49Y-3.029
X7.59Y-2.929
X7.59Y-3.029
X7.69Y-2.929
X7.69Y-3.029
X7.79Y-2.929
X7.79Y-3.029
X7.89Y-2.929
X7.89Y-3.029
X7.99Y-2.929
X7.99Y-3.029
X8.1941Y-2.0744
X8.2933Y-2.3071
X8.2933Y-2.4071
X8.2941Y-2.0744
X8.3933Y-2.3071
X8.3933Y-2.4071
X8.4933Y-2.3071
X8.4933Y-2.4071
X8.5033Y-2.0661
X8.5484Y-1.6646
X8.5484Y-1.7646
X8.5933Y-2.3071
X8.5933Y-2.4071
X8.6033Y-2.0661
X8.6484Y-1.6646
X8.6484Y-1.7646
X8.6933Y-2.3071
X8.6933Y-2.4071
X8.8083Y-1.6941
X8.8083Y-1.7941
T3
G00X8.1378Y-1.5656
M15
G01X8.1378Y-1.54
M16
G05
G00X8.4134Y-1.5656
M15
G01X8.4134Y-1.54
M16
G05
T4
G00X8.1831Y-1.6591
M15
G01X8.1713Y-1.6591
M16
G05
G00X8.3799Y-1.6591
M15
G01X8.3681Y-1.6591
M16
G05
M30
