G04 #@! TF.GenerationSoftware,KiCad,Pcbnew,8.0.0*
G04 #@! TF.CreationDate,2024-04-09T16:33:37-05:00*
G04 #@! TF.ProjectId,esp32_example,65737033-325f-4657-9861-6d706c652e6b,rev?*
G04 #@! TF.SameCoordinates,Original*
G04 #@! TF.FileFunction,Legend,Top*
G04 #@! TF.FilePolarity,Positive*
%FSLAX46Y46*%
G04 Gerber Fmt 4.6, Leading zero omitted, Abs format (unit mm)*
G04 Created by KiCad (PCBNEW 8.0.0) date 2024-04-09 16:33:37*
%MOMM*%
%LPD*%
G01*
G04 APERTURE LIST*
%ADD10C,0.150000*%
%ADD11C,0.120000*%
%ADD12C,0.200000*%
%ADD13C,0.152400*%
G04 APERTURE END LIST*
D10*
X212454819Y-53023333D02*
X213169104Y-53023333D01*
X213169104Y-53023333D02*
X213311961Y-53070952D01*
X213311961Y-53070952D02*
X213407200Y-53166190D01*
X213407200Y-53166190D02*
X213454819Y-53309047D01*
X213454819Y-53309047D02*
X213454819Y-53404285D01*
X212883390Y-52404285D02*
X212835771Y-52499523D01*
X212835771Y-52499523D02*
X212788152Y-52547142D01*
X212788152Y-52547142D02*
X212692914Y-52594761D01*
X212692914Y-52594761D02*
X212645295Y-52594761D01*
X212645295Y-52594761D02*
X212550057Y-52547142D01*
X212550057Y-52547142D02*
X212502438Y-52499523D01*
X212502438Y-52499523D02*
X212454819Y-52404285D01*
X212454819Y-52404285D02*
X212454819Y-52213809D01*
X212454819Y-52213809D02*
X212502438Y-52118571D01*
X212502438Y-52118571D02*
X212550057Y-52070952D01*
X212550057Y-52070952D02*
X212645295Y-52023333D01*
X212645295Y-52023333D02*
X212692914Y-52023333D01*
X212692914Y-52023333D02*
X212788152Y-52070952D01*
X212788152Y-52070952D02*
X212835771Y-52118571D01*
X212835771Y-52118571D02*
X212883390Y-52213809D01*
X212883390Y-52213809D02*
X212883390Y-52404285D01*
X212883390Y-52404285D02*
X212931009Y-52499523D01*
X212931009Y-52499523D02*
X212978628Y-52547142D01*
X212978628Y-52547142D02*
X213073866Y-52594761D01*
X213073866Y-52594761D02*
X213264342Y-52594761D01*
X213264342Y-52594761D02*
X213359580Y-52547142D01*
X213359580Y-52547142D02*
X213407200Y-52499523D01*
X213407200Y-52499523D02*
X213454819Y-52404285D01*
X213454819Y-52404285D02*
X213454819Y-52213809D01*
X213454819Y-52213809D02*
X213407200Y-52118571D01*
X213407200Y-52118571D02*
X213359580Y-52070952D01*
X213359580Y-52070952D02*
X213264342Y-52023333D01*
X213264342Y-52023333D02*
X213073866Y-52023333D01*
X213073866Y-52023333D02*
X212978628Y-52070952D01*
X212978628Y-52070952D02*
X212931009Y-52118571D01*
X212931009Y-52118571D02*
X212883390Y-52213809D01*
X169147142Y-59784819D02*
X168813809Y-59308628D01*
X168575714Y-59784819D02*
X168575714Y-58784819D01*
X168575714Y-58784819D02*
X168956666Y-58784819D01*
X168956666Y-58784819D02*
X169051904Y-58832438D01*
X169051904Y-58832438D02*
X169099523Y-58880057D01*
X169099523Y-58880057D02*
X169147142Y-58975295D01*
X169147142Y-58975295D02*
X169147142Y-59118152D01*
X169147142Y-59118152D02*
X169099523Y-59213390D01*
X169099523Y-59213390D02*
X169051904Y-59261009D01*
X169051904Y-59261009D02*
X168956666Y-59308628D01*
X168956666Y-59308628D02*
X168575714Y-59308628D01*
X170099523Y-59784819D02*
X169528095Y-59784819D01*
X169813809Y-59784819D02*
X169813809Y-58784819D01*
X169813809Y-58784819D02*
X169718571Y-58927676D01*
X169718571Y-58927676D02*
X169623333Y-59022914D01*
X169623333Y-59022914D02*
X169528095Y-59070533D01*
X170480476Y-58880057D02*
X170528095Y-58832438D01*
X170528095Y-58832438D02*
X170623333Y-58784819D01*
X170623333Y-58784819D02*
X170861428Y-58784819D01*
X170861428Y-58784819D02*
X170956666Y-58832438D01*
X170956666Y-58832438D02*
X171004285Y-58880057D01*
X171004285Y-58880057D02*
X171051904Y-58975295D01*
X171051904Y-58975295D02*
X171051904Y-59070533D01*
X171051904Y-59070533D02*
X171004285Y-59213390D01*
X171004285Y-59213390D02*
X170432857Y-59784819D01*
X170432857Y-59784819D02*
X171051904Y-59784819D01*
X179297200Y-57593332D02*
X179344819Y-57450475D01*
X179344819Y-57450475D02*
X179344819Y-57212380D01*
X179344819Y-57212380D02*
X179297200Y-57117142D01*
X179297200Y-57117142D02*
X179249580Y-57069523D01*
X179249580Y-57069523D02*
X179154342Y-57021904D01*
X179154342Y-57021904D02*
X179059104Y-57021904D01*
X179059104Y-57021904D02*
X178963866Y-57069523D01*
X178963866Y-57069523D02*
X178916247Y-57117142D01*
X178916247Y-57117142D02*
X178868628Y-57212380D01*
X178868628Y-57212380D02*
X178821009Y-57402856D01*
X178821009Y-57402856D02*
X178773390Y-57498094D01*
X178773390Y-57498094D02*
X178725771Y-57545713D01*
X178725771Y-57545713D02*
X178630533Y-57593332D01*
X178630533Y-57593332D02*
X178535295Y-57593332D01*
X178535295Y-57593332D02*
X178440057Y-57545713D01*
X178440057Y-57545713D02*
X178392438Y-57498094D01*
X178392438Y-57498094D02*
X178344819Y-57402856D01*
X178344819Y-57402856D02*
X178344819Y-57164761D01*
X178344819Y-57164761D02*
X178392438Y-57021904D01*
X178344819Y-56688570D02*
X179344819Y-56450475D01*
X179344819Y-56450475D02*
X178630533Y-56259999D01*
X178630533Y-56259999D02*
X179344819Y-56069523D01*
X179344819Y-56069523D02*
X178344819Y-55831428D01*
X178440057Y-55498094D02*
X178392438Y-55450475D01*
X178392438Y-55450475D02*
X178344819Y-55355237D01*
X178344819Y-55355237D02*
X178344819Y-55117142D01*
X178344819Y-55117142D02*
X178392438Y-55021904D01*
X178392438Y-55021904D02*
X178440057Y-54974285D01*
X178440057Y-54974285D02*
X178535295Y-54926666D01*
X178535295Y-54926666D02*
X178630533Y-54926666D01*
X178630533Y-54926666D02*
X178773390Y-54974285D01*
X178773390Y-54974285D02*
X179344819Y-55545713D01*
X179344819Y-55545713D02*
X179344819Y-54926666D01*
X174664761Y-45520057D02*
X174569523Y-45472438D01*
X174569523Y-45472438D02*
X174474285Y-45377200D01*
X174474285Y-45377200D02*
X174331428Y-45234342D01*
X174331428Y-45234342D02*
X174236190Y-45186723D01*
X174236190Y-45186723D02*
X174140952Y-45186723D01*
X174188571Y-45424819D02*
X174093333Y-45377200D01*
X174093333Y-45377200D02*
X173998095Y-45281961D01*
X173998095Y-45281961D02*
X173950476Y-45091485D01*
X173950476Y-45091485D02*
X173950476Y-44758152D01*
X173950476Y-44758152D02*
X173998095Y-44567676D01*
X173998095Y-44567676D02*
X174093333Y-44472438D01*
X174093333Y-44472438D02*
X174188571Y-44424819D01*
X174188571Y-44424819D02*
X174379047Y-44424819D01*
X174379047Y-44424819D02*
X174474285Y-44472438D01*
X174474285Y-44472438D02*
X174569523Y-44567676D01*
X174569523Y-44567676D02*
X174617142Y-44758152D01*
X174617142Y-44758152D02*
X174617142Y-45091485D01*
X174617142Y-45091485D02*
X174569523Y-45281961D01*
X174569523Y-45281961D02*
X174474285Y-45377200D01*
X174474285Y-45377200D02*
X174379047Y-45424819D01*
X174379047Y-45424819D02*
X174188571Y-45424819D01*
X174998095Y-44520057D02*
X175045714Y-44472438D01*
X175045714Y-44472438D02*
X175140952Y-44424819D01*
X175140952Y-44424819D02*
X175379047Y-44424819D01*
X175379047Y-44424819D02*
X175474285Y-44472438D01*
X175474285Y-44472438D02*
X175521904Y-44520057D01*
X175521904Y-44520057D02*
X175569523Y-44615295D01*
X175569523Y-44615295D02*
X175569523Y-44710533D01*
X175569523Y-44710533D02*
X175521904Y-44853390D01*
X175521904Y-44853390D02*
X174950476Y-45424819D01*
X174950476Y-45424819D02*
X175569523Y-45424819D01*
X187197142Y-72854819D02*
X186863809Y-72378628D01*
X186625714Y-72854819D02*
X186625714Y-71854819D01*
X186625714Y-71854819D02*
X187006666Y-71854819D01*
X187006666Y-71854819D02*
X187101904Y-71902438D01*
X187101904Y-71902438D02*
X187149523Y-71950057D01*
X187149523Y-71950057D02*
X187197142Y-72045295D01*
X187197142Y-72045295D02*
X187197142Y-72188152D01*
X187197142Y-72188152D02*
X187149523Y-72283390D01*
X187149523Y-72283390D02*
X187101904Y-72331009D01*
X187101904Y-72331009D02*
X187006666Y-72378628D01*
X187006666Y-72378628D02*
X186625714Y-72378628D01*
X188149523Y-72854819D02*
X187578095Y-72854819D01*
X187863809Y-72854819D02*
X187863809Y-71854819D01*
X187863809Y-71854819D02*
X187768571Y-71997676D01*
X187768571Y-71997676D02*
X187673333Y-72092914D01*
X187673333Y-72092914D02*
X187578095Y-72140533D01*
X188768571Y-71854819D02*
X188863809Y-71854819D01*
X188863809Y-71854819D02*
X188959047Y-71902438D01*
X188959047Y-71902438D02*
X189006666Y-71950057D01*
X189006666Y-71950057D02*
X189054285Y-72045295D01*
X189054285Y-72045295D02*
X189101904Y-72235771D01*
X189101904Y-72235771D02*
X189101904Y-72473866D01*
X189101904Y-72473866D02*
X189054285Y-72664342D01*
X189054285Y-72664342D02*
X189006666Y-72759580D01*
X189006666Y-72759580D02*
X188959047Y-72807200D01*
X188959047Y-72807200D02*
X188863809Y-72854819D01*
X188863809Y-72854819D02*
X188768571Y-72854819D01*
X188768571Y-72854819D02*
X188673333Y-72807200D01*
X188673333Y-72807200D02*
X188625714Y-72759580D01*
X188625714Y-72759580D02*
X188578095Y-72664342D01*
X188578095Y-72664342D02*
X188530476Y-72473866D01*
X188530476Y-72473866D02*
X188530476Y-72235771D01*
X188530476Y-72235771D02*
X188578095Y-72045295D01*
X188578095Y-72045295D02*
X188625714Y-71950057D01*
X188625714Y-71950057D02*
X188673333Y-71902438D01*
X188673333Y-71902438D02*
X188768571Y-71854819D01*
X205231666Y-72059819D02*
X205231666Y-72774104D01*
X205231666Y-72774104D02*
X205184047Y-72916961D01*
X205184047Y-72916961D02*
X205088809Y-73012200D01*
X205088809Y-73012200D02*
X204945952Y-73059819D01*
X204945952Y-73059819D02*
X204850714Y-73059819D01*
X206136428Y-72059819D02*
X205945952Y-72059819D01*
X205945952Y-72059819D02*
X205850714Y-72107438D01*
X205850714Y-72107438D02*
X205803095Y-72155057D01*
X205803095Y-72155057D02*
X205707857Y-72297914D01*
X205707857Y-72297914D02*
X205660238Y-72488390D01*
X205660238Y-72488390D02*
X205660238Y-72869342D01*
X205660238Y-72869342D02*
X205707857Y-72964580D01*
X205707857Y-72964580D02*
X205755476Y-73012200D01*
X205755476Y-73012200D02*
X205850714Y-73059819D01*
X205850714Y-73059819D02*
X206041190Y-73059819D01*
X206041190Y-73059819D02*
X206136428Y-73012200D01*
X206136428Y-73012200D02*
X206184047Y-72964580D01*
X206184047Y-72964580D02*
X206231666Y-72869342D01*
X206231666Y-72869342D02*
X206231666Y-72631247D01*
X206231666Y-72631247D02*
X206184047Y-72536009D01*
X206184047Y-72536009D02*
X206136428Y-72488390D01*
X206136428Y-72488390D02*
X206041190Y-72440771D01*
X206041190Y-72440771D02*
X205850714Y-72440771D01*
X205850714Y-72440771D02*
X205755476Y-72488390D01*
X205755476Y-72488390D02*
X205707857Y-72536009D01*
X205707857Y-72536009D02*
X205660238Y-72631247D01*
X193040095Y-52820219D02*
X193040095Y-53629742D01*
X193040095Y-53629742D02*
X193087714Y-53724980D01*
X193087714Y-53724980D02*
X193135333Y-53772600D01*
X193135333Y-53772600D02*
X193230571Y-53820219D01*
X193230571Y-53820219D02*
X193421047Y-53820219D01*
X193421047Y-53820219D02*
X193516285Y-53772600D01*
X193516285Y-53772600D02*
X193563904Y-53724980D01*
X193563904Y-53724980D02*
X193611523Y-53629742D01*
X193611523Y-53629742D02*
X193611523Y-52820219D01*
X193992476Y-52820219D02*
X194659142Y-52820219D01*
X194659142Y-52820219D02*
X194230571Y-53820219D01*
X192550000Y-52614819D02*
X192550000Y-52852914D01*
X192311905Y-52757676D02*
X192550000Y-52852914D01*
X192550000Y-52852914D02*
X192788095Y-52757676D01*
X192407143Y-53043390D02*
X192550000Y-52852914D01*
X192550000Y-52852914D02*
X192692857Y-53043390D01*
X183667700Y-47560219D02*
X183667700Y-47798314D01*
X183429605Y-47703076D02*
X183667700Y-47798314D01*
X183667700Y-47798314D02*
X183905795Y-47703076D01*
X183524843Y-47988790D02*
X183667700Y-47798314D01*
X183667700Y-47798314D02*
X183810557Y-47988790D01*
X213701905Y-46424819D02*
X213701905Y-45424819D01*
X213701905Y-45424819D02*
X213940000Y-45424819D01*
X213940000Y-45424819D02*
X214082857Y-45472438D01*
X214082857Y-45472438D02*
X214178095Y-45567676D01*
X214178095Y-45567676D02*
X214225714Y-45662914D01*
X214225714Y-45662914D02*
X214273333Y-45853390D01*
X214273333Y-45853390D02*
X214273333Y-45996247D01*
X214273333Y-45996247D02*
X214225714Y-46186723D01*
X214225714Y-46186723D02*
X214178095Y-46281961D01*
X214178095Y-46281961D02*
X214082857Y-46377200D01*
X214082857Y-46377200D02*
X213940000Y-46424819D01*
X213940000Y-46424819D02*
X213701905Y-46424819D01*
X215225714Y-46424819D02*
X214654286Y-46424819D01*
X214940000Y-46424819D02*
X214940000Y-45424819D01*
X214940000Y-45424819D02*
X214844762Y-45567676D01*
X214844762Y-45567676D02*
X214749524Y-45662914D01*
X214749524Y-45662914D02*
X214654286Y-45710533D01*
X165377142Y-43804819D02*
X165043809Y-43328628D01*
X164805714Y-43804819D02*
X164805714Y-42804819D01*
X164805714Y-42804819D02*
X165186666Y-42804819D01*
X165186666Y-42804819D02*
X165281904Y-42852438D01*
X165281904Y-42852438D02*
X165329523Y-42900057D01*
X165329523Y-42900057D02*
X165377142Y-42995295D01*
X165377142Y-42995295D02*
X165377142Y-43138152D01*
X165377142Y-43138152D02*
X165329523Y-43233390D01*
X165329523Y-43233390D02*
X165281904Y-43281009D01*
X165281904Y-43281009D02*
X165186666Y-43328628D01*
X165186666Y-43328628D02*
X164805714Y-43328628D01*
X166329523Y-43804819D02*
X165758095Y-43804819D01*
X166043809Y-43804819D02*
X166043809Y-42804819D01*
X166043809Y-42804819D02*
X165948571Y-42947676D01*
X165948571Y-42947676D02*
X165853333Y-43042914D01*
X165853333Y-43042914D02*
X165758095Y-43090533D01*
X166662857Y-42804819D02*
X167281904Y-42804819D01*
X167281904Y-42804819D02*
X166948571Y-43185771D01*
X166948571Y-43185771D02*
X167091428Y-43185771D01*
X167091428Y-43185771D02*
X167186666Y-43233390D01*
X167186666Y-43233390D02*
X167234285Y-43281009D01*
X167234285Y-43281009D02*
X167281904Y-43376247D01*
X167281904Y-43376247D02*
X167281904Y-43614342D01*
X167281904Y-43614342D02*
X167234285Y-43709580D01*
X167234285Y-43709580D02*
X167186666Y-43757200D01*
X167186666Y-43757200D02*
X167091428Y-43804819D01*
X167091428Y-43804819D02*
X166805714Y-43804819D01*
X166805714Y-43804819D02*
X166710476Y-43757200D01*
X166710476Y-43757200D02*
X166662857Y-43709580D01*
X205340380Y-49108457D02*
X205388000Y-49156076D01*
X205388000Y-49156076D02*
X205435619Y-49298933D01*
X205435619Y-49298933D02*
X205435619Y-49394171D01*
X205435619Y-49394171D02*
X205388000Y-49537028D01*
X205388000Y-49537028D02*
X205292761Y-49632266D01*
X205292761Y-49632266D02*
X205197523Y-49679885D01*
X205197523Y-49679885D02*
X205007047Y-49727504D01*
X205007047Y-49727504D02*
X204864190Y-49727504D01*
X204864190Y-49727504D02*
X204673714Y-49679885D01*
X204673714Y-49679885D02*
X204578476Y-49632266D01*
X204578476Y-49632266D02*
X204483238Y-49537028D01*
X204483238Y-49537028D02*
X204435619Y-49394171D01*
X204435619Y-49394171D02*
X204435619Y-49298933D01*
X204435619Y-49298933D02*
X204483238Y-49156076D01*
X204483238Y-49156076D02*
X204530857Y-49108457D01*
X204530857Y-48727504D02*
X204483238Y-48679885D01*
X204483238Y-48679885D02*
X204435619Y-48584647D01*
X204435619Y-48584647D02*
X204435619Y-48346552D01*
X204435619Y-48346552D02*
X204483238Y-48251314D01*
X204483238Y-48251314D02*
X204530857Y-48203695D01*
X204530857Y-48203695D02*
X204626095Y-48156076D01*
X204626095Y-48156076D02*
X204721333Y-48156076D01*
X204721333Y-48156076D02*
X204864190Y-48203695D01*
X204864190Y-48203695D02*
X205435619Y-48775123D01*
X205435619Y-48775123D02*
X205435619Y-48156076D01*
X204435619Y-47822742D02*
X204435619Y-47203695D01*
X204435619Y-47203695D02*
X204816571Y-47537028D01*
X204816571Y-47537028D02*
X204816571Y-47394171D01*
X204816571Y-47394171D02*
X204864190Y-47298933D01*
X204864190Y-47298933D02*
X204911809Y-47251314D01*
X204911809Y-47251314D02*
X205007047Y-47203695D01*
X205007047Y-47203695D02*
X205245142Y-47203695D01*
X205245142Y-47203695D02*
X205340380Y-47251314D01*
X205340380Y-47251314D02*
X205388000Y-47298933D01*
X205388000Y-47298933D02*
X205435619Y-47394171D01*
X205435619Y-47394171D02*
X205435619Y-47679885D01*
X205435619Y-47679885D02*
X205388000Y-47775123D01*
X205388000Y-47775123D02*
X205340380Y-47822742D01*
X208519580Y-49052857D02*
X208567200Y-49100476D01*
X208567200Y-49100476D02*
X208614819Y-49243333D01*
X208614819Y-49243333D02*
X208614819Y-49338571D01*
X208614819Y-49338571D02*
X208567200Y-49481428D01*
X208567200Y-49481428D02*
X208471961Y-49576666D01*
X208471961Y-49576666D02*
X208376723Y-49624285D01*
X208376723Y-49624285D02*
X208186247Y-49671904D01*
X208186247Y-49671904D02*
X208043390Y-49671904D01*
X208043390Y-49671904D02*
X207852914Y-49624285D01*
X207852914Y-49624285D02*
X207757676Y-49576666D01*
X207757676Y-49576666D02*
X207662438Y-49481428D01*
X207662438Y-49481428D02*
X207614819Y-49338571D01*
X207614819Y-49338571D02*
X207614819Y-49243333D01*
X207614819Y-49243333D02*
X207662438Y-49100476D01*
X207662438Y-49100476D02*
X207710057Y-49052857D01*
X207710057Y-48671904D02*
X207662438Y-48624285D01*
X207662438Y-48624285D02*
X207614819Y-48529047D01*
X207614819Y-48529047D02*
X207614819Y-48290952D01*
X207614819Y-48290952D02*
X207662438Y-48195714D01*
X207662438Y-48195714D02*
X207710057Y-48148095D01*
X207710057Y-48148095D02*
X207805295Y-48100476D01*
X207805295Y-48100476D02*
X207900533Y-48100476D01*
X207900533Y-48100476D02*
X208043390Y-48148095D01*
X208043390Y-48148095D02*
X208614819Y-48719523D01*
X208614819Y-48719523D02*
X208614819Y-48100476D01*
X207948152Y-47243333D02*
X208614819Y-47243333D01*
X207567200Y-47481428D02*
X208281485Y-47719523D01*
X208281485Y-47719523D02*
X208281485Y-47100476D01*
X192693333Y-68264819D02*
X192360000Y-67788628D01*
X192121905Y-68264819D02*
X192121905Y-67264819D01*
X192121905Y-67264819D02*
X192502857Y-67264819D01*
X192502857Y-67264819D02*
X192598095Y-67312438D01*
X192598095Y-67312438D02*
X192645714Y-67360057D01*
X192645714Y-67360057D02*
X192693333Y-67455295D01*
X192693333Y-67455295D02*
X192693333Y-67598152D01*
X192693333Y-67598152D02*
X192645714Y-67693390D01*
X192645714Y-67693390D02*
X192598095Y-67741009D01*
X192598095Y-67741009D02*
X192502857Y-67788628D01*
X192502857Y-67788628D02*
X192121905Y-67788628D01*
X193598095Y-67264819D02*
X193121905Y-67264819D01*
X193121905Y-67264819D02*
X193074286Y-67741009D01*
X193074286Y-67741009D02*
X193121905Y-67693390D01*
X193121905Y-67693390D02*
X193217143Y-67645771D01*
X193217143Y-67645771D02*
X193455238Y-67645771D01*
X193455238Y-67645771D02*
X193550476Y-67693390D01*
X193550476Y-67693390D02*
X193598095Y-67741009D01*
X193598095Y-67741009D02*
X193645714Y-67836247D01*
X193645714Y-67836247D02*
X193645714Y-68074342D01*
X193645714Y-68074342D02*
X193598095Y-68169580D01*
X193598095Y-68169580D02*
X193550476Y-68217200D01*
X193550476Y-68217200D02*
X193455238Y-68264819D01*
X193455238Y-68264819D02*
X193217143Y-68264819D01*
X193217143Y-68264819D02*
X193121905Y-68217200D01*
X193121905Y-68217200D02*
X193074286Y-68169580D01*
X169237142Y-62184819D02*
X168903809Y-61708628D01*
X168665714Y-62184819D02*
X168665714Y-61184819D01*
X168665714Y-61184819D02*
X169046666Y-61184819D01*
X169046666Y-61184819D02*
X169141904Y-61232438D01*
X169141904Y-61232438D02*
X169189523Y-61280057D01*
X169189523Y-61280057D02*
X169237142Y-61375295D01*
X169237142Y-61375295D02*
X169237142Y-61518152D01*
X169237142Y-61518152D02*
X169189523Y-61613390D01*
X169189523Y-61613390D02*
X169141904Y-61661009D01*
X169141904Y-61661009D02*
X169046666Y-61708628D01*
X169046666Y-61708628D02*
X168665714Y-61708628D01*
X170189523Y-62184819D02*
X169618095Y-62184819D01*
X169903809Y-62184819D02*
X169903809Y-61184819D01*
X169903809Y-61184819D02*
X169808571Y-61327676D01*
X169808571Y-61327676D02*
X169713333Y-61422914D01*
X169713333Y-61422914D02*
X169618095Y-61470533D01*
X170522857Y-61184819D02*
X171189523Y-61184819D01*
X171189523Y-61184819D02*
X170760952Y-62184819D01*
X172102542Y-69967019D02*
X171769209Y-69490828D01*
X171531114Y-69967019D02*
X171531114Y-68967019D01*
X171531114Y-68967019D02*
X171912066Y-68967019D01*
X171912066Y-68967019D02*
X172007304Y-69014638D01*
X172007304Y-69014638D02*
X172054923Y-69062257D01*
X172054923Y-69062257D02*
X172102542Y-69157495D01*
X172102542Y-69157495D02*
X172102542Y-69300352D01*
X172102542Y-69300352D02*
X172054923Y-69395590D01*
X172054923Y-69395590D02*
X172007304Y-69443209D01*
X172007304Y-69443209D02*
X171912066Y-69490828D01*
X171912066Y-69490828D02*
X171531114Y-69490828D01*
X172483495Y-69062257D02*
X172531114Y-69014638D01*
X172531114Y-69014638D02*
X172626352Y-68967019D01*
X172626352Y-68967019D02*
X172864447Y-68967019D01*
X172864447Y-68967019D02*
X172959685Y-69014638D01*
X172959685Y-69014638D02*
X173007304Y-69062257D01*
X173007304Y-69062257D02*
X173054923Y-69157495D01*
X173054923Y-69157495D02*
X173054923Y-69252733D01*
X173054923Y-69252733D02*
X173007304Y-69395590D01*
X173007304Y-69395590D02*
X172435876Y-69967019D01*
X172435876Y-69967019D02*
X173054923Y-69967019D01*
X173435876Y-69062257D02*
X173483495Y-69014638D01*
X173483495Y-69014638D02*
X173578733Y-68967019D01*
X173578733Y-68967019D02*
X173816828Y-68967019D01*
X173816828Y-68967019D02*
X173912066Y-69014638D01*
X173912066Y-69014638D02*
X173959685Y-69062257D01*
X173959685Y-69062257D02*
X174007304Y-69157495D01*
X174007304Y-69157495D02*
X174007304Y-69252733D01*
X174007304Y-69252733D02*
X173959685Y-69395590D01*
X173959685Y-69395590D02*
X173388257Y-69967019D01*
X173388257Y-69967019D02*
X174007304Y-69967019D01*
X163653619Y-75653733D02*
X164367904Y-75653733D01*
X164367904Y-75653733D02*
X164510761Y-75701352D01*
X164510761Y-75701352D02*
X164606000Y-75796590D01*
X164606000Y-75796590D02*
X164653619Y-75939447D01*
X164653619Y-75939447D02*
X164653619Y-76034685D01*
X164653619Y-74653733D02*
X164653619Y-75225161D01*
X164653619Y-74939447D02*
X163653619Y-74939447D01*
X163653619Y-74939447D02*
X163796476Y-75034685D01*
X163796476Y-75034685D02*
X163891714Y-75129923D01*
X163891714Y-75129923D02*
X163939333Y-75225161D01*
X176294819Y-51572857D02*
X175818628Y-51906190D01*
X176294819Y-52144285D02*
X175294819Y-52144285D01*
X175294819Y-52144285D02*
X175294819Y-51763333D01*
X175294819Y-51763333D02*
X175342438Y-51668095D01*
X175342438Y-51668095D02*
X175390057Y-51620476D01*
X175390057Y-51620476D02*
X175485295Y-51572857D01*
X175485295Y-51572857D02*
X175628152Y-51572857D01*
X175628152Y-51572857D02*
X175723390Y-51620476D01*
X175723390Y-51620476D02*
X175771009Y-51668095D01*
X175771009Y-51668095D02*
X175818628Y-51763333D01*
X175818628Y-51763333D02*
X175818628Y-52144285D01*
X175390057Y-51191904D02*
X175342438Y-51144285D01*
X175342438Y-51144285D02*
X175294819Y-51049047D01*
X175294819Y-51049047D02*
X175294819Y-50810952D01*
X175294819Y-50810952D02*
X175342438Y-50715714D01*
X175342438Y-50715714D02*
X175390057Y-50668095D01*
X175390057Y-50668095D02*
X175485295Y-50620476D01*
X175485295Y-50620476D02*
X175580533Y-50620476D01*
X175580533Y-50620476D02*
X175723390Y-50668095D01*
X175723390Y-50668095D02*
X176294819Y-51239523D01*
X176294819Y-51239523D02*
X176294819Y-50620476D01*
X175294819Y-49715714D02*
X175294819Y-50191904D01*
X175294819Y-50191904D02*
X175771009Y-50239523D01*
X175771009Y-50239523D02*
X175723390Y-50191904D01*
X175723390Y-50191904D02*
X175675771Y-50096666D01*
X175675771Y-50096666D02*
X175675771Y-49858571D01*
X175675771Y-49858571D02*
X175723390Y-49763333D01*
X175723390Y-49763333D02*
X175771009Y-49715714D01*
X175771009Y-49715714D02*
X175866247Y-49668095D01*
X175866247Y-49668095D02*
X176104342Y-49668095D01*
X176104342Y-49668095D02*
X176199580Y-49715714D01*
X176199580Y-49715714D02*
X176247200Y-49763333D01*
X176247200Y-49763333D02*
X176294819Y-49858571D01*
X176294819Y-49858571D02*
X176294819Y-50096666D01*
X176294819Y-50096666D02*
X176247200Y-50191904D01*
X176247200Y-50191904D02*
X176199580Y-50239523D01*
X166333333Y-50439580D02*
X166285714Y-50487200D01*
X166285714Y-50487200D02*
X166142857Y-50534819D01*
X166142857Y-50534819D02*
X166047619Y-50534819D01*
X166047619Y-50534819D02*
X165904762Y-50487200D01*
X165904762Y-50487200D02*
X165809524Y-50391961D01*
X165809524Y-50391961D02*
X165761905Y-50296723D01*
X165761905Y-50296723D02*
X165714286Y-50106247D01*
X165714286Y-50106247D02*
X165714286Y-49963390D01*
X165714286Y-49963390D02*
X165761905Y-49772914D01*
X165761905Y-49772914D02*
X165809524Y-49677676D01*
X165809524Y-49677676D02*
X165904762Y-49582438D01*
X165904762Y-49582438D02*
X166047619Y-49534819D01*
X166047619Y-49534819D02*
X166142857Y-49534819D01*
X166142857Y-49534819D02*
X166285714Y-49582438D01*
X166285714Y-49582438D02*
X166333333Y-49630057D01*
X166714286Y-49630057D02*
X166761905Y-49582438D01*
X166761905Y-49582438D02*
X166857143Y-49534819D01*
X166857143Y-49534819D02*
X167095238Y-49534819D01*
X167095238Y-49534819D02*
X167190476Y-49582438D01*
X167190476Y-49582438D02*
X167238095Y-49630057D01*
X167238095Y-49630057D02*
X167285714Y-49725295D01*
X167285714Y-49725295D02*
X167285714Y-49820533D01*
X167285714Y-49820533D02*
X167238095Y-49963390D01*
X167238095Y-49963390D02*
X166666667Y-50534819D01*
X166666667Y-50534819D02*
X167285714Y-50534819D01*
X202723333Y-68214819D02*
X202390000Y-67738628D01*
X202151905Y-68214819D02*
X202151905Y-67214819D01*
X202151905Y-67214819D02*
X202532857Y-67214819D01*
X202532857Y-67214819D02*
X202628095Y-67262438D01*
X202628095Y-67262438D02*
X202675714Y-67310057D01*
X202675714Y-67310057D02*
X202723333Y-67405295D01*
X202723333Y-67405295D02*
X202723333Y-67548152D01*
X202723333Y-67548152D02*
X202675714Y-67643390D01*
X202675714Y-67643390D02*
X202628095Y-67691009D01*
X202628095Y-67691009D02*
X202532857Y-67738628D01*
X202532857Y-67738628D02*
X202151905Y-67738628D01*
X203675714Y-68214819D02*
X203104286Y-68214819D01*
X203390000Y-68214819D02*
X203390000Y-67214819D01*
X203390000Y-67214819D02*
X203294762Y-67357676D01*
X203294762Y-67357676D02*
X203199524Y-67452914D01*
X203199524Y-67452914D02*
X203104286Y-67500533D01*
X168648142Y-40029019D02*
X168314809Y-39552828D01*
X168076714Y-40029019D02*
X168076714Y-39029019D01*
X168076714Y-39029019D02*
X168457666Y-39029019D01*
X168457666Y-39029019D02*
X168552904Y-39076638D01*
X168552904Y-39076638D02*
X168600523Y-39124257D01*
X168600523Y-39124257D02*
X168648142Y-39219495D01*
X168648142Y-39219495D02*
X168648142Y-39362352D01*
X168648142Y-39362352D02*
X168600523Y-39457590D01*
X168600523Y-39457590D02*
X168552904Y-39505209D01*
X168552904Y-39505209D02*
X168457666Y-39552828D01*
X168457666Y-39552828D02*
X168076714Y-39552828D01*
X169600523Y-40029019D02*
X169029095Y-40029019D01*
X169314809Y-40029019D02*
X169314809Y-39029019D01*
X169314809Y-39029019D02*
X169219571Y-39171876D01*
X169219571Y-39171876D02*
X169124333Y-39267114D01*
X169124333Y-39267114D02*
X169029095Y-39314733D01*
X170457666Y-39362352D02*
X170457666Y-40029019D01*
X170219571Y-38981400D02*
X169981476Y-39695685D01*
X169981476Y-39695685D02*
X170600523Y-39695685D01*
X181747142Y-72794819D02*
X181413809Y-72318628D01*
X181175714Y-72794819D02*
X181175714Y-71794819D01*
X181175714Y-71794819D02*
X181556666Y-71794819D01*
X181556666Y-71794819D02*
X181651904Y-71842438D01*
X181651904Y-71842438D02*
X181699523Y-71890057D01*
X181699523Y-71890057D02*
X181747142Y-71985295D01*
X181747142Y-71985295D02*
X181747142Y-72128152D01*
X181747142Y-72128152D02*
X181699523Y-72223390D01*
X181699523Y-72223390D02*
X181651904Y-72271009D01*
X181651904Y-72271009D02*
X181556666Y-72318628D01*
X181556666Y-72318628D02*
X181175714Y-72318628D01*
X182699523Y-72794819D02*
X182128095Y-72794819D01*
X182413809Y-72794819D02*
X182413809Y-71794819D01*
X182413809Y-71794819D02*
X182318571Y-71937676D01*
X182318571Y-71937676D02*
X182223333Y-72032914D01*
X182223333Y-72032914D02*
X182128095Y-72080533D01*
X183604285Y-71794819D02*
X183128095Y-71794819D01*
X183128095Y-71794819D02*
X183080476Y-72271009D01*
X183080476Y-72271009D02*
X183128095Y-72223390D01*
X183128095Y-72223390D02*
X183223333Y-72175771D01*
X183223333Y-72175771D02*
X183461428Y-72175771D01*
X183461428Y-72175771D02*
X183556666Y-72223390D01*
X183556666Y-72223390D02*
X183604285Y-72271009D01*
X183604285Y-72271009D02*
X183651904Y-72366247D01*
X183651904Y-72366247D02*
X183651904Y-72604342D01*
X183651904Y-72604342D02*
X183604285Y-72699580D01*
X183604285Y-72699580D02*
X183556666Y-72747200D01*
X183556666Y-72747200D02*
X183461428Y-72794819D01*
X183461428Y-72794819D02*
X183223333Y-72794819D01*
X183223333Y-72794819D02*
X183128095Y-72747200D01*
X183128095Y-72747200D02*
X183080476Y-72699580D01*
X166293333Y-52599580D02*
X166245714Y-52647200D01*
X166245714Y-52647200D02*
X166102857Y-52694819D01*
X166102857Y-52694819D02*
X166007619Y-52694819D01*
X166007619Y-52694819D02*
X165864762Y-52647200D01*
X165864762Y-52647200D02*
X165769524Y-52551961D01*
X165769524Y-52551961D02*
X165721905Y-52456723D01*
X165721905Y-52456723D02*
X165674286Y-52266247D01*
X165674286Y-52266247D02*
X165674286Y-52123390D01*
X165674286Y-52123390D02*
X165721905Y-51932914D01*
X165721905Y-51932914D02*
X165769524Y-51837676D01*
X165769524Y-51837676D02*
X165864762Y-51742438D01*
X165864762Y-51742438D02*
X166007619Y-51694819D01*
X166007619Y-51694819D02*
X166102857Y-51694819D01*
X166102857Y-51694819D02*
X166245714Y-51742438D01*
X166245714Y-51742438D02*
X166293333Y-51790057D01*
X167245714Y-52694819D02*
X166674286Y-52694819D01*
X166960000Y-52694819D02*
X166960000Y-51694819D01*
X166960000Y-51694819D02*
X166864762Y-51837676D01*
X166864762Y-51837676D02*
X166769524Y-51932914D01*
X166769524Y-51932914D02*
X166674286Y-51980533D01*
X200213333Y-68264819D02*
X199880000Y-67788628D01*
X199641905Y-68264819D02*
X199641905Y-67264819D01*
X199641905Y-67264819D02*
X200022857Y-67264819D01*
X200022857Y-67264819D02*
X200118095Y-67312438D01*
X200118095Y-67312438D02*
X200165714Y-67360057D01*
X200165714Y-67360057D02*
X200213333Y-67455295D01*
X200213333Y-67455295D02*
X200213333Y-67598152D01*
X200213333Y-67598152D02*
X200165714Y-67693390D01*
X200165714Y-67693390D02*
X200118095Y-67741009D01*
X200118095Y-67741009D02*
X200022857Y-67788628D01*
X200022857Y-67788628D02*
X199641905Y-67788628D01*
X200594286Y-67360057D02*
X200641905Y-67312438D01*
X200641905Y-67312438D02*
X200737143Y-67264819D01*
X200737143Y-67264819D02*
X200975238Y-67264819D01*
X200975238Y-67264819D02*
X201070476Y-67312438D01*
X201070476Y-67312438D02*
X201118095Y-67360057D01*
X201118095Y-67360057D02*
X201165714Y-67455295D01*
X201165714Y-67455295D02*
X201165714Y-67550533D01*
X201165714Y-67550533D02*
X201118095Y-67693390D01*
X201118095Y-67693390D02*
X200546667Y-68264819D01*
X200546667Y-68264819D02*
X201165714Y-68264819D01*
X175481905Y-69814819D02*
X175481905Y-68814819D01*
X175481905Y-68814819D02*
X175720000Y-68814819D01*
X175720000Y-68814819D02*
X175862857Y-68862438D01*
X175862857Y-68862438D02*
X175958095Y-68957676D01*
X175958095Y-68957676D02*
X176005714Y-69052914D01*
X176005714Y-69052914D02*
X176053333Y-69243390D01*
X176053333Y-69243390D02*
X176053333Y-69386247D01*
X176053333Y-69386247D02*
X176005714Y-69576723D01*
X176005714Y-69576723D02*
X175958095Y-69671961D01*
X175958095Y-69671961D02*
X175862857Y-69767200D01*
X175862857Y-69767200D02*
X175720000Y-69814819D01*
X175720000Y-69814819D02*
X175481905Y-69814819D01*
X176386667Y-68814819D02*
X177005714Y-68814819D01*
X177005714Y-68814819D02*
X176672381Y-69195771D01*
X176672381Y-69195771D02*
X176815238Y-69195771D01*
X176815238Y-69195771D02*
X176910476Y-69243390D01*
X176910476Y-69243390D02*
X176958095Y-69291009D01*
X176958095Y-69291009D02*
X177005714Y-69386247D01*
X177005714Y-69386247D02*
X177005714Y-69624342D01*
X177005714Y-69624342D02*
X176958095Y-69719580D01*
X176958095Y-69719580D02*
X176910476Y-69767200D01*
X176910476Y-69767200D02*
X176815238Y-69814819D01*
X176815238Y-69814819D02*
X176529524Y-69814819D01*
X176529524Y-69814819D02*
X176434286Y-69767200D01*
X176434286Y-69767200D02*
X176386667Y-69719580D01*
X173907142Y-47324819D02*
X173573809Y-46848628D01*
X173335714Y-47324819D02*
X173335714Y-46324819D01*
X173335714Y-46324819D02*
X173716666Y-46324819D01*
X173716666Y-46324819D02*
X173811904Y-46372438D01*
X173811904Y-46372438D02*
X173859523Y-46420057D01*
X173859523Y-46420057D02*
X173907142Y-46515295D01*
X173907142Y-46515295D02*
X173907142Y-46658152D01*
X173907142Y-46658152D02*
X173859523Y-46753390D01*
X173859523Y-46753390D02*
X173811904Y-46801009D01*
X173811904Y-46801009D02*
X173716666Y-46848628D01*
X173716666Y-46848628D02*
X173335714Y-46848628D01*
X174288095Y-46420057D02*
X174335714Y-46372438D01*
X174335714Y-46372438D02*
X174430952Y-46324819D01*
X174430952Y-46324819D02*
X174669047Y-46324819D01*
X174669047Y-46324819D02*
X174764285Y-46372438D01*
X174764285Y-46372438D02*
X174811904Y-46420057D01*
X174811904Y-46420057D02*
X174859523Y-46515295D01*
X174859523Y-46515295D02*
X174859523Y-46610533D01*
X174859523Y-46610533D02*
X174811904Y-46753390D01*
X174811904Y-46753390D02*
X174240476Y-47324819D01*
X174240476Y-47324819D02*
X174859523Y-47324819D01*
X175716666Y-46658152D02*
X175716666Y-47324819D01*
X175478571Y-46277200D02*
X175240476Y-46991485D01*
X175240476Y-46991485D02*
X175859523Y-46991485D01*
X165487142Y-45924819D02*
X165153809Y-45448628D01*
X164915714Y-45924819D02*
X164915714Y-44924819D01*
X164915714Y-44924819D02*
X165296666Y-44924819D01*
X165296666Y-44924819D02*
X165391904Y-44972438D01*
X165391904Y-44972438D02*
X165439523Y-45020057D01*
X165439523Y-45020057D02*
X165487142Y-45115295D01*
X165487142Y-45115295D02*
X165487142Y-45258152D01*
X165487142Y-45258152D02*
X165439523Y-45353390D01*
X165439523Y-45353390D02*
X165391904Y-45401009D01*
X165391904Y-45401009D02*
X165296666Y-45448628D01*
X165296666Y-45448628D02*
X164915714Y-45448628D01*
X166439523Y-45924819D02*
X165868095Y-45924819D01*
X166153809Y-45924819D02*
X166153809Y-44924819D01*
X166153809Y-44924819D02*
X166058571Y-45067676D01*
X166058571Y-45067676D02*
X165963333Y-45162914D01*
X165963333Y-45162914D02*
X165868095Y-45210533D01*
X167010952Y-45353390D02*
X166915714Y-45305771D01*
X166915714Y-45305771D02*
X166868095Y-45258152D01*
X166868095Y-45258152D02*
X166820476Y-45162914D01*
X166820476Y-45162914D02*
X166820476Y-45115295D01*
X166820476Y-45115295D02*
X166868095Y-45020057D01*
X166868095Y-45020057D02*
X166915714Y-44972438D01*
X166915714Y-44972438D02*
X167010952Y-44924819D01*
X167010952Y-44924819D02*
X167201428Y-44924819D01*
X167201428Y-44924819D02*
X167296666Y-44972438D01*
X167296666Y-44972438D02*
X167344285Y-45020057D01*
X167344285Y-45020057D02*
X167391904Y-45115295D01*
X167391904Y-45115295D02*
X167391904Y-45162914D01*
X167391904Y-45162914D02*
X167344285Y-45258152D01*
X167344285Y-45258152D02*
X167296666Y-45305771D01*
X167296666Y-45305771D02*
X167201428Y-45353390D01*
X167201428Y-45353390D02*
X167010952Y-45353390D01*
X167010952Y-45353390D02*
X166915714Y-45401009D01*
X166915714Y-45401009D02*
X166868095Y-45448628D01*
X166868095Y-45448628D02*
X166820476Y-45543866D01*
X166820476Y-45543866D02*
X166820476Y-45734342D01*
X166820476Y-45734342D02*
X166868095Y-45829580D01*
X166868095Y-45829580D02*
X166915714Y-45877200D01*
X166915714Y-45877200D02*
X167010952Y-45924819D01*
X167010952Y-45924819D02*
X167201428Y-45924819D01*
X167201428Y-45924819D02*
X167296666Y-45877200D01*
X167296666Y-45877200D02*
X167344285Y-45829580D01*
X167344285Y-45829580D02*
X167391904Y-45734342D01*
X167391904Y-45734342D02*
X167391904Y-45543866D01*
X167391904Y-45543866D02*
X167344285Y-45448628D01*
X167344285Y-45448628D02*
X167296666Y-45401009D01*
X167296666Y-45401009D02*
X167201428Y-45353390D01*
X171119580Y-73326666D02*
X171167200Y-73374285D01*
X171167200Y-73374285D02*
X171214819Y-73517142D01*
X171214819Y-73517142D02*
X171214819Y-73612380D01*
X171214819Y-73612380D02*
X171167200Y-73755237D01*
X171167200Y-73755237D02*
X171071961Y-73850475D01*
X171071961Y-73850475D02*
X170976723Y-73898094D01*
X170976723Y-73898094D02*
X170786247Y-73945713D01*
X170786247Y-73945713D02*
X170643390Y-73945713D01*
X170643390Y-73945713D02*
X170452914Y-73898094D01*
X170452914Y-73898094D02*
X170357676Y-73850475D01*
X170357676Y-73850475D02*
X170262438Y-73755237D01*
X170262438Y-73755237D02*
X170214819Y-73612380D01*
X170214819Y-73612380D02*
X170214819Y-73517142D01*
X170214819Y-73517142D02*
X170262438Y-73374285D01*
X170262438Y-73374285D02*
X170310057Y-73326666D01*
X170214819Y-72993332D02*
X170214819Y-72374285D01*
X170214819Y-72374285D02*
X170595771Y-72707618D01*
X170595771Y-72707618D02*
X170595771Y-72564761D01*
X170595771Y-72564761D02*
X170643390Y-72469523D01*
X170643390Y-72469523D02*
X170691009Y-72421904D01*
X170691009Y-72421904D02*
X170786247Y-72374285D01*
X170786247Y-72374285D02*
X171024342Y-72374285D01*
X171024342Y-72374285D02*
X171119580Y-72421904D01*
X171119580Y-72421904D02*
X171167200Y-72469523D01*
X171167200Y-72469523D02*
X171214819Y-72564761D01*
X171214819Y-72564761D02*
X171214819Y-72850475D01*
X171214819Y-72850475D02*
X171167200Y-72945713D01*
X171167200Y-72945713D02*
X171119580Y-72993332D01*
X197683333Y-68384819D02*
X197350000Y-67908628D01*
X197111905Y-68384819D02*
X197111905Y-67384819D01*
X197111905Y-67384819D02*
X197492857Y-67384819D01*
X197492857Y-67384819D02*
X197588095Y-67432438D01*
X197588095Y-67432438D02*
X197635714Y-67480057D01*
X197635714Y-67480057D02*
X197683333Y-67575295D01*
X197683333Y-67575295D02*
X197683333Y-67718152D01*
X197683333Y-67718152D02*
X197635714Y-67813390D01*
X197635714Y-67813390D02*
X197588095Y-67861009D01*
X197588095Y-67861009D02*
X197492857Y-67908628D01*
X197492857Y-67908628D02*
X197111905Y-67908628D01*
X198016667Y-67384819D02*
X198635714Y-67384819D01*
X198635714Y-67384819D02*
X198302381Y-67765771D01*
X198302381Y-67765771D02*
X198445238Y-67765771D01*
X198445238Y-67765771D02*
X198540476Y-67813390D01*
X198540476Y-67813390D02*
X198588095Y-67861009D01*
X198588095Y-67861009D02*
X198635714Y-67956247D01*
X198635714Y-67956247D02*
X198635714Y-68194342D01*
X198635714Y-68194342D02*
X198588095Y-68289580D01*
X198588095Y-68289580D02*
X198540476Y-68337200D01*
X198540476Y-68337200D02*
X198445238Y-68384819D01*
X198445238Y-68384819D02*
X198159524Y-68384819D01*
X198159524Y-68384819D02*
X198064286Y-68337200D01*
X198064286Y-68337200D02*
X198016667Y-68289580D01*
X223515833Y-80954819D02*
X223182500Y-80478628D01*
X222944405Y-80954819D02*
X222944405Y-79954819D01*
X222944405Y-79954819D02*
X223325357Y-79954819D01*
X223325357Y-79954819D02*
X223420595Y-80002438D01*
X223420595Y-80002438D02*
X223468214Y-80050057D01*
X223468214Y-80050057D02*
X223515833Y-80145295D01*
X223515833Y-80145295D02*
X223515833Y-80288152D01*
X223515833Y-80288152D02*
X223468214Y-80383390D01*
X223468214Y-80383390D02*
X223420595Y-80431009D01*
X223420595Y-80431009D02*
X223325357Y-80478628D01*
X223325357Y-80478628D02*
X222944405Y-80478628D01*
X223992024Y-80954819D02*
X224182500Y-80954819D01*
X224182500Y-80954819D02*
X224277738Y-80907200D01*
X224277738Y-80907200D02*
X224325357Y-80859580D01*
X224325357Y-80859580D02*
X224420595Y-80716723D01*
X224420595Y-80716723D02*
X224468214Y-80526247D01*
X224468214Y-80526247D02*
X224468214Y-80145295D01*
X224468214Y-80145295D02*
X224420595Y-80050057D01*
X224420595Y-80050057D02*
X224372976Y-80002438D01*
X224372976Y-80002438D02*
X224277738Y-79954819D01*
X224277738Y-79954819D02*
X224087262Y-79954819D01*
X224087262Y-79954819D02*
X223992024Y-80002438D01*
X223992024Y-80002438D02*
X223944405Y-80050057D01*
X223944405Y-80050057D02*
X223896786Y-80145295D01*
X223896786Y-80145295D02*
X223896786Y-80383390D01*
X223896786Y-80383390D02*
X223944405Y-80478628D01*
X223944405Y-80478628D02*
X223992024Y-80526247D01*
X223992024Y-80526247D02*
X224087262Y-80573866D01*
X224087262Y-80573866D02*
X224277738Y-80573866D01*
X224277738Y-80573866D02*
X224372976Y-80526247D01*
X224372976Y-80526247D02*
X224420595Y-80478628D01*
X224420595Y-80478628D02*
X224468214Y-80383390D01*
X171674819Y-80811904D02*
X172484342Y-80811904D01*
X172484342Y-80811904D02*
X172579580Y-80764285D01*
X172579580Y-80764285D02*
X172627200Y-80716666D01*
X172627200Y-80716666D02*
X172674819Y-80621428D01*
X172674819Y-80621428D02*
X172674819Y-80430952D01*
X172674819Y-80430952D02*
X172627200Y-80335714D01*
X172627200Y-80335714D02*
X172579580Y-80288095D01*
X172579580Y-80288095D02*
X172484342Y-80240476D01*
X172484342Y-80240476D02*
X171674819Y-80240476D01*
X171674819Y-79859523D02*
X171674819Y-79240476D01*
X171674819Y-79240476D02*
X172055771Y-79573809D01*
X172055771Y-79573809D02*
X172055771Y-79430952D01*
X172055771Y-79430952D02*
X172103390Y-79335714D01*
X172103390Y-79335714D02*
X172151009Y-79288095D01*
X172151009Y-79288095D02*
X172246247Y-79240476D01*
X172246247Y-79240476D02*
X172484342Y-79240476D01*
X172484342Y-79240476D02*
X172579580Y-79288095D01*
X172579580Y-79288095D02*
X172627200Y-79335714D01*
X172627200Y-79335714D02*
X172674819Y-79430952D01*
X172674819Y-79430952D02*
X172674819Y-79716666D01*
X172674819Y-79716666D02*
X172627200Y-79811904D01*
X172627200Y-79811904D02*
X172579580Y-79859523D01*
X195203333Y-68284819D02*
X194870000Y-67808628D01*
X194631905Y-68284819D02*
X194631905Y-67284819D01*
X194631905Y-67284819D02*
X195012857Y-67284819D01*
X195012857Y-67284819D02*
X195108095Y-67332438D01*
X195108095Y-67332438D02*
X195155714Y-67380057D01*
X195155714Y-67380057D02*
X195203333Y-67475295D01*
X195203333Y-67475295D02*
X195203333Y-67618152D01*
X195203333Y-67618152D02*
X195155714Y-67713390D01*
X195155714Y-67713390D02*
X195108095Y-67761009D01*
X195108095Y-67761009D02*
X195012857Y-67808628D01*
X195012857Y-67808628D02*
X194631905Y-67808628D01*
X196060476Y-67618152D02*
X196060476Y-68284819D01*
X195822381Y-67237200D02*
X195584286Y-67951485D01*
X195584286Y-67951485D02*
X196203333Y-67951485D01*
X204730819Y-75999933D02*
X205445104Y-75999933D01*
X205445104Y-75999933D02*
X205587961Y-76047552D01*
X205587961Y-76047552D02*
X205683200Y-76142790D01*
X205683200Y-76142790D02*
X205730819Y-76285647D01*
X205730819Y-76285647D02*
X205730819Y-76380885D01*
X205064152Y-75095171D02*
X205730819Y-75095171D01*
X204683200Y-75333266D02*
X205397485Y-75571361D01*
X205397485Y-75571361D02*
X205397485Y-74952314D01*
X222184819Y-48756666D02*
X221708628Y-49089999D01*
X222184819Y-49328094D02*
X221184819Y-49328094D01*
X221184819Y-49328094D02*
X221184819Y-48947142D01*
X221184819Y-48947142D02*
X221232438Y-48851904D01*
X221232438Y-48851904D02*
X221280057Y-48804285D01*
X221280057Y-48804285D02*
X221375295Y-48756666D01*
X221375295Y-48756666D02*
X221518152Y-48756666D01*
X221518152Y-48756666D02*
X221613390Y-48804285D01*
X221613390Y-48804285D02*
X221661009Y-48851904D01*
X221661009Y-48851904D02*
X221708628Y-48947142D01*
X221708628Y-48947142D02*
X221708628Y-49328094D01*
X221613390Y-48185237D02*
X221565771Y-48280475D01*
X221565771Y-48280475D02*
X221518152Y-48328094D01*
X221518152Y-48328094D02*
X221422914Y-48375713D01*
X221422914Y-48375713D02*
X221375295Y-48375713D01*
X221375295Y-48375713D02*
X221280057Y-48328094D01*
X221280057Y-48328094D02*
X221232438Y-48280475D01*
X221232438Y-48280475D02*
X221184819Y-48185237D01*
X221184819Y-48185237D02*
X221184819Y-47994761D01*
X221184819Y-47994761D02*
X221232438Y-47899523D01*
X221232438Y-47899523D02*
X221280057Y-47851904D01*
X221280057Y-47851904D02*
X221375295Y-47804285D01*
X221375295Y-47804285D02*
X221422914Y-47804285D01*
X221422914Y-47804285D02*
X221518152Y-47851904D01*
X221518152Y-47851904D02*
X221565771Y-47899523D01*
X221565771Y-47899523D02*
X221613390Y-47994761D01*
X221613390Y-47994761D02*
X221613390Y-48185237D01*
X221613390Y-48185237D02*
X221661009Y-48280475D01*
X221661009Y-48280475D02*
X221708628Y-48328094D01*
X221708628Y-48328094D02*
X221803866Y-48375713D01*
X221803866Y-48375713D02*
X221994342Y-48375713D01*
X221994342Y-48375713D02*
X222089580Y-48328094D01*
X222089580Y-48328094D02*
X222137200Y-48280475D01*
X222137200Y-48280475D02*
X222184819Y-48185237D01*
X222184819Y-48185237D02*
X222184819Y-47994761D01*
X222184819Y-47994761D02*
X222137200Y-47899523D01*
X222137200Y-47899523D02*
X222089580Y-47851904D01*
X222089580Y-47851904D02*
X221994342Y-47804285D01*
X221994342Y-47804285D02*
X221803866Y-47804285D01*
X221803866Y-47804285D02*
X221708628Y-47851904D01*
X221708628Y-47851904D02*
X221661009Y-47899523D01*
X221661009Y-47899523D02*
X221613390Y-47994761D01*
X218884819Y-48696666D02*
X218408628Y-49029999D01*
X218884819Y-49268094D02*
X217884819Y-49268094D01*
X217884819Y-49268094D02*
X217884819Y-48887142D01*
X217884819Y-48887142D02*
X217932438Y-48791904D01*
X217932438Y-48791904D02*
X217980057Y-48744285D01*
X217980057Y-48744285D02*
X218075295Y-48696666D01*
X218075295Y-48696666D02*
X218218152Y-48696666D01*
X218218152Y-48696666D02*
X218313390Y-48744285D01*
X218313390Y-48744285D02*
X218361009Y-48791904D01*
X218361009Y-48791904D02*
X218408628Y-48887142D01*
X218408628Y-48887142D02*
X218408628Y-49268094D01*
X217884819Y-47839523D02*
X217884819Y-48029999D01*
X217884819Y-48029999D02*
X217932438Y-48125237D01*
X217932438Y-48125237D02*
X217980057Y-48172856D01*
X217980057Y-48172856D02*
X218122914Y-48268094D01*
X218122914Y-48268094D02*
X218313390Y-48315713D01*
X218313390Y-48315713D02*
X218694342Y-48315713D01*
X218694342Y-48315713D02*
X218789580Y-48268094D01*
X218789580Y-48268094D02*
X218837200Y-48220475D01*
X218837200Y-48220475D02*
X218884819Y-48125237D01*
X218884819Y-48125237D02*
X218884819Y-47934761D01*
X218884819Y-47934761D02*
X218837200Y-47839523D01*
X218837200Y-47839523D02*
X218789580Y-47791904D01*
X218789580Y-47791904D02*
X218694342Y-47744285D01*
X218694342Y-47744285D02*
X218456247Y-47744285D01*
X218456247Y-47744285D02*
X218361009Y-47791904D01*
X218361009Y-47791904D02*
X218313390Y-47839523D01*
X218313390Y-47839523D02*
X218265771Y-47934761D01*
X218265771Y-47934761D02*
X218265771Y-48125237D01*
X218265771Y-48125237D02*
X218313390Y-48220475D01*
X218313390Y-48220475D02*
X218361009Y-48268094D01*
X218361009Y-48268094D02*
X218456247Y-48315713D01*
X175304819Y-80942857D02*
X174828628Y-81276190D01*
X175304819Y-81514285D02*
X174304819Y-81514285D01*
X174304819Y-81514285D02*
X174304819Y-81133333D01*
X174304819Y-81133333D02*
X174352438Y-81038095D01*
X174352438Y-81038095D02*
X174400057Y-80990476D01*
X174400057Y-80990476D02*
X174495295Y-80942857D01*
X174495295Y-80942857D02*
X174638152Y-80942857D01*
X174638152Y-80942857D02*
X174733390Y-80990476D01*
X174733390Y-80990476D02*
X174781009Y-81038095D01*
X174781009Y-81038095D02*
X174828628Y-81133333D01*
X174828628Y-81133333D02*
X174828628Y-81514285D01*
X174400057Y-80561904D02*
X174352438Y-80514285D01*
X174352438Y-80514285D02*
X174304819Y-80419047D01*
X174304819Y-80419047D02*
X174304819Y-80180952D01*
X174304819Y-80180952D02*
X174352438Y-80085714D01*
X174352438Y-80085714D02*
X174400057Y-80038095D01*
X174400057Y-80038095D02*
X174495295Y-79990476D01*
X174495295Y-79990476D02*
X174590533Y-79990476D01*
X174590533Y-79990476D02*
X174733390Y-80038095D01*
X174733390Y-80038095D02*
X175304819Y-80609523D01*
X175304819Y-80609523D02*
X175304819Y-79990476D01*
X175304819Y-79038095D02*
X175304819Y-79609523D01*
X175304819Y-79323809D02*
X174304819Y-79323809D01*
X174304819Y-79323809D02*
X174447676Y-79419047D01*
X174447676Y-79419047D02*
X174542914Y-79514285D01*
X174542914Y-79514285D02*
X174590533Y-79609523D01*
X226364819Y-60203333D02*
X227079104Y-60203333D01*
X227079104Y-60203333D02*
X227221961Y-60250952D01*
X227221961Y-60250952D02*
X227317200Y-60346190D01*
X227317200Y-60346190D02*
X227364819Y-60489047D01*
X227364819Y-60489047D02*
X227364819Y-60584285D01*
X226364819Y-59822380D02*
X226364819Y-59155714D01*
X226364819Y-59155714D02*
X227364819Y-59584285D01*
X184467142Y-72794819D02*
X184133809Y-72318628D01*
X183895714Y-72794819D02*
X183895714Y-71794819D01*
X183895714Y-71794819D02*
X184276666Y-71794819D01*
X184276666Y-71794819D02*
X184371904Y-71842438D01*
X184371904Y-71842438D02*
X184419523Y-71890057D01*
X184419523Y-71890057D02*
X184467142Y-71985295D01*
X184467142Y-71985295D02*
X184467142Y-72128152D01*
X184467142Y-72128152D02*
X184419523Y-72223390D01*
X184419523Y-72223390D02*
X184371904Y-72271009D01*
X184371904Y-72271009D02*
X184276666Y-72318628D01*
X184276666Y-72318628D02*
X183895714Y-72318628D01*
X185419523Y-72794819D02*
X184848095Y-72794819D01*
X185133809Y-72794819D02*
X185133809Y-71794819D01*
X185133809Y-71794819D02*
X185038571Y-71937676D01*
X185038571Y-71937676D02*
X184943333Y-72032914D01*
X184943333Y-72032914D02*
X184848095Y-72080533D01*
X186371904Y-72794819D02*
X185800476Y-72794819D01*
X186086190Y-72794819D02*
X186086190Y-71794819D01*
X186086190Y-71794819D02*
X185990952Y-71937676D01*
X185990952Y-71937676D02*
X185895714Y-72032914D01*
X185895714Y-72032914D02*
X185800476Y-72080533D01*
X165437142Y-48064819D02*
X165103809Y-47588628D01*
X164865714Y-48064819D02*
X164865714Y-47064819D01*
X164865714Y-47064819D02*
X165246666Y-47064819D01*
X165246666Y-47064819D02*
X165341904Y-47112438D01*
X165341904Y-47112438D02*
X165389523Y-47160057D01*
X165389523Y-47160057D02*
X165437142Y-47255295D01*
X165437142Y-47255295D02*
X165437142Y-47398152D01*
X165437142Y-47398152D02*
X165389523Y-47493390D01*
X165389523Y-47493390D02*
X165341904Y-47541009D01*
X165341904Y-47541009D02*
X165246666Y-47588628D01*
X165246666Y-47588628D02*
X164865714Y-47588628D01*
X166389523Y-48064819D02*
X165818095Y-48064819D01*
X166103809Y-48064819D02*
X166103809Y-47064819D01*
X166103809Y-47064819D02*
X166008571Y-47207676D01*
X166008571Y-47207676D02*
X165913333Y-47302914D01*
X165913333Y-47302914D02*
X165818095Y-47350533D01*
X166865714Y-48064819D02*
X167056190Y-48064819D01*
X167056190Y-48064819D02*
X167151428Y-48017200D01*
X167151428Y-48017200D02*
X167199047Y-47969580D01*
X167199047Y-47969580D02*
X167294285Y-47826723D01*
X167294285Y-47826723D02*
X167341904Y-47636247D01*
X167341904Y-47636247D02*
X167341904Y-47255295D01*
X167341904Y-47255295D02*
X167294285Y-47160057D01*
X167294285Y-47160057D02*
X167246666Y-47112438D01*
X167246666Y-47112438D02*
X167151428Y-47064819D01*
X167151428Y-47064819D02*
X166960952Y-47064819D01*
X166960952Y-47064819D02*
X166865714Y-47112438D01*
X166865714Y-47112438D02*
X166818095Y-47160057D01*
X166818095Y-47160057D02*
X166770476Y-47255295D01*
X166770476Y-47255295D02*
X166770476Y-47493390D01*
X166770476Y-47493390D02*
X166818095Y-47588628D01*
X166818095Y-47588628D02*
X166865714Y-47636247D01*
X166865714Y-47636247D02*
X166960952Y-47683866D01*
X166960952Y-47683866D02*
X167151428Y-47683866D01*
X167151428Y-47683866D02*
X167246666Y-47636247D01*
X167246666Y-47636247D02*
X167294285Y-47588628D01*
X167294285Y-47588628D02*
X167341904Y-47493390D01*
X223079642Y-77574819D02*
X222746309Y-77098628D01*
X222508214Y-77574819D02*
X222508214Y-76574819D01*
X222508214Y-76574819D02*
X222889166Y-76574819D01*
X222889166Y-76574819D02*
X222984404Y-76622438D01*
X222984404Y-76622438D02*
X223032023Y-76670057D01*
X223032023Y-76670057D02*
X223079642Y-76765295D01*
X223079642Y-76765295D02*
X223079642Y-76908152D01*
X223079642Y-76908152D02*
X223032023Y-77003390D01*
X223032023Y-77003390D02*
X222984404Y-77051009D01*
X222984404Y-77051009D02*
X222889166Y-77098628D01*
X222889166Y-77098628D02*
X222508214Y-77098628D01*
X223460595Y-76670057D02*
X223508214Y-76622438D01*
X223508214Y-76622438D02*
X223603452Y-76574819D01*
X223603452Y-76574819D02*
X223841547Y-76574819D01*
X223841547Y-76574819D02*
X223936785Y-76622438D01*
X223936785Y-76622438D02*
X223984404Y-76670057D01*
X223984404Y-76670057D02*
X224032023Y-76765295D01*
X224032023Y-76765295D02*
X224032023Y-76860533D01*
X224032023Y-76860533D02*
X223984404Y-77003390D01*
X223984404Y-77003390D02*
X223412976Y-77574819D01*
X223412976Y-77574819D02*
X224032023Y-77574819D01*
X224365357Y-76574819D02*
X224984404Y-76574819D01*
X224984404Y-76574819D02*
X224651071Y-76955771D01*
X224651071Y-76955771D02*
X224793928Y-76955771D01*
X224793928Y-76955771D02*
X224889166Y-77003390D01*
X224889166Y-77003390D02*
X224936785Y-77051009D01*
X224936785Y-77051009D02*
X224984404Y-77146247D01*
X224984404Y-77146247D02*
X224984404Y-77384342D01*
X224984404Y-77384342D02*
X224936785Y-77479580D01*
X224936785Y-77479580D02*
X224889166Y-77527200D01*
X224889166Y-77527200D02*
X224793928Y-77574819D01*
X224793928Y-77574819D02*
X224508214Y-77574819D01*
X224508214Y-77574819D02*
X224412976Y-77527200D01*
X224412976Y-77527200D02*
X224365357Y-77479580D01*
X179047142Y-72814819D02*
X178713809Y-72338628D01*
X178475714Y-72814819D02*
X178475714Y-71814819D01*
X178475714Y-71814819D02*
X178856666Y-71814819D01*
X178856666Y-71814819D02*
X178951904Y-71862438D01*
X178951904Y-71862438D02*
X178999523Y-71910057D01*
X178999523Y-71910057D02*
X179047142Y-72005295D01*
X179047142Y-72005295D02*
X179047142Y-72148152D01*
X179047142Y-72148152D02*
X178999523Y-72243390D01*
X178999523Y-72243390D02*
X178951904Y-72291009D01*
X178951904Y-72291009D02*
X178856666Y-72338628D01*
X178856666Y-72338628D02*
X178475714Y-72338628D01*
X179999523Y-72814819D02*
X179428095Y-72814819D01*
X179713809Y-72814819D02*
X179713809Y-71814819D01*
X179713809Y-71814819D02*
X179618571Y-71957676D01*
X179618571Y-71957676D02*
X179523333Y-72052914D01*
X179523333Y-72052914D02*
X179428095Y-72100533D01*
X180856666Y-71814819D02*
X180666190Y-71814819D01*
X180666190Y-71814819D02*
X180570952Y-71862438D01*
X180570952Y-71862438D02*
X180523333Y-71910057D01*
X180523333Y-71910057D02*
X180428095Y-72052914D01*
X180428095Y-72052914D02*
X180380476Y-72243390D01*
X180380476Y-72243390D02*
X180380476Y-72624342D01*
X180380476Y-72624342D02*
X180428095Y-72719580D01*
X180428095Y-72719580D02*
X180475714Y-72767200D01*
X180475714Y-72767200D02*
X180570952Y-72814819D01*
X180570952Y-72814819D02*
X180761428Y-72814819D01*
X180761428Y-72814819D02*
X180856666Y-72767200D01*
X180856666Y-72767200D02*
X180904285Y-72719580D01*
X180904285Y-72719580D02*
X180951904Y-72624342D01*
X180951904Y-72624342D02*
X180951904Y-72386247D01*
X180951904Y-72386247D02*
X180904285Y-72291009D01*
X180904285Y-72291009D02*
X180856666Y-72243390D01*
X180856666Y-72243390D02*
X180761428Y-72195771D01*
X180761428Y-72195771D02*
X180570952Y-72195771D01*
X180570952Y-72195771D02*
X180475714Y-72243390D01*
X180475714Y-72243390D02*
X180428095Y-72291009D01*
X180428095Y-72291009D02*
X180380476Y-72386247D01*
X166392266Y-56281419D02*
X166392266Y-56995704D01*
X166392266Y-56995704D02*
X166344647Y-57138561D01*
X166344647Y-57138561D02*
X166249409Y-57233800D01*
X166249409Y-57233800D02*
X166106552Y-57281419D01*
X166106552Y-57281419D02*
X166011314Y-57281419D01*
X166773219Y-56281419D02*
X167392266Y-56281419D01*
X167392266Y-56281419D02*
X167058933Y-56662371D01*
X167058933Y-56662371D02*
X167201790Y-56662371D01*
X167201790Y-56662371D02*
X167297028Y-56709990D01*
X167297028Y-56709990D02*
X167344647Y-56757609D01*
X167344647Y-56757609D02*
X167392266Y-56852847D01*
X167392266Y-56852847D02*
X167392266Y-57090942D01*
X167392266Y-57090942D02*
X167344647Y-57186180D01*
X167344647Y-57186180D02*
X167297028Y-57233800D01*
X167297028Y-57233800D02*
X167201790Y-57281419D01*
X167201790Y-57281419D02*
X166916076Y-57281419D01*
X166916076Y-57281419D02*
X166820838Y-57233800D01*
X166820838Y-57233800D02*
X166773219Y-57186180D01*
X179304495Y-60734819D02*
X179304495Y-61544342D01*
X179304495Y-61544342D02*
X179352114Y-61639580D01*
X179352114Y-61639580D02*
X179399733Y-61687200D01*
X179399733Y-61687200D02*
X179494971Y-61734819D01*
X179494971Y-61734819D02*
X179685447Y-61734819D01*
X179685447Y-61734819D02*
X179780685Y-61687200D01*
X179780685Y-61687200D02*
X179828304Y-61639580D01*
X179828304Y-61639580D02*
X179875923Y-61544342D01*
X179875923Y-61544342D02*
X179875923Y-60734819D01*
X180875923Y-61734819D02*
X180304495Y-61734819D01*
X180590209Y-61734819D02*
X180590209Y-60734819D01*
X180590209Y-60734819D02*
X180494971Y-60877676D01*
X180494971Y-60877676D02*
X180399733Y-60972914D01*
X180399733Y-60972914D02*
X180304495Y-61020533D01*
X184367200Y-46603332D02*
X184414819Y-46460475D01*
X184414819Y-46460475D02*
X184414819Y-46222380D01*
X184414819Y-46222380D02*
X184367200Y-46127142D01*
X184367200Y-46127142D02*
X184319580Y-46079523D01*
X184319580Y-46079523D02*
X184224342Y-46031904D01*
X184224342Y-46031904D02*
X184129104Y-46031904D01*
X184129104Y-46031904D02*
X184033866Y-46079523D01*
X184033866Y-46079523D02*
X183986247Y-46127142D01*
X183986247Y-46127142D02*
X183938628Y-46222380D01*
X183938628Y-46222380D02*
X183891009Y-46412856D01*
X183891009Y-46412856D02*
X183843390Y-46508094D01*
X183843390Y-46508094D02*
X183795771Y-46555713D01*
X183795771Y-46555713D02*
X183700533Y-46603332D01*
X183700533Y-46603332D02*
X183605295Y-46603332D01*
X183605295Y-46603332D02*
X183510057Y-46555713D01*
X183510057Y-46555713D02*
X183462438Y-46508094D01*
X183462438Y-46508094D02*
X183414819Y-46412856D01*
X183414819Y-46412856D02*
X183414819Y-46174761D01*
X183414819Y-46174761D02*
X183462438Y-46031904D01*
X183414819Y-45698570D02*
X184414819Y-45460475D01*
X184414819Y-45460475D02*
X183700533Y-45269999D01*
X183700533Y-45269999D02*
X184414819Y-45079523D01*
X184414819Y-45079523D02*
X183414819Y-44841428D01*
X184414819Y-43936666D02*
X184414819Y-44508094D01*
X184414819Y-44222380D02*
X183414819Y-44222380D01*
X183414819Y-44222380D02*
X183557676Y-44317618D01*
X183557676Y-44317618D02*
X183652914Y-44412856D01*
X183652914Y-44412856D02*
X183700533Y-44508094D01*
X220309819Y-52813333D02*
X221024104Y-52813333D01*
X221024104Y-52813333D02*
X221166961Y-52860952D01*
X221166961Y-52860952D02*
X221262200Y-52956190D01*
X221262200Y-52956190D02*
X221309819Y-53099047D01*
X221309819Y-53099047D02*
X221309819Y-53194285D01*
X220309819Y-51860952D02*
X220309819Y-52337142D01*
X220309819Y-52337142D02*
X220786009Y-52384761D01*
X220786009Y-52384761D02*
X220738390Y-52337142D01*
X220738390Y-52337142D02*
X220690771Y-52241904D01*
X220690771Y-52241904D02*
X220690771Y-52003809D01*
X220690771Y-52003809D02*
X220738390Y-51908571D01*
X220738390Y-51908571D02*
X220786009Y-51860952D01*
X220786009Y-51860952D02*
X220881247Y-51813333D01*
X220881247Y-51813333D02*
X221119342Y-51813333D01*
X221119342Y-51813333D02*
X221214580Y-51860952D01*
X221214580Y-51860952D02*
X221262200Y-51908571D01*
X221262200Y-51908571D02*
X221309819Y-52003809D01*
X221309819Y-52003809D02*
X221309819Y-52241904D01*
X221309819Y-52241904D02*
X221262200Y-52337142D01*
X221262200Y-52337142D02*
X221214580Y-52384761D01*
X173234361Y-40136257D02*
X173139123Y-40088638D01*
X173139123Y-40088638D02*
X173043885Y-39993400D01*
X173043885Y-39993400D02*
X172901028Y-39850542D01*
X172901028Y-39850542D02*
X172805790Y-39802923D01*
X172805790Y-39802923D02*
X172710552Y-39802923D01*
X172758171Y-40041019D02*
X172662933Y-39993400D01*
X172662933Y-39993400D02*
X172567695Y-39898161D01*
X172567695Y-39898161D02*
X172520076Y-39707685D01*
X172520076Y-39707685D02*
X172520076Y-39374352D01*
X172520076Y-39374352D02*
X172567695Y-39183876D01*
X172567695Y-39183876D02*
X172662933Y-39088638D01*
X172662933Y-39088638D02*
X172758171Y-39041019D01*
X172758171Y-39041019D02*
X172948647Y-39041019D01*
X172948647Y-39041019D02*
X173043885Y-39088638D01*
X173043885Y-39088638D02*
X173139123Y-39183876D01*
X173139123Y-39183876D02*
X173186742Y-39374352D01*
X173186742Y-39374352D02*
X173186742Y-39707685D01*
X173186742Y-39707685D02*
X173139123Y-39898161D01*
X173139123Y-39898161D02*
X173043885Y-39993400D01*
X173043885Y-39993400D02*
X172948647Y-40041019D01*
X172948647Y-40041019D02*
X172758171Y-40041019D01*
X173520076Y-39041019D02*
X174139123Y-39041019D01*
X174139123Y-39041019D02*
X173805790Y-39421971D01*
X173805790Y-39421971D02*
X173948647Y-39421971D01*
X173948647Y-39421971D02*
X174043885Y-39469590D01*
X174043885Y-39469590D02*
X174091504Y-39517209D01*
X174091504Y-39517209D02*
X174139123Y-39612447D01*
X174139123Y-39612447D02*
X174139123Y-39850542D01*
X174139123Y-39850542D02*
X174091504Y-39945780D01*
X174091504Y-39945780D02*
X174043885Y-39993400D01*
X174043885Y-39993400D02*
X173948647Y-40041019D01*
X173948647Y-40041019D02*
X173662933Y-40041019D01*
X173662933Y-40041019D02*
X173567695Y-39993400D01*
X173567695Y-39993400D02*
X173520076Y-39945780D01*
X177594819Y-80912857D02*
X177118628Y-81246190D01*
X177594819Y-81484285D02*
X176594819Y-81484285D01*
X176594819Y-81484285D02*
X176594819Y-81103333D01*
X176594819Y-81103333D02*
X176642438Y-81008095D01*
X176642438Y-81008095D02*
X176690057Y-80960476D01*
X176690057Y-80960476D02*
X176785295Y-80912857D01*
X176785295Y-80912857D02*
X176928152Y-80912857D01*
X176928152Y-80912857D02*
X177023390Y-80960476D01*
X177023390Y-80960476D02*
X177071009Y-81008095D01*
X177071009Y-81008095D02*
X177118628Y-81103333D01*
X177118628Y-81103333D02*
X177118628Y-81484285D01*
X176690057Y-80531904D02*
X176642438Y-80484285D01*
X176642438Y-80484285D02*
X176594819Y-80389047D01*
X176594819Y-80389047D02*
X176594819Y-80150952D01*
X176594819Y-80150952D02*
X176642438Y-80055714D01*
X176642438Y-80055714D02*
X176690057Y-80008095D01*
X176690057Y-80008095D02*
X176785295Y-79960476D01*
X176785295Y-79960476D02*
X176880533Y-79960476D01*
X176880533Y-79960476D02*
X177023390Y-80008095D01*
X177023390Y-80008095D02*
X177594819Y-80579523D01*
X177594819Y-80579523D02*
X177594819Y-79960476D01*
X176594819Y-79341428D02*
X176594819Y-79246190D01*
X176594819Y-79246190D02*
X176642438Y-79150952D01*
X176642438Y-79150952D02*
X176690057Y-79103333D01*
X176690057Y-79103333D02*
X176785295Y-79055714D01*
X176785295Y-79055714D02*
X176975771Y-79008095D01*
X176975771Y-79008095D02*
X177213866Y-79008095D01*
X177213866Y-79008095D02*
X177404342Y-79055714D01*
X177404342Y-79055714D02*
X177499580Y-79103333D01*
X177499580Y-79103333D02*
X177547200Y-79150952D01*
X177547200Y-79150952D02*
X177594819Y-79246190D01*
X177594819Y-79246190D02*
X177594819Y-79341428D01*
X177594819Y-79341428D02*
X177547200Y-79436666D01*
X177547200Y-79436666D02*
X177499580Y-79484285D01*
X177499580Y-79484285D02*
X177404342Y-79531904D01*
X177404342Y-79531904D02*
X177213866Y-79579523D01*
X177213866Y-79579523D02*
X176975771Y-79579523D01*
X176975771Y-79579523D02*
X176785295Y-79531904D01*
X176785295Y-79531904D02*
X176690057Y-79484285D01*
X176690057Y-79484285D02*
X176642438Y-79436666D01*
X176642438Y-79436666D02*
X176594819Y-79341428D01*
X190293333Y-68284819D02*
X189960000Y-67808628D01*
X189721905Y-68284819D02*
X189721905Y-67284819D01*
X189721905Y-67284819D02*
X190102857Y-67284819D01*
X190102857Y-67284819D02*
X190198095Y-67332438D01*
X190198095Y-67332438D02*
X190245714Y-67380057D01*
X190245714Y-67380057D02*
X190293333Y-67475295D01*
X190293333Y-67475295D02*
X190293333Y-67618152D01*
X190293333Y-67618152D02*
X190245714Y-67713390D01*
X190245714Y-67713390D02*
X190198095Y-67761009D01*
X190198095Y-67761009D02*
X190102857Y-67808628D01*
X190102857Y-67808628D02*
X189721905Y-67808628D01*
X190626667Y-67284819D02*
X191293333Y-67284819D01*
X191293333Y-67284819D02*
X190864762Y-68284819D01*
X177233333Y-75489580D02*
X177185714Y-75537200D01*
X177185714Y-75537200D02*
X177042857Y-75584819D01*
X177042857Y-75584819D02*
X176947619Y-75584819D01*
X176947619Y-75584819D02*
X176804762Y-75537200D01*
X176804762Y-75537200D02*
X176709524Y-75441961D01*
X176709524Y-75441961D02*
X176661905Y-75346723D01*
X176661905Y-75346723D02*
X176614286Y-75156247D01*
X176614286Y-75156247D02*
X176614286Y-75013390D01*
X176614286Y-75013390D02*
X176661905Y-74822914D01*
X176661905Y-74822914D02*
X176709524Y-74727676D01*
X176709524Y-74727676D02*
X176804762Y-74632438D01*
X176804762Y-74632438D02*
X176947619Y-74584819D01*
X176947619Y-74584819D02*
X177042857Y-74584819D01*
X177042857Y-74584819D02*
X177185714Y-74632438D01*
X177185714Y-74632438D02*
X177233333Y-74680057D01*
X178090476Y-74918152D02*
X178090476Y-75584819D01*
X177852381Y-74537200D02*
X177614286Y-75251485D01*
X177614286Y-75251485D02*
X178233333Y-75251485D01*
X208546666Y-43354819D02*
X208546666Y-44069104D01*
X208546666Y-44069104D02*
X208499047Y-44211961D01*
X208499047Y-44211961D02*
X208403809Y-44307200D01*
X208403809Y-44307200D02*
X208260952Y-44354819D01*
X208260952Y-44354819D02*
X208165714Y-44354819D01*
X208975238Y-43450057D02*
X209022857Y-43402438D01*
X209022857Y-43402438D02*
X209118095Y-43354819D01*
X209118095Y-43354819D02*
X209356190Y-43354819D01*
X209356190Y-43354819D02*
X209451428Y-43402438D01*
X209451428Y-43402438D02*
X209499047Y-43450057D01*
X209499047Y-43450057D02*
X209546666Y-43545295D01*
X209546666Y-43545295D02*
X209546666Y-43640533D01*
X209546666Y-43640533D02*
X209499047Y-43783390D01*
X209499047Y-43783390D02*
X208927619Y-44354819D01*
X208927619Y-44354819D02*
X209546666Y-44354819D01*
X218066666Y-39404819D02*
X218066666Y-40119104D01*
X218066666Y-40119104D02*
X218019047Y-40261961D01*
X218019047Y-40261961D02*
X217923809Y-40357200D01*
X217923809Y-40357200D02*
X217780952Y-40404819D01*
X217780952Y-40404819D02*
X217685714Y-40404819D01*
X218590476Y-40404819D02*
X218780952Y-40404819D01*
X218780952Y-40404819D02*
X218876190Y-40357200D01*
X218876190Y-40357200D02*
X218923809Y-40309580D01*
X218923809Y-40309580D02*
X219019047Y-40166723D01*
X219019047Y-40166723D02*
X219066666Y-39976247D01*
X219066666Y-39976247D02*
X219066666Y-39595295D01*
X219066666Y-39595295D02*
X219019047Y-39500057D01*
X219019047Y-39500057D02*
X218971428Y-39452438D01*
X218971428Y-39452438D02*
X218876190Y-39404819D01*
X218876190Y-39404819D02*
X218685714Y-39404819D01*
X218685714Y-39404819D02*
X218590476Y-39452438D01*
X218590476Y-39452438D02*
X218542857Y-39500057D01*
X218542857Y-39500057D02*
X218495238Y-39595295D01*
X218495238Y-39595295D02*
X218495238Y-39833390D01*
X218495238Y-39833390D02*
X218542857Y-39928628D01*
X218542857Y-39928628D02*
X218590476Y-39976247D01*
X218590476Y-39976247D02*
X218685714Y-40023866D01*
X218685714Y-40023866D02*
X218876190Y-40023866D01*
X218876190Y-40023866D02*
X218971428Y-39976247D01*
X218971428Y-39976247D02*
X219019047Y-39928628D01*
X219019047Y-39928628D02*
X219066666Y-39833390D01*
X169167142Y-57089580D02*
X169119523Y-57137200D01*
X169119523Y-57137200D02*
X168976666Y-57184819D01*
X168976666Y-57184819D02*
X168881428Y-57184819D01*
X168881428Y-57184819D02*
X168738571Y-57137200D01*
X168738571Y-57137200D02*
X168643333Y-57041961D01*
X168643333Y-57041961D02*
X168595714Y-56946723D01*
X168595714Y-56946723D02*
X168548095Y-56756247D01*
X168548095Y-56756247D02*
X168548095Y-56613390D01*
X168548095Y-56613390D02*
X168595714Y-56422914D01*
X168595714Y-56422914D02*
X168643333Y-56327676D01*
X168643333Y-56327676D02*
X168738571Y-56232438D01*
X168738571Y-56232438D02*
X168881428Y-56184819D01*
X168881428Y-56184819D02*
X168976666Y-56184819D01*
X168976666Y-56184819D02*
X169119523Y-56232438D01*
X169119523Y-56232438D02*
X169167142Y-56280057D01*
X170119523Y-57184819D02*
X169548095Y-57184819D01*
X169833809Y-57184819D02*
X169833809Y-56184819D01*
X169833809Y-56184819D02*
X169738571Y-56327676D01*
X169738571Y-56327676D02*
X169643333Y-56422914D01*
X169643333Y-56422914D02*
X169548095Y-56470533D01*
X170595714Y-57184819D02*
X170786190Y-57184819D01*
X170786190Y-57184819D02*
X170881428Y-57137200D01*
X170881428Y-57137200D02*
X170929047Y-57089580D01*
X170929047Y-57089580D02*
X171024285Y-56946723D01*
X171024285Y-56946723D02*
X171071904Y-56756247D01*
X171071904Y-56756247D02*
X171071904Y-56375295D01*
X171071904Y-56375295D02*
X171024285Y-56280057D01*
X171024285Y-56280057D02*
X170976666Y-56232438D01*
X170976666Y-56232438D02*
X170881428Y-56184819D01*
X170881428Y-56184819D02*
X170690952Y-56184819D01*
X170690952Y-56184819D02*
X170595714Y-56232438D01*
X170595714Y-56232438D02*
X170548095Y-56280057D01*
X170548095Y-56280057D02*
X170500476Y-56375295D01*
X170500476Y-56375295D02*
X170500476Y-56613390D01*
X170500476Y-56613390D02*
X170548095Y-56708628D01*
X170548095Y-56708628D02*
X170595714Y-56756247D01*
X170595714Y-56756247D02*
X170690952Y-56803866D01*
X170690952Y-56803866D02*
X170881428Y-56803866D01*
X170881428Y-56803866D02*
X170976666Y-56756247D01*
X170976666Y-56756247D02*
X171024285Y-56708628D01*
X171024285Y-56708628D02*
X171071904Y-56613390D01*
X175799580Y-54502857D02*
X175847200Y-54550476D01*
X175847200Y-54550476D02*
X175894819Y-54693333D01*
X175894819Y-54693333D02*
X175894819Y-54788571D01*
X175894819Y-54788571D02*
X175847200Y-54931428D01*
X175847200Y-54931428D02*
X175751961Y-55026666D01*
X175751961Y-55026666D02*
X175656723Y-55074285D01*
X175656723Y-55074285D02*
X175466247Y-55121904D01*
X175466247Y-55121904D02*
X175323390Y-55121904D01*
X175323390Y-55121904D02*
X175132914Y-55074285D01*
X175132914Y-55074285D02*
X175037676Y-55026666D01*
X175037676Y-55026666D02*
X174942438Y-54931428D01*
X174942438Y-54931428D02*
X174894819Y-54788571D01*
X174894819Y-54788571D02*
X174894819Y-54693333D01*
X174894819Y-54693333D02*
X174942438Y-54550476D01*
X174942438Y-54550476D02*
X174990057Y-54502857D01*
X175894819Y-53550476D02*
X175894819Y-54121904D01*
X175894819Y-53836190D02*
X174894819Y-53836190D01*
X174894819Y-53836190D02*
X175037676Y-53931428D01*
X175037676Y-53931428D02*
X175132914Y-54026666D01*
X175132914Y-54026666D02*
X175180533Y-54121904D01*
X175323390Y-52979047D02*
X175275771Y-53074285D01*
X175275771Y-53074285D02*
X175228152Y-53121904D01*
X175228152Y-53121904D02*
X175132914Y-53169523D01*
X175132914Y-53169523D02*
X175085295Y-53169523D01*
X175085295Y-53169523D02*
X174990057Y-53121904D01*
X174990057Y-53121904D02*
X174942438Y-53074285D01*
X174942438Y-53074285D02*
X174894819Y-52979047D01*
X174894819Y-52979047D02*
X174894819Y-52788571D01*
X174894819Y-52788571D02*
X174942438Y-52693333D01*
X174942438Y-52693333D02*
X174990057Y-52645714D01*
X174990057Y-52645714D02*
X175085295Y-52598095D01*
X175085295Y-52598095D02*
X175132914Y-52598095D01*
X175132914Y-52598095D02*
X175228152Y-52645714D01*
X175228152Y-52645714D02*
X175275771Y-52693333D01*
X175275771Y-52693333D02*
X175323390Y-52788571D01*
X175323390Y-52788571D02*
X175323390Y-52979047D01*
X175323390Y-52979047D02*
X175371009Y-53074285D01*
X175371009Y-53074285D02*
X175418628Y-53121904D01*
X175418628Y-53121904D02*
X175513866Y-53169523D01*
X175513866Y-53169523D02*
X175704342Y-53169523D01*
X175704342Y-53169523D02*
X175799580Y-53121904D01*
X175799580Y-53121904D02*
X175847200Y-53074285D01*
X175847200Y-53074285D02*
X175894819Y-52979047D01*
X175894819Y-52979047D02*
X175894819Y-52788571D01*
X175894819Y-52788571D02*
X175847200Y-52693333D01*
X175847200Y-52693333D02*
X175799580Y-52645714D01*
X175799580Y-52645714D02*
X175704342Y-52598095D01*
X175704342Y-52598095D02*
X175513866Y-52598095D01*
X175513866Y-52598095D02*
X175418628Y-52645714D01*
X175418628Y-52645714D02*
X175371009Y-52693333D01*
X175371009Y-52693333D02*
X175323390Y-52788571D01*
D11*
G04 #@! TO.C,J8*
X206800000Y-51360000D02*
X206800000Y-54020000D01*
X209400000Y-51360000D02*
X206800000Y-51360000D01*
X209400000Y-51360000D02*
X209400000Y-54020000D01*
X209400000Y-54020000D02*
X206800000Y-54020000D01*
X210670000Y-51360000D02*
X212000000Y-51360000D01*
X212000000Y-51360000D02*
X212000000Y-52690000D01*
G04 #@! TO.C,R12*
X173429664Y-58548600D02*
X172975536Y-58548600D01*
X173429664Y-60018600D02*
X172975536Y-60018600D01*
G04 #@! TO.C,SW2*
X176191600Y-52465400D02*
X176441600Y-52465400D01*
X176191600Y-58765400D02*
X176191600Y-52465400D01*
X176441600Y-58765400D02*
X176191600Y-58765400D01*
X178341600Y-52465400D02*
X180941600Y-52465400D01*
X180941600Y-58765400D02*
X178341600Y-58765400D01*
X182841600Y-52465400D02*
X183091600Y-52465400D01*
X183091600Y-52465400D02*
X183091600Y-58765400D01*
X183091600Y-58765400D02*
X182841600Y-58765400D01*
G04 #@! TO.C,Q2*
X173331900Y-44363200D02*
X172681900Y-44363200D01*
X173331900Y-44363200D02*
X173981900Y-44363200D01*
X173331900Y-47483200D02*
X172681900Y-47483200D01*
X173331900Y-47483200D02*
X173981900Y-47483200D01*
X172169400Y-44413200D02*
X171929400Y-44083200D01*
X172409400Y-44083200D01*
X172169400Y-44413200D01*
G36*
X172169400Y-44413200D02*
G01*
X171929400Y-44083200D01*
X172409400Y-44083200D01*
X172169400Y-44413200D01*
G37*
G04 #@! TO.C,R10*
X186971000Y-70432664D02*
X186971000Y-69978536D01*
X188441000Y-70432664D02*
X188441000Y-69978536D01*
D12*
G04 #@! TO.C,J6*
X206700000Y-65430000D02*
X206700000Y-77630000D01*
X207700000Y-65430000D02*
X206700000Y-65430000D01*
X208200000Y-79630000D02*
X218200000Y-79630000D01*
X213300000Y-65430000D02*
X211000000Y-65430000D01*
X218200000Y-79630000D02*
X218200000Y-80630000D01*
X218200000Y-80630000D02*
X219200000Y-80630000D01*
X220700000Y-65430000D02*
X215500000Y-65430000D01*
X220700000Y-78730000D02*
X220700000Y-65430000D01*
D13*
G04 #@! TO.C,U7*
X184670700Y-40487600D02*
X202933300Y-40487600D01*
X184670700Y-47328160D02*
X184670700Y-40487600D01*
X184670700Y-66243200D02*
X184670700Y-65392640D01*
X186039760Y-66243200D02*
X184670700Y-66243200D01*
X202933300Y-40487600D02*
X202933300Y-47328160D01*
X202933300Y-65392640D02*
X202933300Y-66243200D01*
X202933300Y-66243200D02*
X201564240Y-66243200D01*
D11*
G04 #@! TO.C,D1*
X211741500Y-47434600D02*
X211741500Y-48704600D01*
X214861500Y-48734600D02*
X214861500Y-47434600D01*
X211791500Y-49084600D02*
X211461500Y-49324600D01*
X211461500Y-48844600D01*
X211791500Y-49084600D01*
G36*
X211791500Y-49084600D02*
G01*
X211461500Y-49324600D01*
X211461500Y-48844600D01*
X211791500Y-49084600D01*
G37*
G04 #@! TO.C,R13*
X169063936Y-42597400D02*
X169518064Y-42597400D01*
X169063936Y-44067400D02*
X169518064Y-44067400D01*
G04 #@! TO.C,C23*
X205925800Y-48726852D02*
X205925800Y-48204348D01*
X207395800Y-48726852D02*
X207395800Y-48204348D01*
G04 #@! TO.C,C24*
X208770600Y-48701452D02*
X208770600Y-48178948D01*
X210240600Y-48701452D02*
X210240600Y-48178948D01*
G04 #@! TO.C,R5*
X192051000Y-70432664D02*
X192051000Y-69978536D01*
X193521000Y-70432664D02*
X193521000Y-69978536D01*
G04 #@! TO.C,R17*
X173455064Y-60885400D02*
X173000936Y-60885400D01*
X173455064Y-62355400D02*
X173000936Y-62355400D01*
G04 #@! TO.C,R22*
X172508142Y-70419700D02*
X172982658Y-70419700D01*
X172508142Y-71464700D02*
X172982658Y-71464700D01*
G04 #@! TO.C,J1*
X164988800Y-77430400D02*
X164988800Y-78680400D01*
X164988800Y-78680400D02*
X166238800Y-78680400D01*
X165088800Y-76620400D02*
X165088800Y-76920400D01*
X165088800Y-76920400D02*
X165288800Y-76920400D01*
X165188800Y-76620400D02*
X165188800Y-76920400D01*
X165288800Y-72260400D02*
X165288800Y-78380400D01*
X165288800Y-75820400D02*
X165898800Y-75820400D01*
X165288800Y-76620400D02*
X165088800Y-76620400D01*
X165288800Y-78380400D02*
X170008800Y-78380400D01*
X165898800Y-72870400D02*
X165898800Y-74820400D01*
X165898800Y-74820400D02*
X165288800Y-74820400D01*
X165898800Y-75820400D02*
X165898800Y-77770400D01*
X165898800Y-77770400D02*
X169398800Y-77770400D01*
X166598800Y-72260400D02*
X166598800Y-72870400D01*
X166598800Y-78380400D02*
X166598800Y-77770400D01*
X167898800Y-72260400D02*
X167898800Y-72870400D01*
X167898800Y-78380400D02*
X167898800Y-77770400D01*
X168898800Y-75220400D02*
X169398800Y-75220400D01*
X168898800Y-75420400D02*
X168898800Y-75220400D01*
X169398800Y-72870400D02*
X165898800Y-72870400D01*
X169398800Y-75320400D02*
X168898800Y-75320400D01*
X169398800Y-75420400D02*
X168898800Y-75420400D01*
X169398800Y-77770400D02*
X169398800Y-72870400D01*
X170008800Y-72260400D02*
X165288800Y-72260400D01*
X170008800Y-78380400D02*
X170008800Y-72260400D01*
G04 #@! TO.C,R25*
X173000936Y-50827000D02*
X173455064Y-50827000D01*
X173000936Y-52297000D02*
X173455064Y-52297000D01*
G04 #@! TO.C,C2*
X169653852Y-49176000D02*
X169131348Y-49176000D01*
X169653852Y-50646000D02*
X169131348Y-50646000D01*
G04 #@! TO.C,R1*
X202211000Y-70407264D02*
X202211000Y-69953136D01*
X203681000Y-70407264D02*
X203681000Y-69953136D01*
G04 #@! TO.C,R14*
X169063936Y-40489200D02*
X169518064Y-40489200D01*
X169063936Y-41959200D02*
X169518064Y-41959200D01*
G04 #@! TO.C,R15*
X181916400Y-70432664D02*
X181916400Y-69978536D01*
X183386400Y-70432664D02*
X183386400Y-69978536D01*
G04 #@! TO.C,C1*
X169704652Y-51512800D02*
X169182148Y-51512800D01*
X169704652Y-52982800D02*
X169182148Y-52982800D01*
G04 #@! TO.C,R2*
X199696400Y-70407264D02*
X199696400Y-69953136D01*
X201166400Y-70407264D02*
X201166400Y-69953136D01*
G04 #@! TO.C,D3*
X175453800Y-71927600D02*
X178138800Y-71927600D01*
X178138800Y-70007600D02*
X175453800Y-70007600D01*
X178138800Y-71927600D02*
X178138800Y-70007600D01*
G04 #@! TO.C,R24*
X173051736Y-48439400D02*
X173505864Y-48439400D01*
X173051736Y-49909400D02*
X173505864Y-49909400D01*
G04 #@! TO.C,R18*
X169518064Y-44705600D02*
X169063936Y-44705600D01*
X169518064Y-46175600D02*
X169063936Y-46175600D01*
G04 #@! TO.C,C3*
X171477000Y-73946652D02*
X171477000Y-73424148D01*
X172947000Y-73946652D02*
X172947000Y-73424148D01*
G04 #@! TO.C,R3*
X197105600Y-70407264D02*
X197105600Y-69953136D01*
X198575600Y-70407264D02*
X198575600Y-69953136D01*
G04 #@! TO.C,R9*
X223909564Y-78115000D02*
X223455436Y-78115000D01*
X223909564Y-79585000D02*
X223455436Y-79585000D01*
G04 #@! TO.C,U3*
X171214000Y-77808100D02*
X171214000Y-75808100D01*
X173434000Y-77808100D02*
X173434000Y-75808100D01*
X171314000Y-78328100D02*
X171034000Y-78048100D01*
X171314000Y-78048100D01*
X171314000Y-78328100D01*
G36*
X171314000Y-78328100D02*
G01*
X171034000Y-78048100D01*
X171314000Y-78048100D01*
X171314000Y-78328100D01*
G37*
G04 #@! TO.C,R4*
X194591000Y-70407264D02*
X194591000Y-69953136D01*
X196061000Y-70407264D02*
X196061000Y-69953136D01*
G04 #@! TO.C,J4*
X178756000Y-73066600D02*
X178756000Y-78266600D01*
X201676000Y-73066600D02*
X178756000Y-73066600D01*
X201676000Y-73066600D02*
X201676000Y-75666600D01*
X201676000Y-75666600D02*
X204276000Y-75666600D01*
X202946000Y-73066600D02*
X204276000Y-73066600D01*
X204276000Y-73066600D02*
X204276000Y-74396600D01*
X204276000Y-75666600D02*
X204276000Y-78266600D01*
X204276000Y-78266600D02*
X178756000Y-78266600D01*
G04 #@! TO.C,R8*
X219345000Y-48362936D02*
X219345000Y-48817064D01*
X220815000Y-48362936D02*
X220815000Y-48817064D01*
G04 #@! TO.C,R6*
X216045000Y-48302936D02*
X216045000Y-48757064D01*
X217515000Y-48302936D02*
X217515000Y-48757064D01*
G04 #@! TO.C,R21*
X174356500Y-76775542D02*
X174356500Y-77250058D01*
X175401500Y-76775542D02*
X175401500Y-77250058D01*
G04 #@! TO.C,J7*
X205440000Y-55310000D02*
X226020000Y-55310000D01*
X205440000Y-64430000D02*
X205440000Y-55310000D01*
X206740000Y-56620000D02*
X213680000Y-56620000D01*
X206740000Y-63120000D02*
X206740000Y-56620000D01*
X213680000Y-56620000D02*
X213680000Y-55310000D01*
X213680000Y-56620000D02*
X213680000Y-56620000D01*
X217780000Y-55310000D02*
X217780000Y-56620000D01*
X217780000Y-56620000D02*
X224720000Y-56620000D01*
X220310000Y-53920000D02*
X220810000Y-54920000D01*
X220810000Y-54920000D02*
X221310000Y-53920000D01*
X221310000Y-53920000D02*
X220310000Y-53920000D01*
X224720000Y-56620000D02*
X224720000Y-63120000D01*
X224720000Y-63120000D02*
X206740000Y-63120000D01*
X226020000Y-55310000D02*
X226020000Y-64430000D01*
X226020000Y-64430000D02*
X205440000Y-64430000D01*
G04 #@! TO.C,R11*
X184431000Y-70432664D02*
X184431000Y-69978536D01*
X185901000Y-70432664D02*
X185901000Y-69978536D01*
G04 #@! TO.C,R19*
X169063936Y-46890000D02*
X169518064Y-46890000D01*
X169063936Y-48360000D02*
X169518064Y-48360000D01*
G04 #@! TO.C,R23*
X223949564Y-74735000D02*
X223495436Y-74735000D01*
X223949564Y-76205000D02*
X223495436Y-76205000D01*
G04 #@! TO.C,R16*
X179351000Y-70432664D02*
X179351000Y-69978536D01*
X180821000Y-70432664D02*
X180821000Y-69978536D01*
G04 #@! TO.C,J3*
X165395600Y-57826600D02*
X166725600Y-57826600D01*
X165395600Y-59156600D02*
X165395600Y-57826600D01*
X165395600Y-60426600D02*
X165395600Y-70646600D01*
X165395600Y-60426600D02*
X168055600Y-60426600D01*
X165395600Y-70646600D02*
X168055600Y-70646600D01*
X168055600Y-60426600D02*
X168055600Y-70646600D01*
G04 #@! TO.C,U1*
X177916400Y-62970000D02*
X177916400Y-62745000D01*
X177916400Y-66805000D02*
X177916400Y-66280000D01*
X177916400Y-66805000D02*
X178441400Y-66805000D01*
X178441400Y-62505000D02*
X178216400Y-62505000D01*
X182216400Y-62505000D02*
X181691400Y-62505000D01*
X182216400Y-62505000D02*
X182216400Y-63030000D01*
X182216400Y-66805000D02*
X181691400Y-66805000D01*
X182216400Y-66805000D02*
X182216400Y-66280000D01*
X177916400Y-62505000D02*
X177676400Y-62175000D01*
X178156400Y-62175000D01*
X177916400Y-62505000D01*
G36*
X177916400Y-62505000D02*
G01*
X177676400Y-62175000D01*
X178156400Y-62175000D01*
X177916400Y-62505000D01*
G37*
G04 #@! TO.C,SW1*
X176128000Y-42138200D02*
X176378000Y-42138200D01*
X176128000Y-48438200D02*
X176128000Y-42138200D01*
X176378000Y-48438200D02*
X176128000Y-48438200D01*
X178278000Y-42138200D02*
X180878000Y-42138200D01*
X180878000Y-48438200D02*
X178278000Y-48438200D01*
X182778000Y-42138200D02*
X183028000Y-42138200D01*
X183028000Y-42138200D02*
X183028000Y-48438200D01*
X183028000Y-48438200D02*
X182778000Y-48438200D01*
G04 #@! TO.C,J5*
X214655000Y-51150000D02*
X214655000Y-53810000D01*
X217255000Y-51150000D02*
X214655000Y-51150000D01*
X217255000Y-51150000D02*
X217255000Y-53810000D01*
X217255000Y-53810000D02*
X214655000Y-53810000D01*
X218525000Y-51150000D02*
X219855000Y-51150000D01*
X219855000Y-51150000D02*
X219855000Y-52480000D01*
G04 #@! TO.C,Q3*
X173329600Y-40426200D02*
X172679600Y-40426200D01*
X173329600Y-40426200D02*
X173979600Y-40426200D01*
X173329600Y-43546200D02*
X172679600Y-43546200D01*
X173329600Y-43546200D02*
X173979600Y-43546200D01*
X172167100Y-40476200D02*
X171927100Y-40146200D01*
X172407100Y-40146200D01*
X172167100Y-40476200D01*
G36*
X172167100Y-40476200D02*
G01*
X171927100Y-40146200D01*
X172407100Y-40146200D01*
X172167100Y-40476200D01*
G37*
G04 #@! TO.C,R20*
X176490100Y-77250058D02*
X176490100Y-76775542D01*
X177535100Y-77250058D02*
X177535100Y-76775542D01*
G04 #@! TO.C,R7*
X189511000Y-70432664D02*
X189511000Y-69978536D01*
X190981000Y-70432664D02*
X190981000Y-69978536D01*
G04 #@! TO.C,C4*
X175648948Y-72975800D02*
X176171452Y-72975800D01*
X175648948Y-74445800D02*
X176171452Y-74445800D01*
G04 #@! TO.C,J2*
X206440000Y-38450000D02*
X206440000Y-38050000D01*
X206440000Y-40420000D02*
X206440000Y-42400000D01*
X206440000Y-42400000D02*
X206860000Y-42400000D01*
X211510000Y-43080000D02*
X211960000Y-43080000D01*
X211960000Y-42630000D02*
X211960000Y-43080000D01*
X213960000Y-38050000D02*
X213960000Y-38450000D01*
X213960000Y-40420000D02*
X213960000Y-42400000D01*
X213960000Y-42400000D02*
X213540000Y-42400000D01*
G04 #@! TO.C,J9*
X215800000Y-40950000D02*
X217130000Y-40950000D01*
X215800000Y-42280000D02*
X215800000Y-40950000D01*
X215800000Y-43550000D02*
X215800000Y-46150000D01*
X215800000Y-43550000D02*
X218400000Y-43550000D01*
X215800000Y-46150000D02*
X221000000Y-46150000D01*
X218400000Y-40950000D02*
X221000000Y-40950000D01*
X218400000Y-43550000D02*
X218400000Y-40950000D01*
X221000000Y-40950000D02*
X221000000Y-46150000D01*
G04 #@! TO.C,C19*
X173514652Y-56008600D02*
X172992148Y-56008600D01*
X173514652Y-57478600D02*
X172992148Y-57478600D01*
G04 #@! TO.C,C18*
X173017548Y-53417800D02*
X173540052Y-53417800D01*
X173017548Y-54887800D02*
X173540052Y-54887800D01*
G04 #@! TD*
M02*
