G04 #@! TF.GenerationSoftware,KiCad,Pcbnew,8.0.0*
G04 #@! TF.CreationDate,2024-04-09T16:33:37-05:00*
G04 #@! TF.ProjectId,esp32_example,65737033-325f-4657-9861-6d706c652e6b,rev?*
G04 #@! TF.SameCoordinates,Original*
G04 #@! TF.FileFunction,Paste,Top*
G04 #@! TF.FilePolarity,Positive*
%FSLAX46Y46*%
G04 Gerber Fmt 4.6, Leading zero omitted, Abs format (unit mm)*
G04 Created by KiCad (PCBNEW 8.0.0) date 2024-04-09 16:33:37*
%MOMM*%
%LPD*%
G01*
G04 APERTURE LIST*
G04 Aperture macros list*
%AMRoundRect*
0 Rectangle with rounded corners*
0 $1 Rounding radius*
0 $2 $3 $4 $5 $6 $7 $8 $9 X,Y pos of 4 corners*
0 Add a 4 corners polygon primitive as box body*
4,1,4,$2,$3,$4,$5,$6,$7,$8,$9,$2,$3,0*
0 Add four circle primitives for the rounded corners*
1,1,$1+$1,$2,$3*
1,1,$1+$1,$4,$5*
1,1,$1+$1,$6,$7*
1,1,$1+$1,$8,$9*
0 Add four rect primitives between the rounded corners*
20,1,$1+$1,$2,$3,$4,$5,0*
20,1,$1+$1,$4,$5,$6,$7,0*
20,1,$1+$1,$6,$7,$8,$9,0*
20,1,$1+$1,$8,$9,$2,$3,0*%
G04 Aperture macros list end*
%ADD10RoundRect,0.250000X0.262500X0.450000X-0.262500X0.450000X-0.262500X-0.450000X0.262500X-0.450000X0*%
%ADD11R,1.300000X1.550000*%
%ADD12RoundRect,0.150000X-0.587500X-0.150000X0.587500X-0.150000X0.587500X0.150000X-0.587500X0.150000X0*%
%ADD13RoundRect,0.250000X0.450000X-0.262500X0.450000X0.262500X-0.450000X0.262500X-0.450000X-0.262500X0*%
%ADD14R,0.800000X1.500000*%
%ADD15R,1.000000X0.950000*%
%ADD16R,1.300000X1.400000*%
%ADD17R,1.400000X1.900000*%
%ADD18R,1.498600X0.889000*%
%ADD19R,0.889000X1.498600*%
%ADD20R,0.889000X0.889000*%
%ADD21RoundRect,0.175000X0.325000X-0.175000X0.325000X0.175000X-0.325000X0.175000X-0.325000X-0.175000X0*%
%ADD22RoundRect,0.150000X0.150000X-0.200000X0.150000X0.200000X-0.150000X0.200000X-0.150000X-0.200000X0*%
%ADD23RoundRect,0.250000X-0.262500X-0.450000X0.262500X-0.450000X0.262500X0.450000X-0.262500X0.450000X0*%
%ADD24RoundRect,0.250000X0.475000X-0.250000X0.475000X0.250000X-0.475000X0.250000X-0.475000X-0.250000X0*%
%ADD25RoundRect,0.200000X-0.200000X-0.275000X0.200000X-0.275000X0.200000X0.275000X-0.200000X0.275000X0*%
%ADD26RoundRect,0.250000X0.250000X0.475000X-0.250000X0.475000X-0.250000X-0.475000X0.250000X-0.475000X0*%
%ADD27RoundRect,0.243750X0.243750X0.456250X-0.243750X0.456250X-0.243750X-0.456250X0.243750X-0.456250X0*%
%ADD28RoundRect,0.160000X0.160000X-0.245000X0.160000X0.245000X-0.160000X0.245000X-0.160000X-0.245000X0*%
%ADD29RoundRect,0.093750X0.106250X-0.093750X0.106250X0.093750X-0.106250X0.093750X-0.106250X-0.093750X0*%
%ADD30RoundRect,0.250000X-0.450000X0.262500X-0.450000X-0.262500X0.450000X-0.262500X0.450000X0.262500X0*%
%ADD31RoundRect,0.200000X-0.275000X0.200000X-0.275000X-0.200000X0.275000X-0.200000X0.275000X0.200000X0*%
%ADD32RoundRect,0.075000X-0.350000X-0.075000X0.350000X-0.075000X0.350000X0.075000X-0.350000X0.075000X0*%
%ADD33RoundRect,0.075000X0.075000X-0.350000X0.075000X0.350000X-0.075000X0.350000X-0.075000X-0.350000X0*%
%ADD34RoundRect,0.200000X0.275000X-0.200000X0.275000X0.200000X-0.275000X0.200000X-0.275000X-0.200000X0*%
%ADD35RoundRect,0.250000X-0.250000X-0.475000X0.250000X-0.475000X0.250000X0.475000X-0.250000X0.475000X0*%
%ADD36O,0.890000X1.550000*%
%ADD37O,1.250000X0.950000*%
%ADD38R,0.400000X1.350000*%
%ADD39R,1.200000X1.550000*%
%ADD40R,1.500000X1.550000*%
G04 APERTURE END LIST*
D10*
G04 #@! TO.C,R12*
X174115100Y-59283600D03*
X172290100Y-59283600D03*
G04 #@! TD*
D11*
G04 #@! TO.C,SW2*
X181891600Y-51640400D03*
X181891600Y-59590400D03*
X177391600Y-51640400D03*
X177391600Y-59590400D03*
G04 #@! TD*
D12*
G04 #@! TO.C,Q2*
X172394400Y-44973200D03*
X172394400Y-46873200D03*
X174269400Y-45923200D03*
G04 #@! TD*
D13*
G04 #@! TO.C,R10*
X187706000Y-71118100D03*
X187706000Y-69293100D03*
G04 #@! TD*
D14*
G04 #@! TO.C,J6*
X215640000Y-76690000D03*
X214540000Y-76290000D03*
X213440000Y-76690000D03*
X212340000Y-76890000D03*
X211240000Y-76690000D03*
X210140000Y-76890000D03*
X209040000Y-76690000D03*
X207940000Y-76690000D03*
D15*
X210140000Y-65605000D03*
D16*
X208750000Y-65830000D03*
X214450000Y-65830000D03*
D17*
X220300000Y-79980000D03*
X207150000Y-78980000D03*
G04 #@! TD*
D18*
G04 #@! TO.C,U7*
X185052000Y-48105400D03*
X185052000Y-49375400D03*
X185052000Y-50645400D03*
X185052000Y-51915400D03*
X185052000Y-53185400D03*
X185052000Y-54455400D03*
X185052000Y-55725400D03*
X185052000Y-56995400D03*
X185052000Y-58265400D03*
X185052000Y-59535400D03*
X185052000Y-60805400D03*
X185052000Y-62075400D03*
X185052000Y-63345400D03*
X185052000Y-64615400D03*
D19*
X186817000Y-65865400D03*
X188087000Y-65865400D03*
X189357000Y-65865400D03*
X190627000Y-65865400D03*
X191897000Y-65865400D03*
X193167000Y-65865400D03*
X194437000Y-65865400D03*
X195707000Y-65865400D03*
X196977000Y-65865400D03*
X198247000Y-65865400D03*
X199517000Y-65865400D03*
X200787000Y-65865400D03*
D18*
X202552000Y-64615400D03*
X202552000Y-63345400D03*
X202552000Y-62075400D03*
X202552000Y-60805400D03*
X202552000Y-59535400D03*
X202552000Y-58265400D03*
X202552000Y-56995400D03*
X202552000Y-55725400D03*
X202552000Y-54455400D03*
X202552000Y-53185400D03*
X202552000Y-51915400D03*
X202552000Y-50645400D03*
X202552000Y-49375400D03*
X202552000Y-48105400D03*
D20*
X192552000Y-55825400D03*
X192552000Y-54425400D03*
X191152000Y-54425400D03*
X191152000Y-55825400D03*
X191152000Y-57225400D03*
X192552000Y-57225400D03*
X193952000Y-57225400D03*
X193952000Y-55825400D03*
X193952000Y-54425400D03*
G04 #@! TD*
D21*
G04 #@! TO.C,D1*
X212551500Y-49084600D03*
D22*
X214251500Y-49084600D03*
X214251500Y-47084600D03*
X212351500Y-47084600D03*
G04 #@! TD*
D23*
G04 #@! TO.C,R13*
X168378500Y-43332400D03*
X170203500Y-43332400D03*
G04 #@! TD*
D24*
G04 #@! TO.C,C23*
X206660800Y-49415600D03*
X206660800Y-47515600D03*
G04 #@! TD*
G04 #@! TO.C,C24*
X209505600Y-49390200D03*
X209505600Y-47490200D03*
G04 #@! TD*
D13*
G04 #@! TO.C,R5*
X192786000Y-71118100D03*
X192786000Y-69293100D03*
G04 #@! TD*
D10*
G04 #@! TO.C,R17*
X174140500Y-61620400D03*
X172315500Y-61620400D03*
G04 #@! TD*
D25*
G04 #@! TO.C,R22*
X171920400Y-70942200D03*
X173570400Y-70942200D03*
G04 #@! TD*
D23*
G04 #@! TO.C,R25*
X172315500Y-51562000D03*
X174140500Y-51562000D03*
G04 #@! TD*
D26*
G04 #@! TO.C,C2*
X170342600Y-49911000D03*
X168442600Y-49911000D03*
G04 #@! TD*
D13*
G04 #@! TO.C,R1*
X202946000Y-71092700D03*
X202946000Y-69267700D03*
G04 #@! TD*
D23*
G04 #@! TO.C,R14*
X168378500Y-41224200D03*
X170203500Y-41224200D03*
G04 #@! TD*
D13*
G04 #@! TO.C,R15*
X182651400Y-71118100D03*
X182651400Y-69293100D03*
G04 #@! TD*
D26*
G04 #@! TO.C,C1*
X170393400Y-52247800D03*
X168493400Y-52247800D03*
G04 #@! TD*
D13*
G04 #@! TO.C,R2*
X200431400Y-71092700D03*
X200431400Y-69267700D03*
G04 #@! TD*
D27*
G04 #@! TO.C,D3*
X177391300Y-70967600D03*
X175516300Y-70967600D03*
G04 #@! TD*
D23*
G04 #@! TO.C,R24*
X172366300Y-49174400D03*
X174191300Y-49174400D03*
G04 #@! TD*
D10*
G04 #@! TO.C,R18*
X170203500Y-45440600D03*
X168378500Y-45440600D03*
G04 #@! TD*
D24*
G04 #@! TO.C,C3*
X172212000Y-74635400D03*
X172212000Y-72735400D03*
G04 #@! TD*
D13*
G04 #@! TO.C,R3*
X197840600Y-71092700D03*
X197840600Y-69267700D03*
G04 #@! TD*
D10*
G04 #@! TO.C,R9*
X224595000Y-78850000D03*
X222770000Y-78850000D03*
G04 #@! TD*
D28*
G04 #@! TO.C,U3*
X171924000Y-76808100D03*
X172724000Y-76808100D03*
D29*
X171674000Y-77695600D03*
X172324000Y-77695600D03*
X172974000Y-77695600D03*
X172974000Y-75920600D03*
X172324000Y-75920600D03*
X171674000Y-75920600D03*
G04 #@! TD*
D13*
G04 #@! TO.C,R4*
X195326000Y-71092700D03*
X195326000Y-69267700D03*
G04 #@! TD*
D30*
G04 #@! TO.C,R8*
X220080000Y-47677500D03*
X220080000Y-49502500D03*
G04 #@! TD*
G04 #@! TO.C,R6*
X216780000Y-47617500D03*
X216780000Y-49442500D03*
G04 #@! TD*
D31*
G04 #@! TO.C,R21*
X174879000Y-76187800D03*
X174879000Y-77837800D03*
G04 #@! TD*
D13*
G04 #@! TO.C,R11*
X185166000Y-71118100D03*
X185166000Y-69293100D03*
G04 #@! TD*
D23*
G04 #@! TO.C,R19*
X168378500Y-47625000D03*
X170203500Y-47625000D03*
G04 #@! TD*
D10*
G04 #@! TO.C,R23*
X224635000Y-75470000D03*
X222810000Y-75470000D03*
G04 #@! TD*
D13*
G04 #@! TO.C,R16*
X180086000Y-71118100D03*
X180086000Y-69293100D03*
G04 #@! TD*
D32*
G04 #@! TO.C,U1*
X178116400Y-63405000D03*
X178116400Y-63905000D03*
X178116400Y-64405000D03*
X178116400Y-64905000D03*
X178116400Y-65405000D03*
X178116400Y-65905000D03*
D33*
X178816400Y-66605000D03*
X179316400Y-66605000D03*
X179816400Y-66605000D03*
X180316400Y-66605000D03*
X180816400Y-66605000D03*
X181316400Y-66605000D03*
D32*
X182016400Y-65905000D03*
X182016400Y-65405000D03*
X182016400Y-64905000D03*
X182016400Y-64405000D03*
X182016400Y-63905000D03*
X182016400Y-63405000D03*
D33*
X181316400Y-62705000D03*
X180816400Y-62705000D03*
X180316400Y-62705000D03*
X179816400Y-62705000D03*
X179316400Y-62705000D03*
X178816400Y-62705000D03*
G04 #@! TD*
D11*
G04 #@! TO.C,SW1*
X181828000Y-41313200D03*
X181828000Y-49263200D03*
X177328000Y-41313200D03*
X177328000Y-49263200D03*
G04 #@! TD*
D12*
G04 #@! TO.C,Q3*
X172392100Y-41036200D03*
X172392100Y-42936200D03*
X174267100Y-41986200D03*
G04 #@! TD*
D34*
G04 #@! TO.C,R20*
X177012600Y-77837800D03*
X177012600Y-76187800D03*
G04 #@! TD*
D13*
G04 #@! TO.C,R7*
X190246000Y-71118100D03*
X190246000Y-69293100D03*
G04 #@! TD*
D35*
G04 #@! TO.C,C4*
X174960200Y-73710800D03*
X176860200Y-73710800D03*
G04 #@! TD*
D36*
G04 #@! TO.C,J2*
X213700000Y-39440000D03*
D37*
X212700000Y-42140000D03*
X207700000Y-42140000D03*
D36*
X206700000Y-39440000D03*
D38*
X211500000Y-42140000D03*
X210850000Y-42140000D03*
X210200000Y-42140000D03*
X209550000Y-42140000D03*
X208900000Y-42140000D03*
D39*
X213100000Y-39440000D03*
D40*
X211200000Y-39440000D03*
X209200000Y-39440000D03*
D39*
X207300000Y-39440000D03*
G04 #@! TD*
D26*
G04 #@! TO.C,C19*
X174203400Y-56743600D03*
X172303400Y-56743600D03*
G04 #@! TD*
D35*
G04 #@! TO.C,C18*
X172328800Y-54152800D03*
X174228800Y-54152800D03*
G04 #@! TD*
M02*
