G04 #@! TF.GenerationSoftware,KiCad,Pcbnew,8.0.0*
G04 #@! TF.CreationDate,2024-04-09T16:33:37-05:00*
G04 #@! TF.ProjectId,esp32_example,65737033-325f-4657-9861-6d706c652e6b,rev?*
G04 #@! TF.SameCoordinates,Original*
G04 #@! TF.FileFunction,Copper,L2,Bot*
G04 #@! TF.FilePolarity,Positive*
%FSLAX46Y46*%
G04 Gerber Fmt 4.6, Leading zero omitted, Abs format (unit mm)*
G04 Created by KiCad (PCBNEW 8.0.0) date 2024-04-09 16:33:37*
%MOMM*%
%LPD*%
G01*
G04 APERTURE LIST*
G04 Aperture macros list*
%AMRoundRect*
0 Rectangle with rounded corners*
0 $1 Rounding radius*
0 $2 $3 $4 $5 $6 $7 $8 $9 X,Y pos of 4 corners*
0 Add a 4 corners polygon primitive as box body*
4,1,4,$2,$3,$4,$5,$6,$7,$8,$9,$2,$3,0*
0 Add four circle primitives for the rounded corners*
1,1,$1+$1,$2,$3*
1,1,$1+$1,$4,$5*
1,1,$1+$1,$6,$7*
1,1,$1+$1,$8,$9*
0 Add four rect primitives between the rounded corners*
20,1,$1+$1,$2,$3,$4,$5,0*
20,1,$1+$1,$4,$5,$6,$7,0*
20,1,$1+$1,$6,$7,$8,$9,0*
20,1,$1+$1,$8,$9,$2,$3,0*%
%AMFreePoly0*
4,1,6,1.000000,0.000000,0.500000,-0.750000,-0.500000,-0.750000,-0.500000,0.750000,0.500000,0.750000,1.000000,0.000000,1.000000,0.000000,$1*%
%AMFreePoly1*
4,1,6,0.500000,-0.750000,-0.650000,-0.750000,-0.150000,0.000000,-0.650000,0.750000,0.500000,0.750000,0.500000,-0.750000,0.500000,-0.750000,$1*%
%AMFreePoly2*
4,1,7,0.700000,0.000000,1.200000,-0.750000,-1.200000,-0.750000,-0.700000,0.000000,-1.200000,0.750000,1.200000,0.750000,0.700000,0.000000,0.700000,0.000000,$1*%
G04 Aperture macros list end*
G04 #@! TA.AperFunction,ComponentPad*
%ADD10R,1.700000X1.700000*%
G04 #@! TD*
G04 #@! TA.AperFunction,ComponentPad*
%ADD11O,1.700000X1.700000*%
G04 #@! TD*
G04 #@! TA.AperFunction,ComponentPad*
%ADD12RoundRect,0.250000X0.625000X-0.350000X0.625000X0.350000X-0.625000X0.350000X-0.625000X-0.350000X0*%
G04 #@! TD*
G04 #@! TA.AperFunction,ComponentPad*
%ADD13O,1.750000X1.200000*%
G04 #@! TD*
G04 #@! TA.AperFunction,ComponentPad*
%ADD14RoundRect,0.250000X-0.600000X0.600000X-0.600000X-0.600000X0.600000X-0.600000X0.600000X0.600000X0*%
G04 #@! TD*
G04 #@! TA.AperFunction,ComponentPad*
%ADD15C,1.700000*%
G04 #@! TD*
G04 #@! TA.AperFunction,ComponentPad*
%ADD16O,1.100000X1.750000*%
G04 #@! TD*
G04 #@! TA.AperFunction,ComponentPad*
%ADD17O,1.450000X1.150000*%
G04 #@! TD*
G04 #@! TA.AperFunction,SMDPad,CuDef*
%ADD18FreePoly0,180.000000*%
G04 #@! TD*
G04 #@! TA.AperFunction,SMDPad,CuDef*
%ADD19FreePoly1,180.000000*%
G04 #@! TD*
G04 #@! TA.AperFunction,SMDPad,CuDef*
%ADD20FreePoly2,180.000000*%
G04 #@! TD*
G04 #@! TA.AperFunction,SMDPad,CuDef*
%ADD21FreePoly0,0.000000*%
G04 #@! TD*
G04 #@! TA.AperFunction,ViaPad*
%ADD22C,1.000000*%
G04 #@! TD*
G04 #@! TA.AperFunction,ViaPad*
%ADD23C,0.900000*%
G04 #@! TD*
G04 #@! TA.AperFunction,Conductor*
%ADD24C,0.250000*%
G04 #@! TD*
G04 #@! TA.AperFunction,Conductor*
%ADD25C,0.200000*%
G04 #@! TD*
G04 APERTURE END LIST*
D10*
G04 #@! TO.P,J8,1,Pin_1*
G04 #@! TO.N,Net-(J8-Pin_1)*
X210670000Y-52690000D03*
D11*
G04 #@! TO.P,J8,2,Pin_2*
G04 #@! TO.N,+3V3*
X208130000Y-52690000D03*
G04 #@! TD*
D12*
G04 #@! TO.P,J1,1,Pin_1*
G04 #@! TO.N,/POWER FROM BATTERY*
X167098800Y-76320400D03*
D13*
G04 #@! TO.P,J1,2,Pin_2*
G04 #@! TO.N,GND*
X167098800Y-74320400D03*
G04 #@! TD*
D10*
G04 #@! TO.P,J4,1,Pin_1*
G04 #@! TO.N,/PRESS1*
X202946000Y-74396600D03*
D11*
G04 #@! TO.P,J4,2,Pin_2*
G04 #@! TO.N,GND*
X202946000Y-76936600D03*
G04 #@! TO.P,J4,3,Pin_3*
G04 #@! TO.N,/PRESS2*
X200406000Y-74396600D03*
G04 #@! TO.P,J4,4,Pin_4*
G04 #@! TO.N,GND*
X200406000Y-76936600D03*
G04 #@! TO.P,J4,5,Pin_5*
G04 #@! TO.N,/PRESS3*
X197866000Y-74396600D03*
G04 #@! TO.P,J4,6,Pin_6*
G04 #@! TO.N,GND*
X197866000Y-76936600D03*
G04 #@! TO.P,J4,7,Pin_7*
G04 #@! TO.N,/PRESS4*
X195326000Y-74396600D03*
G04 #@! TO.P,J4,8,Pin_8*
G04 #@! TO.N,GND*
X195326000Y-76936600D03*
G04 #@! TO.P,J4,9,Pin_9*
G04 #@! TO.N,/PRESS5*
X192786000Y-74396600D03*
G04 #@! TO.P,J4,10,Pin_10*
G04 #@! TO.N,GND*
X192786000Y-76936600D03*
G04 #@! TO.P,J4,11,Pin_11*
G04 #@! TO.N,/PRESS6*
X190246000Y-74396600D03*
G04 #@! TO.P,J4,12,Pin_12*
G04 #@! TO.N,GND*
X190246000Y-76936600D03*
G04 #@! TO.P,J4,13,Pin_13*
G04 #@! TO.N,/PRESS7*
X187706000Y-74396600D03*
G04 #@! TO.P,J4,14,Pin_14*
G04 #@! TO.N,GND*
X187706000Y-76936600D03*
G04 #@! TO.P,J4,15,Pin_15*
G04 #@! TO.N,/PRESS8*
X185166000Y-74396600D03*
G04 #@! TO.P,J4,16,Pin_16*
G04 #@! TO.N,GND*
X185166000Y-76936600D03*
G04 #@! TO.P,J4,17,Pin_17*
G04 #@! TO.N,/PRESS9*
X182626000Y-74396600D03*
G04 #@! TO.P,J4,18,Pin_18*
G04 #@! TO.N,GND*
X182626000Y-76936600D03*
G04 #@! TO.P,J4,19,Pin_19*
G04 #@! TO.N,/PRESS10*
X180086000Y-74396600D03*
G04 #@! TO.P,J4,20,Pin_20*
G04 #@! TO.N,GND*
X180086000Y-76936600D03*
G04 #@! TD*
D14*
G04 #@! TO.P,J7,1,VTref*
G04 #@! TO.N,Net-(J7-VTref)*
X220810000Y-58600000D03*
D15*
G04 #@! TO.P,J7,2,SWDIO/TMS*
G04 #@! TO.N,/MTMS*
X220810000Y-61140000D03*
G04 #@! TO.P,J7,3,GND*
G04 #@! TO.N,GND*
X218270000Y-58600000D03*
G04 #@! TO.P,J7,4,SWDCLK/TCK*
G04 #@! TO.N,/MTCK*
X218270000Y-61140000D03*
G04 #@! TO.P,J7,5,GND*
G04 #@! TO.N,GND*
X215730000Y-58600000D03*
G04 #@! TO.P,J7,6,SWO/TDO*
G04 #@! TO.N,/MTDO*
X215730000Y-61140000D03*
G04 #@! TO.P,J7,7,KEY*
G04 #@! TO.N,unconnected-(J7-KEY-Pad7)*
X213190000Y-58600000D03*
G04 #@! TO.P,J7,8,NC/TDI*
G04 #@! TO.N,/MTDI*
X213190000Y-61140000D03*
G04 #@! TO.P,J7,9,GNDDetect*
G04 #@! TO.N,GND*
X210650000Y-58600000D03*
G04 #@! TO.P,J7,10,~{RESET}*
G04 #@! TO.N,/CHIP_PU*
X210650000Y-61140000D03*
G04 #@! TD*
D10*
G04 #@! TO.P,J3,1,Pin_1*
G04 #@! TO.N,/RTS*
X166725600Y-59156600D03*
D11*
G04 #@! TO.P,J3,2,Pin_2*
G04 #@! TO.N,/DTR*
X166725600Y-61696600D03*
G04 #@! TO.P,J3,3,Pin_3*
G04 #@! TO.N,/TX*
X166725600Y-64236600D03*
G04 #@! TO.P,J3,4,Pin_4*
G04 #@! TO.N,/RX*
X166725600Y-66776600D03*
G04 #@! TO.P,J3,5,Pin_5*
G04 #@! TO.N,GND*
X166725600Y-69316600D03*
G04 #@! TD*
D10*
G04 #@! TO.P,J5,1,Pin_1*
G04 #@! TO.N,Net-(J5-Pin_1)*
X218525000Y-52480000D03*
D11*
G04 #@! TO.P,J5,2,Pin_2*
G04 #@! TO.N,+3V3*
X215985000Y-52480000D03*
G04 #@! TD*
D16*
G04 #@! TO.P,J2,6,Shield*
G04 #@! TO.N,unconnected-(J2-Shield-Pad6)*
X213700000Y-39440000D03*
D17*
X212700000Y-42140000D03*
X207700000Y-42140000D03*
D16*
X206700000Y-39440000D03*
G04 #@! TD*
D10*
G04 #@! TO.P,J9,1,Pin_1*
G04 #@! TO.N,Net-(J9-Pin_1)*
X217130000Y-42280000D03*
D11*
G04 #@! TO.P,J9,2,Pin_2*
G04 #@! TO.N,Net-(J9-Pin_2)*
X219670000Y-42280000D03*
G04 #@! TO.P,J9,3,Pin_3*
G04 #@! TO.N,Net-(J9-Pin_3)*
X217130000Y-44820000D03*
G04 #@! TO.P,J9,4,Pin_4*
G04 #@! TO.N,Net-(J9-Pin_4)*
X219670000Y-44820000D03*
G04 #@! TD*
D18*
G04 #@! TO.P,JP1,1,A*
G04 #@! TO.N,+3V3*
X224340000Y-67050000D03*
D19*
G04 #@! TO.P,JP1,2,B*
G04 #@! TO.N,Net-(J7-VTref)*
X222890000Y-67050000D03*
G04 #@! TD*
D18*
G04 #@! TO.P,JP2,1,A*
G04 #@! TO.N,GND*
X175450400Y-65938400D03*
D20*
G04 #@! TO.P,JP2,2,C*
G04 #@! TO.N,Net-(JP2-C)*
X173450400Y-65938400D03*
D21*
G04 #@! TO.P,JP2,3,B*
G04 #@! TO.N,+3V3*
X171450400Y-65938400D03*
G04 #@! TD*
D22*
G04 #@! TO.N,GND*
X181520000Y-44460000D03*
X204110000Y-49870000D03*
X179730000Y-49240000D03*
X185030000Y-48130000D03*
X199650000Y-48400000D03*
X213430000Y-78620000D03*
D23*
X175361600Y-65913000D03*
D22*
X212160000Y-80210000D03*
X212320000Y-74090000D03*
D23*
G04 #@! TO.N,/End Hike*
X178155600Y-53873400D03*
D22*
X223690000Y-50710000D03*
D23*
X170408600Y-52298600D03*
D22*
G04 #@! TO.N,/Start Hike*
X221870000Y-40720000D03*
D23*
X170385556Y-49953956D03*
X179273200Y-52908200D03*
G04 #@! TO.N,+3V3*
X172339000Y-51562000D03*
X172389800Y-49199800D03*
D22*
X171680000Y-65900000D03*
X180210000Y-46030000D03*
X222780000Y-72900000D03*
G04 #@! TO.N,/CHIP_PU*
X204940000Y-52470000D03*
D23*
G04 #@! TO.N,/GPIO0_STRAPPING*
X202590400Y-64643000D03*
X177393600Y-59563000D03*
X174193200Y-51587400D03*
X177419000Y-51663600D03*
G04 #@! TO.N,/D+*
X185064400Y-64643000D03*
X214280800Y-49126000D03*
G04 #@! TO.N,/D-*
X185013600Y-63322200D03*
X214306200Y-47094000D03*
G04 #@! TO.N,/RX*
X202565000Y-53187600D03*
G04 #@! TO.N,/TX*
X202514200Y-51917600D03*
G04 #@! TO.N,/RTS*
X168376600Y-41224200D03*
X172389800Y-46863000D03*
G04 #@! TO.N,/PRESS3*
X197840600Y-71069200D03*
X193141600Y-65836800D03*
G04 #@! TO.N,/PRESS1*
X195656200Y-65786000D03*
X202920600Y-71094600D03*
G04 #@! TO.N,/PRESS9*
X182651400Y-71094600D03*
X185318400Y-56997600D03*
G04 #@! TO.N,/PRESS6*
X190246000Y-71069200D03*
X184734200Y-53187600D03*
G04 #@! TO.N,/PRESS5*
X192811400Y-71120000D03*
X190576200Y-65963800D03*
G04 #@! TO.N,/PRESS7*
X187655200Y-71094600D03*
X185369200Y-54483000D03*
G04 #@! TO.N,/PRESS8*
X185013600Y-60807600D03*
X185102500Y-71031100D03*
G04 #@! TO.N,/PRESS10*
X180086000Y-71094600D03*
X185369200Y-55727600D03*
G04 #@! TO.N,/PRESS2*
X194437000Y-65989200D03*
X200406000Y-71094600D03*
G04 #@! TO.N,/PRESS4*
X191820800Y-65963800D03*
X195351400Y-71120000D03*
G04 #@! TO.N,Net-(JP2-C)*
X173456600Y-65938400D03*
G04 #@! TO.N,Net-(Q3-C)*
X174269400Y-41986200D03*
X168427400Y-47675800D03*
G04 #@! TO.N,/GPIO46_STRAPPING*
X174117000Y-59258200D03*
X188112400Y-65608200D03*
G04 #@! TO.N,/GPIO3_STRAPPING*
X186867800Y-66344800D03*
X174167800Y-61645800D03*
D22*
G04 #@! TO.N,/SCLK*
X221800000Y-68920000D03*
X205740000Y-59610000D03*
G04 #@! TO.N,/CS*
X221420000Y-73880000D03*
X206160000Y-63420000D03*
G04 #@! TO.N,/MOSI*
X205920000Y-60900000D03*
X220770000Y-70150000D03*
G04 #@! TO.N,/MISO*
X206040000Y-62180000D03*
X222950000Y-69980000D03*
G04 #@! TO.N,Net-(J9-Pin_2)*
X202500000Y-49390000D03*
G04 #@! TO.N,Net-(J9-Pin_4)*
X202580000Y-50640000D03*
G04 #@! TD*
D24*
G04 #@! TO.N,/End Hike*
X178130200Y-53873400D02*
X172085000Y-53873400D01*
X225660000Y-78110000D02*
X225760000Y-78110000D01*
X170434000Y-52222400D02*
X167970200Y-54686200D01*
X165550600Y-67263301D02*
X166238899Y-67951600D01*
X167970200Y-62179200D02*
X167087800Y-63061600D01*
X172085000Y-53873400D02*
X170434000Y-52222400D01*
X167212301Y-67951600D02*
X173310000Y-74049299D01*
X166238899Y-63061600D02*
X165550600Y-63749899D01*
X166238899Y-67951600D02*
X167212301Y-67951600D01*
X226700000Y-77170000D02*
X226700000Y-53660000D01*
X167087800Y-63061600D02*
X166238899Y-63061600D01*
X224325000Y-79445000D02*
X225660000Y-78110000D01*
X165550600Y-63749899D02*
X165550600Y-67263301D01*
X176990000Y-80380000D02*
X208890000Y-80380000D01*
X225760000Y-78110000D02*
X226700000Y-77170000D01*
X167970200Y-54686200D02*
X167970200Y-62179200D01*
X208890000Y-80380000D02*
X209885000Y-79385000D01*
X173310000Y-76700000D02*
X176990000Y-80380000D01*
X209885000Y-79385000D02*
X213028273Y-79385000D01*
X213028273Y-79385000D02*
X213088273Y-79445000D01*
X173310000Y-74049299D02*
X173310000Y-76700000D01*
X213088273Y-79445000D02*
X224325000Y-79445000D01*
X226700000Y-53660000D02*
X223750000Y-50710000D01*
X223750000Y-50710000D02*
X223690000Y-50710000D01*
G04 #@! TO.N,Net-(J9-Pin_4)*
X202580000Y-50640000D02*
X202635000Y-50695000D01*
X214997081Y-50695000D02*
X219670000Y-46022081D01*
X202635000Y-50695000D02*
X214997081Y-50695000D01*
X219670000Y-46022081D02*
X219670000Y-44820000D01*
G04 #@! TO.N,/Start Hike*
X176090299Y-48373200D02*
X176090299Y-42074687D01*
X174464812Y-40449200D02*
X168055584Y-40449200D01*
X176090299Y-42074687D02*
X174464812Y-40449200D01*
X223471396Y-81035000D02*
X227150000Y-77356396D01*
X168055584Y-40449200D02*
X165100600Y-43404184D01*
X165100600Y-43404184D02*
X165100600Y-69980600D01*
X176155000Y-81035000D02*
X223471396Y-81035000D01*
X165100600Y-69980600D02*
X176155000Y-81035000D01*
X227150000Y-77356396D02*
X227150000Y-46000000D01*
X227150000Y-46000000D02*
X221870000Y-40720000D01*
G04 #@! TO.N,GND*
X187630000Y-48400000D02*
X187360000Y-48130000D01*
X185030000Y-48130000D02*
X187360000Y-48130000D01*
X199650000Y-48400000D02*
X187630000Y-48400000D01*
X213270000Y-78620000D02*
X213430000Y-78620000D01*
X212320000Y-74090000D02*
X212320000Y-77670000D01*
X212320000Y-77670000D02*
X213270000Y-78620000D01*
G04 #@! TO.N,/End Hike*
X223690000Y-50710000D02*
X223690000Y-50650000D01*
X223690000Y-50650000D02*
X223810000Y-50770000D01*
G04 #@! TO.N,/Start Hike*
X221870000Y-40590000D02*
X221790000Y-40670000D01*
X221740000Y-40720000D02*
X221870000Y-40720000D01*
X221710000Y-40560000D02*
X221870000Y-40720000D01*
X179289706Y-52839200D02*
X179255000Y-52839200D01*
X170357800Y-49911000D02*
X171895600Y-48373200D01*
X170357800Y-50977800D02*
X170357800Y-49911000D01*
X172219200Y-52839200D02*
X170357800Y-50977800D01*
X171895600Y-48373200D02*
X176090299Y-48373200D01*
X179255000Y-52839200D02*
X179247800Y-52832000D01*
X221870000Y-40720000D02*
X221870000Y-40590000D01*
X179240600Y-52839200D02*
X172219200Y-52839200D01*
X179247800Y-52832000D02*
X179240600Y-52839200D01*
X221762600Y-40697400D02*
X221740000Y-40720000D01*
G04 #@! TO.N,+3V3*
X224340000Y-59930000D02*
X224340000Y-67050000D01*
X221835000Y-57425000D02*
X224340000Y-59930000D01*
X180210000Y-46030000D02*
X177040200Y-49199800D01*
X215985000Y-52480000D02*
X220930000Y-57425000D01*
X224340000Y-71340000D02*
X224340000Y-67050000D01*
X172389800Y-51511200D02*
X172339000Y-51562000D01*
X177040200Y-49199800D02*
X172389800Y-49199800D01*
X222780000Y-72900000D02*
X224340000Y-71340000D01*
X172389800Y-49199800D02*
X172389800Y-51511200D01*
X220930000Y-57425000D02*
X221835000Y-57425000D01*
G04 #@! TO.N,/CHIP_PU*
X210650000Y-61140000D02*
X204900000Y-55390000D01*
X204940000Y-52470000D02*
X204900000Y-52580000D01*
X204900000Y-55390000D02*
X204940000Y-52470000D01*
G04 #@! TO.N,/GPIO0_STRAPPING*
X202368400Y-64763400D02*
X202539600Y-64592200D01*
X183718200Y-65836800D02*
X185140600Y-65836800D01*
X177393600Y-59512200D02*
X183718200Y-65836800D01*
X186214000Y-64763400D02*
X202368400Y-64763400D01*
X174117000Y-51587400D02*
X177317400Y-51587400D01*
X185140600Y-65836800D02*
X186214000Y-64763400D01*
X177317400Y-51587400D02*
X177393600Y-51663600D01*
D25*
G04 #@! TO.N,/D+*
X188925200Y-55727600D02*
X183997600Y-50800000D01*
X183997600Y-48031029D02*
X184698629Y-47330000D01*
X212484800Y-47330000D02*
X214280800Y-49126000D01*
X188925200Y-60629800D02*
X188925200Y-55727600D01*
X183997600Y-50800000D02*
X183997600Y-48031029D01*
X184698629Y-47330000D02*
X212484800Y-47330000D01*
X184937400Y-64617600D02*
X188925200Y-60629800D01*
G04 #@! TO.N,/D-*
X187782200Y-60528200D02*
X187782200Y-55174939D01*
X214003800Y-47396400D02*
X214306200Y-47094000D01*
X184532944Y-46930000D02*
X214142200Y-46930000D01*
X182829200Y-50221939D02*
X182829200Y-48633744D01*
X184937400Y-63373000D02*
X187782200Y-60528200D01*
X187782200Y-55174939D02*
X182829200Y-50221939D01*
X182829200Y-48633744D02*
X184532944Y-46930000D01*
X214142200Y-46930000D02*
X214306200Y-47094000D01*
D24*
G04 #@! TO.N,/RX*
X166725600Y-66811305D02*
X166725600Y-66776600D01*
X202565000Y-53162200D02*
X204444600Y-55041800D01*
X203054200Y-73221600D02*
X173135895Y-73221600D01*
X173135895Y-73221600D02*
X166725600Y-66811305D01*
X204444600Y-55041800D02*
X204444600Y-71831200D01*
X204444600Y-71831200D02*
X203054200Y-73221600D01*
G04 #@! TO.N,/TX*
X202640600Y-72771600D02*
X175260600Y-72771600D01*
X203994600Y-71417600D02*
X202640600Y-72771600D01*
X203994600Y-56115800D02*
X203994600Y-71417600D01*
X202514200Y-51892200D02*
X201396600Y-53009800D01*
X166725600Y-64236600D02*
X175260600Y-72771600D01*
X201396600Y-53517800D02*
X203994600Y-56115800D01*
X201396600Y-53009800D02*
X201396600Y-53517800D01*
G04 #@! TO.N,/RTS*
X172389800Y-46888400D02*
X175107600Y-44170600D01*
X174590416Y-41211200D02*
X168389600Y-41211200D01*
X168389600Y-41211200D02*
X168376600Y-41224200D01*
X175107600Y-41728384D02*
X174590416Y-41211200D01*
X166725600Y-59156600D02*
X166725600Y-52517895D01*
X172355095Y-46888400D02*
X172389800Y-46888400D01*
X166725600Y-52517895D02*
X172355095Y-46888400D01*
X175107600Y-44170600D02*
X175107600Y-41728384D01*
G04 #@! TO.N,/PRESS3*
X197866000Y-70561200D02*
X197866000Y-71094600D01*
X193167000Y-65862200D02*
X197866000Y-70561200D01*
G04 #@! TO.N,/PRESS1*
X202946000Y-71069200D02*
X202946000Y-70678895D01*
X198129305Y-65862200D02*
X195656200Y-65862200D01*
X202946000Y-70678895D02*
X198129305Y-65862200D01*
G04 #@! TO.N,/PRESS9*
X177774600Y-70205600D02*
X181762400Y-70205600D01*
X185496200Y-56972200D02*
X170967400Y-56972200D01*
X177234000Y-69665000D02*
X177774600Y-70205600D01*
X169770200Y-58169400D02*
X169770200Y-63088804D01*
X177234000Y-65368912D02*
X177234000Y-69665000D01*
X181762400Y-70205600D02*
X182651400Y-71094600D01*
X170493396Y-63812000D02*
X175677088Y-63812000D01*
X175677088Y-63812000D02*
X177234000Y-65368912D01*
X169770200Y-63088804D02*
X170493396Y-63812000D01*
X170967400Y-56972200D02*
X169770200Y-58169400D01*
G04 #@! TO.N,/PRESS6*
X189069800Y-72321600D02*
X175446996Y-72321600D01*
X169233000Y-54871200D02*
X183076000Y-54871200D01*
X183076000Y-54871200D02*
X184785000Y-53162200D01*
X175446996Y-72321600D02*
X168420200Y-65294804D01*
X190296800Y-71094600D02*
X189069800Y-72321600D01*
X168420200Y-65294804D02*
X168420200Y-55684000D01*
X168420200Y-55684000D02*
X169233000Y-54871200D01*
G04 #@! TO.N,/PRESS5*
X190627000Y-65913000D02*
X190996400Y-66282400D01*
X190996400Y-66282400D02*
X190996400Y-69279600D01*
X190996400Y-69279600D02*
X192811400Y-71094600D01*
G04 #@! TO.N,/PRESS7*
X187731400Y-71120000D02*
X186979800Y-71871600D01*
X186979800Y-71871600D02*
X175633392Y-71871600D01*
X168870200Y-55870396D02*
X169419396Y-55321200D01*
X168870200Y-65108408D02*
X168870200Y-55870396D01*
X169419396Y-55321200D02*
X184607200Y-55321200D01*
X184607200Y-55321200D02*
X185470800Y-54457600D01*
X175633392Y-71871600D02*
X168870200Y-65108408D01*
G04 #@! TO.N,/PRESS8*
X170220200Y-62902408D02*
X170220200Y-58547000D01*
X185191400Y-71120000D02*
X183991000Y-69919600D01*
X170639992Y-63322200D02*
X170220200Y-62902408D01*
X175823684Y-63322200D02*
X170639992Y-63322200D01*
X183991000Y-69919600D02*
X183991000Y-69407784D01*
X171345000Y-57422200D02*
X181653600Y-57422200D01*
X181653600Y-57422200D02*
X185039000Y-60807600D01*
X178409600Y-65908116D02*
X175823684Y-63322200D01*
X183991000Y-69407784D02*
X180491332Y-65908116D01*
X170220200Y-58547000D02*
X171345000Y-57422200D01*
X180491332Y-65908116D02*
X178409600Y-65908116D01*
G04 #@! TO.N,/PRESS10*
X170307000Y-64262000D02*
X175490692Y-64262000D01*
X169320200Y-63275200D02*
X170307000Y-64262000D01*
X177850800Y-71094600D02*
X180086000Y-71094600D01*
X185470800Y-55753000D02*
X185452600Y-55771200D01*
X185452600Y-55771200D02*
X169722800Y-55771200D01*
X169722800Y-55771200D02*
X169320200Y-56173800D01*
X176784000Y-65555308D02*
X176784000Y-70027800D01*
X169320200Y-56173800D02*
X169320200Y-63275200D01*
X176784000Y-70027800D02*
X177850800Y-71094600D01*
X175490692Y-64262000D02*
X176784000Y-65555308D01*
G04 #@! TO.N,/PRESS2*
X195097400Y-66598800D02*
X194437000Y-65938400D01*
X200456800Y-71069200D02*
X200456800Y-70662800D01*
X196392800Y-66598800D02*
X195097400Y-66598800D01*
X200456800Y-70662800D02*
X196392800Y-66598800D01*
G04 #@! TO.N,/PRESS4*
X191871600Y-67030600D02*
X195351400Y-70510400D01*
X191871600Y-65862200D02*
X191871600Y-67030600D01*
X195351400Y-70510400D02*
X195351400Y-71094600D01*
G04 #@! TO.N,Net-(J7-VTref)*
X222890000Y-67050000D02*
X222890000Y-60680000D01*
X222890000Y-60680000D02*
X220810000Y-58600000D01*
G04 #@! TO.N,Net-(Q3-C)*
X168376600Y-47625000D02*
X174015400Y-41986200D01*
X174015400Y-41986200D02*
X174269400Y-41986200D01*
G04 #@! TO.N,/GPIO46_STRAPPING*
X183589804Y-66344800D02*
X185359895Y-66344800D01*
X186491295Y-65213400D02*
X187692200Y-65213400D01*
X175539400Y-60680600D02*
X177925604Y-60680600D01*
X185359895Y-66344800D02*
X186491295Y-65213400D01*
X174117000Y-59258200D02*
X175539400Y-60680600D01*
X177925604Y-60680600D02*
X183589804Y-66344800D01*
X187692200Y-65213400D02*
X188112400Y-65633600D01*
G04 #@! TO.N,/GPIO3_STRAPPING*
X177873408Y-61264800D02*
X183537608Y-66929000D01*
X174167800Y-61595000D02*
X174498000Y-61264800D01*
X186283600Y-66929000D02*
X186867800Y-66344800D01*
X174498000Y-61264800D02*
X177873408Y-61264800D01*
X183537608Y-66929000D02*
X186283600Y-66929000D01*
G04 #@! TO.N,/SCLK*
X216188299Y-68950000D02*
X221640000Y-68950000D01*
X221800000Y-68920000D02*
X221700000Y-68950000D01*
X221700000Y-68950000D02*
X221670000Y-68950000D01*
X221640000Y-68950000D02*
X221800000Y-68920000D01*
X206848299Y-59610000D02*
X216188299Y-68950000D01*
X205740000Y-59610000D02*
X206848299Y-59610000D01*
G04 #@! TO.N,/CS*
X221470000Y-73880000D02*
X221370000Y-73780000D01*
X221420000Y-73830000D02*
X221420000Y-73880000D01*
X221420000Y-73880000D02*
X221470000Y-73880000D01*
X220410000Y-72820000D02*
X221420000Y-73830000D01*
X206160000Y-63420000D02*
X215560000Y-72820000D01*
X215560000Y-72820000D02*
X220410000Y-72820000D01*
G04 #@! TO.N,/MOSI*
X220600000Y-70080000D02*
X220770000Y-70150000D01*
X220740000Y-70080000D02*
X220670000Y-70080000D01*
X220770000Y-70150000D02*
X220740000Y-70080000D01*
X207501903Y-60900000D02*
X216681903Y-70080000D01*
X205920000Y-60900000D02*
X207501903Y-60900000D01*
X216681903Y-70080000D02*
X220600000Y-70080000D01*
G04 #@! TO.N,/MISO*
X206040000Y-62180000D02*
X208145507Y-62180000D01*
X221240000Y-71620000D02*
X222880000Y-69980000D01*
X222950000Y-69980000D02*
X222950000Y-69910000D01*
X222950000Y-69910000D02*
X222860000Y-70000000D01*
X217585507Y-71620000D02*
X221240000Y-71620000D01*
X208145507Y-62180000D02*
X217585507Y-71620000D01*
X222880000Y-69980000D02*
X222950000Y-69980000D01*
G04 #@! TO.N,Net-(J9-Pin_2)*
X211122616Y-49901000D02*
X209826616Y-48605000D01*
X203285000Y-48605000D02*
X202500000Y-49390000D01*
X214601816Y-49901000D02*
X211122616Y-49901000D01*
X219670000Y-42280000D02*
X218305000Y-43645000D01*
X209826616Y-48605000D02*
X203285000Y-48605000D01*
X218305000Y-43645000D02*
X218305000Y-46197816D01*
X218305000Y-46197816D02*
X214601816Y-49901000D01*
G04 #@! TD*
G04 #@! TA.AperFunction,Conductor*
G04 #@! TO.N,GND*
G36*
X183342580Y-38399885D02*
G01*
X183388519Y-38452529D01*
X183399906Y-38504528D01*
X183393815Y-46610736D01*
X183393179Y-47456821D01*
X183399717Y-47463396D01*
X183433026Y-47524815D01*
X183427841Y-47594493D01*
X183399465Y-47638506D01*
X182644689Y-48393284D01*
X182588741Y-48449231D01*
X182588735Y-48449239D01*
X182549182Y-48517748D01*
X182549179Y-48517753D01*
X182535526Y-48568706D01*
X182528700Y-48594182D01*
X182528700Y-50261501D01*
X182536024Y-50288833D01*
X182549179Y-50337930D01*
X182549181Y-50337933D01*
X182566517Y-50367959D01*
X182566519Y-50367961D01*
X182588739Y-50406449D01*
X184551363Y-52369073D01*
X184584848Y-52430396D01*
X184579864Y-52500088D01*
X184537992Y-52556021D01*
X184507665Y-52572692D01*
X184501833Y-52574904D01*
X184361962Y-52648315D01*
X184283131Y-52718152D01*
X184245623Y-52751382D01*
X184243716Y-52753071D01*
X184153981Y-52883075D01*
X184153980Y-52883076D01*
X184097962Y-53030781D01*
X184078922Y-53187599D01*
X184078922Y-53187600D01*
X184095502Y-53324157D01*
X184084041Y-53393081D01*
X184060087Y-53426784D01*
X182977492Y-54509381D01*
X182916169Y-54542866D01*
X182889811Y-54545700D01*
X178704657Y-54545700D01*
X178637618Y-54526015D01*
X178591863Y-54473211D01*
X178581919Y-54404053D01*
X178610944Y-54340497D01*
X178622426Y-54328888D01*
X178646083Y-54307930D01*
X178735820Y-54177923D01*
X178791837Y-54030218D01*
X178810878Y-53873400D01*
X178791837Y-53716582D01*
X178782079Y-53690853D01*
X178753243Y-53614818D01*
X178747876Y-53545155D01*
X178781023Y-53483649D01*
X178842162Y-53449827D01*
X178911879Y-53454429D01*
X178926811Y-53461051D01*
X179040834Y-53520896D01*
X179194214Y-53558700D01*
X179194215Y-53558700D01*
X179352185Y-53558700D01*
X179505565Y-53520896D01*
X179523313Y-53511581D01*
X179645440Y-53447483D01*
X179763683Y-53342730D01*
X179853420Y-53212723D01*
X179909437Y-53065018D01*
X179928478Y-52908200D01*
X179926989Y-52895932D01*
X179909437Y-52751381D01*
X179872020Y-52652722D01*
X179853420Y-52603677D01*
X179763683Y-52473670D01*
X179645440Y-52368917D01*
X179645438Y-52368916D01*
X179645437Y-52368915D01*
X179505565Y-52295503D01*
X179352186Y-52257700D01*
X179352185Y-52257700D01*
X179194215Y-52257700D01*
X179194214Y-52257700D01*
X179040834Y-52295503D01*
X178900962Y-52368915D01*
X178900960Y-52368917D01*
X178782717Y-52473670D01*
X178782716Y-52473671D01*
X178777103Y-52478644D01*
X178775834Y-52477211D01*
X178725077Y-52509052D01*
X178691446Y-52513700D01*
X177702028Y-52513700D01*
X177634989Y-52494015D01*
X177589234Y-52441211D01*
X177579290Y-52372053D01*
X177608315Y-52308497D01*
X177645990Y-52282194D01*
X177644724Y-52279782D01*
X177712151Y-52244392D01*
X177791240Y-52202883D01*
X177909483Y-52098130D01*
X177999220Y-51968123D01*
X178055237Y-51820418D01*
X178074278Y-51663600D01*
X178073067Y-51653622D01*
X178055237Y-51506781D01*
X178024000Y-51424417D01*
X177999220Y-51359077D01*
X177909483Y-51229070D01*
X177791240Y-51124317D01*
X177791238Y-51124316D01*
X177791237Y-51124315D01*
X177651365Y-51050903D01*
X177497986Y-51013100D01*
X177497985Y-51013100D01*
X177340015Y-51013100D01*
X177340014Y-51013100D01*
X177186634Y-51050903D01*
X177046762Y-51124314D01*
X176986546Y-51177661D01*
X176928517Y-51229070D01*
X176928515Y-51229072D01*
X176926660Y-51230716D01*
X176863427Y-51260437D01*
X176844433Y-51261900D01*
X174824021Y-51261900D01*
X174756982Y-51242215D01*
X174721971Y-51208340D01*
X174700980Y-51177929D01*
X174683683Y-51152870D01*
X174565440Y-51048117D01*
X174565438Y-51048116D01*
X174565437Y-51048115D01*
X174425565Y-50974703D01*
X174272186Y-50936900D01*
X174272185Y-50936900D01*
X174114215Y-50936900D01*
X174114214Y-50936900D01*
X173960834Y-50974703D01*
X173820962Y-51048115D01*
X173702716Y-51152871D01*
X173612981Y-51282875D01*
X173612980Y-51282876D01*
X173556962Y-51430581D01*
X173537922Y-51587399D01*
X173537922Y-51587400D01*
X173556962Y-51744218D01*
X173602417Y-51864070D01*
X173612980Y-51891923D01*
X173702717Y-52021930D01*
X173820960Y-52126683D01*
X173820962Y-52126684D01*
X173960834Y-52200096D01*
X174114214Y-52237900D01*
X174114215Y-52237900D01*
X174272185Y-52237900D01*
X174425565Y-52200096D01*
X174473960Y-52174696D01*
X174565440Y-52126683D01*
X174683683Y-52021930D01*
X174721971Y-51966459D01*
X174776254Y-51922470D01*
X174824021Y-51912900D01*
X176735582Y-51912900D01*
X176802621Y-51932585D01*
X176837632Y-51966460D01*
X176838780Y-51968123D01*
X176928517Y-52098130D01*
X177046760Y-52202883D01*
X177046762Y-52202884D01*
X177193276Y-52279782D01*
X177191743Y-52282701D01*
X177235622Y-52315904D01*
X177259700Y-52381494D01*
X177244495Y-52449689D01*
X177194835Y-52498838D01*
X177135972Y-52513700D01*
X172405389Y-52513700D01*
X172338350Y-52494015D01*
X172317708Y-52477381D01*
X172264508Y-52424181D01*
X172231023Y-52362858D01*
X172236007Y-52293166D01*
X172277879Y-52237233D01*
X172343343Y-52212816D01*
X172352189Y-52212500D01*
X172417985Y-52212500D01*
X172571365Y-52174696D01*
X172711240Y-52101283D01*
X172829483Y-51996530D01*
X172919220Y-51866523D01*
X172975237Y-51718818D01*
X172994278Y-51562000D01*
X172975237Y-51405182D01*
X172975236Y-51405180D01*
X172941208Y-51315455D01*
X172919220Y-51257477D01*
X172829483Y-51127470D01*
X172807425Y-51107928D01*
X172757073Y-51063320D01*
X172719946Y-51004131D01*
X172715300Y-50970505D01*
X172715300Y-49836297D01*
X172734985Y-49769258D01*
X172757074Y-49743481D01*
X172762036Y-49739085D01*
X172762040Y-49739083D01*
X172880283Y-49634330D01*
X172918571Y-49578859D01*
X172972854Y-49534870D01*
X173020621Y-49525300D01*
X177083051Y-49525300D01*
X177083053Y-49525300D01*
X177165839Y-49503118D01*
X177240062Y-49460265D01*
X179951048Y-46749277D01*
X180012369Y-46715794D01*
X180068403Y-46716563D01*
X180124941Y-46730499D01*
X180124942Y-46730500D01*
X180124944Y-46730500D01*
X180295056Y-46730500D01*
X180460225Y-46689790D01*
X180575097Y-46629500D01*
X180610849Y-46610736D01*
X180610850Y-46610734D01*
X180610852Y-46610734D01*
X180738183Y-46497929D01*
X180834818Y-46357930D01*
X180895140Y-46198872D01*
X180915645Y-46030000D01*
X180895140Y-45861128D01*
X180834818Y-45702070D01*
X180831791Y-45697685D01*
X180778732Y-45620816D01*
X180738183Y-45562071D01*
X180642350Y-45477171D01*
X180610849Y-45449263D01*
X180460226Y-45370210D01*
X180295056Y-45329500D01*
X180124944Y-45329500D01*
X179959773Y-45370210D01*
X179809150Y-45449263D01*
X179681816Y-45562072D01*
X179585182Y-45702068D01*
X179524860Y-45861125D01*
X179524860Y-45861128D01*
X179504355Y-46030000D01*
X179523639Y-46188820D01*
X179512179Y-46257743D01*
X179488224Y-46291447D01*
X176941692Y-48837981D01*
X176880369Y-48871466D01*
X176854011Y-48874300D01*
X176336143Y-48874300D01*
X176269104Y-48854615D01*
X176223349Y-48801811D01*
X176213405Y-48732653D01*
X176242430Y-48669097D01*
X176274142Y-48642913D01*
X176290161Y-48633665D01*
X176350764Y-48573062D01*
X176393617Y-48498838D01*
X176415799Y-48416053D01*
X176415799Y-42127542D01*
X176415800Y-42127529D01*
X176415800Y-42031835D01*
X176393670Y-41949247D01*
X176393617Y-41949048D01*
X176365773Y-41900821D01*
X176350764Y-41874825D01*
X176290161Y-41814222D01*
X176290160Y-41814221D01*
X176285830Y-41809891D01*
X176285819Y-41809881D01*
X174664676Y-40188737D01*
X174664675Y-40188736D01*
X174664674Y-40188735D01*
X174627562Y-40167308D01*
X174590452Y-40145882D01*
X174549058Y-40134791D01*
X174507665Y-40123700D01*
X168012731Y-40123700D01*
X167929946Y-40145882D01*
X167929939Y-40145885D01*
X167855728Y-40188730D01*
X167855720Y-40188736D01*
X164840137Y-43204319D01*
X164840133Y-43204325D01*
X164797281Y-43278545D01*
X164797282Y-43278546D01*
X164775100Y-43361331D01*
X164775100Y-69937747D01*
X164775100Y-70023453D01*
X164780938Y-70045240D01*
X164797282Y-70106240D01*
X164814658Y-70136335D01*
X164840135Y-70180462D01*
X164840137Y-70180464D01*
X167689202Y-73029529D01*
X167722687Y-73090852D01*
X167717703Y-73160544D01*
X167675831Y-73216477D01*
X167610367Y-73240894D01*
X167582124Y-73239683D01*
X167460372Y-73220400D01*
X167348800Y-73220400D01*
X167348800Y-74070400D01*
X168447915Y-74070400D01*
X168462037Y-74053865D01*
X168463470Y-74042780D01*
X168508467Y-73989329D01*
X168575219Y-73968690D01*
X168642532Y-73987416D01*
X168664669Y-74004996D01*
X175894534Y-81234861D01*
X175894535Y-81234862D01*
X175955138Y-81295465D01*
X175955140Y-81295466D01*
X175955144Y-81295469D01*
X176029355Y-81338314D01*
X176029362Y-81338318D01*
X176112147Y-81360500D01*
X176112149Y-81360500D01*
X223514247Y-81360500D01*
X223514249Y-81360500D01*
X223597035Y-81338318D01*
X223671258Y-81295465D01*
X227339652Y-77627068D01*
X227339657Y-77627065D01*
X227349860Y-77616861D01*
X227349862Y-77616861D01*
X227410465Y-77556258D01*
X227453318Y-77482034D01*
X227475501Y-77399249D01*
X227475501Y-77313543D01*
X227475501Y-77305948D01*
X227475500Y-77305930D01*
X227475500Y-46052855D01*
X227475501Y-46052842D01*
X227475501Y-45957148D01*
X227475501Y-45957147D01*
X227453318Y-45874362D01*
X227445677Y-45861128D01*
X227410465Y-45800138D01*
X227349862Y-45739535D01*
X227349861Y-45739534D01*
X227345531Y-45735204D01*
X227345520Y-45735194D01*
X222591775Y-40981448D01*
X222558290Y-40920125D01*
X222556360Y-40878823D01*
X222575645Y-40720000D01*
X222555140Y-40551128D01*
X222494818Y-40392070D01*
X222398183Y-40252071D01*
X222303316Y-40168026D01*
X222270849Y-40139263D01*
X222120226Y-40060210D01*
X221955056Y-40019500D01*
X221784944Y-40019500D01*
X221619773Y-40060210D01*
X221469150Y-40139263D01*
X221341816Y-40252072D01*
X221245182Y-40392068D01*
X221184860Y-40551125D01*
X221184859Y-40551130D01*
X221164355Y-40720000D01*
X221184859Y-40888869D01*
X221184860Y-40888874D01*
X221245182Y-41047931D01*
X221307475Y-41138177D01*
X221341817Y-41187929D01*
X221447505Y-41281560D01*
X221469150Y-41300736D01*
X221610323Y-41374829D01*
X221619775Y-41379790D01*
X221784944Y-41420500D01*
X221955058Y-41420500D01*
X221955058Y-41420499D01*
X222011595Y-41406564D01*
X222081396Y-41409631D01*
X222128952Y-41439279D01*
X226788181Y-46098507D01*
X226821666Y-46159830D01*
X226824500Y-46186188D01*
X226824500Y-53024811D01*
X226804815Y-53091850D01*
X226752011Y-53137605D01*
X226682853Y-53147549D01*
X226619297Y-53118524D01*
X226612819Y-53112492D01*
X224418271Y-50917944D01*
X224384786Y-50856621D01*
X224382856Y-50815320D01*
X224395645Y-50710000D01*
X224375140Y-50541128D01*
X224374810Y-50540259D01*
X224324064Y-50406450D01*
X224314818Y-50382070D01*
X224306141Y-50369500D01*
X224266499Y-50312068D01*
X224218183Y-50242071D01*
X224090852Y-50129266D01*
X224090849Y-50129263D01*
X223940226Y-50050210D01*
X223775056Y-50009500D01*
X223604944Y-50009500D01*
X223439773Y-50050210D01*
X223289150Y-50129263D01*
X223161816Y-50242072D01*
X223065182Y-50382068D01*
X223004860Y-50541125D01*
X223004859Y-50541130D01*
X222984355Y-50710000D01*
X223004859Y-50878869D01*
X223004860Y-50878874D01*
X223065182Y-51037931D01*
X223113498Y-51107927D01*
X223161817Y-51177929D01*
X223254950Y-51260437D01*
X223289150Y-51290736D01*
X223419359Y-51359075D01*
X223439775Y-51369790D01*
X223604944Y-51410500D01*
X223775054Y-51410500D01*
X223775056Y-51410500D01*
X223879735Y-51384699D01*
X223949534Y-51387768D01*
X223997088Y-51417415D01*
X226338181Y-53758508D01*
X226371666Y-53819831D01*
X226374500Y-53846189D01*
X226374500Y-76983811D01*
X226354815Y-77050850D01*
X226338181Y-77071492D01*
X225651604Y-77758068D01*
X225596016Y-77790162D01*
X225534360Y-77806682D01*
X225460138Y-77849535D01*
X225460135Y-77849537D01*
X224226492Y-79083181D01*
X224165169Y-79116666D01*
X224138811Y-79119500D01*
X213252640Y-79119500D01*
X213190639Y-79102886D01*
X213153917Y-79081684D01*
X213153915Y-79081683D01*
X213153912Y-79081682D01*
X213071126Y-79059500D01*
X209842147Y-79059500D01*
X209759362Y-79081682D01*
X209759361Y-79081682D01*
X209693859Y-79119500D01*
X209693858Y-79119499D01*
X209685141Y-79124532D01*
X209685136Y-79124536D01*
X208791492Y-80018181D01*
X208730169Y-80051666D01*
X208703811Y-80054500D01*
X177176189Y-80054500D01*
X177109150Y-80034815D01*
X177088508Y-80018181D01*
X173671819Y-76601492D01*
X173638334Y-76540169D01*
X173635500Y-76513811D01*
X173635500Y-74102154D01*
X173635501Y-74102141D01*
X173635501Y-74006447D01*
X173630401Y-73987416D01*
X173613318Y-73923661D01*
X173613317Y-73923660D01*
X173613317Y-73923658D01*
X173613316Y-73923657D01*
X173570467Y-73849440D01*
X173570466Y-73849439D01*
X173570465Y-73849437D01*
X173509862Y-73788834D01*
X173509861Y-73788833D01*
X173505531Y-73784503D01*
X173505520Y-73784493D01*
X173479808Y-73758781D01*
X173446323Y-73697458D01*
X173451307Y-73627766D01*
X173493179Y-73571833D01*
X173558643Y-73547416D01*
X173567489Y-73547100D01*
X179162018Y-73547100D01*
X179229057Y-73566785D01*
X179274812Y-73619589D01*
X179284756Y-73688747D01*
X179257871Y-73749765D01*
X179208317Y-73810146D01*
X179110769Y-73992643D01*
X179050699Y-74190667D01*
X179030417Y-74396600D01*
X179050699Y-74602532D01*
X179080734Y-74701544D01*
X179110768Y-74800554D01*
X179208315Y-74983050D01*
X179208317Y-74983052D01*
X179339589Y-75143010D01*
X179359600Y-75159432D01*
X179499550Y-75274285D01*
X179682046Y-75371832D01*
X179748551Y-75392005D01*
X179806989Y-75430302D01*
X179835446Y-75494114D01*
X179824887Y-75563181D01*
X179778663Y-75615575D01*
X179744650Y-75630441D01*
X179622514Y-75663167D01*
X179622507Y-75663170D01*
X179408422Y-75762999D01*
X179408420Y-75763000D01*
X179214926Y-75898486D01*
X179214920Y-75898491D01*
X179047891Y-76065520D01*
X179047886Y-76065526D01*
X178912400Y-76259020D01*
X178912399Y-76259022D01*
X178812570Y-76473107D01*
X178812567Y-76473113D01*
X178755364Y-76686599D01*
X178755364Y-76686600D01*
X179652988Y-76686600D01*
X179620075Y-76743607D01*
X179586000Y-76870774D01*
X179586000Y-77002426D01*
X179620075Y-77129593D01*
X179652988Y-77186600D01*
X178755364Y-77186600D01*
X178812567Y-77400086D01*
X178812570Y-77400092D01*
X178912399Y-77614178D01*
X179047894Y-77807682D01*
X179214917Y-77974705D01*
X179408421Y-78110200D01*
X179622507Y-78210029D01*
X179622516Y-78210033D01*
X179836000Y-78267234D01*
X179836000Y-77369612D01*
X179893007Y-77402525D01*
X180020174Y-77436600D01*
X180151826Y-77436600D01*
X180278993Y-77402525D01*
X180336000Y-77369612D01*
X180336000Y-78267233D01*
X180549483Y-78210033D01*
X180549492Y-78210029D01*
X180763578Y-78110200D01*
X180957082Y-77974705D01*
X181124105Y-77807682D01*
X181254425Y-77621568D01*
X181309002Y-77577944D01*
X181378501Y-77570751D01*
X181440855Y-77602273D01*
X181457575Y-77621568D01*
X181587894Y-77807682D01*
X181754917Y-77974705D01*
X181948421Y-78110200D01*
X182162507Y-78210029D01*
X182162516Y-78210033D01*
X182376000Y-78267234D01*
X182376000Y-77369612D01*
X182433007Y-77402525D01*
X182560174Y-77436600D01*
X182691826Y-77436600D01*
X182818993Y-77402525D01*
X182876000Y-77369612D01*
X182876000Y-78267234D01*
X183089483Y-78210033D01*
X183089492Y-78210029D01*
X183303578Y-78110200D01*
X183497082Y-77974705D01*
X183664105Y-77807682D01*
X183794425Y-77621568D01*
X183849002Y-77577944D01*
X183918501Y-77570751D01*
X183980855Y-77602273D01*
X183997575Y-77621568D01*
X184127894Y-77807682D01*
X184294917Y-77974705D01*
X184488421Y-78110200D01*
X184702507Y-78210029D01*
X184702516Y-78210033D01*
X184916000Y-78267234D01*
X184916000Y-77369612D01*
X184973007Y-77402525D01*
X185100174Y-77436600D01*
X185231826Y-77436600D01*
X185358993Y-77402525D01*
X185416000Y-77369612D01*
X185416000Y-78267233D01*
X185629483Y-78210033D01*
X185629492Y-78210029D01*
X185843578Y-78110200D01*
X186037082Y-77974705D01*
X186204105Y-77807682D01*
X186334425Y-77621568D01*
X186389002Y-77577944D01*
X186458501Y-77570751D01*
X186520855Y-77602273D01*
X186537575Y-77621568D01*
X186667894Y-77807682D01*
X186834917Y-77974705D01*
X187028421Y-78110200D01*
X187242507Y-78210029D01*
X187242516Y-78210033D01*
X187456000Y-78267234D01*
X187456000Y-77369612D01*
X187513007Y-77402525D01*
X187640174Y-77436600D01*
X187771826Y-77436600D01*
X187898993Y-77402525D01*
X187956000Y-77369612D01*
X187956000Y-78267234D01*
X188169483Y-78210033D01*
X188169492Y-78210029D01*
X188383578Y-78110200D01*
X188577082Y-77974705D01*
X188744105Y-77807682D01*
X188874425Y-77621568D01*
X188929002Y-77577944D01*
X188998501Y-77570751D01*
X189060855Y-77602273D01*
X189077575Y-77621568D01*
X189207894Y-77807682D01*
X189374917Y-77974705D01*
X189568421Y-78110200D01*
X189782507Y-78210029D01*
X189782516Y-78210033D01*
X189996000Y-78267234D01*
X189996000Y-77369612D01*
X190053007Y-77402525D01*
X190180174Y-77436600D01*
X190311826Y-77436600D01*
X190438993Y-77402525D01*
X190496000Y-77369612D01*
X190496000Y-78267234D01*
X190709483Y-78210033D01*
X190709492Y-78210029D01*
X190923578Y-78110200D01*
X191117082Y-77974705D01*
X191284105Y-77807682D01*
X191414425Y-77621568D01*
X191469002Y-77577944D01*
X191538501Y-77570751D01*
X191600855Y-77602273D01*
X191617575Y-77621568D01*
X191747894Y-77807682D01*
X191914917Y-77974705D01*
X192108421Y-78110200D01*
X192322507Y-78210029D01*
X192322516Y-78210033D01*
X192536000Y-78267234D01*
X192536000Y-77369612D01*
X192593007Y-77402525D01*
X192720174Y-77436600D01*
X192851826Y-77436600D01*
X192978993Y-77402525D01*
X193036000Y-77369612D01*
X193036000Y-78267234D01*
X193249483Y-78210033D01*
X193249492Y-78210029D01*
X193463578Y-78110200D01*
X193657082Y-77974705D01*
X193824105Y-77807682D01*
X193954425Y-77621568D01*
X194009002Y-77577944D01*
X194078501Y-77570751D01*
X194140855Y-77602273D01*
X194157575Y-77621568D01*
X194287894Y-77807682D01*
X194454917Y-77974705D01*
X194648421Y-78110200D01*
X194862507Y-78210029D01*
X194862516Y-78210033D01*
X195076000Y-78267234D01*
X195076000Y-77369612D01*
X195133007Y-77402525D01*
X195260174Y-77436600D01*
X195391826Y-77436600D01*
X195518993Y-77402525D01*
X195576000Y-77369612D01*
X195576000Y-78267234D01*
X195789483Y-78210033D01*
X195789492Y-78210029D01*
X196003578Y-78110200D01*
X196197082Y-77974705D01*
X196364105Y-77807682D01*
X196494425Y-77621568D01*
X196549002Y-77577944D01*
X196618501Y-77570751D01*
X196680855Y-77602273D01*
X196697575Y-77621568D01*
X196827894Y-77807682D01*
X196994917Y-77974705D01*
X197188421Y-78110200D01*
X197402507Y-78210029D01*
X197402516Y-78210033D01*
X197616000Y-78267234D01*
X197616000Y-77369612D01*
X197673007Y-77402525D01*
X197800174Y-77436600D01*
X197931826Y-77436600D01*
X198058993Y-77402525D01*
X198116000Y-77369612D01*
X198116000Y-78267233D01*
X198329483Y-78210033D01*
X198329492Y-78210029D01*
X198543578Y-78110200D01*
X198737082Y-77974705D01*
X198904105Y-77807682D01*
X199034425Y-77621568D01*
X199089002Y-77577944D01*
X199158501Y-77570751D01*
X199220855Y-77602273D01*
X199237575Y-77621568D01*
X199367894Y-77807682D01*
X199534917Y-77974705D01*
X199728421Y-78110200D01*
X199942507Y-78210029D01*
X199942516Y-78210033D01*
X200156000Y-78267234D01*
X200156000Y-77369612D01*
X200213007Y-77402525D01*
X200340174Y-77436600D01*
X200471826Y-77436600D01*
X200598993Y-77402525D01*
X200656000Y-77369612D01*
X200656000Y-78267233D01*
X200869483Y-78210033D01*
X200869492Y-78210029D01*
X201083578Y-78110200D01*
X201277082Y-77974705D01*
X201444105Y-77807682D01*
X201574425Y-77621568D01*
X201629002Y-77577944D01*
X201698501Y-77570751D01*
X201760855Y-77602273D01*
X201777575Y-77621568D01*
X201907894Y-77807682D01*
X202074917Y-77974705D01*
X202268421Y-78110200D01*
X202482507Y-78210029D01*
X202482516Y-78210033D01*
X202696000Y-78267234D01*
X202696000Y-77369612D01*
X202753007Y-77402525D01*
X202880174Y-77436600D01*
X203011826Y-77436600D01*
X203138993Y-77402525D01*
X203196000Y-77369612D01*
X203196000Y-78267233D01*
X203409483Y-78210033D01*
X203409492Y-78210029D01*
X203623578Y-78110200D01*
X203817082Y-77974705D01*
X203984105Y-77807682D01*
X204119600Y-77614178D01*
X204219429Y-77400092D01*
X204219432Y-77400086D01*
X204276636Y-77186600D01*
X203379012Y-77186600D01*
X203411925Y-77129593D01*
X203446000Y-77002426D01*
X203446000Y-76870774D01*
X203411925Y-76743607D01*
X203379012Y-76686600D01*
X204276636Y-76686600D01*
X204276635Y-76686599D01*
X204219432Y-76473113D01*
X204219429Y-76473107D01*
X204119600Y-76259022D01*
X204119599Y-76259020D01*
X203984113Y-76065526D01*
X203984108Y-76065520D01*
X203817082Y-75898494D01*
X203623578Y-75762999D01*
X203453052Y-75683482D01*
X203400613Y-75637310D01*
X203381461Y-75570116D01*
X203401677Y-75503235D01*
X203454842Y-75457900D01*
X203505457Y-75447100D01*
X203815750Y-75447100D01*
X203815751Y-75447099D01*
X203830568Y-75444152D01*
X203874229Y-75435468D01*
X203874229Y-75435467D01*
X203874231Y-75435467D01*
X203940552Y-75391152D01*
X203984867Y-75324831D01*
X203984867Y-75324829D01*
X203984868Y-75324829D01*
X203996499Y-75266352D01*
X203996500Y-75266350D01*
X203996500Y-73526849D01*
X203996499Y-73526847D01*
X203984868Y-73468370D01*
X203984867Y-73468369D01*
X203940552Y-73402047D01*
X203874230Y-73357732D01*
X203874229Y-73357731D01*
X203815752Y-73346100D01*
X203815748Y-73346100D01*
X203689389Y-73346100D01*
X203622350Y-73326415D01*
X203576595Y-73273611D01*
X203566651Y-73204453D01*
X203595676Y-73140897D01*
X203601708Y-73134419D01*
X204097576Y-72638550D01*
X204634252Y-72101872D01*
X204634257Y-72101869D01*
X204644460Y-72091665D01*
X204644462Y-72091665D01*
X204705065Y-72031062D01*
X204747918Y-71956838D01*
X204759275Y-71914453D01*
X204770101Y-71874052D01*
X204770101Y-71788347D01*
X204770101Y-71780752D01*
X204770100Y-71780734D01*
X204770100Y-56019789D01*
X204789785Y-55952750D01*
X204842589Y-55906995D01*
X204911747Y-55897051D01*
X204975303Y-55926076D01*
X204981781Y-55932108D01*
X209648678Y-60599005D01*
X209682163Y-60660328D01*
X209677179Y-60730020D01*
X209675561Y-60734132D01*
X209674770Y-60736041D01*
X209674769Y-60736043D01*
X209674768Y-60736046D01*
X209653063Y-60807599D01*
X209614699Y-60934067D01*
X209594417Y-61140000D01*
X209614699Y-61345932D01*
X209637257Y-61420296D01*
X209674768Y-61543954D01*
X209772315Y-61726450D01*
X209772316Y-61726451D01*
X209775187Y-61731822D01*
X209774062Y-61732422D01*
X209792960Y-61792781D01*
X209774474Y-61860161D01*
X209722494Y-61906850D01*
X209653524Y-61918025D01*
X209589461Y-61890138D01*
X209581299Y-61882673D01*
X207048163Y-59349537D01*
X207048162Y-59349536D01*
X207048161Y-59349535D01*
X207011049Y-59328108D01*
X206973939Y-59306682D01*
X206932545Y-59295591D01*
X206891152Y-59284500D01*
X206891151Y-59284500D01*
X206431575Y-59284500D01*
X206364536Y-59264815D01*
X206329525Y-59230940D01*
X206326455Y-59226492D01*
X206268183Y-59142071D01*
X206140852Y-59029266D01*
X206140849Y-59029263D01*
X205990226Y-58950210D01*
X205825056Y-58909500D01*
X205654944Y-58909500D01*
X205489773Y-58950210D01*
X205339150Y-59029263D01*
X205211816Y-59142072D01*
X205115182Y-59282068D01*
X205054860Y-59441125D01*
X205054859Y-59441130D01*
X205034355Y-59610000D01*
X205054859Y-59778869D01*
X205054860Y-59778874D01*
X205115182Y-59937931D01*
X205156320Y-59997528D01*
X205211817Y-60077929D01*
X205315619Y-60169889D01*
X205339150Y-60190736D01*
X205384223Y-60214392D01*
X205434436Y-60262977D01*
X205450410Y-60330996D01*
X205427075Y-60396853D01*
X205408825Y-60417002D01*
X205391818Y-60432068D01*
X205295182Y-60572068D01*
X205234860Y-60731125D01*
X205234859Y-60731130D01*
X205214355Y-60900000D01*
X205234859Y-61068869D01*
X205234860Y-61068874D01*
X205295182Y-61227931D01*
X205357475Y-61318177D01*
X205391817Y-61367929D01*
X205519148Y-61480734D01*
X205519150Y-61480735D01*
X205519454Y-61480895D01*
X205519636Y-61481071D01*
X205525322Y-61484996D01*
X205524669Y-61485941D01*
X205569667Y-61529479D01*
X205585643Y-61597497D01*
X205562309Y-61663355D01*
X205544059Y-61683506D01*
X205511817Y-61712070D01*
X205415182Y-61852068D01*
X205354860Y-62011125D01*
X205354859Y-62011130D01*
X205334355Y-62180000D01*
X205354859Y-62348869D01*
X205354860Y-62348874D01*
X205415182Y-62507931D01*
X205460984Y-62574285D01*
X205511816Y-62647928D01*
X205511818Y-62647930D01*
X205638702Y-62760340D01*
X205675829Y-62819529D01*
X205675061Y-62889395D01*
X205638706Y-62945967D01*
X205631817Y-62952069D01*
X205535182Y-63092068D01*
X205474860Y-63251125D01*
X205474859Y-63251130D01*
X205454355Y-63420000D01*
X205474859Y-63588869D01*
X205474860Y-63588874D01*
X205535182Y-63747931D01*
X205582634Y-63816676D01*
X205631817Y-63887929D01*
X205703599Y-63951522D01*
X205759150Y-64000736D01*
X205888447Y-64068596D01*
X205909775Y-64079790D01*
X206074944Y-64120500D01*
X206245058Y-64120500D01*
X206245058Y-64120499D01*
X206301595Y-64106564D01*
X206371396Y-64109631D01*
X206418952Y-64139279D01*
X215299534Y-73019861D01*
X215299535Y-73019862D01*
X215360138Y-73080465D01*
X215360140Y-73080466D01*
X215360144Y-73080469D01*
X215434355Y-73123314D01*
X215434362Y-73123318D01*
X215517147Y-73145500D01*
X220223811Y-73145500D01*
X220290850Y-73165185D01*
X220311492Y-73181819D01*
X220707300Y-73577626D01*
X220740785Y-73638949D01*
X220736152Y-73703723D01*
X220736655Y-73703847D01*
X220735934Y-73706768D01*
X220735801Y-73708640D01*
X220735564Y-73709270D01*
X220734861Y-73711121D01*
X220734859Y-73711130D01*
X220714355Y-73880000D01*
X220734859Y-74048869D01*
X220734860Y-74048874D01*
X220795182Y-74207931D01*
X220814203Y-74235487D01*
X220891817Y-74347929D01*
X220991450Y-74436196D01*
X221019150Y-74460736D01*
X221169773Y-74539789D01*
X221169775Y-74539790D01*
X221334944Y-74580500D01*
X221505056Y-74580500D01*
X221670225Y-74539790D01*
X221749692Y-74498081D01*
X221820849Y-74460736D01*
X221820850Y-74460734D01*
X221820852Y-74460734D01*
X221948183Y-74347929D01*
X222044818Y-74207930D01*
X222105140Y-74048872D01*
X222125645Y-73880000D01*
X222105140Y-73711128D01*
X222104196Y-73708640D01*
X222052313Y-73571833D01*
X222044818Y-73552070D01*
X222041387Y-73547100D01*
X221995578Y-73480734D01*
X221948183Y-73412071D01*
X221820852Y-73299266D01*
X221820849Y-73299263D01*
X221670226Y-73220210D01*
X221505056Y-73179500D01*
X221334944Y-73179500D01*
X221334941Y-73179500D01*
X221318514Y-73183549D01*
X221248712Y-73180479D01*
X221201160Y-73150833D01*
X220609864Y-72559537D01*
X220609862Y-72559535D01*
X220572750Y-72538108D01*
X220535640Y-72516682D01*
X220494246Y-72505591D01*
X220452853Y-72494500D01*
X220452852Y-72494500D01*
X215746189Y-72494500D01*
X215679150Y-72474815D01*
X215658508Y-72458181D01*
X206881775Y-63681448D01*
X206848290Y-63620125D01*
X206846360Y-63578823D01*
X206865645Y-63420000D01*
X206845140Y-63251128D01*
X206784818Y-63092070D01*
X206763880Y-63061737D01*
X206748046Y-63038797D01*
X206688183Y-62952071D01*
X206681293Y-62945967D01*
X206561297Y-62839659D01*
X206524170Y-62780470D01*
X206524938Y-62710604D01*
X206561299Y-62654027D01*
X206568183Y-62647929D01*
X206629525Y-62559059D01*
X206683808Y-62515070D01*
X206731575Y-62505500D01*
X207959318Y-62505500D01*
X208026357Y-62525185D01*
X208046999Y-62541819D01*
X217385645Y-71880465D01*
X217459868Y-71923318D01*
X217542654Y-71945500D01*
X217542656Y-71945500D01*
X221282851Y-71945500D01*
X221282853Y-71945500D01*
X221365639Y-71923318D01*
X221439862Y-71880465D01*
X222634889Y-70685436D01*
X222696210Y-70651953D01*
X222752242Y-70652721D01*
X222864944Y-70680500D01*
X223035056Y-70680500D01*
X223200225Y-70639790D01*
X223312782Y-70580715D01*
X223350849Y-70560736D01*
X223350850Y-70560734D01*
X223350852Y-70560734D01*
X223478183Y-70447929D01*
X223574818Y-70307930D01*
X223635140Y-70148872D01*
X223655645Y-69980000D01*
X223635140Y-69811128D01*
X223624292Y-69782525D01*
X223574817Y-69652068D01*
X223517660Y-69569263D01*
X223478183Y-69512071D01*
X223371036Y-69417147D01*
X223350849Y-69399263D01*
X223200226Y-69320210D01*
X223035056Y-69279500D01*
X222864944Y-69279500D01*
X222699774Y-69320209D01*
X222611772Y-69366397D01*
X222543264Y-69380121D01*
X222478211Y-69354629D01*
X222437267Y-69298013D01*
X222433432Y-69228249D01*
X222438201Y-69212639D01*
X222485140Y-69088872D01*
X222505645Y-68920000D01*
X222485140Y-68751128D01*
X222424818Y-68592070D01*
X222328183Y-68452071D01*
X222200852Y-68339266D01*
X222200849Y-68339263D01*
X222050226Y-68260210D01*
X221885056Y-68219500D01*
X221714944Y-68219500D01*
X221549773Y-68260210D01*
X221399150Y-68339263D01*
X221271816Y-68452072D01*
X221189767Y-68570940D01*
X221135484Y-68614931D01*
X221087717Y-68624500D01*
X216374487Y-68624500D01*
X216307448Y-68604815D01*
X216286806Y-68588181D01*
X209907326Y-62208700D01*
X209873841Y-62147377D01*
X209878825Y-62077685D01*
X209920697Y-62021752D01*
X209986161Y-61997335D01*
X210054434Y-62012187D01*
X210063239Y-62017518D01*
X210063547Y-62017682D01*
X210063550Y-62017685D01*
X210246046Y-62115232D01*
X210444066Y-62175300D01*
X210444065Y-62175300D01*
X210462529Y-62177118D01*
X210650000Y-62195583D01*
X210855934Y-62175300D01*
X211053954Y-62115232D01*
X211236450Y-62017685D01*
X211396410Y-61886410D01*
X211527685Y-61726450D01*
X211625232Y-61543954D01*
X211685300Y-61345934D01*
X211705583Y-61140000D01*
X212134417Y-61140000D01*
X212154699Y-61345932D01*
X212177257Y-61420296D01*
X212214768Y-61543954D01*
X212312315Y-61726450D01*
X212346969Y-61768677D01*
X212443589Y-61886410D01*
X212521470Y-61950324D01*
X212603550Y-62017685D01*
X212786046Y-62115232D01*
X212984066Y-62175300D01*
X212984065Y-62175300D01*
X213002529Y-62177118D01*
X213190000Y-62195583D01*
X213395934Y-62175300D01*
X213593954Y-62115232D01*
X213776450Y-62017685D01*
X213936410Y-61886410D01*
X214067685Y-61726450D01*
X214165232Y-61543954D01*
X214225300Y-61345934D01*
X214245583Y-61140000D01*
X214225300Y-60934066D01*
X214165232Y-60736046D01*
X214067685Y-60553550D01*
X213974536Y-60440047D01*
X213936410Y-60393589D01*
X213810825Y-60290526D01*
X213776450Y-60262315D01*
X213593954Y-60164768D01*
X213395934Y-60104700D01*
X213395932Y-60104699D01*
X213395934Y-60104699D01*
X213190000Y-60084417D01*
X212984067Y-60104699D01*
X212830932Y-60151152D01*
X212786050Y-60164767D01*
X212786043Y-60164769D01*
X212693207Y-60214392D01*
X212603550Y-60262315D01*
X212603548Y-60262316D01*
X212603547Y-60262317D01*
X212443589Y-60393589D01*
X212312317Y-60553547D01*
X212312315Y-60553550D01*
X212302415Y-60572072D01*
X212214769Y-60736043D01*
X212154699Y-60934067D01*
X212134417Y-61140000D01*
X211705583Y-61140000D01*
X211685300Y-60934066D01*
X211625232Y-60736046D01*
X211527685Y-60553550D01*
X211434536Y-60440047D01*
X211396410Y-60393589D01*
X211270825Y-60290526D01*
X211236450Y-60262315D01*
X211053954Y-60164768D01*
X210987447Y-60144593D01*
X210929009Y-60106296D01*
X210900553Y-60042484D01*
X210911113Y-59973417D01*
X210957337Y-59921023D01*
X210991350Y-59906158D01*
X211113483Y-59873433D01*
X211113492Y-59873429D01*
X211327578Y-59773600D01*
X211327582Y-59773598D01*
X211411373Y-59714926D01*
X211411373Y-59714925D01*
X210779409Y-59082962D01*
X210842993Y-59065925D01*
X210957007Y-59000099D01*
X211050099Y-58907007D01*
X211115925Y-58792993D01*
X211132962Y-58729410D01*
X211764925Y-59361373D01*
X211764926Y-59361373D01*
X211823598Y-59277582D01*
X211823601Y-59277577D01*
X211923429Y-59063492D01*
X211923433Y-59063483D01*
X211956158Y-58941350D01*
X211992522Y-58881690D01*
X212055369Y-58851160D01*
X212124745Y-58859454D01*
X212178623Y-58903939D01*
X212194593Y-58937447D01*
X212214768Y-59003954D01*
X212312315Y-59186450D01*
X212345176Y-59226492D01*
X212443589Y-59346410D01*
X212540209Y-59425702D01*
X212603550Y-59477685D01*
X212786046Y-59575232D01*
X212984066Y-59635300D01*
X212984065Y-59635300D01*
X213002529Y-59637118D01*
X213190000Y-59655583D01*
X213395934Y-59635300D01*
X213593954Y-59575232D01*
X213776450Y-59477685D01*
X213936410Y-59346410D01*
X214067685Y-59186450D01*
X214165232Y-59003954D01*
X214185406Y-58937446D01*
X214223702Y-58879010D01*
X214287514Y-58850553D01*
X214356581Y-58861112D01*
X214408975Y-58907336D01*
X214423841Y-58941349D01*
X214456567Y-59063486D01*
X214456570Y-59063492D01*
X214556399Y-59277577D01*
X214556402Y-59277583D01*
X214615072Y-59361373D01*
X214615073Y-59361373D01*
X215247037Y-58729409D01*
X215264075Y-58792993D01*
X215329901Y-58907007D01*
X215422993Y-59000099D01*
X215537007Y-59065925D01*
X215600590Y-59082962D01*
X214968625Y-59714925D01*
X215052421Y-59773599D01*
X215266507Y-59873429D01*
X215266516Y-59873433D01*
X215388649Y-59906158D01*
X215448310Y-59942523D01*
X215478839Y-60005369D01*
X215470545Y-60074745D01*
X215426059Y-60128623D01*
X215392552Y-60144593D01*
X215326046Y-60164767D01*
X215223701Y-60219473D01*
X215143550Y-60262315D01*
X215143548Y-60262316D01*
X215143547Y-60262317D01*
X214983589Y-60393589D01*
X214852317Y-60553547D01*
X214852315Y-60553550D01*
X214842415Y-60572072D01*
X214754769Y-60736043D01*
X214694699Y-60934067D01*
X214674417Y-61140000D01*
X214694699Y-61345932D01*
X214717257Y-61420296D01*
X214754768Y-61543954D01*
X214852315Y-61726450D01*
X214886969Y-61768677D01*
X214983589Y-61886410D01*
X215061470Y-61950324D01*
X215143550Y-62017685D01*
X215326046Y-62115232D01*
X215524066Y-62175300D01*
X215524065Y-62175300D01*
X215542529Y-62177118D01*
X215730000Y-62195583D01*
X215935934Y-62175300D01*
X216133954Y-62115232D01*
X216316450Y-62017685D01*
X216476410Y-61886410D01*
X216607685Y-61726450D01*
X216705232Y-61543954D01*
X216765300Y-61345934D01*
X216785583Y-61140000D01*
X216765300Y-60934066D01*
X216705232Y-60736046D01*
X216607685Y-60553550D01*
X216514536Y-60440047D01*
X216476410Y-60393589D01*
X216350825Y-60290526D01*
X216316450Y-60262315D01*
X216133954Y-60164768D01*
X216067447Y-60144593D01*
X216009009Y-60106296D01*
X215980553Y-60042484D01*
X215991113Y-59973417D01*
X216037337Y-59921023D01*
X216071350Y-59906158D01*
X216193483Y-59873433D01*
X216193492Y-59873429D01*
X216407578Y-59773600D01*
X216407582Y-59773598D01*
X216491373Y-59714926D01*
X216491373Y-59714925D01*
X215859409Y-59082962D01*
X215922993Y-59065925D01*
X216037007Y-59000099D01*
X216130099Y-58907007D01*
X216195925Y-58792993D01*
X216212962Y-58729409D01*
X216844925Y-59361373D01*
X216898425Y-59284968D01*
X216953002Y-59241344D01*
X217022501Y-59234151D01*
X217084855Y-59265673D01*
X217101576Y-59284969D01*
X217155073Y-59361372D01*
X217787037Y-58729409D01*
X217804075Y-58792993D01*
X217869901Y-58907007D01*
X217962993Y-59000099D01*
X218077007Y-59065925D01*
X218140590Y-59082962D01*
X217508625Y-59714925D01*
X217592421Y-59773599D01*
X217806507Y-59873429D01*
X217806516Y-59873433D01*
X217928649Y-59906158D01*
X217988310Y-59942523D01*
X218018839Y-60005369D01*
X218010545Y-60074745D01*
X217966059Y-60128623D01*
X217932552Y-60144593D01*
X217866046Y-60164767D01*
X217763701Y-60219473D01*
X217683550Y-60262315D01*
X217683548Y-60262316D01*
X217683547Y-60262317D01*
X217523589Y-60393589D01*
X217392317Y-60553547D01*
X217392315Y-60553550D01*
X217382415Y-60572072D01*
X217294769Y-60736043D01*
X217234699Y-60934067D01*
X217214417Y-61140000D01*
X217234699Y-61345932D01*
X217257257Y-61420296D01*
X217294768Y-61543954D01*
X217392315Y-61726450D01*
X217426969Y-61768677D01*
X217523589Y-61886410D01*
X217601470Y-61950324D01*
X217683550Y-62017685D01*
X217866046Y-62115232D01*
X218064066Y-62175300D01*
X218064065Y-62175300D01*
X218082529Y-62177118D01*
X218270000Y-62195583D01*
X218475934Y-62175300D01*
X218673954Y-62115232D01*
X218856450Y-62017685D01*
X219016410Y-61886410D01*
X219147685Y-61726450D01*
X219245232Y-61543954D01*
X219305300Y-61345934D01*
X219325583Y-61140000D01*
X219754417Y-61140000D01*
X219774699Y-61345932D01*
X219797257Y-61420296D01*
X219834768Y-61543954D01*
X219932315Y-61726450D01*
X219966969Y-61768677D01*
X220063589Y-61886410D01*
X220141470Y-61950324D01*
X220223550Y-62017685D01*
X220406046Y-62115232D01*
X220604066Y-62175300D01*
X220604065Y-62175300D01*
X220622529Y-62177118D01*
X220810000Y-62195583D01*
X221015934Y-62175300D01*
X221213954Y-62115232D01*
X221396450Y-62017685D01*
X221556410Y-61886410D01*
X221687685Y-61726450D01*
X221785232Y-61543954D01*
X221845300Y-61345934D01*
X221865583Y-61140000D01*
X221845300Y-60934066D01*
X221785232Y-60736046D01*
X221687685Y-60553550D01*
X221594536Y-60440047D01*
X221556410Y-60393589D01*
X221430825Y-60290526D01*
X221396450Y-60262315D01*
X221213954Y-60164768D01*
X221015934Y-60104700D01*
X221015932Y-60104699D01*
X221015934Y-60104699D01*
X220810000Y-60084417D01*
X220604067Y-60104699D01*
X220450932Y-60151152D01*
X220406050Y-60164767D01*
X220406043Y-60164769D01*
X220313207Y-60214392D01*
X220223550Y-60262315D01*
X220223548Y-60262316D01*
X220223547Y-60262317D01*
X220063589Y-60393589D01*
X219932317Y-60553547D01*
X219932315Y-60553550D01*
X219922415Y-60572072D01*
X219834769Y-60736043D01*
X219774699Y-60934067D01*
X219754417Y-61140000D01*
X219325583Y-61140000D01*
X219305300Y-60934066D01*
X219245232Y-60736046D01*
X219147685Y-60553550D01*
X219054536Y-60440047D01*
X219016410Y-60393589D01*
X218890825Y-60290526D01*
X218856450Y-60262315D01*
X218673954Y-60164768D01*
X218607447Y-60144593D01*
X218549009Y-60106296D01*
X218520553Y-60042484D01*
X218531113Y-59973417D01*
X218577337Y-59921023D01*
X218611350Y-59906158D01*
X218733483Y-59873433D01*
X218733492Y-59873429D01*
X218947578Y-59773600D01*
X218947582Y-59773598D01*
X219031373Y-59714926D01*
X219031373Y-59714925D01*
X218399409Y-59082962D01*
X218462993Y-59065925D01*
X218577007Y-59000099D01*
X218670099Y-58907007D01*
X218735925Y-58792993D01*
X218752962Y-58729410D01*
X219384925Y-59361373D01*
X219384926Y-59361373D01*
X219443598Y-59277582D01*
X219443601Y-59277577D01*
X219523118Y-59107052D01*
X219569290Y-59054613D01*
X219636484Y-59035461D01*
X219703365Y-59055677D01*
X219748699Y-59108842D01*
X219759500Y-59159457D01*
X219759500Y-59254269D01*
X219762353Y-59284699D01*
X219762353Y-59284701D01*
X219807206Y-59412880D01*
X219807207Y-59412882D01*
X219887850Y-59522150D01*
X219997118Y-59602793D01*
X220017715Y-59610000D01*
X220125299Y-59647646D01*
X220155730Y-59650500D01*
X220155734Y-59650500D01*
X221348811Y-59650500D01*
X221415850Y-59670185D01*
X221436492Y-59686819D01*
X222528181Y-60778508D01*
X222561666Y-60839831D01*
X222564500Y-60866189D01*
X222564500Y-65970500D01*
X222544815Y-66037539D01*
X222492011Y-66083294D01*
X222440500Y-66094500D01*
X222389995Y-66094500D01*
X222344271Y-66099651D01*
X222261873Y-66139333D01*
X222204851Y-66210836D01*
X222184500Y-66299995D01*
X222184500Y-67800004D01*
X222189651Y-67845728D01*
X222229333Y-67928126D01*
X222229334Y-67928127D01*
X222300837Y-67985149D01*
X222367428Y-68000348D01*
X222389995Y-68005499D01*
X222390000Y-68005500D01*
X223539996Y-68005500D01*
X223540000Y-68005500D01*
X223613085Y-67992065D01*
X223618025Y-67988771D01*
X223684722Y-67967962D01*
X223740612Y-67980225D01*
X223750835Y-67985148D01*
X223750836Y-67985148D01*
X223750837Y-67985149D01*
X223817428Y-68000348D01*
X223839995Y-68005499D01*
X223840000Y-68005500D01*
X223890500Y-68005500D01*
X223957539Y-68025185D01*
X224003294Y-68077989D01*
X224014500Y-68129500D01*
X224014500Y-71153810D01*
X223994815Y-71220849D01*
X223978181Y-71241491D01*
X223038952Y-72180719D01*
X222977629Y-72214204D01*
X222921598Y-72213435D01*
X222865059Y-72199500D01*
X222865056Y-72199500D01*
X222694944Y-72199500D01*
X222529773Y-72240210D01*
X222379150Y-72319263D01*
X222251816Y-72432072D01*
X222155182Y-72572068D01*
X222094860Y-72731125D01*
X222094859Y-72731130D01*
X222074355Y-72900000D01*
X222094859Y-73068869D01*
X222094860Y-73068874D01*
X222155182Y-73227931D01*
X222204420Y-73299263D01*
X222251817Y-73367929D01*
X222357505Y-73461560D01*
X222379150Y-73480736D01*
X222515062Y-73552068D01*
X222529775Y-73559790D01*
X222694944Y-73600500D01*
X222865056Y-73600500D01*
X223030225Y-73559790D01*
X223109692Y-73518081D01*
X223180849Y-73480736D01*
X223180850Y-73480734D01*
X223180852Y-73480734D01*
X223308183Y-73367929D01*
X223404818Y-73227930D01*
X223465140Y-73068872D01*
X223485645Y-72900000D01*
X223466360Y-72741176D01*
X223477820Y-72672254D01*
X223501772Y-72638553D01*
X224600465Y-71539862D01*
X224643318Y-71465639D01*
X224665500Y-71382853D01*
X224665500Y-71297147D01*
X224665500Y-68129500D01*
X224685185Y-68062461D01*
X224737989Y-68016706D01*
X224789500Y-68005500D01*
X224840003Y-68005500D01*
X224840003Y-68005499D01*
X224885728Y-68000348D01*
X224968127Y-67960666D01*
X225025149Y-67889163D01*
X225045500Y-67800000D01*
X225045500Y-66300000D01*
X225040348Y-66254272D01*
X225039880Y-66253301D01*
X225000666Y-66171873D01*
X224929163Y-66114851D01*
X224840004Y-66094500D01*
X224840000Y-66094500D01*
X224789500Y-66094500D01*
X224722461Y-66074815D01*
X224676706Y-66022011D01*
X224665500Y-65970500D01*
X224665500Y-59887149D01*
X224665500Y-59887147D01*
X224643318Y-59804362D01*
X224643318Y-59804361D01*
X224600465Y-59730138D01*
X222034862Y-57164535D01*
X221997750Y-57143108D01*
X221960640Y-57121682D01*
X221919246Y-57110591D01*
X221877853Y-57099500D01*
X221877852Y-57099500D01*
X221116189Y-57099500D01*
X221049150Y-57079815D01*
X221028508Y-57063181D01*
X217707508Y-53742181D01*
X217674023Y-53680858D01*
X217679007Y-53611166D01*
X217720879Y-53555233D01*
X217786343Y-53530816D01*
X217795189Y-53530500D01*
X219394750Y-53530500D01*
X219394751Y-53530499D01*
X219409568Y-53527552D01*
X219453229Y-53518868D01*
X219453229Y-53518867D01*
X219453231Y-53518867D01*
X219519552Y-53474552D01*
X219563867Y-53408231D01*
X219563867Y-53408229D01*
X219563868Y-53408229D01*
X219575499Y-53349752D01*
X219575500Y-53349750D01*
X219575500Y-51610249D01*
X219575499Y-51610247D01*
X219563868Y-51551770D01*
X219563867Y-51551769D01*
X219519552Y-51485447D01*
X219453230Y-51441132D01*
X219453229Y-51441131D01*
X219394752Y-51429500D01*
X219394748Y-51429500D01*
X217655252Y-51429500D01*
X217655247Y-51429500D01*
X217596770Y-51441131D01*
X217596769Y-51441132D01*
X217530447Y-51485447D01*
X217486132Y-51551769D01*
X217486131Y-51551770D01*
X217474500Y-51610247D01*
X217474500Y-53209811D01*
X217454815Y-53276850D01*
X217402011Y-53322605D01*
X217332853Y-53332549D01*
X217269297Y-53303524D01*
X217262819Y-53297492D01*
X216986321Y-53020994D01*
X216952836Y-52959671D01*
X216957820Y-52889979D01*
X216959448Y-52885843D01*
X216960223Y-52883969D01*
X216960232Y-52883954D01*
X217020300Y-52685934D01*
X217040583Y-52480000D01*
X217020300Y-52274066D01*
X216960232Y-52076046D01*
X216862685Y-51893550D01*
X216810702Y-51830209D01*
X216731410Y-51733589D01*
X216598227Y-51624290D01*
X216571450Y-51602315D01*
X216388954Y-51504768D01*
X216190934Y-51444700D01*
X216190932Y-51444699D01*
X216190934Y-51444699D01*
X215985000Y-51424417D01*
X215779067Y-51444699D01*
X215581043Y-51504769D01*
X215493114Y-51551769D01*
X215398550Y-51602315D01*
X215398548Y-51602316D01*
X215398547Y-51602317D01*
X215238589Y-51733589D01*
X215108650Y-51891923D01*
X215107315Y-51893550D01*
X215094460Y-51917600D01*
X215009769Y-52076043D01*
X214949699Y-52274067D01*
X214929417Y-52480000D01*
X214949699Y-52685932D01*
X214979734Y-52784944D01*
X215009768Y-52883954D01*
X215107315Y-53066450D01*
X215130547Y-53094758D01*
X215238589Y-53226410D01*
X215302496Y-53278856D01*
X215398550Y-53357685D01*
X215581046Y-53455232D01*
X215779066Y-53515300D01*
X215779065Y-53515300D01*
X215797529Y-53517118D01*
X215985000Y-53535583D01*
X216190934Y-53515300D01*
X216388954Y-53455232D01*
X216388969Y-53455223D01*
X216390843Y-53454448D01*
X216391918Y-53454332D01*
X216394784Y-53453463D01*
X216394948Y-53454005D01*
X216460311Y-53446969D01*
X216522795Y-53478234D01*
X216525994Y-53481321D01*
X220382492Y-57337819D01*
X220415977Y-57399142D01*
X220410993Y-57468834D01*
X220369121Y-57524767D01*
X220303657Y-57549184D01*
X220294811Y-57549500D01*
X220155730Y-57549500D01*
X220125300Y-57552353D01*
X220125298Y-57552353D01*
X219997119Y-57597206D01*
X219997117Y-57597207D01*
X219887850Y-57677850D01*
X219807207Y-57787117D01*
X219807206Y-57787119D01*
X219762353Y-57915298D01*
X219762353Y-57915300D01*
X219759500Y-57945730D01*
X219759500Y-58040543D01*
X219739815Y-58107582D01*
X219687011Y-58153337D01*
X219617853Y-58163281D01*
X219554297Y-58134256D01*
X219523118Y-58092948D01*
X219443600Y-57922423D01*
X219443599Y-57922421D01*
X219384925Y-57838626D01*
X219384925Y-57838625D01*
X218752962Y-58470588D01*
X218735925Y-58407007D01*
X218670099Y-58292993D01*
X218577007Y-58199901D01*
X218462993Y-58134075D01*
X218399410Y-58117037D01*
X219031373Y-57485073D01*
X219031373Y-57485072D01*
X218947583Y-57426402D01*
X218947579Y-57426400D01*
X218733492Y-57326570D01*
X218733483Y-57326566D01*
X218505326Y-57265432D01*
X218505315Y-57265430D01*
X218270002Y-57244843D01*
X218269998Y-57244843D01*
X218034684Y-57265430D01*
X218034673Y-57265432D01*
X217806516Y-57326566D01*
X217806507Y-57326570D01*
X217592419Y-57426401D01*
X217508625Y-57485072D01*
X218140590Y-58117037D01*
X218077007Y-58134075D01*
X217962993Y-58199901D01*
X217869901Y-58292993D01*
X217804075Y-58407007D01*
X217787037Y-58470590D01*
X217155072Y-57838625D01*
X217155072Y-57838626D01*
X217101574Y-57915030D01*
X217046998Y-57958655D01*
X216977499Y-57965849D01*
X216915144Y-57934326D01*
X216898424Y-57915030D01*
X216844925Y-57838626D01*
X216844925Y-57838625D01*
X216212962Y-58470589D01*
X216195925Y-58407007D01*
X216130099Y-58292993D01*
X216037007Y-58199901D01*
X215922993Y-58134075D01*
X215859410Y-58117037D01*
X216491373Y-57485073D01*
X216491373Y-57485072D01*
X216407583Y-57426402D01*
X216407579Y-57426400D01*
X216193492Y-57326570D01*
X216193483Y-57326566D01*
X215965326Y-57265432D01*
X215965315Y-57265430D01*
X215730002Y-57244843D01*
X215729998Y-57244843D01*
X215494684Y-57265430D01*
X215494673Y-57265432D01*
X215266516Y-57326566D01*
X215266507Y-57326570D01*
X215052419Y-57426401D01*
X214968625Y-57485072D01*
X215600590Y-58117037D01*
X215537007Y-58134075D01*
X215422993Y-58199901D01*
X215329901Y-58292993D01*
X215264075Y-58407007D01*
X215247037Y-58470589D01*
X214615073Y-57838625D01*
X214615072Y-57838625D01*
X214556401Y-57922419D01*
X214456570Y-58136507D01*
X214456567Y-58136514D01*
X214423841Y-58258650D01*
X214387476Y-58318310D01*
X214324629Y-58348839D01*
X214255253Y-58340544D01*
X214201375Y-58296059D01*
X214185406Y-58262552D01*
X214165232Y-58196046D01*
X214067685Y-58013550D01*
X214002668Y-57934326D01*
X213936410Y-57853589D01*
X213776452Y-57722317D01*
X213776453Y-57722317D01*
X213776450Y-57722315D01*
X213593954Y-57624768D01*
X213395934Y-57564700D01*
X213395932Y-57564699D01*
X213395934Y-57564699D01*
X213190000Y-57544417D01*
X212984067Y-57564699D01*
X212786043Y-57624769D01*
X212742395Y-57648100D01*
X212603550Y-57722315D01*
X212603548Y-57722316D01*
X212603547Y-57722317D01*
X212443589Y-57853589D01*
X212312317Y-58013547D01*
X212214767Y-58196046D01*
X212194593Y-58262552D01*
X212156296Y-58320990D01*
X212092483Y-58349447D01*
X212023416Y-58338886D01*
X211971023Y-58292661D01*
X211956158Y-58258649D01*
X211923433Y-58136516D01*
X211923429Y-58136507D01*
X211823600Y-57922423D01*
X211823599Y-57922421D01*
X211764925Y-57838626D01*
X211764925Y-57838625D01*
X211132962Y-58470588D01*
X211115925Y-58407007D01*
X211050099Y-58292993D01*
X210957007Y-58199901D01*
X210842993Y-58134075D01*
X210779410Y-58117037D01*
X211411373Y-57485073D01*
X211411373Y-57485072D01*
X211327583Y-57426402D01*
X211327579Y-57426400D01*
X211113492Y-57326570D01*
X211113483Y-57326566D01*
X210885326Y-57265432D01*
X210885315Y-57265430D01*
X210650002Y-57244843D01*
X210649998Y-57244843D01*
X210414684Y-57265430D01*
X210414673Y-57265432D01*
X210186516Y-57326566D01*
X210186507Y-57326570D01*
X209972419Y-57426401D01*
X209888625Y-57485072D01*
X210520590Y-58117037D01*
X210457007Y-58134075D01*
X210342993Y-58199901D01*
X210249901Y-58292993D01*
X210184075Y-58407007D01*
X210167037Y-58470590D01*
X209535072Y-57838625D01*
X209476401Y-57922419D01*
X209376570Y-58136507D01*
X209376566Y-58136516D01*
X209315432Y-58364673D01*
X209315430Y-58364684D01*
X209294843Y-58599998D01*
X209294843Y-58600001D01*
X209315430Y-58835315D01*
X209315432Y-58835326D01*
X209376566Y-59063483D01*
X209376570Y-59063493D01*
X209378844Y-59068370D01*
X209389333Y-59137448D01*
X209360811Y-59201231D01*
X209302333Y-59239469D01*
X209232466Y-59240020D01*
X209178779Y-59208452D01*
X205264375Y-55294048D01*
X205230890Y-55232725D01*
X205228068Y-55204669D01*
X205230567Y-55022283D01*
X205255960Y-53168556D01*
X205276561Y-53101793D01*
X205322323Y-53060458D01*
X205340852Y-53050734D01*
X205468183Y-52937929D01*
X205564818Y-52797930D01*
X205605750Y-52690000D01*
X207074417Y-52690000D01*
X207094699Y-52895932D01*
X207113065Y-52956475D01*
X207154768Y-53093954D01*
X207252315Y-53276450D01*
X207254290Y-53278856D01*
X207383589Y-53436410D01*
X207441151Y-53483649D01*
X207543550Y-53567685D01*
X207726046Y-53665232D01*
X207924066Y-53725300D01*
X207924065Y-53725300D01*
X207940138Y-53726883D01*
X208130000Y-53745583D01*
X208335934Y-53725300D01*
X208533954Y-53665232D01*
X208716450Y-53567685D01*
X208726116Y-53559752D01*
X209619500Y-53559752D01*
X209631131Y-53618229D01*
X209631132Y-53618230D01*
X209675447Y-53684552D01*
X209741769Y-53728867D01*
X209741770Y-53728868D01*
X209800247Y-53740499D01*
X209800250Y-53740500D01*
X209800252Y-53740500D01*
X211539750Y-53740500D01*
X211539751Y-53740499D01*
X211554568Y-53737552D01*
X211598229Y-53728868D01*
X211598229Y-53728867D01*
X211598231Y-53728867D01*
X211664552Y-53684552D01*
X211708867Y-53618231D01*
X211708867Y-53618229D01*
X211708868Y-53618229D01*
X211720499Y-53559752D01*
X211720500Y-53559750D01*
X211720500Y-51820249D01*
X211720499Y-51820247D01*
X211708868Y-51761770D01*
X211708867Y-51761769D01*
X211664552Y-51695447D01*
X211598230Y-51651132D01*
X211598229Y-51651131D01*
X211539752Y-51639500D01*
X211539748Y-51639500D01*
X209800252Y-51639500D01*
X209800247Y-51639500D01*
X209741770Y-51651131D01*
X209741769Y-51651132D01*
X209675447Y-51695447D01*
X209631132Y-51761769D01*
X209631131Y-51761770D01*
X209619500Y-51820247D01*
X209619500Y-53559752D01*
X208726116Y-53559752D01*
X208876410Y-53436410D01*
X209007685Y-53276450D01*
X209105232Y-53093954D01*
X209165300Y-52895934D01*
X209185583Y-52690000D01*
X209165300Y-52484066D01*
X209105232Y-52286046D01*
X209007685Y-52103550D01*
X208924404Y-52002071D01*
X208876410Y-51943589D01*
X208758677Y-51846969D01*
X208716450Y-51812315D01*
X208533954Y-51714768D01*
X208335934Y-51654700D01*
X208335932Y-51654699D01*
X208335934Y-51654699D01*
X208130000Y-51634417D01*
X207924067Y-51654699D01*
X207726043Y-51714769D01*
X207615898Y-51773643D01*
X207543550Y-51812315D01*
X207543548Y-51812316D01*
X207543547Y-51812317D01*
X207383589Y-51943589D01*
X207252317Y-52103547D01*
X207252315Y-52103550D01*
X207214286Y-52174696D01*
X207154769Y-52286043D01*
X207094699Y-52484067D01*
X207074417Y-52690000D01*
X205605750Y-52690000D01*
X205625140Y-52638872D01*
X205645645Y-52470000D01*
X205625140Y-52301128D01*
X205622120Y-52293166D01*
X205564817Y-52142068D01*
X205530476Y-52092318D01*
X205468183Y-52002071D01*
X205345688Y-51893550D01*
X205340849Y-51889263D01*
X205190226Y-51810210D01*
X205025056Y-51769500D01*
X204854944Y-51769500D01*
X204689773Y-51810210D01*
X204539150Y-51889263D01*
X204411816Y-52002072D01*
X204315182Y-52142068D01*
X204254860Y-52301125D01*
X204254859Y-52301130D01*
X204234355Y-52470000D01*
X204254859Y-52638869D01*
X204254860Y-52638874D01*
X204315182Y-52797931D01*
X204371436Y-52879428D01*
X204411817Y-52937929D01*
X204539148Y-53050734D01*
X204539149Y-53050734D01*
X204539152Y-53050737D01*
X204545322Y-53054996D01*
X204544517Y-53056161D01*
X204588836Y-53099037D01*
X204604990Y-53161955D01*
X204587662Y-54426884D01*
X204567061Y-54493648D01*
X204513636Y-54538675D01*
X204444347Y-54547671D01*
X204381195Y-54517778D01*
X204375993Y-54512867D01*
X203244611Y-53381485D01*
X203211126Y-53320162D01*
X203209196Y-53278861D01*
X203220278Y-53187600D01*
X203201237Y-53030782D01*
X203145220Y-52883077D01*
X203055483Y-52753070D01*
X202937240Y-52648317D01*
X202928710Y-52643840D01*
X202878498Y-52595255D01*
X202862524Y-52527236D01*
X202885860Y-52461378D01*
X202904111Y-52441228D01*
X203004682Y-52352131D01*
X203028220Y-52318030D01*
X203094420Y-52222123D01*
X203150437Y-52074418D01*
X203169478Y-51917600D01*
X203166558Y-51893547D01*
X203150437Y-51760781D01*
X203125659Y-51695447D01*
X203094420Y-51613077D01*
X203004683Y-51483070D01*
X202944329Y-51429601D01*
X202907204Y-51370414D01*
X202907971Y-51300548D01*
X202946388Y-51242188D01*
X202968932Y-51226990D01*
X202980852Y-51220734D01*
X203108183Y-51107929D01*
X203131561Y-51074059D01*
X203185844Y-51030070D01*
X203233611Y-51020500D01*
X215039932Y-51020500D01*
X215039934Y-51020500D01*
X215122720Y-50998318D01*
X215196943Y-50955465D01*
X219930465Y-46221943D01*
X219943785Y-46198872D01*
X219973318Y-46147719D01*
X219995500Y-46064934D01*
X219995500Y-45910583D01*
X220015185Y-45843544D01*
X220067989Y-45797789D01*
X220072049Y-45796021D01*
X220073945Y-45795234D01*
X220073954Y-45795232D01*
X220256450Y-45697685D01*
X220416410Y-45566410D01*
X220547685Y-45406450D01*
X220645232Y-45223954D01*
X220705300Y-45025934D01*
X220725583Y-44820000D01*
X220705300Y-44614066D01*
X220645232Y-44416046D01*
X220547685Y-44233550D01*
X220489646Y-44162829D01*
X220416410Y-44073589D01*
X220256452Y-43942317D01*
X220256453Y-43942317D01*
X220256450Y-43942315D01*
X220073954Y-43844768D01*
X219875934Y-43784700D01*
X219875932Y-43784699D01*
X219875934Y-43784699D01*
X219670000Y-43764417D01*
X219464067Y-43784699D01*
X219266043Y-43844769D01*
X219170167Y-43896017D01*
X219083550Y-43942315D01*
X219083548Y-43942316D01*
X219083547Y-43942317D01*
X218923589Y-44073590D01*
X218850353Y-44162829D01*
X218792608Y-44202163D01*
X218722763Y-44204034D01*
X218662995Y-44167847D01*
X218632279Y-44105091D01*
X218630500Y-44084164D01*
X218630500Y-43831188D01*
X218650185Y-43764149D01*
X218666819Y-43743507D01*
X218893825Y-43516501D01*
X219129006Y-43281319D01*
X219190327Y-43247836D01*
X219260018Y-43252820D01*
X219264144Y-43254444D01*
X219266041Y-43255230D01*
X219266043Y-43255230D01*
X219266046Y-43255232D01*
X219464066Y-43315300D01*
X219464065Y-43315300D01*
X219482529Y-43317118D01*
X219670000Y-43335583D01*
X219875934Y-43315300D01*
X220073954Y-43255232D01*
X220256450Y-43157685D01*
X220416410Y-43026410D01*
X220547685Y-42866450D01*
X220645232Y-42683954D01*
X220705300Y-42485934D01*
X220725583Y-42280000D01*
X220705300Y-42074066D01*
X220645232Y-41876046D01*
X220547685Y-41693550D01*
X220462918Y-41590260D01*
X220416410Y-41533589D01*
X220298677Y-41436969D01*
X220256450Y-41402315D01*
X220073954Y-41304768D01*
X219875934Y-41244700D01*
X219875932Y-41244699D01*
X219875934Y-41244699D01*
X219670000Y-41224417D01*
X219464067Y-41244699D01*
X219329736Y-41285448D01*
X219279345Y-41300734D01*
X219266043Y-41304769D01*
X219178114Y-41351769D01*
X219083550Y-41402315D01*
X219083548Y-41402316D01*
X219083547Y-41402317D01*
X218923589Y-41533589D01*
X218792317Y-41693547D01*
X218694769Y-41876043D01*
X218634699Y-42074067D01*
X218614417Y-42280000D01*
X218634699Y-42485932D01*
X218694769Y-42683958D01*
X218695561Y-42685869D01*
X218695677Y-42686949D01*
X218696537Y-42689784D01*
X218695999Y-42689947D01*
X218703024Y-42755339D01*
X218671744Y-42817816D01*
X218668677Y-42820994D01*
X218392181Y-43097491D01*
X218330858Y-43130976D01*
X218261167Y-43125992D01*
X218205233Y-43084121D01*
X218180816Y-43018656D01*
X218180500Y-43009810D01*
X218180500Y-41410249D01*
X218180499Y-41410247D01*
X218168868Y-41351770D01*
X218168867Y-41351769D01*
X218124552Y-41285447D01*
X218058230Y-41241132D01*
X218058229Y-41241131D01*
X217999752Y-41229500D01*
X217999748Y-41229500D01*
X216260252Y-41229500D01*
X216260247Y-41229500D01*
X216201770Y-41241131D01*
X216201769Y-41241132D01*
X216135447Y-41285447D01*
X216091132Y-41351769D01*
X216091131Y-41351770D01*
X216079500Y-41410247D01*
X216079500Y-43149752D01*
X216091131Y-43208229D01*
X216091132Y-43208230D01*
X216135447Y-43274552D01*
X216201769Y-43318867D01*
X216201770Y-43318868D01*
X216260247Y-43330499D01*
X216260250Y-43330500D01*
X217895947Y-43330500D01*
X217962986Y-43350185D01*
X218008741Y-43402989D01*
X218018685Y-43472147D01*
X218003335Y-43516497D01*
X218001682Y-43519361D01*
X218001682Y-43519362D01*
X217979500Y-43602147D01*
X217979500Y-43896017D01*
X217959815Y-43963056D01*
X217907011Y-44008811D01*
X217837853Y-44018755D01*
X217776836Y-43991871D01*
X217716453Y-43942317D01*
X217716451Y-43942316D01*
X217716450Y-43942315D01*
X217533954Y-43844768D01*
X217335934Y-43784700D01*
X217335932Y-43784699D01*
X217335934Y-43784699D01*
X217130000Y-43764417D01*
X216924067Y-43784699D01*
X216726043Y-43844769D01*
X216630167Y-43896017D01*
X216543550Y-43942315D01*
X216543548Y-43942316D01*
X216543547Y-43942317D01*
X216383589Y-44073589D01*
X216252317Y-44233547D01*
X216154769Y-44416043D01*
X216094699Y-44614067D01*
X216074417Y-44820000D01*
X216094699Y-45025932D01*
X216094700Y-45025934D01*
X216154768Y-45223954D01*
X216252315Y-45406450D01*
X216280499Y-45440793D01*
X216383589Y-45566410D01*
X216449884Y-45620816D01*
X216543550Y-45697685D01*
X216726046Y-45795232D01*
X216924066Y-45855300D01*
X216924065Y-45855300D01*
X216942529Y-45857118D01*
X217130000Y-45875583D01*
X217335934Y-45855300D01*
X217533954Y-45795232D01*
X217716450Y-45697685D01*
X217776835Y-45648129D01*
X217841145Y-45620816D01*
X217910013Y-45632607D01*
X217961573Y-45679760D01*
X217979500Y-45743982D01*
X217979500Y-46011626D01*
X217959815Y-46078665D01*
X217943181Y-46099307D01*
X215095620Y-48946867D01*
X215034297Y-48980352D01*
X214964605Y-48975368D01*
X214908672Y-48933496D01*
X214891997Y-48903157D01*
X214879978Y-48871466D01*
X214861020Y-48821477D01*
X214771283Y-48691470D01*
X214653040Y-48586717D01*
X214653038Y-48586716D01*
X214653037Y-48586715D01*
X214513165Y-48513303D01*
X214359786Y-48475500D01*
X214359785Y-48475500D01*
X214201815Y-48475500D01*
X214201811Y-48475500D01*
X214152149Y-48487740D01*
X214082347Y-48484670D01*
X214034795Y-48455024D01*
X213021952Y-47442181D01*
X212988467Y-47380858D01*
X212993451Y-47311166D01*
X213035323Y-47255233D01*
X213100787Y-47230816D01*
X213109633Y-47230500D01*
X213576666Y-47230500D01*
X213643705Y-47250185D01*
X213689460Y-47302989D01*
X213692605Y-47310522D01*
X213695239Y-47317466D01*
X213703300Y-47361444D01*
X213703300Y-47435962D01*
X213723779Y-47512388D01*
X213763340Y-47580911D01*
X213819289Y-47636860D01*
X213887812Y-47676421D01*
X213964238Y-47696900D01*
X213964240Y-47696900D01*
X214025281Y-47696900D01*
X214069254Y-47704959D01*
X214073834Y-47706696D01*
X214227214Y-47744500D01*
X214227215Y-47744500D01*
X214385185Y-47744500D01*
X214538565Y-47706696D01*
X214596250Y-47676420D01*
X214678440Y-47633283D01*
X214796683Y-47528530D01*
X214886420Y-47398523D01*
X214942437Y-47250818D01*
X214961478Y-47094000D01*
X214957727Y-47063103D01*
X214942437Y-46937181D01*
X214921192Y-46881164D01*
X214886420Y-46789477D01*
X214796683Y-46659470D01*
X214678440Y-46554717D01*
X214678438Y-46554716D01*
X214678437Y-46554715D01*
X214538565Y-46481303D01*
X214385186Y-46443500D01*
X214385185Y-46443500D01*
X214227215Y-46443500D01*
X214227214Y-46443500D01*
X214073834Y-46481303D01*
X213933962Y-46554714D01*
X213884747Y-46598316D01*
X213821514Y-46628037D01*
X213802520Y-46629500D01*
X205635402Y-46629500D01*
X205568363Y-46609815D01*
X205522608Y-46557011D01*
X205511406Y-46504444D01*
X205547924Y-42216384D01*
X206774500Y-42216384D01*
X206804300Y-42366197D01*
X206804302Y-42366205D01*
X206862759Y-42507334D01*
X206862764Y-42507343D01*
X206947629Y-42634351D01*
X206947632Y-42634355D01*
X207055644Y-42742367D01*
X207055648Y-42742370D01*
X207182656Y-42827235D01*
X207182662Y-42827238D01*
X207182663Y-42827239D01*
X207323795Y-42885698D01*
X207473615Y-42915499D01*
X207473619Y-42915500D01*
X207473620Y-42915500D01*
X207926381Y-42915500D01*
X207926382Y-42915499D01*
X208076205Y-42885698D01*
X208217337Y-42827239D01*
X208344352Y-42742370D01*
X208452370Y-42634352D01*
X208537239Y-42507337D01*
X208595698Y-42366205D01*
X208625499Y-42216384D01*
X211774500Y-42216384D01*
X211804300Y-42366197D01*
X211804302Y-42366205D01*
X211862759Y-42507334D01*
X211862764Y-42507343D01*
X211947629Y-42634351D01*
X211947632Y-42634355D01*
X212055644Y-42742367D01*
X212055648Y-42742370D01*
X212182656Y-42827235D01*
X212182662Y-42827238D01*
X212182663Y-42827239D01*
X212323795Y-42885698D01*
X212473615Y-42915499D01*
X212473619Y-42915500D01*
X212473620Y-42915500D01*
X212926381Y-42915500D01*
X212926382Y-42915499D01*
X213076205Y-42885698D01*
X213217337Y-42827239D01*
X213344352Y-42742370D01*
X213452370Y-42634352D01*
X213537239Y-42507337D01*
X213595698Y-42366205D01*
X213625500Y-42216380D01*
X213625500Y-42063620D01*
X213595698Y-41913795D01*
X213537239Y-41772663D01*
X213537238Y-41772662D01*
X213537235Y-41772656D01*
X213452370Y-41645648D01*
X213452367Y-41645644D01*
X213344355Y-41537632D01*
X213344351Y-41537629D01*
X213217343Y-41452764D01*
X213217334Y-41452759D01*
X213076205Y-41394302D01*
X213076197Y-41394300D01*
X212926384Y-41364500D01*
X212926380Y-41364500D01*
X212473620Y-41364500D01*
X212473615Y-41364500D01*
X212323802Y-41394300D01*
X212323794Y-41394302D01*
X212182665Y-41452759D01*
X212182656Y-41452764D01*
X212055648Y-41537629D01*
X212055644Y-41537632D01*
X211947632Y-41645644D01*
X211947629Y-41645648D01*
X211862764Y-41772656D01*
X211862759Y-41772665D01*
X211804302Y-41913794D01*
X211804300Y-41913802D01*
X211774500Y-42063615D01*
X211774500Y-42216384D01*
X208625499Y-42216384D01*
X208625500Y-42216380D01*
X208625500Y-42063620D01*
X208595698Y-41913795D01*
X208537239Y-41772663D01*
X208537238Y-41772662D01*
X208537235Y-41772656D01*
X208452370Y-41645648D01*
X208452367Y-41645644D01*
X208344355Y-41537632D01*
X208344351Y-41537629D01*
X208217343Y-41452764D01*
X208217334Y-41452759D01*
X208076205Y-41394302D01*
X208076197Y-41394300D01*
X207926384Y-41364500D01*
X207926380Y-41364500D01*
X207473620Y-41364500D01*
X207473615Y-41364500D01*
X207323802Y-41394300D01*
X207323794Y-41394302D01*
X207182665Y-41452759D01*
X207182656Y-41452764D01*
X207055648Y-41537629D01*
X207055644Y-41537632D01*
X206947632Y-41645644D01*
X206947629Y-41645648D01*
X206862764Y-41772656D01*
X206862759Y-41772665D01*
X206804302Y-41913794D01*
X206804300Y-41913802D01*
X206774500Y-42063615D01*
X206774500Y-42216384D01*
X205547924Y-42216384D01*
X205578953Y-38572944D01*
X205599208Y-38506075D01*
X205652400Y-38460771D01*
X205702949Y-38450000D01*
X206009732Y-38450000D01*
X206076771Y-38469685D01*
X206122526Y-38522489D01*
X206132470Y-38591647D01*
X206112834Y-38642891D01*
X206034919Y-38759498D01*
X206034912Y-38759511D01*
X205978343Y-38896082D01*
X205978340Y-38896092D01*
X205949500Y-39041079D01*
X205949500Y-39041082D01*
X205949500Y-39838918D01*
X205949500Y-39838920D01*
X205949499Y-39838920D01*
X205978340Y-39983907D01*
X205978343Y-39983917D01*
X206034912Y-40120488D01*
X206034919Y-40120501D01*
X206117048Y-40243415D01*
X206117051Y-40243419D01*
X206221580Y-40347948D01*
X206221584Y-40347951D01*
X206344498Y-40430080D01*
X206344511Y-40430087D01*
X206481082Y-40486656D01*
X206481087Y-40486658D01*
X206481091Y-40486658D01*
X206481092Y-40486659D01*
X206626079Y-40515500D01*
X206626082Y-40515500D01*
X206773920Y-40515500D01*
X206871462Y-40496096D01*
X206918913Y-40486658D01*
X207055495Y-40430084D01*
X207178416Y-40347951D01*
X207282951Y-40243416D01*
X207365084Y-40120495D01*
X207421658Y-39983913D01*
X207450500Y-39838918D01*
X207450500Y-39041082D01*
X207450500Y-39041079D01*
X207421659Y-38896092D01*
X207421658Y-38896091D01*
X207421658Y-38896087D01*
X207421656Y-38896082D01*
X207365087Y-38759511D01*
X207365080Y-38759498D01*
X207287166Y-38642891D01*
X207266288Y-38576213D01*
X207284773Y-38508833D01*
X207336752Y-38462143D01*
X207390268Y-38450000D01*
X213009732Y-38450000D01*
X213076771Y-38469685D01*
X213122526Y-38522489D01*
X213132470Y-38591647D01*
X213112834Y-38642891D01*
X213034919Y-38759498D01*
X213034912Y-38759511D01*
X212978343Y-38896082D01*
X212978340Y-38896092D01*
X212949500Y-39041079D01*
X212949500Y-39041082D01*
X212949500Y-39838918D01*
X212949500Y-39838920D01*
X212949499Y-39838920D01*
X212978340Y-39983907D01*
X212978343Y-39983917D01*
X213034912Y-40120488D01*
X213034919Y-40120501D01*
X213117048Y-40243415D01*
X213117051Y-40243419D01*
X213221580Y-40347948D01*
X213221584Y-40347951D01*
X213344498Y-40430080D01*
X213344511Y-40430087D01*
X213481082Y-40486656D01*
X213481087Y-40486658D01*
X213481091Y-40486658D01*
X213481092Y-40486659D01*
X213626079Y-40515500D01*
X213626082Y-40515500D01*
X213773920Y-40515500D01*
X213871462Y-40496096D01*
X213918913Y-40486658D01*
X214055495Y-40430084D01*
X214178416Y-40347951D01*
X214282951Y-40243416D01*
X214365084Y-40120495D01*
X214421658Y-39983913D01*
X214450500Y-39838918D01*
X214450500Y-39041082D01*
X214450500Y-39041079D01*
X214421659Y-38896092D01*
X214421658Y-38896091D01*
X214421658Y-38896087D01*
X214421656Y-38896082D01*
X214365087Y-38759511D01*
X214365080Y-38759498D01*
X214287166Y-38642891D01*
X214266288Y-38576213D01*
X214284773Y-38508833D01*
X214336752Y-38462143D01*
X214390268Y-38450000D01*
X227895500Y-38450000D01*
X227962539Y-38469685D01*
X228008294Y-38522489D01*
X228019500Y-38574000D01*
X228019500Y-81525500D01*
X227999815Y-81592539D01*
X227947011Y-81638294D01*
X227895500Y-81649500D01*
X163764500Y-81649500D01*
X163697461Y-81629815D01*
X163651706Y-81577011D01*
X163640500Y-81525500D01*
X163640500Y-74570400D01*
X165749685Y-74570400D01*
X165750885Y-74577984D01*
X165804391Y-74742655D01*
X165882995Y-74896924D01*
X165984767Y-75037002D01*
X166107197Y-75159432D01*
X166247275Y-75261204D01*
X166350851Y-75313979D01*
X166401647Y-75361954D01*
X166418442Y-75429775D01*
X166395904Y-75495910D01*
X166341189Y-75539361D01*
X166335512Y-75541505D01*
X166260917Y-75567607D01*
X166151650Y-75648250D01*
X166071007Y-75757517D01*
X166071006Y-75757519D01*
X166026153Y-75885698D01*
X166026153Y-75885700D01*
X166023300Y-75916130D01*
X166023300Y-76724669D01*
X166026153Y-76755099D01*
X166026153Y-76755101D01*
X166066630Y-76870774D01*
X166071007Y-76883282D01*
X166151650Y-76992550D01*
X166260918Y-77073193D01*
X166303645Y-77088144D01*
X166389099Y-77118046D01*
X166419530Y-77120900D01*
X166419534Y-77120900D01*
X167778070Y-77120900D01*
X167808499Y-77118046D01*
X167808501Y-77118046D01*
X167872590Y-77095619D01*
X167936682Y-77073193D01*
X168045950Y-76992550D01*
X168126593Y-76883282D01*
X168149019Y-76819190D01*
X168171446Y-76755101D01*
X168171446Y-76755099D01*
X168174300Y-76724669D01*
X168174300Y-75916130D01*
X168171446Y-75885700D01*
X168171446Y-75885698D01*
X168126593Y-75757519D01*
X168126592Y-75757517D01*
X168045950Y-75648250D01*
X167936682Y-75567607D01*
X167936680Y-75567606D01*
X167862088Y-75541505D01*
X167805312Y-75500783D01*
X167779565Y-75435830D01*
X167793022Y-75367269D01*
X167841409Y-75316866D01*
X167846748Y-75313979D01*
X167950324Y-75261204D01*
X168090402Y-75159432D01*
X168212832Y-75037002D01*
X168314604Y-74896924D01*
X168393208Y-74742655D01*
X168446714Y-74577984D01*
X168447915Y-74570400D01*
X167265788Y-74570400D01*
X167283005Y-74560460D01*
X167338860Y-74504605D01*
X167378356Y-74436196D01*
X167398800Y-74359896D01*
X167398800Y-74280904D01*
X167378356Y-74204604D01*
X167338860Y-74136195D01*
X167283005Y-74080340D01*
X167214596Y-74040844D01*
X167138296Y-74020400D01*
X167059304Y-74020400D01*
X166983004Y-74040844D01*
X166914595Y-74080340D01*
X166858740Y-74136195D01*
X166819244Y-74204604D01*
X166798800Y-74280904D01*
X166798800Y-74359896D01*
X166819244Y-74436196D01*
X166858740Y-74504605D01*
X166914595Y-74560460D01*
X166931812Y-74570400D01*
X165749685Y-74570400D01*
X163640500Y-74570400D01*
X163640500Y-74070399D01*
X165749684Y-74070399D01*
X165749685Y-74070400D01*
X166848800Y-74070400D01*
X166848800Y-73220400D01*
X166737229Y-73220400D01*
X166566215Y-73247485D01*
X166401542Y-73300991D01*
X166247275Y-73379595D01*
X166107197Y-73481367D01*
X165984767Y-73603797D01*
X165882995Y-73743875D01*
X165804391Y-73898144D01*
X165750885Y-74062815D01*
X165749684Y-74070399D01*
X163640500Y-74070399D01*
X163640500Y-38572793D01*
X163660185Y-38505754D01*
X163712989Y-38459999D01*
X163764063Y-38448794D01*
X183275472Y-38380436D01*
X183342580Y-38399885D01*
G37*
G04 #@! TD.AperFunction*
G04 #@! TA.AperFunction,Conductor*
G36*
X168271703Y-69471329D02*
G01*
X172948181Y-74147806D01*
X172981666Y-74209129D01*
X172984500Y-74235487D01*
X172984500Y-76742852D01*
X173006682Y-76825640D01*
X173028108Y-76862750D01*
X173049535Y-76899862D01*
X173049537Y-76899864D01*
X176647492Y-80497819D01*
X176680977Y-80559142D01*
X176675993Y-80628834D01*
X176634121Y-80684767D01*
X176568657Y-80709184D01*
X176559811Y-80709500D01*
X176341189Y-80709500D01*
X176274150Y-80689815D01*
X176253508Y-80673181D01*
X166435234Y-70854907D01*
X166401749Y-70793584D01*
X166406733Y-70723892D01*
X166447430Y-70668849D01*
X166475600Y-70647233D01*
X166475600Y-69749612D01*
X166532607Y-69782525D01*
X166659774Y-69816600D01*
X166791426Y-69816600D01*
X166918593Y-69782525D01*
X166975600Y-69749612D01*
X166975600Y-70647233D01*
X167189083Y-70590033D01*
X167189092Y-70590029D01*
X167403178Y-70490200D01*
X167596682Y-70354705D01*
X167763705Y-70187682D01*
X167899200Y-69994178D01*
X167999029Y-69780092D01*
X167999033Y-69780083D01*
X168060167Y-69551926D01*
X168060169Y-69551915D01*
X168060494Y-69548205D01*
X168061094Y-69546670D01*
X168061108Y-69546592D01*
X168061123Y-69546594D01*
X168085945Y-69483136D01*
X168142535Y-69442156D01*
X168212297Y-69438277D01*
X168271703Y-69471329D01*
G37*
G04 #@! TD.AperFunction*
G04 #@! TA.AperFunction,Conductor*
G36*
X212925909Y-79727114D02*
G01*
X212962634Y-79748318D01*
X213045420Y-79770500D01*
X223976207Y-79770500D01*
X224043246Y-79790185D01*
X224089001Y-79842989D01*
X224098945Y-79912147D01*
X224069920Y-79975703D01*
X224063888Y-79982181D01*
X223372888Y-80673181D01*
X223311565Y-80706666D01*
X223285207Y-80709500D01*
X209320189Y-80709500D01*
X209253150Y-80689815D01*
X209207395Y-80637011D01*
X209197451Y-80567853D01*
X209226476Y-80504297D01*
X209232508Y-80497819D01*
X209983508Y-79746819D01*
X210044831Y-79713334D01*
X210071189Y-79710500D01*
X212863907Y-79710500D01*
X212925909Y-79727114D01*
G37*
G04 #@! TD.AperFunction*
G04 #@! TA.AperFunction,Conductor*
G36*
X182160075Y-76743607D02*
G01*
X182126000Y-76870774D01*
X182126000Y-77002426D01*
X182160075Y-77129593D01*
X182192988Y-77186600D01*
X180519012Y-77186600D01*
X180551925Y-77129593D01*
X180586000Y-77002426D01*
X180586000Y-76870774D01*
X180551925Y-76743607D01*
X180519012Y-76686600D01*
X182192988Y-76686600D01*
X182160075Y-76743607D01*
G37*
G04 #@! TD.AperFunction*
G04 #@! TA.AperFunction,Conductor*
G36*
X184700075Y-76743607D02*
G01*
X184666000Y-76870774D01*
X184666000Y-77002426D01*
X184700075Y-77129593D01*
X184732988Y-77186600D01*
X183059012Y-77186600D01*
X183091925Y-77129593D01*
X183126000Y-77002426D01*
X183126000Y-76870774D01*
X183091925Y-76743607D01*
X183059012Y-76686600D01*
X184732988Y-76686600D01*
X184700075Y-76743607D01*
G37*
G04 #@! TD.AperFunction*
G04 #@! TA.AperFunction,Conductor*
G36*
X187240075Y-76743607D02*
G01*
X187206000Y-76870774D01*
X187206000Y-77002426D01*
X187240075Y-77129593D01*
X187272988Y-77186600D01*
X185599012Y-77186600D01*
X185631925Y-77129593D01*
X185666000Y-77002426D01*
X185666000Y-76870774D01*
X185631925Y-76743607D01*
X185599012Y-76686600D01*
X187272988Y-76686600D01*
X187240075Y-76743607D01*
G37*
G04 #@! TD.AperFunction*
G04 #@! TA.AperFunction,Conductor*
G36*
X189780075Y-76743607D02*
G01*
X189746000Y-76870774D01*
X189746000Y-77002426D01*
X189780075Y-77129593D01*
X189812988Y-77186600D01*
X188139012Y-77186600D01*
X188171925Y-77129593D01*
X188206000Y-77002426D01*
X188206000Y-76870774D01*
X188171925Y-76743607D01*
X188139012Y-76686600D01*
X189812988Y-76686600D01*
X189780075Y-76743607D01*
G37*
G04 #@! TD.AperFunction*
G04 #@! TA.AperFunction,Conductor*
G36*
X192320075Y-76743607D02*
G01*
X192286000Y-76870774D01*
X192286000Y-77002426D01*
X192320075Y-77129593D01*
X192352988Y-77186600D01*
X190679012Y-77186600D01*
X190711925Y-77129593D01*
X190746000Y-77002426D01*
X190746000Y-76870774D01*
X190711925Y-76743607D01*
X190679012Y-76686600D01*
X192352988Y-76686600D01*
X192320075Y-76743607D01*
G37*
G04 #@! TD.AperFunction*
G04 #@! TA.AperFunction,Conductor*
G36*
X194860075Y-76743607D02*
G01*
X194826000Y-76870774D01*
X194826000Y-77002426D01*
X194860075Y-77129593D01*
X194892988Y-77186600D01*
X193219012Y-77186600D01*
X193251925Y-77129593D01*
X193286000Y-77002426D01*
X193286000Y-76870774D01*
X193251925Y-76743607D01*
X193219012Y-76686600D01*
X194892988Y-76686600D01*
X194860075Y-76743607D01*
G37*
G04 #@! TD.AperFunction*
G04 #@! TA.AperFunction,Conductor*
G36*
X197400075Y-76743607D02*
G01*
X197366000Y-76870774D01*
X197366000Y-77002426D01*
X197400075Y-77129593D01*
X197432988Y-77186600D01*
X195759012Y-77186600D01*
X195791925Y-77129593D01*
X195826000Y-77002426D01*
X195826000Y-76870774D01*
X195791925Y-76743607D01*
X195759012Y-76686600D01*
X197432988Y-76686600D01*
X197400075Y-76743607D01*
G37*
G04 #@! TD.AperFunction*
G04 #@! TA.AperFunction,Conductor*
G36*
X199940075Y-76743607D02*
G01*
X199906000Y-76870774D01*
X199906000Y-77002426D01*
X199940075Y-77129593D01*
X199972988Y-77186600D01*
X198299012Y-77186600D01*
X198331925Y-77129593D01*
X198366000Y-77002426D01*
X198366000Y-76870774D01*
X198331925Y-76743607D01*
X198299012Y-76686600D01*
X199972988Y-76686600D01*
X199940075Y-76743607D01*
G37*
G04 #@! TD.AperFunction*
G04 #@! TA.AperFunction,Conductor*
G36*
X202480075Y-76743607D02*
G01*
X202446000Y-76870774D01*
X202446000Y-77002426D01*
X202480075Y-77129593D01*
X202512988Y-77186600D01*
X200839012Y-77186600D01*
X200871925Y-77129593D01*
X200906000Y-77002426D01*
X200906000Y-76870774D01*
X200871925Y-76743607D01*
X200839012Y-76686600D01*
X202512988Y-76686600D01*
X202480075Y-76743607D01*
G37*
G04 #@! TD.AperFunction*
G04 #@! TA.AperFunction,Conductor*
G36*
X169400903Y-63816676D02*
G01*
X169407381Y-63822708D01*
X170107138Y-64522465D01*
X170181361Y-64565318D01*
X170264147Y-64587500D01*
X170349853Y-64587500D01*
X175304503Y-64587500D01*
X175371542Y-64607185D01*
X175392184Y-64623819D01*
X176422181Y-65653815D01*
X176455666Y-65715138D01*
X176458500Y-65741496D01*
X176458500Y-70070652D01*
X176480682Y-70153440D01*
X176495455Y-70179027D01*
X176523535Y-70227662D01*
X176523537Y-70227664D01*
X177630292Y-71334419D01*
X177663777Y-71395742D01*
X177658793Y-71465434D01*
X177616921Y-71521367D01*
X177551457Y-71545784D01*
X177542611Y-71546100D01*
X175819581Y-71546100D01*
X175752542Y-71526415D01*
X175731900Y-71509781D01*
X171327700Y-67105581D01*
X171294215Y-67044258D01*
X171299199Y-66974566D01*
X171341071Y-66918633D01*
X171406535Y-66894216D01*
X171415381Y-66893900D01*
X171950393Y-66893900D01*
X171950400Y-66893900D01*
X171967887Y-66893155D01*
X172054995Y-66865290D01*
X172054996Y-66865288D01*
X172061463Y-66863220D01*
X172131312Y-66861542D01*
X172153047Y-66869605D01*
X172161235Y-66873547D01*
X172161237Y-66873549D01*
X172236603Y-66890751D01*
X172250395Y-66893899D01*
X172250400Y-66893900D01*
X174650396Y-66893900D01*
X174650400Y-66893900D01*
X174723485Y-66880465D01*
X174799581Y-66829734D01*
X174846130Y-66751010D01*
X174853912Y-66659886D01*
X174821386Y-66574409D01*
X174536770Y-66147485D01*
X174443235Y-66007182D01*
X174422427Y-65940483D01*
X174440982Y-65873122D01*
X174443208Y-65869657D01*
X174821386Y-65302391D01*
X174850748Y-65234128D01*
X174850748Y-65142672D01*
X174811066Y-65060273D01*
X174739563Y-65003251D01*
X174650404Y-64982900D01*
X174650400Y-64982900D01*
X172250400Y-64982900D01*
X172191932Y-64993648D01*
X172177314Y-64996335D01*
X172177311Y-64996336D01*
X172172368Y-64999632D01*
X172105668Y-65020438D01*
X172049789Y-65008175D01*
X172039565Y-65003251D01*
X171950404Y-64982900D01*
X171950400Y-64982900D01*
X170950400Y-64982900D01*
X170950395Y-64982900D01*
X170904671Y-64988051D01*
X170822273Y-65027733D01*
X170765251Y-65099236D01*
X170744900Y-65188395D01*
X170744900Y-66223419D01*
X170725215Y-66290458D01*
X170672411Y-66336213D01*
X170603253Y-66346157D01*
X170539697Y-66317132D01*
X170533219Y-66311100D01*
X169232019Y-65009900D01*
X169198534Y-64948577D01*
X169195700Y-64922219D01*
X169195700Y-63910389D01*
X169215385Y-63843350D01*
X169268189Y-63797595D01*
X169337347Y-63787651D01*
X169400903Y-63816676D01*
G37*
G04 #@! TD.AperFunction*
G04 #@! TA.AperFunction,Conductor*
G36*
X212376006Y-47650185D02*
G01*
X212396648Y-47666819D01*
X213607765Y-48877936D01*
X213641250Y-48939259D01*
X213643180Y-48980563D01*
X213625522Y-49125999D01*
X213625522Y-49126000D01*
X213644562Y-49282817D01*
X213652390Y-49303456D01*
X213691860Y-49407530D01*
X213697227Y-49477192D01*
X213664080Y-49538698D01*
X213602942Y-49572519D01*
X213575918Y-49575500D01*
X211308804Y-49575500D01*
X211241765Y-49555815D01*
X211221123Y-49539181D01*
X210632127Y-48950185D01*
X210026478Y-48344535D01*
X209989366Y-48323108D01*
X209952256Y-48301682D01*
X209903043Y-48288496D01*
X209869469Y-48279500D01*
X209869468Y-48279500D01*
X203335465Y-48279500D01*
X203335449Y-48279499D01*
X203327853Y-48279499D01*
X203242147Y-48279499D01*
X203209033Y-48288372D01*
X203159359Y-48301682D01*
X203159358Y-48301683D01*
X203085141Y-48344532D01*
X203085136Y-48344536D01*
X203036389Y-48393284D01*
X203024535Y-48405138D01*
X203024533Y-48405140D01*
X202796007Y-48633665D01*
X202758952Y-48670720D01*
X202697629Y-48704204D01*
X202641598Y-48703435D01*
X202585059Y-48689500D01*
X202585056Y-48689500D01*
X202414944Y-48689500D01*
X202249773Y-48730210D01*
X202099150Y-48809263D01*
X201971816Y-48922072D01*
X201875182Y-49062068D01*
X201814860Y-49221125D01*
X201814859Y-49221130D01*
X201794355Y-49390000D01*
X201814859Y-49558869D01*
X201814860Y-49558874D01*
X201875182Y-49717931D01*
X201927001Y-49793002D01*
X201971817Y-49857929D01*
X202084346Y-49957621D01*
X202121473Y-50016810D01*
X202120705Y-50086675D01*
X202084348Y-50143250D01*
X202051817Y-50172070D01*
X201955182Y-50312068D01*
X201894860Y-50471125D01*
X201894859Y-50471130D01*
X201874355Y-50640000D01*
X201894859Y-50808869D01*
X201894860Y-50808874D01*
X201955182Y-50967931D01*
X202012455Y-51050904D01*
X202051817Y-51107929D01*
X202144725Y-51190238D01*
X202181850Y-51249425D01*
X202181083Y-51319291D01*
X202144724Y-51375867D01*
X202023718Y-51483068D01*
X201933981Y-51613075D01*
X201933980Y-51613076D01*
X201877962Y-51760781D01*
X201858922Y-51917599D01*
X201858922Y-51917600D01*
X201870002Y-52008857D01*
X201858541Y-52077780D01*
X201834587Y-52111484D01*
X201136137Y-52809935D01*
X201136135Y-52809938D01*
X201093402Y-52883954D01*
X201093282Y-52884161D01*
X201075882Y-52949100D01*
X201075882Y-52949101D01*
X201075881Y-52949100D01*
X201071100Y-52966942D01*
X201071100Y-52966947D01*
X201071100Y-53474947D01*
X201071100Y-53560653D01*
X201072984Y-53567685D01*
X201093282Y-53643440D01*
X201105863Y-53665230D01*
X201136135Y-53717662D01*
X202394488Y-54976015D01*
X203632781Y-56214307D01*
X203666266Y-56275630D01*
X203669100Y-56301988D01*
X203669100Y-70635942D01*
X203649415Y-70702981D01*
X203596611Y-70748736D01*
X203527453Y-70758680D01*
X203463897Y-70729655D01*
X203443050Y-70706382D01*
X203428593Y-70685438D01*
X203411083Y-70660070D01*
X203313996Y-70574059D01*
X203292837Y-70555314D01*
X203263905Y-70540130D01*
X203214144Y-70492333D01*
X203206468Y-70479038D01*
X203206467Y-70479037D01*
X203206465Y-70479033D01*
X203145862Y-70418430D01*
X198329167Y-65601735D01*
X198278349Y-65572395D01*
X198254945Y-65558882D01*
X198207975Y-65546297D01*
X198172158Y-65536700D01*
X198172157Y-65536700D01*
X196339618Y-65536700D01*
X196272579Y-65517015D01*
X196237568Y-65483140D01*
X196146682Y-65351468D01*
X196095037Y-65305716D01*
X196057910Y-65246527D01*
X196058676Y-65176661D01*
X196097094Y-65118301D01*
X196160964Y-65089976D01*
X196177263Y-65088900D01*
X202065724Y-65088900D01*
X202132763Y-65108585D01*
X202147950Y-65120084D01*
X202218159Y-65182282D01*
X202218161Y-65182284D01*
X202358034Y-65255696D01*
X202511414Y-65293500D01*
X202511415Y-65293500D01*
X202669385Y-65293500D01*
X202822765Y-65255696D01*
X202856632Y-65237921D01*
X202962640Y-65182283D01*
X203080883Y-65077530D01*
X203170620Y-64947523D01*
X203226637Y-64799818D01*
X203245678Y-64643000D01*
X203231043Y-64522464D01*
X203226637Y-64486181D01*
X203199100Y-64413574D01*
X203170620Y-64338477D01*
X203080883Y-64208470D01*
X202962640Y-64103717D01*
X202962638Y-64103716D01*
X202962637Y-64103715D01*
X202822765Y-64030303D01*
X202669386Y-63992500D01*
X202669385Y-63992500D01*
X202511415Y-63992500D01*
X202511414Y-63992500D01*
X202358034Y-64030303D01*
X202218162Y-64103715D01*
X202099916Y-64208471D01*
X202010181Y-64338474D01*
X202010180Y-64338477D01*
X202002823Y-64357873D01*
X201960647Y-64413574D01*
X201895049Y-64437631D01*
X201886883Y-64437900D01*
X186256853Y-64437900D01*
X186171147Y-64437900D01*
X186088361Y-64460082D01*
X186088360Y-64460082D01*
X186088358Y-64460083D01*
X186077137Y-64466562D01*
X186077136Y-64466562D01*
X186014137Y-64502935D01*
X185953533Y-64563540D01*
X185953532Y-64563541D01*
X185916474Y-64600598D01*
X185855150Y-64634083D01*
X185785459Y-64629097D01*
X185729526Y-64587225D01*
X185705698Y-64527863D01*
X185700637Y-64486182D01*
X185690739Y-64460083D01*
X185672188Y-64411170D01*
X185666822Y-64341508D01*
X185699969Y-64280002D01*
X185700205Y-64279764D01*
X189165660Y-60814311D01*
X189192016Y-60768660D01*
X189205221Y-60745789D01*
X189225700Y-60669362D01*
X189225700Y-55688038D01*
X189214892Y-55647703D01*
X189205222Y-55611612D01*
X189165660Y-55543089D01*
X184334419Y-50711848D01*
X184300934Y-50650525D01*
X184298100Y-50624167D01*
X184298100Y-48206862D01*
X184317785Y-48139823D01*
X184334419Y-48119181D01*
X184786781Y-47666819D01*
X184848104Y-47633334D01*
X184874462Y-47630500D01*
X212308967Y-47630500D01*
X212376006Y-47650185D01*
G37*
G04 #@! TD.AperFunction*
G04 #@! TA.AperFunction,Conductor*
G36*
X209707466Y-48950185D02*
G01*
X209728108Y-48966819D01*
X210857810Y-50096520D01*
X210857820Y-50096531D01*
X210862150Y-50100861D01*
X210862151Y-50100862D01*
X210919109Y-50157820D01*
X210952593Y-50219141D01*
X210947609Y-50288833D01*
X210905738Y-50344767D01*
X210840274Y-50369184D01*
X210831427Y-50369500D01*
X203309539Y-50369500D01*
X203242500Y-50349815D01*
X203207489Y-50315940D01*
X203204818Y-50312070D01*
X203108183Y-50172071D01*
X202995652Y-50072377D01*
X202958526Y-50013189D01*
X202959294Y-49943324D01*
X202995654Y-49886747D01*
X203028182Y-49857930D01*
X203043115Y-49836297D01*
X203124818Y-49717930D01*
X203185140Y-49558872D01*
X203205645Y-49390000D01*
X203186360Y-49231176D01*
X203197820Y-49162253D01*
X203221769Y-49128555D01*
X203383508Y-48966816D01*
X203444831Y-48933334D01*
X203471188Y-48930500D01*
X209640427Y-48930500D01*
X209707466Y-48950185D01*
G37*
G04 #@! TD.AperFunction*
G04 #@! TD*
M02*
